<svg width="65" height="65" viewBox="0 0 65 65" fill="none" xmlns="http://www.w3.org/2000/svg">
<path d="M8.12482 58.4062C8.12221 58.4062 8.1196 58.4062 8.117 58.4062C8.117 58.4036 8.11701 58.401 8.11701 58.3984V11.1719C8.11701 10.6081 8.57667 10.1484 9.14045 10.1484H45.7029C46.2667 10.1484 46.7264 10.6081 46.7264 11.1719V58.3984C46.7264 58.4279 46.7252 58.4514 46.7235 58.47C46.64 58.4744 46.5258 58.4653 46.3445 58.4474L46.3163 58.4446C46.1438 58.4275 45.9295 58.4062 45.7029 58.4062H8.12482ZM46.7845 58.4623C46.7845 58.4624 46.7841 58.4625 46.7831 58.4628L46.7845 58.4623Z" fill="#3B548E" stroke="#A1C887"/>
<path d="M21.3281 55.8594L11.1719 45.7031V13.2031H43.6719V55.8594H21.3281Z" fill="white"/>
<path d="M32.5 56.875H21.3281V45.7031L32.5 56.875Z" fill="#ECEFF1"/>
<path d="M11.3823 46.4211H20.8205V55.8594L11.3823 46.4211Z" fill="#B4C9FD"/>
<path d="M38.6189 12.8558C38.4097 12.2291 37.4489 11.6797 36.5623 11.6797H31.992V9.64844H31.1165L30.9652 9.47172C30.7082 9.17414 30.4879 8.96797 30.305 8.79734C29.8531 8.37586 29.4956 8.04172 29.4529 7.10938C29.4529 5.98914 28.5419 5.07812 27.4217 5.07812C26.3014 5.07812 25.3904 5.98914 25.3854 7.03828L25.3945 7.10023L25.3914 7.15305C25.3478 8.04172 24.9903 8.37484 24.5393 8.79734C24.3555 8.96797 24.1361 9.17414 23.8792 9.47172L23.7268 9.64844H22.8514V11.6797H18.2811C17.3944 11.6797 16.4336 12.2291 16.2244 12.8558C16.0609 13.3463 15.9116 14.172 15.8232 14.7266H38.9907L38.6189 12.8558ZM27.4217 9.14062C26.2994 9.14062 25.3904 8.23062 25.3904 7.10938C25.3904 5.98813 26.2994 5.07812 27.4217 5.07812C28.5439 5.07812 29.4529 5.98813 29.4529 7.10938C29.4529 8.23062 28.5439 9.14062 27.4217 9.14062Z" fill="#ECEFF1"/>
<path d="M22.3438 9.14063V11.1719H18.2813C17.3987 11.1719 16.513 11.5974 16.0357 12.1875H10.1562V45.7031L21.3281 56.875H44.6875V12.1875H38.808C38.3307 11.5974 37.4451 11.1719 36.5625 11.1719H32.5V9.14063H31.3493C30.4809 8.13211 30.0087 8.12297 29.9589 7.12867C29.9589 7.12258 29.9609 7.11547 29.9609 7.10938C29.9609 5.70984 28.8224 4.57031 27.4219 4.57031C26.1666 4.57031 25.1286 5.48844 24.9255 6.68586C24.9031 6.825 24.8828 6.96414 24.8828 7.10938C24.8828 7.11547 24.8848 7.12258 24.8848 7.12867C24.8351 8.12297 24.3628 8.13211 23.4945 9.14063H22.3438ZM20.3125 54.4233L12.608 46.7188H20.3125V54.4233ZM39.2031 13.2031H43.6719V55.8594H21.3281V45.7031H11.1719V13.2031H15.602C15.3898 14.0806 15.2344 15.2344 15.2344 15.2344H39.6094L39.2031 13.2031ZM25.9005 7.09414C25.9005 7.03523 25.9106 6.97836 25.9177 6.92148C25.9248 6.87375 25.9269 6.82602 25.938 6.7793H25.937C26.0894 6.09781 26.6957 5.58594 27.4219 5.58594C28.2476 5.58594 28.9169 6.24508 28.9412 7.06469L28.9392 7.07281L28.9423 7.13781C28.926 7.96453 28.2516 8.63281 27.4219 8.63281C26.5891 8.63281 25.9106 7.95945 25.9005 7.12867V7.09414ZM23.3594 10.1563H23.9596L24.2643 9.80383C24.4999 9.52961 24.7061 9.33766 24.8859 9.16906C25.0636 9.00352 25.2423 8.83594 25.4008 8.62977C25.8649 9.24422 26.5941 9.64844 27.4219 9.64844C28.2486 9.64844 28.9788 9.24523 29.442 8.63078C29.5994 8.83492 29.7802 9.0025 29.9579 9.16906C30.1387 9.33867 30.3438 9.52961 30.5795 9.80383L30.8841 10.1563H31.4844V12.1875H36.5625C37.311 12.1875 37.9722 12.6466 38.1215 12.9756L38.3703 14.2188H16.4257C16.507 13.7749 16.6065 13.3159 16.705 13.0163C16.8157 12.6872 17.5002 12.1875 18.2813 12.1875H23.3594V10.1563Z" fill="#3B548E"/>
<path d="M45.7031 9.14062H33.5156V10.1562H45.7031C46.2637 10.1562 46.7188 10.6123 46.7188 11.1719V57.8906C46.7188 58.4502 46.2637 58.9062 45.7031 58.9062H9.14062C8.58 58.9062 8.125 58.4502 8.125 57.8906V11.1719C8.125 10.6123 8.58 10.1562 9.14062 10.1562H21.3281V9.14062H9.14062C8.02344 9.14062 7.10938 10.0547 7.10938 11.1719V57.8906C7.10938 59.0078 8.02344 59.9219 9.14062 59.9219H45.7031C46.8203 59.9219 47.7344 59.0078 47.7344 57.8906V11.1719C47.7344 10.0547 46.8203 9.14062 45.7031 9.14062Z" fill="#3B548E"/>
<path d="M55.964 9.51336L49.7656 9.14062V50.7102V50.7812H55.8594V12.1875H56.875V29.4531L57.8906 30.4688V12.1875C57.8906 11.0663 57.0273 9.86883 55.964 9.51336Z" fill="#37474F"/>
<path d="M55.7324 10.3817L49.8926 9.07764V49.7605V49.8296H55.7324V10.3817Z" fill="white"/>
<path d="M51.7969 10.1562V50.7812H55.4156L55.506 10.985L51.7969 10.1562Z" fill="#B4C9FD"/>
<path d="M55.8594 28.4375H49.7656V29.4531H55.8594V28.4375Z" fill="#37474F"/>
<path d="M50.7812 9.3925L54.8438 10.3005V12.1875V31.4844V49.7656H50.7812V9.3925ZM49.7656 8.125V50.7102V50.7812H55.8594V31.4844V12.1875V9.48594L49.7656 8.125Z" fill="#37474F"/>
<path d="M50.2734 50.699V50.2734H55.3516V50.699L52.8125 58.3162L50.2734 50.699Z" fill="#F0F2F4"/>
<path d="M54.7879 50.7812L52.8125 56.7105L50.8371 50.7812H54.7879ZM55.8594 49.7656H49.7656V50.7812L52.8125 59.9219L55.8594 50.7812V49.7656Z" fill="#37474F"/>
<path d="M35.0391 25.8984C37.2827 25.8984 39.1016 24.0796 39.1016 21.8359C39.1016 19.5923 37.2827 17.7734 35.0391 17.7734C32.7954 17.7734 30.9766 19.5923 30.9766 21.8359C30.9766 24.0796 32.7954 25.8984 35.0391 25.8984Z" fill="#A1C887"/>
<path d="M35.0391 26.4062C32.5193 26.4062 30.4688 24.3557 30.4688 21.8359C30.4688 19.3162 32.5193 17.2656 35.0391 17.2656C37.5588 17.2656 39.6094 19.3162 39.6094 21.8359C39.6094 24.3557 37.5588 26.4062 35.0391 26.4062ZM35.0391 18.2812C33.0789 18.2812 31.4844 19.8758 31.4844 21.8359C31.4844 23.7961 33.0789 25.3906 35.0391 25.3906C36.9992 25.3906 38.5938 23.7961 38.5938 21.8359C38.5938 19.8758 36.9992 18.2812 35.0391 18.2812Z" fill="#37474F"/>
<path d="M35.5469 19.2969H34.5312V24.375H35.5469V19.2969Z" fill="#37474F"/>
<path d="M37.5781 21.3281H32.5V22.3438H37.5781V21.3281Z" fill="#37474F"/>
<path d="M40.625 31.4844H23.3594V32.5H40.625V31.4844Z" fill="#37474F"/>
<path d="M40.625 28.4375H23.3594V29.4531H40.625V28.4375Z" fill="#37474F"/>
<path d="M20.3125 39.0782V43.6719H14.2188V37.5781H17.9857L18.5666 36.5625H13.2031V44.6875H21.3281V37.3039L20.3125 39.0782Z" fill="#37474F"/>
<path d="M17.2993 42.6065L14.812 38.8751L15.657 38.3124L17.2322 40.6748L20.8875 34.2794L21.769 34.7831L17.2993 42.6065Z" fill="#3B548E"/>
<path d="M20.3125 26.8907V31.4844H14.2188V25.3906H17.9857L18.5666 24.375H13.2031V32.5H21.3281V25.1164L20.3125 26.8907Z" fill="#37474F"/>
<path d="M17.2993 30.419L14.812 26.6876L15.657 26.1249L17.2322 28.4873L20.8875 22.0919L21.769 22.5956L17.2993 30.419Z" fill="#3B548E"/>
<path d="M40.625 43.6719H23.3594V44.6875H40.625V43.6719Z" fill="#37474F"/>
<path d="M40.625 40.625H23.3594V41.6406H40.625V40.625Z" fill="#37474F"/>
</svg>
