<svg width="50" height="50" viewBox="0 0 50 50" fill="none" xmlns="http://www.w3.org/2000/svg">
<circle cx="25" cy="25" r="25" fill="#B1BBD2"/>
<path d="M22.2031 16.25L21.9844 16.0313C21.7344 15.7813 21.3906 15.6406 21.0313 15.6406H16.9688C16.2188 15.6406 15.625 16.25 15.625 16.9844V31C15.625 31.75 16.2344 32.3438 16.9688 32.3438H33.0156C33.7656 32.3438 34.3594 31.7344 34.3594 31V17.9844C34.3594 17.2344 33.75 16.6406 33.0156 16.6406H23.1563C22.7969 16.6406 22.4531 16.5 22.2031 16.25Z" fill="white"/>
<path d="M33.0313 32.5469H16.9688C16.125 32.5469 15.4219 31.8594 15.4219 31V16.9844C15.4219 16.1406 16.1094 15.4375 16.9688 15.4375H21.0313C21.4375 15.4375 21.8281 15.5938 22.125 15.8906L22.3281 16.0938C22.5469 16.3125 22.8281 16.4375 23.1406 16.4375H33.0156C33.8594 16.4375 34.5625 17.125 34.5625 17.9844V31C34.5625 31.8594 33.875 32.5469 33.0313 32.5469ZM16.9688 15.8438C16.3281 15.8438 15.8125 16.3594 15.8125 17V31.0156C15.8125 31.6563 16.3281 32.1719 16.9688 32.1719H33.0156C33.6563 32.1719 34.1719 31.6563 34.1719 31.0156V17.9844C34.1719 17.3438 33.6563 16.8281 33.0156 16.8281H23.1563C22.75 16.8281 22.3594 16.6719 22.0625 16.375L21.8594 16.1719C21.6406 15.9531 21.3594 15.8281 21.0469 15.8281H16.9688V15.8438Z" fill="#EFEFEF"/>
<path d="M18.4375 27.9531C17.4688 27.9531 16.6719 27.1719 16.6719 26.1875V19.625C16.6719 18.6562 17.4531 17.8594 18.4375 17.8594H31.5625C32.5313 17.8594 33.3281 18.6406 33.3281 19.625V26.2031C33.3281 27.1719 32.5469 27.9688 31.5625 27.9688H18.4375V27.9531Z" fill="white"/>
<path opacity="0.2" d="M18.4375 27.9531C17.4688 27.9531 16.6719 27.1719 16.6719 26.1875V19.625C16.6719 18.6562 17.4531 17.8594 18.4375 17.8594H31.5625C32.5313 17.8594 33.3281 18.6406 33.3281 19.625V26.2031C33.3281 27.1719 32.5469 27.9688 31.5625 27.9688H18.4375V27.9531Z" fill="#EFEFEF"/>
<path d="M31.5625 28.1562H18.4375C17.3594 28.1562 16.4844 27.2812 16.4844 26.2031V19.625C16.4844 18.5469 17.3594 17.6719 18.4375 17.6719H31.5625C32.6406 17.6719 33.5156 18.5469 33.5156 19.625V26.2031C33.5156 27.2812 32.6406 28.1562 31.5625 28.1562ZM18.4375 18.0625C17.5781 18.0625 16.875 18.7656 16.875 19.625V26.2031C16.875 27.0625 17.5781 27.7656 18.4375 27.7656H31.5625C32.4219 27.7656 33.125 27.0625 33.125 26.2031V19.625C33.125 18.7656 32.4219 18.0625 31.5625 18.0625H18.4375Z" fill="#EFEFEF"/>
<path d="M18.4375 29.0156C17.4688 29.0156 16.6719 28.2344 16.6719 27.25V20.6875C16.6719 19.7187 17.4531 18.9219 18.4375 18.9219H31.5625C32.5313 18.9219 33.3281 19.7031 33.3281 20.6875V27.2656C33.3281 28.2344 32.5469 29.0312 31.5625 29.0312H18.4375V29.0156Z" fill="white"/>
<path d="M31.5625 29.2031H18.4375C17.3594 29.2031 16.4844 28.3281 16.4844 27.25V20.6875C16.4844 19.6094 17.3594 18.7344 18.4375 18.7344H31.5625C32.6406 18.7344 33.5156 19.6094 33.5156 20.6875V27.2656C33.5156 28.3281 32.6406 29.2031 31.5625 29.2031ZM18.4375 19.125C17.5781 19.125 16.875 19.8281 16.875 20.6875V27.2656C16.875 28.125 17.5781 28.8281 18.4375 28.8281H31.5625C32.4219 28.8281 33.125 28.125 33.125 27.2656V20.6875C33.125 19.8281 32.4219 19.125 31.5625 19.125H18.4375Z" fill="#EFEFEF"/>
<path d="M15.625 21.9219V31.0156C15.625 31.7656 16.2344 32.3594 16.9688 32.3594H33.0156C33.7656 32.3594 34.3594 31.75 34.3594 31.0156V21.5C34.3594 20.75 33.75 20.1562 33.0156 20.1562H17.3906C16.4063 20.1562 15.625 20.9375 15.625 21.9219Z" fill="white"/>
<path d="M25 30.5625C27.3731 30.5625 29.2969 28.6387 29.2969 26.2656C29.2969 23.8925 27.3731 21.9688 25 21.9688C22.6269 21.9688 20.7031 23.8925 20.7031 26.2656C20.7031 28.6387 22.6269 30.5625 25 30.5625Z" fill="white"/>
<path d="M25 30.75C22.5156 30.75 20.5 28.7344 20.5 26.25C20.5 23.7656 22.5156 21.7812 25 21.7812C27.4844 21.7812 29.5 23.7969 29.5 26.2812C29.5 28.7656 27.4844 30.75 25 30.75ZM25 22.1563C22.7344 22.1563 20.9062 24 20.9062 26.25C20.9062 28.5 22.75 30.3438 25 30.3438C27.25 30.3438 29.0937 28.5312 29.0937 26.2656C29.0937 24 27.2656 22.1563 25 22.1563Z" fill="#EFEFEF"/>
<path d="M28 25.2656H26.1719C26.1094 25.2656 26.0469 25.2031 26.0469 25.1406V23.3125C26.0469 23.25 25.9844 23.1875 25.9219 23.1875H24.0781C24.0156 23.1875 23.9531 23.25 23.9531 23.3125V25.1406C23.9531 25.2031 23.8906 25.2656 23.8281 25.2656H22C21.9375 25.2656 21.875 25.3281 21.875 25.3906V27.2188C21.875 27.2813 21.9375 27.3438 22 27.3438H23.8281C23.8906 27.3438 23.9531 27.4063 23.9531 27.4688V29.3125C23.9531 29.375 24.0156 29.4375 24.0781 29.4375H25.9062C25.9688 29.4375 26.0312 29.375 26.0312 29.3125V27.4844C26.0312 27.4219 26.0938 27.3594 26.1562 27.3594H27.9844C28.0469 27.3594 28.1094 27.2969 28.1094 27.2344V25.3906C28.125 25.3281 28.0625 25.2656 28 25.2656Z" fill="#B1BBD2"/>
<path d="M25.9219 29.625H24.0781C23.9062 29.625 23.7656 29.4844 23.7656 29.2969V27.5469H22C21.8281 27.5469 21.6875 27.4062 21.6875 27.2344V25.3906C21.6875 25.2188 21.8281 25.0625 22 25.0625H23.7656V23.3125C23.7656 23.1406 23.9062 23 24.0781 23H25.9063C26.0781 23 26.2188 23.1406 26.2188 23.3125V25.0781H27.9844C28.1562 25.0781 28.2969 25.2188 28.2969 25.4063V27.2344C28.2969 27.4062 28.1562 27.5469 27.9844 27.5469H26.2344V29.3125C26.2344 29.4844 26.0938 29.625 25.9219 29.625ZM24.1562 29.2344H25.8438V27.4844C25.8438 27.3125 25.9844 27.1562 26.1719 27.1562H27.9375V25.4688H26.1719C26 25.4688 25.8438 25.3281 25.8438 25.1563V23.375H24.1562V25.1406C24.1562 25.3125 24.0156 25.4531 23.8281 25.4531H22.0625V27.1406H23.8281C24 27.1406 24.1562 27.2812 24.1562 27.4688V29.2344Z" fill="#EFEFEF"/>
<path d="M33.0313 32.5469H16.9688C16.125 32.5469 15.4219 31.8594 15.4219 31V21.9219C15.4219 20.8438 16.2969 19.9688 17.375 19.9688H33.0156C33.8594 19.9688 34.5625 20.6563 34.5625 21.5156V31.0156C34.5625 31.8594 33.875 32.5469 33.0313 32.5469ZM17.3906 20.3594C16.5313 20.3594 15.8281 21.0625 15.8281 21.9219V31.0156C15.8281 31.6563 16.3438 32.1719 16.9844 32.1719H33.0313C33.6719 32.1719 34.1875 31.6563 34.1875 31.0156V21.5C34.1875 20.8594 33.6719 20.3437 33.0313 20.3437H17.3906V20.3594Z" fill="#EFEFEF"/>
</svg>
