<?xml version="1.0" encoding="utf-8"?>
<!-- Generator: Adobe Illustrator 25.1.0, SVG Export Plug-In . SVG Version: 6.00 Build 0)  -->
<svg version="1.1" id="Layer_1" xmlns="http://www.w3.org/2000/svg" xmlns:xlink="http://www.w3.org/1999/xlink" x="0px" y="0px"
	 viewBox="0 0 339 285" style="enable-background:new 0 0 339 285;" xml:space="preserve">
<style type="text/css">
	.st0{fill:none;}
	.st1{fill:#6ABF4B;}
	.st2{fill:#385CAD;}
</style>
<g>
	<rect x="154.62" y="83.07" class="st0" width="29.13" height="31.27"/>
	<polygon class="st1" points="83.72,62.73 83.72,134.69 118.42,134.69 118.42,114.34 104.07,114.34 104.07,83.07 134.27,83.07 
		134.27,62.73 	"/>
	<polygon class="st2" points="254,62.73 219.95,62.73 219.94,83.07 233.65,83.07 233.65,114.34 204.1,114.34 204.1,134.69 
		254,134.69 	"/>
	<polygon class="st1" points="204.1,62.73 154.62,62.73 154.62,83.07 183.75,83.07 183.75,114.34 183.75,134.72 183.75,164.89 
		154.62,164.89 154.62,150.54 134.27,150.54 134.27,185.13 204.1,185.13 204.1,134.69 204.1,114.34 	"/>
	<polygon class="st2" points="154.62,114.34 154.62,83.07 154.62,62.73 154.62,33.38 183.75,33.38 183.75,46.75 204.1,46.75 
		204.1,13.03 134.27,13.03 134.27,62.73 134.27,83.07 134.27,134.72 183.75,134.72 183.75,114.34 	"/>
</g>
<g>
	<g>
		<path class="st2" d="M112.57,212.49h-8c-1.1-1.99-3.13-3.04-5.84-3.04c-4.65,0-7.74,3.3-7.74,8.46c0,5.5,3.13,8.72,8.33,8.72
			c3.6,0,6.09-1.9,7.19-5.25h-9.18v-5.33h15.74v6.73c-1.52,5.12-6.47,10.24-14.3,10.24c-8.88,0-15.15-6.22-15.15-15.1
			c0-8.88,6.22-15.14,15.1-15.14C105.85,202.76,111.01,206.4,112.57,212.49z"/>
		<path class="st2" d="M135.3,208.9h-10.96v6.01h9.69v5.58h-9.69V227h10.96v5.8h-18.19v-29.7h18.19V208.9z"/>
		<path class="st2" d="M166.7,217.95c0,8.8-6.09,14.85-15.57,14.85H140v-29.7h11.13C160.61,203.1,166.7,209.11,166.7,217.95z
			 M150.67,226.54c5.46,0,8.67-3.13,8.67-8.59c0-5.46-3.22-8.67-8.67-8.67h-3.43v17.26H150.67z"/>
		<path class="st2" d="M188.96,208.9H178v6.01h9.69v5.58H178V227h10.96v5.8h-18.19v-29.7h18.19V208.9z"/>
		<path class="st2" d="M207.71,233.1c-8.42,0-15.27-6.3-15.27-15.23c0-8.93,6.85-15.19,15.27-15.19c8.46,0,15.19,6.26,15.19,15.19
			C222.9,226.79,216.13,233.1,207.71,233.1z M207.71,226.49c4.74,0,7.83-3.43,7.83-8.63c0-5.29-3.09-8.63-7.83-8.63
			c-4.82,0-7.87,3.34-7.87,8.63C199.84,223.07,202.89,226.49,207.71,226.49z"/>
		<path class="st2" d="M253.49,203.1v29.7h-7.23l-12.1-18.32v18.32h-7.23v-29.7h7.23l12.1,18.4v-18.4H253.49z"/>
		<path class="st1" d="M12,246.59h6.06l8.46,19.77l8.46-19.77H41v26.59h-5.33v-17.3l-7.13,17.3H24.5l-7.16-17.3v17.3H12V246.59z"/>
		<path class="st1" d="M61.67,250.89h-10.1v6.67h8.95v4.23h-8.95v7.05h10.1v4.34H46.24v-26.63h15.43V250.89z"/>
		<path class="st1" d="M89.82,259.92c0,8.04-5.52,13.26-14.02,13.26h-9.3v-26.59h9.3C84.3,246.59,89.82,251.85,89.82,259.92z
			 M75.61,268.65c5.6,0,8.76-3.2,8.76-8.73s-3.16-8.84-8.76-8.84h-3.77v17.57H75.61z"/>
		<path class="st1" d="M93.81,246.59h5.33v26.59h-5.33V246.59z"/>
		<path class="st1" d="M116.59,246.25c5.91,0,10.71,3.16,12.5,8.61h-6.13c-1.26-2.55-3.54-3.81-6.4-3.81c-4.65,0-7.96,3.39-7.96,8.8
			c0,5.37,3.32,8.8,7.96,8.8c2.86,0,5.14-1.26,6.4-3.85h6.13c-1.79,5.49-6.59,8.61-12.5,8.61c-7.66,0-13.49-5.6-13.49-13.57
			C103.1,251.88,108.93,246.25,116.59,246.25z"/>
		<path class="st1" d="M149.96,268.12h-10.59l-1.75,5.07h-5.6l9.56-26.63h6.21l9.56,26.63h-5.64L149.96,268.12z M144.66,252.72
			l-3.85,11.13h7.7L144.66,252.72z"/>
		<path class="st1" d="M166.25,246.59v22.36h8.76v4.23h-14.1v-26.59H166.25z"/>
		<path class="st1" d="M199.66,246.25c5.91,0,10.71,3.16,12.5,8.61h-6.13c-1.26-2.55-3.54-3.81-6.4-3.81c-4.65,0-7.96,3.39-7.96,8.8
			c0,5.37,3.31,8.8,7.96,8.8c2.86,0,5.14-1.26,6.4-3.85h6.13c-1.79,5.49-6.59,8.61-12.5,8.61c-7.66,0-13.49-5.6-13.49-13.57
			C186.17,251.88,192,246.25,199.66,246.25z"/>
		<path class="st1" d="M232.15,250.89h-10.1v6.67h8.96v4.23h-8.96v7.05h10.1v4.34h-15.43v-26.63h15.43V250.89z"/>
		<path class="st1" d="M259.73,246.55v26.63h-5.33l-12.08-18.25v18.25h-5.33v-26.63h5.33l12.08,18.29v-18.29H259.73z"/>
		<path class="st1" d="M263.56,246.59h19.51v4.3h-7.09v22.29h-5.33v-22.29h-7.09V246.59z"/>
		<path class="st1" d="M302.38,250.89h-10.1v6.67h8.95v4.23h-8.95v7.05h10.1v4.34h-15.43v-26.63h15.43V250.89z"/>
		<path class="st1" d="M317.2,246.59c6.4,0,9.6,3.69,9.6,8.15c0,3.24-1.79,6.52-6.06,7.66l6.36,10.78h-6.17l-5.87-10.36h-2.52v10.36
			h-5.33v-26.59H317.2z M317,251.01h-4.46v7.81H317c2.97,0,4.3-1.56,4.3-3.96C321.31,252.5,319.97,251.01,317,251.01z"/>
	</g>
</g>
</svg>
