<?xml version="1.0" encoding="utf-8"?>
<!-- Generator: Adobe Illustrator 25.1.0, SVG Export Plug-In . SVG Version: 6.00 Build 0)  -->
<svg version="1.1" id="Layer_1" xmlns="http://www.w3.org/2000/svg" xmlns:xlink="http://www.w3.org/1999/xlink" x="0px" y="0px"
	 viewBox="0 0 480.74 195" style="enable-background:new 0 0 480.74 195;" xml:space="preserve">
<style type="text/css">
	.st0{fill:none;}
	.st1{fill:#6ABF4B;}
	.st2{fill:#385CAD;}
</style>
<g>
	<rect x="80.41" y="92.23" class="st0" width="25.94" height="27.84"/>
	<polygon class="st1" points="17.29,74.11 17.29,138.19 48.18,138.19 48.18,120.07 35.41,120.07 35.41,92.23 62.3,92.23 62.3,74.11 
			"/>
	<polygon class="st2" points="168.91,74.11 138.58,74.11 138.58,92.23 150.79,92.23 150.79,120.07 124.47,120.07 124.47,138.19 
		168.91,138.19 	"/>
	<polygon class="st1" points="124.47,74.11 80.41,74.11 80.41,92.23 106.35,92.23 106.35,120.07 106.35,138.21 106.35,165.08 
		80.41,165.08 80.41,152.31 62.3,152.31 62.3,183.11 124.47,183.11 124.47,138.19 124.47,120.07 	"/>
	<polygon class="st2" points="80.41,120.07 80.41,92.23 80.41,74.11 80.41,47.98 106.35,47.98 106.35,59.89 124.47,59.89 
		124.47,29.87 62.3,29.87 62.3,74.11 62.3,92.23 62.3,138.21 106.35,138.21 106.35,120.07 	"/>
</g>
<g>
	<g>
		<path class="st2" d="M210.82,83.13h-7.04c-0.97-1.75-2.76-2.68-5.14-2.68c-4.1,0-6.82,2.91-6.82,7.45c0,4.85,2.76,7.68,7.34,7.68
			c3.17,0,5.37-1.68,6.34-4.62h-8.09v-4.7h13.87v5.93c-1.34,4.51-5.7,9.02-12.6,9.02c-7.83,0-13.34-5.48-13.34-13.31
			c0-7.83,5.48-13.34,13.31-13.34C204.9,74.56,209.44,77.76,210.82,83.13z"/>
		<path class="st2" d="M230.84,79.96h-9.65v5.29h8.54v4.92h-8.54v5.74h9.65v5.11h-16.03V74.85h16.03V79.96z"/>
		<path class="st2" d="M258.5,87.94c0,7.75-5.37,13.08-13.72,13.08h-9.8V74.85h9.8C253.14,74.85,258.5,80.15,258.5,87.94z
			 M244.38,95.5c4.81,0,7.64-2.76,7.64-7.56c0-4.81-2.83-7.64-7.64-7.64h-3.02V95.5H244.38z"/>
		<path class="st2" d="M278.12,79.96h-9.65v5.29H277v4.92h-8.54v5.74h9.65v5.11h-16.03V74.85h16.03V79.96z"/>
		<path class="st2" d="M294.63,101.28c-7.42,0-13.46-5.55-13.46-13.42c0-7.86,6.04-13.38,13.46-13.38c7.45,0,13.38,5.52,13.38,13.38
			C308.01,95.73,302.05,101.28,294.63,101.28z M294.63,95.46c4.17,0,6.89-3.02,6.89-7.6c0-4.66-2.72-7.6-6.89-7.6
			c-4.25,0-6.93,2.95-6.93,7.6C287.7,92.45,290.38,95.46,294.63,95.46z"/>
		<path class="st2" d="M334.97,74.85v26.17h-6.37l-10.66-16.14v16.14h-6.37V74.85h6.37l10.66,16.21V74.85H334.97z"/>
		<path class="st1" d="M186.42,113.17h5.34l7.45,17.42l7.45-17.42h5.3v23.43h-4.7v-15.24l-6.28,15.24h-3.56l-6.31-15.24v15.24h-4.7
			V113.17z"/>
		<path class="st1" d="M230.17,116.96h-8.9v5.87h7.89v3.73h-7.89v6.21h8.9v3.83h-13.59v-23.46h13.59V116.96z"/>
		<path class="st1" d="M254.97,124.91c0,7.08-4.87,11.68-12.35,11.68h-8.19v-23.43h8.19C250.11,113.17,254.97,117.8,254.97,124.91z
			 M242.45,132.6c4.93,0,7.72-2.82,7.72-7.69s-2.79-7.79-7.72-7.79h-3.32v15.48H242.45z"/>
		<path class="st1" d="M258.49,113.17h4.7v23.43h-4.7V113.17z"/>
		<path class="st1" d="M278.56,112.86c5.2,0,9.43,2.79,11.01,7.59h-5.4c-1.11-2.25-3.12-3.36-5.64-3.36c-4.09,0-7.02,2.99-7.02,7.75
			c0,4.73,2.92,7.75,7.02,7.75c2.52,0,4.53-1.11,5.64-3.39h5.4c-1.58,4.83-5.81,7.59-11.01,7.59c-6.75,0-11.88-4.93-11.88-11.95
			C266.67,117.83,271.81,112.86,278.56,112.86z"/>
		<path class="st1" d="M307.95,132.13h-9.33l-1.54,4.46h-4.93l8.43-23.46h5.47l8.43,23.46h-4.97L307.95,132.13z M303.28,118.57
			l-3.39,9.8h6.78L303.28,118.57z"/>
		<path class="st1" d="M322.3,113.17v19.7h7.72v3.73H317.6v-23.43H322.3z"/>
		<path class="st1" d="M351.73,112.86c5.2,0,9.43,2.79,11.01,7.59h-5.4c-1.11-2.25-3.12-3.36-5.64-3.36c-4.1,0-7.02,2.99-7.02,7.75
			c0,4.73,2.92,7.75,7.02,7.75c2.52,0,4.53-1.11,5.64-3.39h5.4c-1.58,4.83-5.8,7.59-11.01,7.59c-6.75,0-11.88-4.93-11.88-11.95
			C339.85,117.83,344.99,112.86,351.73,112.86z"/>
		<path class="st1" d="M380.35,116.96h-8.9v5.87h7.89v3.73h-7.89v6.21h8.9v3.83h-13.59v-23.46h13.59V116.96z"/>
		<path class="st1" d="M404.65,113.13v23.46h-4.7l-10.64-16.08v16.08h-4.7v-23.46h4.7l10.64,16.11v-16.11H404.65z"/>
		<path class="st1" d="M408.03,113.17h17.19v3.79h-6.24v19.64h-4.7v-19.64h-6.24V113.17z"/>
		<path class="st1" d="M442.22,116.96h-8.9v5.87h7.89v3.73h-7.89v6.21h8.9v3.83h-13.59v-23.46h13.59V116.96z"/>
		<path class="st1" d="M455.27,113.17c5.64,0,8.46,3.25,8.46,7.18c0,2.85-1.58,5.74-5.34,6.75l5.6,9.5h-5.44l-5.17-9.13h-2.22v9.13
			h-4.7v-23.43H455.27z M455.11,117.06h-3.93v6.88h3.93c2.62,0,3.79-1.38,3.79-3.49C458.9,118.37,457.72,117.06,455.11,117.06z"/>
	</g>
</g>
</svg>
