<?xml version="1.0" encoding="utf-8"?>
<!-- Generator: Adobe Illustrator 25.1.0, SVG Export Plug-In . SVG Version: 6.00 Build 0)  -->
<svg version="1.1" id="Layer_1" xmlns="http://www.w3.org/2000/svg" xmlns:xlink="http://www.w3.org/1999/xlink" x="0px" y="0px"
	 viewBox="0 0 93 92" style="enable-background:new 0 0 93 92;" xml:space="preserve">
<style type="text/css">
	.st0{fill:none;}
	.st1{fill:#6ABF4B;}
	.st2{fill:#385CAD;}
</style>
<g>
	<rect x="39.95" y="39.88" class="st0" width="12.39" height="13.3"/>
	<polygon class="st1" points="9.79,31.22 9.79,61.84 24.55,61.84 24.55,53.18 18.45,53.18 18.45,39.88 31.29,39.88 31.29,31.22 	"/>
	<polygon class="st2" points="82.23,31.22 67.74,31.22 67.74,39.88 73.57,39.88 73.57,53.18 61,53.18 61,61.84 82.23,61.84 	"/>
	<polygon class="st1" points="61,31.22 39.95,31.22 39.95,39.88 52.34,39.88 52.34,53.18 52.34,61.85 52.34,74.69 39.95,74.69 
		39.95,68.58 31.29,68.58 31.29,83.3 61,83.3 61,61.84 61,53.18 	"/>
	<polygon class="st2" points="39.95,53.18 39.95,39.88 39.95,31.22 39.95,18.74 52.34,18.74 52.34,24.43 61,24.43 61,10.08 
		31.3,10.08 31.29,31.22 31.29,39.88 31.29,61.85 52.34,61.85 52.34,53.18 	"/>
</g>
</svg>
