<svg width="312" height="230" viewBox="0 0 312 230" fill="none" xmlns="http://www.w3.org/2000/svg">
<g clip-path="url(#clip0_849_97)">
<path opacity="0.1" d="M20.4205 90.148H47.5372V127.02H22.4032C22.3391 127.401 22.275 127.78 22.2028 128.161H47.5372V157.892C47.4945 157.892 47.4517 157.86 47.4117 157.844C46.6991 157.562 45.9865 157.262 45.274 156.946C45.1216 156.877 44.972 156.805 44.817 156.738C44.1045 156.402 43.3919 156.047 42.6793 155.672C42.4308 155.541 42.1823 155.405 41.9391 155.267C37.9832 153.065 34.3878 150.273 31.2774 146.988C31.1838 146.9 31.0983 146.804 31.0102 146.721C30.5773 146.252 30.1524 145.777 29.7409 145.292C29.5859 145.114 29.4363 144.933 29.284 144.759C28.7976 144.168 28.3273 143.554 27.8731 142.939C27.8036 142.845 27.7395 142.755 27.6727 142.672C25.8118 140.103 24.2686 137.32 23.0766 134.382C23.0392 134.294 23.0045 134.198 22.9697 134.116C22.601 133.183 22.267 132.237 21.9784 131.272C21.8555 130.869 21.7352 130.472 21.6337 130.054C21.5963 129.934 21.5669 129.811 21.5348 129.691C20.0331 123.787 19.8594 117.651 19.8594 111.544C19.8594 110.833 19.8594 110.123 19.8594 109.412C19.8808 106.919 19.9101 104.428 19.9476 101.94C19.9618 101.301 19.9752 100.658 19.9876 100.013C20.025 98.38 20.0785 96.7434 20.148 95.1032C20.164 94.6501 20.1854 94.1943 20.2094 93.7438C20.2201 93.4826 20.2335 93.2214 20.2495 92.9601C20.2976 92.0165 20.3546 91.0792 20.4205 90.148Z" fill="#3B548E"/>
<path opacity="0.1" d="M47.5374 49.0936H32.6616C35.0808 45.3205 37.7229 41.6943 40.5738 38.2343C42.7863 35.5261 45.1164 32.8872 47.5374 30.3443V49.0936Z" fill="#3B548E"/>
<path opacity="0.1" d="M47.5371 50.2291V89.0072H20.5059C20.5059 88.8952 20.5219 88.7806 20.5326 88.6686C20.5566 88.3621 20.5807 88.0582 20.6074 87.7517C20.6341 87.3945 20.6689 87.0373 20.7036 86.6855C20.7383 86.3336 20.7731 85.9072 20.8158 85.5207C20.8586 85.1342 20.8933 84.7423 20.9361 84.3558C20.9788 83.9693 21.0216 83.5828 21.0697 83.199C21.1178 82.8151 21.1605 82.426 21.214 82.0421C21.2541 81.725 21.2941 81.4051 21.3396 81.0852C21.401 80.6348 21.4652 80.1843 21.532 79.7365C21.532 79.6672 21.5533 79.6005 21.564 79.5339C22.0524 76.256 22.716 73.0066 23.5521 69.7994C24.4301 66.4356 25.5508 63.1395 26.9056 59.937C28.3452 56.5814 30.0314 53.3367 31.9506 50.2291H47.5371Z" fill="#3B548E"/>
<path opacity="0.1" d="M54 89.9548V126.748H111.924V89.9548H54ZM54 127.887V159.485C54.3314 159.552 54.6574 159.618 54.9861 159.674C55.427 159.759 55.8706 159.837 56.3222 159.903L56.5894 159.94C56.7658 159.97 56.9448 159.994 57.1239 160.015C57.5702 160.079 58.0164 160.127 58.46 160.169C58.6685 160.19 58.8849 160.206 59.096 160.225L59.6118 160.262C59.8924 160.283 60.1703 160.299 60.4482 160.31C60.6192 160.31 60.7902 160.323 60.9639 160.329C61.1376 160.334 61.2312 160.329 61.3701 160.329H61.8752C62.105 160.329 62.3348 160.329 62.562 160.329H62.8559C63.0857 160.329 63.3155 160.329 63.5427 160.307H63.5561C63.7164 160.307 63.8741 160.307 64.0344 160.289C64.0798 160.291 64.1253 160.291 64.1707 160.289C64.3043 160.289 64.4379 160.289 64.5662 160.273C64.5964 160.27 64.6268 160.27 64.657 160.273C64.9536 160.254 65.2529 160.23 65.5549 160.204C65.8569 160.177 66.1428 160.145 66.4448 160.113L67.0514 160.039C69.5302 159.693 71.9814 159.174 74.3868 158.485C79.7928 156.985 85.0759 154.887 90.4792 153.352C97.4592 151.37 105.177 150.394 111.922 152.807V127.887H54ZM111.924 48.988V0.00448359C105.583 -0.0649572 99.2592 0.672471 93.106 2.19885C78.4379 5.86676 65.2663 13.8223 54 23.9829V48.9853H56.9155V50.1211H54V88.8164H111.924V50.1211H68.8418V48.9827L111.924 48.988ZM186.342 32.4412C182.713 32.3135 179.105 31.1724 175.84 29.4036C169.603 26.0283 164.616 20.8097 159.047 16.4103C147.476 7.24189 133.126 1.70678 118.404 0.334303V48.988H201.087L201.293 48.7725L186.342 32.4412ZM193.875 31.1112L201.862 39.8382V28.8158C199.174 29.1536 196.833 29.9383 193.875 31.1006V31.1112ZM201.862 167.332V127.887H184.829C184.786 127.719 184.738 127.549 184.685 127.379C184.736 127.549 184.781 127.719 184.826 127.887H118.404V156.411C119.035 156.876 119.658 157.368 120.275 157.863C120.941 158.406 121.603 158.954 122.261 159.509L122.923 160.055C123.241 160.321 123.565 160.587 123.885 160.839C124.528 161.355 125.176 161.866 125.828 162.371C126.154 162.627 126.482 162.878 126.811 163.124C132.031 167.095 137.536 170.678 143.283 173.846C144.571 174.561 145.873 175.25 147.182 175.923C148.053 176.37 148.931 176.808 149.814 177.237C151.14 177.881 152.476 178.502 153.823 179.099C166.24 184.647 179.37 188.453 192.838 190.409C195.827 190.847 198.83 191.192 201.846 191.446V167.327H202.113L201.862 167.332ZM118.404 50.1211V88.8164H201.862V50.1211H118.404ZM118.404 89.9494V126.748H201.862V89.9548L118.404 89.9494ZM208.34 28.7626V41.0776L218.532 29.9409C215.154 29.3859 211.757 28.9931 208.34 28.7626ZM208.34 89.9548V126.748H289.51V89.9548H208.34ZM289.224 170.25L289.51 127.887H208.34V191.874C213.568 192.091 218.804 192.028 224.026 191.685H224.117C226.611 191.526 229.094 191.299 231.565 191.005H231.621C244.807 189.477 257.7 186.049 269.896 180.828L289.224 170.25ZM305.17 95.9979C304.861 95.2886 304.545 94.5793 304.221 93.87C303.617 92.5401 302.981 91.2474 302.324 89.9574H295.99V126.748H312C311.987 116.327 309.336 105.688 305.17 95.9979ZM295.99 127.887V164.326C300.499 160.025 304.312 155.102 307.054 149.474C310.354 142.694 311.864 135.358 311.989 127.884L295.99 127.887ZM295.99 79.233V88.8084H301.73C299.99 85.5167 298.074 82.3204 295.99 79.233ZM240.942 35.9841C240.519 35.8218 240.094 35.6596 239.67 35.5053C235.19 33.8573 230.611 32.4875 225.961 31.4038L210.36 48.4427L210.055 48.7699L210.256 48.9853H265.78C258.047 43.6886 249.709 39.3243 240.942 35.9841ZM267.41 50.1211H209.478L208.34 51.1558V88.8164H218.321H289.51V70.5699C283.073 62.8216 275.643 55.9468 267.41 50.1211Z" fill="#3B548E"/>
<path opacity="0.1" d="M47.5371 69.7914V89.0071H20.5059C20.5059 88.8952 20.5219 88.7806 20.5326 88.6686C20.5566 88.3621 20.5807 88.0582 20.6074 87.7517C20.6341 87.3945 20.6689 87.0373 20.7036 86.6855C20.7383 86.3336 20.7731 85.9071 20.8158 85.5206C20.8586 85.1341 20.8933 84.7423 20.9361 84.3558C20.9788 83.9693 21.0216 83.5828 21.0697 83.199C21.1178 82.8151 21.1605 82.426 21.214 82.0421C21.2541 81.7249 21.2941 81.4051 21.3396 81.0852C21.401 80.6347 21.4652 80.1843 21.532 79.7364C21.532 79.6671 21.5533 79.6005 21.564 79.5339C22.0524 76.256 22.716 73.0066 23.5521 69.7994L47.5371 69.7914Z" fill="#3B548E"/>
<path opacity="0.1" d="M20.4205 90.1479H47.5372V127.02H22.4032C22.3391 127.401 22.275 127.78 22.2028 128.161H47.5372V157.892C47.4945 157.892 47.4517 157.86 47.4117 157.844C46.6991 157.562 45.9865 157.262 45.274 156.946C45.1216 156.877 44.972 156.805 44.817 156.738C44.1045 156.402 43.3919 156.047 42.6793 155.672C42.4308 155.541 42.1823 155.405 41.9391 155.267C37.9832 153.065 34.3878 150.273 31.2774 146.988C31.1838 146.9 31.0983 146.804 31.0102 146.721C30.5773 146.252 30.1524 145.777 29.7409 145.292C29.5859 145.114 29.4363 144.932 29.284 144.759C28.7976 144.167 28.3273 143.554 27.8731 142.939C27.8036 142.845 27.7395 142.755 27.6727 142.672C25.8118 140.103 24.2686 137.32 23.0766 134.382C23.0392 134.294 23.0045 134.198 22.9697 134.116C22.601 133.183 22.267 132.237 21.9784 131.272C21.8555 130.869 21.7352 130.472 21.6337 130.053C21.5963 129.934 21.5669 129.811 21.5348 129.691C20.0331 123.787 19.8594 117.651 19.8594 111.544C19.8594 110.833 19.8594 110.122 19.8594 109.412C19.8808 106.919 19.9101 104.428 19.9476 101.94C19.9618 101.3 19.9752 100.658 19.9876 100.013C20.025 98.38 20.0785 96.7433 20.148 95.1032C20.164 94.65 20.1854 94.1942 20.2094 93.7437C20.2201 93.4825 20.2335 93.2213 20.2495 92.9601C20.2976 92.0165 20.3546 91.0791 20.4205 90.1479Z" fill="#3B548E"/>
<path opacity="0.1" d="M74.4027 55.7841V89.0072H54.0117V55.7841H56.919V44.5356H68.8527V55.7841H74.4027Z" fill="#3B548E"/>
<path opacity="0.1" d="M74.4 90.1453H54.0117V127.018H74.4V90.1453Z" fill="#3B548E"/>
<path opacity="0.1" d="M54.0142 128.161H74.4025V158.815C71.9975 159.505 69.5463 160.025 67.0675 160.369C66.8644 160.398 66.664 160.422 66.4609 160.443C66.1616 160.478 65.865 160.51 65.5684 160.536L64.6733 160.608H64.5824L64.1869 160.63H64.0507C63.8903 160.63 63.7327 160.648 63.5723 160.651H63.559C63.3292 160.651 63.1021 160.667 62.8723 160.672H62.5783C62.3512 160.672 62.1241 160.672 61.8916 160.672H61.3892H60.9804C60.8067 160.672 60.6357 160.672 60.462 160.651C60.1877 160.64 59.9098 160.624 59.6283 160.603L59.1126 160.566C58.8988 160.55 58.685 160.528 58.4739 160.507C58.025 160.468 57.5797 160.417 57.1379 160.355L56.6034 160.281L56.3362 160.243C55.89 160.177 55.4464 160.102 55.0002 160.017C54.6688 159.958 54.3428 159.891 54.0142 159.822V128.161Z" fill="#3B548E"/>
<path opacity="0.1" d="M201.866 51.8604H185.053V89.0045H201.866V51.8604Z" fill="#3B548E"/>
<path opacity="0.1" d="M201.868 90.1453V127.02H118.415V111.115H162.866V120.498H185.053V90.1453H201.868Z" fill="#3B548E"/>
<path opacity="0.1" d="M202.133 167.699C202.045 167.699 201.956 167.699 201.866 167.683V191.872C198.853 191.625 195.851 191.28 192.86 190.835C179.389 188.876 166.254 185.064 153.831 179.507C150.245 177.893 146.732 176.135 143.293 174.232C137.548 171.056 132.044 167.465 126.824 163.487C125.51 162.485 124.214 161.461 122.939 160.414C122.054 159.684 121.178 158.937 120.286 158.215C119.671 157.716 119.048 157.223 118.415 156.754V128.161H184.833C184.785 127.99 184.743 127.823 184.694 127.652C184.745 127.823 184.793 127.99 184.836 128.161H201.868V167.68C201.956 167.683 202.045 167.691 202.133 167.699Z" fill="#3B548E"/>
<path opacity="0.1" d="M245.718 49.0936H234.762V45.6978H239.671V35.5821C240.097 35.7385 240.521 35.8984 240.943 36.0619V45.6978H245.715L245.718 49.0936Z" fill="#3B548E"/>
<path opacity="0.1" d="M272.116 89.0072H218.326C218.331 89.0084 218.337 89.0084 218.342 89.0072H218.318H208.346V51.8631H211.173V79.318H224.09V63.0583H234.765V50.2291H245.721V63.0663H256.391V79.326H272.119L272.116 89.0072Z" fill="#3B548E"/>
<path opacity="0.1" d="M208.346 90.148V127.02H272.119V90.148H208.346ZM289.421 170.42L289.512 141.233H272.119V128.172H208.346V192.286C213.574 192.502 218.81 192.439 224.031 192.096H224.122C226.616 191.936 229.098 191.709 231.569 191.414H231.625C244.811 189.883 257.703 186.447 269.898 181.216" fill="#3B548E"/>
<path opacity="0.1" d="M297.113 128.161H311.989C311.861 135.648 310.354 143.003 307.054 149.794C304.312 155.437 300.499 160.371 295.991 164.681V141.225H297.113V128.161Z" fill="#3B548E"/>
<path opacity="0.1" d="M312 127.02H297.114V96.204H305.17C309.336 105.915 311.987 116.577 312 127.02Z" fill="#3B548E"/>
<path opacity="0.1" d="M201.869 62.1866H192.861V73.8323H201.869V62.1866Z" fill="#3B548E"/>
<path opacity="0.1" d="M201.869 86.3256H192.861V89.0071H201.869V86.3256Z" fill="#3B548E"/>
<path opacity="0.1" d="M201.869 90.1453H192.861V97.9686H201.869V90.1453Z" fill="#3B548E"/>
<path opacity="0.1" d="M201.869 110.465H192.861V122.11H201.869V110.465Z" fill="#3B548E"/>
<path opacity="0.1" d="M201.869 134.604H192.861V146.249H201.869V134.604Z" fill="#3B548E"/>
<path opacity="0.1" d="M201.869 167.68C201.957 167.68 202.045 167.68 202.136 167.699C202.048 167.699 201.959 167.699 201.869 167.683V170.388H192.861V158.743H201.869V167.68Z" fill="#3B548E"/>
<path opacity="0.1" d="M201.869 182.879V191.872C198.854 191.625 195.852 191.28 192.861 190.835V182.879H201.869Z" fill="#3B548E"/>
<path opacity="0.1" d="M157.019 126.165H118.415V127.02H157.019V126.165Z" fill="#6C63FF"/>
<path opacity="0.1" d="M157.019 128.158H118.415V131.437H157.019V128.158Z" fill="#3B548E"/>
<path opacity="0.1" d="M157.019 142.184H118.415V147.457H157.019V142.184Z" fill="#3B548E"/>
<path opacity="0.1" d="M157.019 158.204V163.477H126.824C125.51 162.478 124.215 161.453 122.939 160.401C122.052 159.673 121.175 158.926 120.286 158.204H157.019Z" fill="#3B548E"/>
<path opacity="0.1" d="M157.019 174.221V179.507H153.831C150.245 177.893 146.732 176.135 143.292 174.232L157.019 174.221Z" fill="#3B548E"/>
<path opacity="0.1" d="M231.63 93.7198H224.031V101.301H231.63V93.7198Z" fill="#6C63FF"/>
<path opacity="0.1" d="M67.0864 58.3989H59.4868V65.9797H67.0864V58.3989Z" fill="#3B548E"/>
<path opacity="0.1" d="M67.0864 76.0074H59.4868V83.5881H67.0864V76.0074Z" fill="#3B548E"/>
<path opacity="0.1" d="M67.0864 93.6158H59.4868V101.197H67.0864V93.6158Z" fill="#3B548E"/>
<path opacity="0.1" d="M67.0864 111.222H59.4868V118.802H67.0864V111.222Z" fill="#3B548E"/>
<path opacity="0.1" d="M67.0864 128.83H59.4868V136.411H67.0864V128.83Z" fill="#3B548E"/>
<path opacity="0.1" d="M67.0864 146.438H59.4868V154.019H67.0864V146.438Z" fill="#3B548E"/>
<path opacity="0.1" d="M260.642 93.7198H253.042V101.301H260.642V93.7198Z" fill="#3B548E"/>
<path opacity="0.1" d="M231.63 112.418H224.031V119.999H231.63V112.418Z" fill="#6C63FF"/>
<path opacity="0.1" d="M260.642 112.418H253.042V119.999H260.642V112.418Z" fill="#3B548E"/>
<path opacity="0.1" d="M231.63 131.114H224.031V138.695H231.63V131.114Z" fill="#6C63FF"/>
<path opacity="0.1" d="M260.642 131.114H253.042V138.695H260.642V131.114Z" fill="#3B548E"/>
<path opacity="0.1" d="M231.63 149.813H224.031V157.394H231.63V149.813Z" fill="#6C63FF"/>
<path opacity="0.1" d="M260.642 149.813H253.042V157.394H260.642V149.813Z" fill="#3B548E"/>
<path opacity="0.1" d="M231.63 168.512H224.031V176.092H231.63V168.512Z" fill="#6C63FF"/>
<path opacity="0.1" d="M260.642 168.512H253.042V176.092H260.642V168.512Z" fill="#3B548E"/>
<path opacity="0.1" d="M224.031 192.096V187.208H231.628V191.401L224.031 192.096Z" fill="#6C63FF"/>
<path opacity="0.1" d="M21.5322 79.5259V83.8627H47.5373V79.5259H21.5322ZM24.1215 83.5908H21.9838V79.8004H24.1215V83.5908ZM26.7108 83.5908H24.5731V79.8004H26.7108V83.5908ZM29.2947 83.5908H27.1571V79.8004H29.2947V83.5908ZM31.884 83.5908H29.7463V79.8004H31.884V83.5908ZM34.4707 83.5908H32.333V79.8004H34.4707V83.5908ZM37.0599 83.5908H34.9222V79.8004H37.0599V83.5908ZM39.6492 83.5908H37.5115V79.8004H39.6492V83.5908ZM42.2358 83.5908H40.0981V79.8004H42.2358V83.5908ZM44.8225 83.5908H42.6848V79.8004H44.8225V83.5908ZM47.4118 83.5908H45.2741V79.8004H47.4118V83.5908Z" fill="#3B548E"/>
<path opacity="0.1" d="M21.5322 92.1498V96.4866H47.5373V92.1498H21.5322ZM24.1215 96.2147H21.9838V92.4243H24.1215V96.2147ZM26.7108 96.2147H24.5731V92.4243H26.7108V96.2147ZM29.2947 96.2147H27.1571V92.4243H29.2947V96.2147ZM31.884 96.2147H29.7463V92.4243H31.884V96.2147ZM34.4707 96.2147H32.333V92.4243H34.4707V96.2147ZM37.0599 96.2147H34.9222V92.4243H37.0599V96.2147ZM39.6492 96.2147H37.5115V92.4243H39.6492V96.2147ZM42.2358 96.2147H40.0981V92.4243H42.2358V96.2147ZM44.8225 96.2147H42.6848V92.4243H44.8225V96.2147ZM47.4118 96.2147H45.2741V92.4243H47.4118V96.2147Z" fill="#3B548E"/>
<path opacity="0.1" d="M21.5322 104.776V109.111H47.5373V104.776H21.5322ZM24.1215 108.836H21.9838V105.046H24.1215V108.836ZM26.7108 108.836H24.5731V105.046H26.7108V108.836ZM29.2947 108.836H27.1571V105.046H29.2947V108.836ZM31.884 108.836H29.7463V105.046H31.884V108.836ZM34.4707 108.836H32.333V105.046H34.4707V108.836ZM37.0599 108.836H34.9222V105.046H37.0599V108.836ZM39.6492 108.836H37.5115V105.046H39.6492V108.836ZM42.2358 108.836H40.0981V105.046H42.2358V108.836ZM44.8225 108.836H42.6848V105.046H44.8225V108.836ZM47.4118 108.836H45.2741V105.046H47.4118V108.836Z" fill="#3B548E"/>
<path opacity="0.1" d="M21.5322 117.4V121.734H47.5373V117.4H21.5322ZM24.1215 121.463H21.9838V117.667H24.1215V121.463ZM26.7108 121.463H24.5731V117.667H26.7108V121.463ZM29.2947 121.463H27.1571V117.667H29.2947V121.463ZM31.884 121.463H29.7463V117.667H31.884V121.463ZM34.4707 121.463H32.333V117.667H34.4707V121.463ZM37.0599 121.463H34.9222V117.667H37.0599V121.463ZM39.6492 121.463H37.5115V117.667H39.6492V121.463ZM42.2358 121.463H40.0981V117.667H42.2358V121.463ZM44.8225 121.463H42.6848V117.667H44.8225V121.463ZM47.4118 121.463H45.2741V117.667H47.4118V121.463Z" fill="#3B548E"/>
<path opacity="0.1" d="M21.6577 130.019C21.7593 130.429 21.8795 130.835 22.0024 131.237V130.293H24.1401V134.081H22.9938C23.0258 134.172 23.0606 134.265 23.098 134.348H47.5479V130.019H21.6577ZM26.7348 134.081H24.5971V130.293H26.7348V134.081ZM29.3187 134.081H27.181V130.293H29.3187V134.081ZM31.908 134.081H29.7703V130.293H31.908V134.081ZM34.4946 134.081H32.3569V130.293H34.4946V134.081ZM37.0839 134.081H34.9462V130.293H37.0839V134.081ZM39.6732 134.081H37.5355V130.293H39.6732V134.081ZM42.2598 134.081H40.1221V130.293H42.2598V134.081ZM44.8464 134.081H42.7087V130.293H44.8464V134.081ZM47.4357 134.081H45.298V130.293H47.4357V134.081Z" fill="#3B548E"/>
<path opacity="0.1" d="M27.6807 142.643C27.7501 142.728 27.8143 142.824 27.8811 142.909H29.2946V144.73L29.7516 145.263V142.899H31.8893V146.721H31.0101C31.0956 146.809 31.1785 146.902 31.2773 146.988H47.5319V142.643H27.6807ZM34.4839 146.721H32.3462V142.915H34.4839V146.721ZM37.0732 146.721H34.9355V142.915H37.0732V146.721ZM39.6625 146.721H37.5248V142.915H39.6625V146.721ZM42.2491 146.721H40.1114V142.915H42.2491V146.721ZM44.8357 146.721H42.698V142.915H44.8357V146.721ZM47.425 146.721H45.2873V142.915H47.425V146.721Z" fill="#3B548E"/>
<path opacity="0.1" d="M41.9473 155.267C42.1931 155.405 42.4416 155.533 42.6901 155.669V155.536H44.8278V156.738C44.9828 156.805 45.1298 156.877 45.2821 156.946V155.536H47.4198V157.844C47.4604 157.863 47.5024 157.878 47.5454 157.89V155.267H41.9473Z" fill="#6C63FF"/>
<path opacity="0.1" d="M201.866 167.68H202.133H201.866ZM184.692 127.652C184.743 127.822 184.788 127.993 184.834 128.161C184.794 127.993 184.745 127.822 184.692 127.652ZM56.9297 49.0936V50.2291H68.8661V49.0883L56.9297 49.0936ZM201.868 167.68H202.136H201.868ZM184.692 127.652C184.743 127.822 184.788 127.993 184.834 128.161C184.794 127.993 184.745 127.822 184.692 127.652ZM201.866 167.68H202.133H201.866ZM184.692 127.652C184.743 127.822 184.788 127.993 184.834 128.161C184.794 127.993 184.745 127.822 184.692 127.652Z" fill="#6C63FF"/>
<path opacity="0.1" d="M234.995 230C249.375 230 261.032 228.132 261.032 225.828C261.032 223.525 249.375 221.657 234.995 221.657C220.615 221.657 208.958 223.525 208.958 225.828C208.958 228.132 220.615 230 234.995 230Z" fill="#3B548E"/>
<path opacity="0.1" d="M117.566 225.828C131.945 225.828 143.603 223.961 143.603 221.657C143.603 219.353 131.945 217.485 117.566 217.485C103.186 217.485 91.5283 219.353 91.5283 221.657C91.5283 223.961 103.186 225.828 117.566 225.828Z" fill="#385CAD"/>
<path d="M147.541 111.352C147.535 111.326 147.521 111.302 147.501 111.283C147.103 110.891 142.026 103.729 142.026 103.729C142.026 103.729 141.759 102.929 141.326 101.89C141.465 101.71 141.569 101.507 141.633 101.29C141.657 101.198 141.674 101.104 141.684 101.01C141.684 100.981 141.706 100.957 141.714 100.927C141.806 100.566 141.797 100.186 141.687 99.8292C141.657 99.9207 141.621 100.01 141.577 100.096C141.477 99.7852 141.342 99.4867 141.176 99.2054C140.503 98.0486 139.541 97.073 138.833 95.9455C137.761 94.1937 137.335 92.1236 137.628 90.092C137.628 90.196 137.628 90.3026 137.628 90.4066C137.655 90.0036 137.708 89.6029 137.788 89.2071C137.9 88.7565 138.049 88.316 138.234 87.8903C138.87 86.4376 139.899 85.1715 140.524 83.7134C140.734 83.2216 140.894 82.7099 141 82.1861C141.22 81.3112 141.301 80.4071 141.238 79.5072C141.238 79.7205 141.203 79.9337 141.171 80.1443C141.104 77.9807 140.228 75.9205 138.715 74.3681C136.532 72.1797 133.398 71.3294 130.4 70.8816C129.14 70.735 127.937 70.2768 126.899 69.5488C125.748 68.8052 124.259 68.6266 122.912 68.7892C121.365 68.9561 119.926 69.6654 118.854 70.791C117.429 72.353 116.812 74.5653 115.15 75.8821C114.143 76.6818 112.865 77.0549 111.692 77.5987C110.519 78.1425 109.41 78.9315 109.033 80.099C109.033 80.099 109.033 80.083 109.033 80.075V80.1416L109.017 80.1843C108.627 81.565 109.381 82.9697 109.774 84.3478C110.182 85.7739 110.209 87.2799 110.231 88.7539C110.26 90.5558 110.287 92.3604 110.257 94.1649C110.244 94.874 110.22 95.591 110.166 96.2974C109.534 96.4881 108.92 96.7343 108.331 97.033C107.732 97.4222 105.493 99.8345 105.493 99.8345L101.113 116.526L101.172 116.593L101.113 116.819L101.335 116.769C101.955 117.435 103.807 119.333 105.806 120.516L105.993 123.79C105.993 123.79 106.217 127.073 109.245 128.43C109.314 129.568 109.53 134.19 108.528 136.022C107.835 137.359 107.508 138.857 107.582 140.361C107.582 140.361 107.933 143.139 107.534 144.599C107.302 145.576 107.284 146.59 107.484 147.574V147.574C107.484 147.574 107.484 147.897 107.484 148.451C107.484 151.407 107.518 160.88 107.484 161.952C107.433 163.218 107.484 181.943 107.484 181.943C107.484 181.943 107.235 191.302 106.439 193.837C105.643 196.372 105.843 204.766 105.843 204.766C105.843 204.766 105.343 214.764 107.11 216.736C107.11 216.824 107.093 216.915 107.091 217.003C107.091 217.043 107.091 217.088 107.091 217.128C107.069 217.888 107.216 218.696 107.871 218.943C109.207 219.455 110.973 220.991 111.307 221.43C111.641 221.87 113.584 222.966 116.117 222.672C117.704 222.495 119.301 222.422 120.898 222.454V222.454C120.898 222.454 121.897 222.273 121.574 221.033C121.365 220.26 120.585 219.071 120.029 218.29C120.131 218.317 120.23 218.338 120.323 218.357L120.419 218.376H120.494C120.535 218.378 120.576 218.378 120.617 218.376H120.671C120.72 218.38 120.77 218.38 120.82 218.376V218.376C121.491 218.312 123.992 219.474 124.438 220.242C124.885 221.009 126.458 221.593 127.645 221.74C128.35 221.825 130.13 221.681 131.624 221.489C132.376 221.412 133.121 221.276 133.852 221.084C134.205 220.951 134.28 220.524 134.178 220.044C134.058 219.435 133.732 218.885 133.254 218.488C132.821 218.181 132.249 217.373 131.827 216.712L131.714 216.534C132.46 215.825 133.807 213.506 134.216 213.026C134.713 212.442 133.414 191.094 133.414 191.094V180.392L135.405 170.263L136.797 164.903L137.991 156.81C137.991 156.81 140.081 147.358 139.437 146.431C139.437 146.412 138.902 136.68 138.341 134.342C138.098 133.3 138.16 130.954 138.304 128.673C138.455 128.523 138.56 128.334 138.607 128.128C138.654 127.921 138.642 127.705 138.571 127.505C138.531 127.369 138.479 127.236 138.416 127.108C138.416 127.068 138.416 127.026 138.416 126.986C139.57 126.456 140.777 126.047 142.015 125.765C144.006 125.376 143.509 124.352 143.509 124.352C143.509 124.352 143.958 123.475 144.255 122.939C144.551 122.403 144.305 117.675 144.255 117.286C144.236 117.128 144.113 116.259 143.971 115.273C144.61 114.82 145.441 114.258 146.347 113.725C148.071 112.706 147.683 111.632 147.541 111.352ZM121.568 178.931C121.568 178.931 120.075 182.732 120.673 183.705C121.272 184.678 120.574 188.29 120.574 188.29L120.075 193.65C120.075 193.65 118.682 203.593 119.18 205.93C119.57 207.764 119.714 213.242 119.759 215.526C119.725 215.54 119.692 215.556 119.66 215.574L119.594 215.609C119.823 214.711 119.727 212.893 118.586 209.236L118.49 194.13C118.49 194.13 118.314 176.682 119.695 174.73C121.077 172.779 121.566 169.466 121.566 169.466C121.566 169.466 121.266 174.245 121.071 175.511C120.876 176.778 121.568 178.931 121.568 178.931ZM118.787 216.478C118.773 216.51 118.757 216.542 118.747 216.571L118.672 216.475C118.71 216.479 118.748 216.48 118.787 216.478V216.478Z" fill="url(#paint0_linear_849_97)"/>
<path d="M134.02 222.465C133.248 222.76 129.061 223.264 127.891 223.123C126.72 222.982 125.17 222.39 124.729 221.617C124.289 220.844 121.817 219.676 121.154 219.751C120.883 219.759 120.611 219.721 120.352 219.639C119.895 219.501 119.449 219.33 119.016 219.127C118.956 218.791 118.966 218.446 119.046 218.114C119.061 218.048 119.081 217.982 119.105 217.917C119.261 217.48 119.583 217.122 120.002 216.92L120.099 216.875C120.284 216.795 120.477 216.736 120.676 216.699C122.776 216.297 131.442 217.104 131.442 217.104C131.442 217.104 131.685 217.539 132.019 218.077C132.436 218.744 133.002 219.557 133.43 219.863C133.903 220.267 134.225 220.82 134.341 221.43C134.443 221.902 134.368 222.334 134.02 222.465Z" fill="white"/>
<path opacity="0.1" d="M134.02 222.465C133.248 222.76 129.064 223.264 127.893 223.123C126.723 222.982 125.173 222.387 124.729 221.617C124.286 220.847 121.82 219.676 121.157 219.751C120.494 219.826 119.019 219.127 119.019 219.127C119.019 219.127 118.789 218.061 119.457 217.333L120.793 218.28C120.793 218.28 124.369 219.386 125.031 220.412C125.694 221.438 126.902 222.011 128.647 222.115C129.951 222.201 132.946 221.694 134.349 221.441C134.443 221.902 134.371 222.334 134.02 222.465Z" fill="black"/>
<path d="M121.229 223.824C119.653 223.793 118.076 223.867 116.51 224.045C114.001 224.338 112.085 223.246 111.751 222.795C111.417 222.345 109.688 220.823 108.36 220.289C107.711 220.039 107.558 219.223 107.588 218.461C107.588 218.421 107.588 218.376 107.588 218.336C107.612 217.853 107.684 217.373 107.802 216.904L118.199 216.683L119.099 217.901L119.238 218.088L119.786 218.831C119.786 218.831 120.035 219.157 120.361 219.631C120.911 220.431 121.681 221.612 121.886 222.393C122.215 223.643 121.229 223.824 121.229 223.824Z" fill="white"/>
<path opacity="0.1" d="M121.229 223.824C119.653 223.793 118.076 223.867 116.51 224.045C114.004 224.338 112.085 223.246 111.754 222.795C111.422 222.345 109.688 220.809 108.36 220.295C107.711 220.044 107.558 219.229 107.588 218.466C108.331 218.64 109.891 219.082 110.503 219.852C111.305 220.881 112.74 222.611 114.779 222.72C116.425 222.808 120.433 222.515 121.902 222.398C122.218 223.643 121.229 223.824 121.229 223.824Z" fill="black"/>
<path opacity="0.1" d="M119.992 216.91C119.871 217.8 119.5 218.04 119.233 218.093C119.167 218.106 119.1 218.106 119.035 218.093C119 218.091 118.965 218.085 118.931 218.077C118.931 218.077 109.594 220.135 107.708 218.469C107.66 218.426 107.615 218.38 107.574 218.33C107.599 217.847 107.67 217.368 107.788 216.899L118.185 216.678L119.086 217.896C119.242 217.459 119.564 217.1 119.984 216.899L119.992 216.91Z" fill="black"/>
<path opacity="0.1" d="M132.016 218.066C131.808 218.296 131.634 218.426 131.525 218.381C131.033 218.184 127.003 217.499 125.723 218.088C124.443 218.677 120.112 218.184 120.112 218.184C120.112 218.184 120.112 217.672 120.088 216.851C120.273 216.771 120.467 216.712 120.665 216.675C122.765 216.273 131.431 217.08 131.431 217.08C131.431 217.08 131.685 217.528 132.016 218.066Z" fill="black"/>
<path d="M138.114 157.772L136.933 165.913L135.56 171.308L133.593 181.506V192.301C133.593 192.301 134.87 213.78 134.379 214.367C133.887 214.953 132.019 218.293 131.527 218.098C131.036 217.904 127.006 217.216 125.726 217.803C124.446 218.389 120.115 217.901 120.115 217.901C120.115 217.901 120.016 209.566 119.524 207.212C119.033 204.859 120.409 194.855 120.409 194.855L120.9 189.463C120.9 189.463 121.59 185.832 120.999 184.851C120.409 183.87 121.884 180.053 121.884 180.053C121.884 180.053 121.197 177.892 121.395 176.618C121.592 175.343 121.884 170.537 121.884 170.537C121.884 170.537 121.395 173.875 120.029 175.834C118.664 177.793 118.837 195.351 118.837 195.351L118.934 210.544C121.395 218.589 118.934 217.803 118.934 217.803C118.934 217.803 109.597 219.863 107.711 218.194C105.824 216.526 106.364 206.024 106.364 206.024C106.364 206.024 106.169 197.59 106.955 195.042C107.74 192.493 107.989 183.076 107.989 183.076C107.989 183.076 107.938 164.244 107.989 162.973C108.026 161.907 107.989 152.361 107.989 149.379C107.989 148.824 107.989 148.496 107.989 148.496L109.116 145.703L122.477 144.034H128.869C128.869 144.034 138.488 146.289 139.482 147.262C139.504 147.278 139.522 147.298 139.536 147.321C140.18 148.262 138.114 157.772 138.114 157.772Z" fill="#B4C9FD"/>
<path opacity="0.1" d="M121.892 200.533C121.892 200.533 124.831 207.594 126.218 208.084C127.605 208.575 121.892 200.533 121.892 200.533Z" fill="black"/>
<path opacity="0.1" d="M122.979 210.928C122.979 210.928 132.903 211.419 132.804 212.498C132.706 213.578 122.979 210.928 122.979 210.928Z" fill="black"/>
<path opacity="0.1" d="M109.701 208.105C110.094 208.476 117.271 209.172 116.681 209.849C116.09 210.526 110.292 211.842 110.292 211.842L109.701 208.105Z" fill="black"/>
<path opacity="0.1" d="M108.523 195.924C108.523 196.217 109.998 205.339 110.393 205.73C110.789 206.122 114.03 206.514 114.03 206.514L108.523 195.924Z" fill="black"/>
<path d="M119.225 71.2468C117.816 72.8168 117.207 75.0425 115.567 76.3699C114.57 77.1696 113.309 77.5507 112.149 78.0945C110.989 78.6383 109.84 79.4672 109.495 80.6987C109.111 82.0848 109.854 83.5002 110.244 84.8862C110.647 86.3203 110.671 87.8183 110.695 89.319C110.722 91.1342 110.751 92.9495 110.719 94.7647C110.671 97.5928 110.436 100.552 108.932 102.948C114.364 104.672 120.141 104.907 125.838 105.128C126.933 105.206 128.033 105.178 129.122 105.046C130.066 104.858 131 104.622 131.92 104.339C133.739 103.859 135.613 103.62 137.494 103.628C138.314 103.628 139.151 103.678 139.942 103.465C140.733 103.252 141.494 102.705 141.708 101.916C141.898 101.207 141.62 100.453 141.256 99.8158C140.594 98.6537 139.653 97.6834 138.942 96.5373C138.217 95.3266 137.786 93.9628 137.685 92.5559C137.585 91.1489 137.817 89.738 138.362 88.4367C138.993 86.9734 140.008 85.6992 140.628 84.2332C141.263 82.6592 141.432 80.9364 141.115 79.2695C140.798 77.6026 140.007 76.0615 138.838 74.8292C136.682 72.6275 133.587 71.7745 130.627 71.3214C129.38 71.1745 128.191 70.7161 127.169 69.9886C126.033 69.2423 124.561 69.061 123.23 69.2263C121.695 69.3979 120.273 70.1151 119.225 71.2468Z" fill="#3F3D56"/>
<g opacity="0.1">
<path opacity="0.1" d="M138.445 86.8987C137.901 88.1832 137.667 89.5777 137.764 90.969C137.824 89.9741 138.054 88.9967 138.445 88.0796C139.073 86.6162 140.089 85.3421 140.709 83.876C141.216 82.6519 141.429 81.3265 141.331 80.0057C141.276 80.9315 141.066 81.8415 140.709 82.6979C140.089 84.1639 139.073 85.4354 138.445 86.8987Z" fill="black"/>
<path opacity="0.1" d="M110.775 88.9565C110.791 90.0014 110.808 91.0489 110.81 92.0938C110.81 90.6544 110.797 89.2177 110.775 87.781C110.754 86.291 110.727 84.7823 110.324 83.3456C110.057 82.434 109.661 81.509 109.522 80.5894C109.284 81.8955 109.96 83.2203 110.324 84.5237C110.727 85.9471 110.754 87.4665 110.775 88.9565Z" fill="black"/>
<path opacity="0.1" d="M140.033 101.94C139.231 102.156 138.408 102.108 137.588 102.103C135.708 102.091 133.835 102.326 132.016 102.801C131.096 103.083 130.162 103.318 129.218 103.505C128.128 103.64 127.027 103.669 125.932 103.59C120.427 103.374 114.845 103.142 109.573 101.572C109.416 101.921 109.238 102.259 109.039 102.585C114.471 104.307 120.248 104.544 125.942 104.766C127.038 104.844 128.139 104.815 129.229 104.68C130.17 104.495 131.1 104.261 132.016 103.979C133.831 103.502 135.7 103.265 137.577 103.273C138.397 103.273 139.231 103.324 140.022 103.108C140.813 102.892 141.574 102.351 141.788 101.562C141.878 101.196 141.869 100.814 141.761 100.453C141.524 101.199 140.789 101.719 140.033 101.94Z" fill="black"/>
</g>
<path d="M132.118 98.7816C131.92 99.2241 131.086 103.046 130.889 103.438C130.691 103.83 129.611 110.102 129.513 110.454C129.414 110.806 122.397 108.983 122.397 108.983L118.172 105.451L113.83 101.141C113.83 101.141 113.702 97.2516 116.9 96.0041C117.117 95.919 117.341 95.8495 117.568 95.7962C121.448 94.8659 121.058 83.0977 121.058 83.0977L129.021 86.5282C129.021 86.5282 127.546 93.3946 127.597 94.7193C127.61 95.1645 127.96 95.4417 128.417 95.6096C129.123 95.8101 129.859 95.8894 130.592 95.8442C130.592 95.8442 132.316 98.3418 132.118 98.7816Z" fill="#FBD4BE"/>
<path d="M146.374 111.677L147.504 111.973C147.504 111.973 148.34 113.242 146.374 114.423C145.125 115.18 143.926 116.016 142.785 116.926L136.973 118.69L135.854 115.185L141.262 111.091L146.374 111.677Z" fill="#B4C9FD"/>
<path opacity="0.1" d="M146.374 111.677L147.504 111.973C147.504 111.973 148.34 113.242 146.374 114.423C145.125 115.18 143.926 116.016 142.785 116.926L136.973 118.69L135.854 115.185L141.262 111.091L146.374 111.677Z" fill="black"/>
<path d="M103.959 115.063L101.698 117.27C101.698 117.27 105.776 121.977 108.913 122.27C112.05 122.563 114.073 118.69 114.073 118.69L111.358 114.426L103.959 115.063Z" fill="#B4C9FD"/>
<path opacity="0.1" d="M103.959 115.063L101.698 117.27C101.698 117.27 105.776 121.977 108.913 122.27C112.05 122.563 114.073 118.69 114.073 118.69L111.358 114.426L103.959 115.063Z" fill="black"/>
<path opacity="0.1" d="M125.432 90.7877C129.776 90.7877 133.296 87.2756 133.296 82.9431C133.296 78.6106 129.776 75.0984 125.432 75.0984C121.089 75.0984 117.568 78.6106 117.568 82.9431C117.568 87.2756 121.089 90.7877 125.432 90.7877Z" fill="black"/>
<path d="M125.432 90.1987C129.776 90.1987 133.296 86.6865 133.296 82.354C133.296 78.0216 129.776 74.5094 125.432 74.5094C121.089 74.5094 117.568 78.0216 117.568 82.354C117.568 86.6865 121.089 90.1987 125.432 90.1987Z" fill="#FBD4BE"/>
<path opacity="0.1" d="M139.541 148.211C137.75 148.416 135.987 148.81 134.28 149.387C131.34 150.362 108.306 149.403 107.986 149.387C107.986 148.832 107.986 148.504 107.986 148.504L109.113 145.711L122.474 144.042H128.866C128.866 144.042 138.485 146.297 139.479 147.27C139.52 147.857 139.541 148.211 139.541 148.211Z" fill="black"/>
<path opacity="0.1" d="M132.118 98.7816C131.92 99.2241 131.086 103.046 130.889 103.438C130.691 103.83 129.611 110.102 129.513 110.454C129.414 110.806 122.397 108.983 122.397 108.983L118.172 105.451L113.83 101.141C113.83 101.141 113.702 97.2516 116.9 96.0042L124.842 105.112L128.417 95.6097C129.123 95.8102 129.859 95.8895 130.592 95.8442C130.592 95.8442 132.316 98.3418 132.118 98.7816Z" fill="black"/>
<path d="M124.841 105.405L116.713 96.0761C116.237 95.7732 115.693 95.5929 115.13 95.5514C114.567 95.51 114.003 95.6088 113.488 95.8389C111.668 96.6252 109.407 97.2623 108.817 97.6541C108.226 98.046 106.014 100.472 106.014 100.472L112.603 117.667L109.701 128.993C109.701 128.993 110.145 134.78 109.014 136.888C108.326 138.236 108.004 139.74 108.079 141.251C108.079 141.251 108.424 144.048 108.031 145.516C107.802 146.498 107.784 147.518 107.98 148.507C107.98 148.507 131.332 149.488 134.279 148.507C135.986 147.928 137.75 147.534 139.541 147.331C139.541 147.331 139.006 137.522 138.472 135.169C137.938 132.815 138.916 123.843 138.916 123.843L138.277 114.231L142.109 104.369C142.109 104.369 140.033 98.046 137.868 97.4089C137.868 97.4089 133.937 96.476 133.101 96.0362C132.265 95.5963 129.806 95.2018 129.806 95.2018L128.516 95.6337L124.841 105.405Z" fill="#B4C9FD"/>
<path opacity="0.1" d="M136.183 113.906L119.078 112.746C118.645 112.717 118.27 113.043 118.241 113.475L116.404 140.414C116.375 140.846 116.702 141.22 117.135 141.249L134.24 142.41C134.673 142.439 135.047 142.113 135.077 141.681L136.913 114.741C136.943 114.31 136.615 113.936 136.183 113.906Z" fill="black"/>
<path d="M136.772 113.321L119.667 112.161C119.234 112.132 118.859 112.458 118.83 112.89L116.994 139.829C116.964 140.261 117.291 140.635 117.724 140.664L134.829 141.825C135.262 141.854 135.637 141.528 135.666 141.096L137.502 114.156C137.532 113.725 137.205 113.351 136.772 113.321Z" fill="#3F3D56"/>
<path d="M136.207 115.433L119.939 114.33L118.268 138.854L134.535 139.958L136.207 115.433Z" fill="white"/>
<path opacity="0.1" d="M134.748 121.693L121.46 120.765L121.201 124.459L134.489 125.387L134.748 121.693Z" fill="black"/>
<path opacity="0.1" d="M134.268 136.374L132.159 136.231L132.028 138.157L134.137 138.3L134.268 136.374Z" fill="black"/>
<path opacity="0.1" d="M132.188 131.727L121.393 130.995L121.262 132.921L132.056 133.653L132.188 131.727Z" fill="black"/>
<path d="M134.194 114.516L122.954 113.754L122.752 116.714L133.992 117.476L134.194 114.516Z" fill="#3F3D56"/>
<path opacity="0.1" d="M134.194 114.516L122.954 113.754L122.752 116.714L133.992 117.476L134.194 114.516Z" fill="black"/>
<path opacity="0.1" d="M125.825 147.67C125.825 147.67 125.726 162.186 121.892 170.522C121.892 170.522 126.514 159.537 126.514 159.097C126.514 158.657 129.069 154.046 128.385 152.673C127.701 151.3 125.825 147.67 125.825 147.67Z" fill="black"/>
<path opacity="0.1" d="M126.033 80.3922C125.886 79.1074 126.202 77.8122 126.923 76.7378C126.837 77.8147 127.143 78.8865 127.783 79.7576C128.424 80.6286 129.357 81.2408 130.413 81.4824C130.323 81.4044 130.259 81.301 130.228 81.1859C130.198 81.0708 130.204 80.9492 130.245 80.8373C130.792 81.4557 131.212 82.1888 131.832 82.7325C132.452 83.2763 133.382 83.6015 134.111 83.215C135.102 82.6819 135.113 81.2772 134.857 80.1843C134.306 77.8569 133.177 75.7054 131.573 73.9283C131.172 73.3911 130.653 72.9537 130.055 72.6504C129.457 72.347 128.796 72.1859 128.126 72.1797C126.608 72.0624 125.031 72.1957 123.671 72.8754C122.906 73.292 122.189 73.7918 121.533 74.3655L117.792 77.4095C117.433 77.6682 117.124 77.9918 116.884 78.3637C116.723 78.6747 116.627 79.0146 116.601 79.3633C116.505 80.3602 116.69 81.364 117.135 82.2619C117.579 83.1598 118.266 83.9163 119.118 84.4465C119.1 83.6585 119.317 82.883 119.742 82.2186C120.167 81.5541 120.78 81.0306 121.504 80.7147C121.617 80.8093 121.709 80.927 121.773 81.0598C121.837 81.1927 121.872 81.3377 121.875 81.4851L122.664 80.083C122.781 79.8279 122.966 79.6095 123.198 79.4513C123.684 79.1847 124.291 79.4993 124.705 79.8751C125.119 80.2509 125.523 80.7201 126.079 80.7787L126.1 78.6916" fill="black"/>
<path d="M126.033 80.099C125.886 78.8133 126.201 77.5172 126.923 76.4419C126.683 78.5743 128.294 80.776 130.416 81.1865C130.325 81.1092 130.261 81.0063 130.231 80.8915C130.201 80.7768 130.207 80.6556 130.247 80.5441C130.795 81.1625 131.215 81.8929 131.834 82.4393C132.454 82.9858 133.384 83.3083 134.114 82.9191C135.105 82.386 135.116 80.9813 134.859 79.8911C134.309 77.5637 133.179 75.4121 131.575 73.6351C131.078 73.0299 130.45 72.5435 129.739 72.2117C129.225 72.0219 128.684 71.9122 128.136 71.8865C126.618 71.7692 125.042 71.8998 123.682 72.5795C122.917 72.998 122.2 73.4986 121.544 74.0722L117.803 77.1163C117.443 77.3743 117.134 77.6981 116.895 78.0705C116.734 78.3813 116.637 78.7213 116.611 79.0701C116.516 80.0666 116.701 81.07 117.146 81.9674C117.59 82.8649 118.277 83.6209 119.128 84.1506C119.111 83.3628 119.329 82.5876 119.754 81.9233C120.178 81.2589 120.791 80.7353 121.515 80.4189C121.628 80.5138 121.719 80.6315 121.783 80.7643C121.847 80.8971 121.882 81.0419 121.886 81.1892L122.672 79.7925C122.788 79.5369 122.973 79.3183 123.206 79.1607C123.692 78.8942 124.299 79.2087 124.713 79.5845C125.127 79.9604 125.531 80.4268 126.087 80.4882L126.108 78.3984" fill="#3F3D56"/>
<path d="M129.758 129.579C129.071 129.233 117.715 131 117.715 131C117.715 131 115.844 130.467 111.323 129.726C106.802 128.985 106.513 124.576 106.513 124.576L106.019 115.75L107.545 114.418L114.081 118.682C114.081 118.682 114.182 120.839 114.081 121.228C114.017 121.495 113.846 121.812 113.862 122.028C113.867 122.086 113.891 122.141 113.93 122.185C113.97 122.228 114.023 122.257 114.081 122.268C114.524 122.38 120.569 123.355 120.569 123.355C120.569 123.355 134.579 122.398 138.071 127.105C138.348 127.451 138.557 127.845 138.688 128.268C139.554 131.485 130.381 129.886 129.758 129.579Z" fill="#FBD4BE"/>
<path opacity="0.1" d="M138.697 128.286C138.162 128.524 137.831 128.694 137.831 128.694C137.831 128.694 132.818 128.548 130.002 127.529C127.185 126.511 123.762 126.692 123.762 126.692C123.762 126.692 112.026 124.677 113.846 122.046C113.851 122.105 113.875 122.16 113.915 122.203C113.954 122.247 114.007 122.276 114.065 122.286C114.509 122.398 120.553 123.374 120.553 123.374C120.553 123.374 134.563 122.417 138.055 127.124C138.341 127.468 138.558 127.862 138.697 128.286V128.286Z" fill="black"/>
<path d="M143.571 112.757C143.571 112.757 144.26 117.611 144.308 118.005C144.356 118.4 144.605 123.153 144.308 123.694C144.012 124.235 143.571 125.114 143.571 125.114C143.571 125.114 144.062 126.143 142.096 126.538C140.129 126.932 137.82 128.105 137.82 128.105C137.82 128.105 132.805 127.958 130.004 126.93C127.204 125.901 123.762 126.095 123.762 126.095C123.762 126.095 108.865 123.544 115.257 120.431C121.649 117.318 126.17 121.535 126.17 121.535L133.296 121.095C133.296 121.095 135.952 119.474 136.69 119.623C137.211 119.689 137.74 119.604 138.213 119.378L138.264 114.228L143.571 112.757Z" fill="#FBD4BE"/>
<path opacity="0.1" d="M107.433 100.842L106.006 100.767L101.683 117.56C101.683 117.56 106.351 116.382 108.363 117.56C110.375 118.738 114.065 118.981 114.065 118.981L112.689 105.595L107.433 100.842Z" fill="black"/>
<path d="M107.433 100.546L106.006 100.472L101.683 117.264C101.683 117.264 106.351 116.086 108.363 117.264C110.375 118.443 114.065 118.685 114.065 118.685L112.689 105.299L107.433 100.546Z" fill="#B4C9FD"/>
<path opacity="0.1" d="M140.131 104.225L142.095 104.667C142.095 104.667 147.111 111.864 147.504 112.266C147.897 112.669 145.633 114.132 144.701 114.132C143.768 114.132 139.196 114.665 137.868 115.897C136.54 117.128 137.093 110.931 137.093 110.79C137.093 110.649 138.742 106.738 138.742 106.738L140.131 104.225Z" fill="black"/>
<path d="M140.131 103.931L142.095 104.371C142.095 104.371 147.111 111.581 147.504 111.973C147.897 112.365 145.633 113.839 144.701 113.839C143.768 113.839 139.196 114.372 137.868 115.604C136.54 116.835 137.093 110.638 137.093 110.497C137.093 110.355 138.753 106.432 138.753 106.432L140.131 103.931Z" fill="#B4C9FD"/>
<g opacity="0.1">
<path opacity="0.1" d="M126.91 76.4659C126.898 76.2615 126.903 76.0565 126.923 75.8528C126.516 76.4618 126.236 77.1462 126.1 77.8653V78.4837C126.1 78.4837 126.1 78.4703 126.1 78.4623V78.6089C126.1 79.0408 126.1 79.4752 126.087 79.907H126.049V80.107C126.049 80.0377 126.049 79.971 126.036 79.9017C125.502 79.8164 125.119 79.3686 124.721 79.0114C124.323 78.6543 123.701 78.3131 123.214 78.5876C122.981 78.7452 122.796 78.9638 122.68 79.2193L121.886 80.6161C121.883 80.4691 121.848 80.3246 121.784 80.1922C121.72 80.0598 121.628 79.9426 121.515 79.8484C120.791 80.1643 120.178 80.6878 119.753 81.3522C119.328 82.0167 119.111 82.7922 119.129 83.5801C118.398 83.1238 117.788 82.5007 117.347 81.7624C116.906 81.0241 116.647 80.1917 116.593 79.334C116.546 80.2917 116.757 81.2444 117.203 82.0939C117.648 82.9434 118.313 83.6589 119.129 84.1666C119.111 83.3788 119.329 82.6036 119.754 81.9392C120.178 81.2749 120.791 80.7513 121.515 80.4348C121.628 80.5297 121.719 80.6475 121.783 80.7803C121.847 80.913 121.882 81.0579 121.886 81.2052L122.672 79.8084C122.788 79.5528 122.973 79.3343 123.206 79.1767C123.693 78.9101 124.299 79.2247 124.713 79.6005C125.127 79.9764 125.531 80.4428 126.087 80.5041C126.087 79.8217 126.094 79.1412 126.108 78.4623C126.239 77.7502 126.512 77.0714 126.91 76.4659V76.4659Z" fill="black"/>
<path opacity="0.1" d="M126.006 79.15C126.02 78.9688 126.041 78.7875 126.068 78.6169L126.097 77.8812C126.017 78.2991 125.986 78.725 126.006 79.15Z" fill="black"/>
<path opacity="0.1" d="M134.114 82.33C133.385 82.7192 132.455 82.394 131.835 81.8502C131.215 81.3064 130.795 80.5734 130.248 79.955C130.207 80.0669 130.201 80.1884 130.231 80.3036C130.261 80.4187 130.326 80.5221 130.416 80.6001C130.362 80.6001 130.312 80.5734 130.261 80.5601C130.795 81.1732 131.22 81.8929 131.835 82.426C132.449 82.9591 133.385 83.2949 134.114 82.9058C134.844 82.5166 135.052 81.605 134.988 80.7174C134.94 81.4157 134.689 82.0208 134.114 82.33Z" fill="black"/>
<path opacity="0.1" d="M130.244 80.5548C129.351 80.3118 128.553 79.8023 127.958 79.0943C127.363 78.3864 126.999 77.5139 126.915 76.5938C126.763 78.6862 128.345 80.784 130.415 81.1865C130.327 81.1101 130.264 81.0092 130.233 80.8967C130.203 80.7841 130.207 80.6651 130.244 80.5548V80.5548Z" fill="black"/>
</g>
<path d="M258.571 124.12C258.571 124.12 257.518 123.973 257.518 122.446C257.518 120.919 256.764 118.059 256.764 118.059C256.764 118.059 256.112 113.082 255.212 112.293C254.311 111.504 253.154 106.872 253.154 106.872C253.154 106.872 252.957 104.358 252.553 103.817C252.15 103.276 251.604 101.951 250.8 100.061C249.996 98.1712 246.65 96.8758 246.65 96.8758C246.65 96.8758 240.587 93.368 238.869 92.2245C238.712 92.1297 238.565 92.0189 238.431 91.8939C238.132 91.5048 236.828 91.4968 236.828 91.4968C236.691 90.6358 236.56 89.6496 236.518 88.7566C236.518 88.6607 236.518 88.5647 236.518 88.4687C238.433 87.339 239.877 85.5579 240.582 83.4522C240.614 83.3509 240.641 83.247 240.67 83.143C240.787 83.1069 240.896 83.0465 240.988 82.9656C241.08 82.8847 241.154 82.7853 241.204 82.6739C241.357 82.33 241.362 81.9302 241.555 81.6077C241.779 81.2292 242.207 81.0266 242.543 80.7441C243.393 80.0217 243.612 78.8089 243.572 77.708C243.545 76.8124 243.401 75.9115 243.457 75.0238C243.457 74.9492 243.457 74.8746 243.473 74.7999C243.489 74.6693 243.508 74.5334 243.532 74.4054C243.663 73.7444 243.949 73.1207 244.109 72.4649C244.269 71.8092 244.285 71.0709 243.911 70.5058C243.364 69.6768 242.223 69.5115 241.221 69.4396C240.085 69.3436 239.083 69.4662 238.343 68.5253C238.003 68.0339 237.62 67.5736 237.199 67.1499C237.049 67.0113 235.596 66.1237 235.596 66.0677C234.173 65.408 232.56 65.284 231.053 65.7185C230.297 65.9371 229.589 66.2942 228.822 66.4728C227.176 66.862 225.279 66.4409 223.878 67.3818C223.098 67.9149 222.631 68.7652 222.192 69.5888C221.836 70.2677 221.474 70.9474 221.107 71.628C220.514 72.7448 219.916 73.8803 219.667 75.1171C219.615 75.3873 219.582 75.6607 219.568 75.9354V75.9354C219.568 76.0341 219.568 76.1327 219.568 76.2313C219.568 76.274 219.568 76.3166 219.568 76.3593C219.568 76.4499 219.568 76.5405 219.584 76.6258C219.6 76.7111 219.584 76.7351 219.603 76.7911C219.622 76.8471 219.627 76.9723 219.643 77.0576C219.659 77.1429 219.691 77.2949 219.723 77.4095C219.723 77.4601 219.755 77.5081 219.771 77.5587C219.787 77.6094 219.83 77.7373 219.865 77.8253C219.9 77.9133 219.902 77.9186 219.924 77.9639C219.964 78.0572 220.012 78.1478 220.06 78.2305C220.081 78.2651 220.097 78.2998 220.119 78.3344C220.192 78.4592 220.274 78.5786 220.365 78.6916C220.934 79.4033 221.778 79.8564 222.401 80.5228C222.401 80.5495 222.401 80.5761 222.401 80.6028C222.401 80.6747 222.401 80.7467 222.401 80.8213C222.439 82.3077 222.841 83.7622 223.571 85.0583C224.301 86.3544 225.338 87.4529 226.591 88.2582C226.591 88.3594 226.604 88.4634 226.609 88.5674C226.661 89.3577 226.652 90.1509 226.58 90.9397C226.471 90.8121 226.335 90.7105 226.181 90.6423C226.028 90.574 225.861 90.5408 225.693 90.5452C225.578 90.5395 225.463 90.5493 225.351 90.5745L225.327 90.5558V90.5798C224.739 90.7238 224.015 91.3342 223.323 93.0694C223.323 93.0694 221.217 95.4364 219.614 95.3378C218.01 95.2392 213.952 97.8034 213.952 97.8034C213.952 97.8034 209.991 100.365 209.142 102.977C208.667 104.459 208.096 105.908 207.434 107.317L202.526 117.371L201.625 125.368C201.625 125.368 202.125 128.915 202.026 129.459C201.927 130.003 204.081 134.881 204.081 134.881C204.081 134.881 211.197 147.35 214.104 147.99L214.312 147.846C214.437 147.909 214.569 147.957 214.705 147.99L215.304 147.571C215.341 148.04 215.325 148.511 215.256 148.976C214.857 150.21 215.408 158.244 216.108 159.819C216.808 161.395 216.56 182.053 216.56 182.053L216.461 183.873C216.461 183.873 216.461 183.932 216.485 184.033L216.461 184.465L216.533 184.502C216.608 185.081 216.583 185.669 216.461 186.24C216.209 187.04 216.108 189.297 216.108 189.297C216.108 189.297 214.104 202.06 215.055 204.624C216.006 207.188 216.811 209.998 216.811 209.998C216.811 209.998 217.813 213.197 216.859 213.73C215.905 214.263 213.203 215.209 213.754 216.539C214.261 217.771 216.188 221.071 216.474 221.553L216.45 221.82L216.057 226.066C216.121 226.626 216.273 227.173 216.509 227.686C216.939 228.614 217.773 229.571 219.365 229.467C219.632 229.448 219.94 229.419 220.242 229.379C223.152 228.987 226.732 227.692 226.732 227.692C226.547 227.574 226.377 227.434 226.227 227.273V227.273C226.084 227.135 225.971 226.969 225.894 226.786C225.817 226.603 225.779 226.406 225.781 226.207C225.824 225.431 224.373 221.75 224.009 220.841L223.927 220.639C223.927 220.639 227.235 217.187 226.684 214.132C226.684 214.132 223.023 212 224.229 210.827C225.434 209.654 227.587 206.296 227.587 206.296C227.587 206.296 227.686 193.728 227.587 191.854C227.484 190.55 227.546 189.239 227.772 187.951C227.812 187.759 227.86 187.57 227.911 187.381C229.579 187.632 231.263 187.759 232.95 187.762C233.567 187.762 234.19 187.75 234.821 187.725C234.821 187.903 234.829 188.094 234.845 188.301C234.984 191.414 235.243 196.876 235.454 198.904C235.753 201.809 237.407 209.649 237.407 209.649C237.407 209.649 234.252 211.667 237.958 216.648C237.958 216.648 237.958 218.45 237.712 218.714C237.449 219.569 237.238 220.439 237.079 221.318C236.924 222.254 236.86 223.206 237.111 223.696C237.712 224.874 241.319 224.778 241.319 224.778C241.348 224.772 241.378 224.767 241.408 224.765C242.088 224.693 242.777 224.758 243.433 224.954C244.088 225.151 244.698 225.476 245.226 225.911C246.597 227.009 251.797 226.53 254.616 226.178C255.719 226.036 256.457 225.911 256.457 225.911C256.492 225.786 256.505 225.656 256.494 225.527V225.527C256.465 224.837 255.923 223.323 252.246 221.971C252.246 221.971 248.788 219.652 248.836 217.632H248.759H248.36C248.612 217.624 248.788 217.624 248.788 217.624C248.788 217.624 247.433 212.695 247.986 212.293C248.539 211.89 246.883 206.429 246.883 206.429C246.883 206.429 245.934 197.259 245.881 196.62C245.884 196.068 245.969 195.521 246.132 194.994L245.881 189.964C245.881 189.964 245.833 188.293 245.881 187.749C245.875 187.277 245.838 186.806 245.768 186.339C245.744 186.152 245.72 185.958 245.694 185.766C246.99 185.438 247.831 185.137 247.831 185.137L247.682 167.637C248.783 165.505 248.986 160.824 248.98 157.508C248.98 155.376 248.884 153.798 248.884 153.798L250.389 151.348C250.389 151.348 250.736 148.416 250.185 147.774C249.942 147.483 250.052 147.182 250.252 146.934C250.358 146.848 250.469 146.77 250.586 146.7C250.573 146.681 250.562 146.662 250.552 146.641C250.657 146.554 250.768 146.474 250.886 146.404C250.886 146.404 250.351 145.578 250.829 145.228C251.278 145.532 251.679 145.775 251.984 145.948C251.962 146.143 251.941 146.255 251.941 146.255L252.069 145.988C252.363 146.153 252.542 146.255 252.542 146.255C252.542 146.255 254.899 141.571 254.848 140.884C254.798 140.196 256.452 137.285 256.452 137.285C256.452 137.285 256.652 135.755 257.555 135.115C258.458 134.476 258.255 129.84 258.255 129.84C258.255 129.84 258.506 127.425 259.108 126.442C259.709 125.458 258.571 124.12 258.571 124.12ZM213.476 122.065L213.521 123.182C213.254 122.753 213.062 122.446 213.062 122.446L213.476 122.065Z" fill="url(#paint1_linear_849_97)"/>
<path d="M252.681 144.229L252.104 146.681C252.104 146.681 247.481 144.322 246.65 141.337C245.819 138.351 248.043 137.213 248.043 137.213L252.353 139.031L252.681 144.229Z" fill="white"/>
<path opacity="0.1" d="M252.681 144.229L252.104 146.681C252.104 146.681 247.481 144.322 246.65 141.337C245.819 138.351 248.043 137.213 248.043 137.213L252.353 139.031L252.681 144.229Z" fill="black"/>
<path d="M226.738 227.689C226.738 227.689 222.462 229.256 219.523 229.454C217.962 229.558 217.142 228.603 216.72 227.684C216.491 227.176 216.341 226.637 216.276 226.084L216.664 221.859L216.867 219.612L223.112 217.992L223.996 220.692L224.079 220.895C224.432 221.798 225.859 225.461 225.816 226.226C225.812 226.423 225.849 226.62 225.924 226.803C225.999 226.987 226.11 227.153 226.251 227.292C226.396 227.444 226.559 227.578 226.738 227.689V227.689Z" fill="white"/>
<path d="M255.928 225.541C255.939 225.67 255.927 225.8 255.891 225.924C255.891 225.924 246.747 227.444 244.876 225.924C244.351 225.481 243.738 225.151 243.077 224.957C242.416 224.763 241.722 224.708 241.039 224.797C241.039 224.797 237.501 224.893 236.911 223.731C236.665 223.243 236.729 222.297 236.881 221.366C237.037 220.491 237.244 219.626 237.501 218.775L237.643 218.664L238.485 217.989L248.34 217.699H248.414C248.366 219.708 251.757 222.014 251.757 222.014C255.367 223.347 255.899 224.853 255.928 225.541Z" fill="white"/>
<path opacity="0.1" d="M255.931 225.541C255.94 225.67 255.927 225.8 255.891 225.924C255.891 225.924 246.747 227.444 244.879 225.924C244.353 225.48 243.739 225.15 243.078 224.956C242.417 224.762 241.722 224.708 241.039 224.797C241.039 224.797 237.498 224.893 236.908 223.731C236.665 223.243 236.726 222.297 236.878 221.364C238.241 221.5 240.392 221.838 241.237 222.648C242.514 223.875 244.678 225.101 246.004 225.199C247.051 225.263 253.28 225.461 255.931 225.541Z" fill="black"/>
<path opacity="0.1" d="M226.738 227.689C226.738 227.689 222.463 229.256 219.523 229.454C217.963 229.558 217.142 228.603 216.72 227.684C217.81 228.049 219.32 228.43 220.114 228.081C221.054 227.662 224.389 227.396 226.26 227.281C226.401 227.437 226.562 227.574 226.738 227.689V227.689Z" fill="black"/>
<path d="M233.081 101.373C229.554 100.005 225.017 95.487 226.15 93.3759C226.4 92.8428 226.55 92.268 226.591 91.6807C226.664 90.8831 226.674 90.081 226.623 89.2817C226.543 87.9718 226.385 86.6678 226.15 85.3767C226.15 85.3767 237.162 85.6246 236.52 87.2426C236.333 87.7197 236.301 88.5434 236.355 89.463C236.408 90.3826 236.539 91.4301 236.678 92.3124C236.868 93.5199 237.063 94.4448 237.063 94.4448C237.063 94.4448 236.387 95.3857 235.994 95.4364C235.601 95.487 238.142 103.332 233.081 101.373Z" fill="#885200"/>
<path opacity="0.1" d="M224.068 220.881L223.986 220.972C220.694 217 216.712 221.953 216.712 221.953L216.653 221.846L216.856 219.599L223.101 217.978L223.986 220.679L224.068 220.881Z" fill="black"/>
<path opacity="0.1" d="M248.419 217.979C248.419 217.979 246.015 217.931 244.732 219.061C243.449 220.191 237.25 219.303 237.517 219.061C237.595 218.938 237.643 218.798 237.656 218.653L238.498 217.979L248.353 217.688C248.39 217.875 248.419 217.979 248.419 217.979Z" fill="black"/>
<path d="M228.165 186.789C227.986 187.231 227.85 187.689 227.758 188.157C227.536 189.438 227.474 190.741 227.574 192.038C227.673 193.903 227.574 206.407 227.574 206.407C227.574 206.407 225.46 209.742 224.279 210.918C223.098 212.093 226.684 214.204 226.684 214.204C227.219 217.245 223.98 220.679 223.98 220.679C220.688 216.707 216.707 221.657 216.707 221.657C216.707 221.657 214.542 217.925 214.002 216.592C213.463 215.26 216.116 214.34 217.049 213.796C217.981 213.253 217.001 210.065 217.001 210.065C217.001 210.065 216.215 207.268 215.28 204.718C214.344 202.167 216.311 189.471 216.311 189.471C216.311 189.471 216.413 187.213 216.656 186.427C216.777 185.859 216.802 185.275 216.728 184.699C216.712 184.505 216.693 184.345 216.68 184.233C216.667 184.121 216.656 184.073 216.656 184.073L216.693 184.009L218.029 181.525C218.029 181.525 228.806 185.225 228.165 186.789Z" fill="#385CAD"/>
<path d="M248.419 217.685C248.419 217.685 246.015 217.635 244.732 218.752C243.449 219.868 237.25 218.997 237.517 218.752C237.784 218.506 237.76 216.694 237.76 216.694C234.124 211.739 237.226 209.729 237.226 209.729C237.226 209.729 235.604 201.932 235.31 199.04C235.104 197.022 234.85 191.577 234.714 188.492C234.655 187.16 234.621 186.24 234.621 186.24L237.565 185.656L237.947 185.582L245.114 184.145C245.114 184.145 245.312 185.478 245.445 186.568C245.513 187.033 245.55 187.503 245.555 187.973C245.51 188.506 245.555 190.177 245.555 190.177L245.801 195.178C245.642 195.703 245.559 196.247 245.555 196.796C245.606 197.435 246.538 206.554 246.538 206.554C246.538 206.554 248.16 211.997 247.607 212.389C247.054 212.781 248.419 217.685 248.419 217.685Z" fill="#385CAD"/>
<path opacity="0.1" d="M236.52 87.2506C236.333 87.7277 236.301 88.5513 236.355 89.4709C234.88 90.3569 233.184 90.8099 231.463 90.7779C229.741 90.7458 228.064 90.23 226.623 89.2897C226.543 87.9798 226.385 86.6758 226.15 85.3847C226.15 85.3847 237.162 85.6326 236.52 87.2506Z" fill="black"/>
<path d="M240.772 81.3651C240.801 83.7835 239.866 86.1144 238.172 87.845C236.478 89.5756 234.165 90.5641 231.74 90.5931C229.316 90.6221 226.979 89.6892 225.244 87.9996C223.509 86.31 222.518 84.0021 222.489 81.5836C222.489 81.509 222.489 81.4397 222.489 81.3651C222.489 78.9459 223.453 76.6258 225.167 74.9153C226.882 73.2047 229.208 72.2437 231.633 72.2437C234.058 72.2437 236.384 73.2047 238.099 74.9153C239.814 76.6258 240.777 78.9459 240.777 81.3651H240.772Z" fill="#975B00"/>
<path opacity="0.1" d="M233.081 101.372C229.554 100.005 225.017 95.487 226.15 93.3759C226.4 92.8428 226.55 92.268 226.591 91.6807L231.419 95.6416L234.407 98.0859L236.678 92.3204C236.868 93.5279 237.063 94.4528 237.063 94.4528C237.063 94.4528 236.387 95.3937 235.994 95.4444C235.601 95.495 238.142 103.332 233.081 101.372Z" fill="black"/>
<path d="M245.569 118.877L241.536 186.448L236.278 186.792L222.658 147.611L224.892 101.095L225.365 91.2675L231.42 96.2281L234.407 98.6723L236.745 92.7362L241.093 96.5159L245.569 118.877Z" fill="#385CAD"/>
<path opacity="0.1" d="M228.165 186.789C227.986 187.231 227.85 187.689 227.758 188.157C223.928 187.568 220.208 186.41 216.723 184.721L216.65 184.683L216.674 184.254V184.03L218.011 181.546C218.011 181.546 228.806 185.225 228.165 186.789Z" fill="black"/>
<path opacity="0.1" d="M237.653 188.167C236.675 188.334 235.689 188.447 234.698 188.506C234.639 187.173 234.604 186.253 234.604 186.253L237.565 185.656L237.653 188.167Z" fill="black"/>
<path opacity="0.1" d="M245.456 186.568C243.556 187.061 240.619 187.616 237.995 187.269L237.958 185.582L245.125 184.145C245.125 184.145 245.314 185.467 245.456 186.568Z" fill="black"/>
<path opacity="0.1" d="M237.947 187.578C226.992 189.444 216.958 184.094 216.958 184.094L217.054 182.282C217.054 182.282 217.302 161.733 216.613 160.158C215.924 158.583 215.387 150.605 215.777 149.387C216.167 148.168 214.352 129.776 214.352 129.776L214.058 122.313L203.292 117.949L208.102 107.946C208.752 106.543 209.311 105.101 209.775 103.628C210.611 101.029 214.494 98.4778 214.494 98.4778C214.494 98.4778 218.476 95.9295 220.049 96.0255C221.623 96.1215 223.686 93.7705 223.686 93.7705C225.209 89.8975 226.588 91.6381 226.588 91.6381C226.588 91.8246 226.588 91.6381 226.513 92.2111C225.979 96.4627 235.155 109.897 235.286 110.137L236.17 131.37L237.055 158.241L237.947 187.578Z" fill="black"/>
<path d="M237.654 187.578C226.698 189.444 216.661 184.094 216.661 184.094L216.76 182.282C216.76 182.282 217.006 161.733 216.317 160.158C215.627 158.583 215.09 150.597 215.483 149.368C215.876 148.139 214.051 129.766 214.051 129.766L213.754 122.302L202.991 117.939L207.801 107.935C208.449 106.533 209.007 105.092 209.473 103.62C210.31 101.029 214.206 98.4751 214.206 98.4751C214.206 98.4751 218.187 95.9269 219.758 96.0228C221.33 96.1188 223.403 93.7705 223.403 93.7705C224.929 89.8975 226.61 91.6381 226.61 91.6381C226.61 91.8246 226.449 91.9046 226.535 92.2111C227.711 96.3347 234.883 109.897 235.013 110.137L235.898 131.37L236.764 158.255L237.654 187.578Z" fill="white"/>
<path opacity="0.1" d="M234.701 110.737C233.523 110.246 227.281 103.137 227.281 103.137V101.519C227.053 100.986 225.701 101.311 224.608 101.684L225.079 91.8566L225.613 92.2991C226.781 96.42 234.573 110.499 234.701 110.737Z" fill="black"/>
<path d="M234.997 110.15C233.816 109.657 227.574 102.551 227.574 102.551V100.93C227.347 100.397 225.997 100.722 224.902 101.095L225.364 91.2782L225.899 91.718C227.077 95.8336 234.866 109.91 234.997 110.15Z" fill="white"/>
<path opacity="0.1" d="M216.958 145.602C217.105 145.602 224.576 144.818 224.576 144.818C224.576 144.818 229.1 153.694 228.803 155.85C228.507 158.007 227.97 159.921 226.15 159.582C224.33 159.244 216.356 159.849 216.356 159.849L216.958 145.602Z" fill="black"/>
<path d="M216.661 145.012C216.811 145.012 224.282 144.229 224.282 144.229C224.282 144.229 228.803 153.118 228.509 155.251C228.216 157.383 227.673 159.321 225.856 158.982C224.039 158.644 216.06 159.249 216.06 159.249L216.661 145.012Z" fill="white"/>
<path d="M222.291 140.857C222.291 140.857 229.148 144.535 229.295 145.655C229.442 146.774 225.805 145.164 225.019 144.967C224.502 144.845 223.976 144.763 223.446 144.722L218.206 144.863L222.291 140.857Z" fill="#975B00"/>
<path opacity="0.1" d="M232.785 111.195C233.183 111.195 233.506 110.873 233.506 110.475C233.506 110.078 233.183 109.756 232.785 109.756C232.386 109.756 232.063 110.078 232.063 110.475C232.063 110.873 232.386 111.195 232.785 111.195Z" fill="black"/>
<path d="M232.785 110.902C233.183 110.902 233.506 110.58 233.506 110.182C233.506 109.785 233.183 109.462 232.785 109.462C232.386 109.462 232.063 109.785 232.063 110.182C232.063 110.58 232.386 110.902 232.785 110.902Z" fill="#3F3D56"/>
<path opacity="0.1" d="M234.113 142.35C234.512 142.35 234.835 142.027 234.835 141.63C234.835 141.232 234.512 140.91 234.113 140.91C233.715 140.91 233.392 141.232 233.392 141.63C233.392 142.027 233.715 142.35 234.113 142.35Z" fill="black"/>
<path d="M234.113 142.054C234.512 142.054 234.835 141.732 234.835 141.334C234.835 140.937 234.512 140.614 234.113 140.614C233.715 140.614 233.392 140.937 233.392 141.334C233.392 141.732 233.715 142.054 234.113 142.054Z" fill="#3F3D56"/>
<path opacity="0.1" d="M233.506 126.772C233.905 126.772 234.228 126.45 234.228 126.053C234.228 125.655 233.905 125.333 233.506 125.333C233.108 125.333 232.785 125.655 232.785 126.053C232.785 126.45 233.108 126.772 233.506 126.772Z" fill="black"/>
<path d="M233.506 126.479C233.905 126.479 234.228 126.157 234.228 125.759C234.228 125.362 233.905 125.04 233.506 125.04C233.108 125.04 232.785 125.362 232.785 125.759C232.785 126.157 233.108 126.479 233.506 126.479Z" fill="#3F3D56"/>
<path d="M250.137 144.573C250.137 144.573 250.629 145.308 250.137 145.639C249.646 145.969 250.186 146.817 250.186 146.817C250.186 146.817 248.959 147.531 249.499 148.179C250.039 148.827 249.697 151.735 249.697 151.735L248.222 154.184C248.222 154.184 248.31 155.754 248.315 157.876C248.315 161.187 248.12 165.841 247.04 167.963L247.185 185.371C247.185 185.371 242.02 187.256 237.696 186.68L237.055 158.745C237.055 158.745 237.99 142.904 238.335 139.865C238.536 138.288 238.619 136.697 238.58 135.107C238.58 135.107 238.434 130.352 237.939 128.148C237.939 128.148 237.405 118.584 237.351 115.937C237.327 114.671 237.394 110.976 237.469 107.463C237.552 103.622 237.645 99.9997 237.645 99.9997L236.67 92.299C236.67 92.299 237.645 92.2031 237.939 92.5923C238.071 92.7149 238.214 92.8247 238.367 92.9201C240.053 94.0556 246.001 97.5475 246.001 97.5475C246.001 97.5475 249.293 98.8536 250.081 100.725C250.87 102.596 251.417 103.923 251.799 104.456C252.182 104.99 252.39 107.495 252.39 107.495C252.39 107.495 253.523 112.107 254.407 112.888C255.292 113.669 255.928 118.626 255.928 118.626L248.112 124.757C248.112 124.757 247.425 134.955 247.278 135.35C247.131 135.744 250.137 144.573 250.137 144.573Z" fill="white"/>
<path d="M250.434 144.573C250.434 144.573 250.923 145.308 250.434 145.639C249.945 145.969 250.48 146.817 250.48 146.817C250.48 146.817 249.253 147.531 249.793 148.179C250.333 148.827 249.991 151.735 249.991 151.735L248.521 154.185C248.521 154.185 248.609 155.755 248.617 157.876C248.617 161.187 248.422 165.841 247.343 167.963L247.49 185.371C247.49 185.371 242.324 187.256 238.001 186.68L237.362 158.745C237.362 158.745 238.295 142.904 238.642 139.865C238.844 138.288 238.925 136.697 238.885 135.107C238.885 135.107 238.738 130.352 238.247 128.148C238.247 128.148 237.712 118.584 237.656 115.937C237.632 114.671 237.699 110.976 237.774 107.463C237.857 103.622 237.95 99.9998 237.95 99.9998L236.662 92.1951C236.662 92.1951 237.95 92.1951 238.247 92.5923C238.377 92.7164 238.52 92.8263 238.674 92.9202V92.9202C240.358 94.0557 246.306 97.5475 246.306 97.5475C246.306 97.5475 249.59 98.8536 250.392 100.725C251.193 102.596 251.728 103.923 252.11 104.457C252.492 104.99 252.7 107.495 252.7 107.495C252.7 107.495 253.833 112.107 254.718 112.888C255.602 113.669 256.241 118.626 256.241 118.626L248.425 124.757C248.425 124.757 247.738 134.955 247.588 135.35C247.439 135.744 250.434 144.573 250.434 144.573Z" fill="white"/>
<path opacity="0.1" d="M241.074 102.263L241.782 104.315L238.065 108.047C238.148 104.206 238.241 100.584 238.241 100.584L236.953 92.7816C236.953 92.7816 238.241 92.7816 238.538 93.1787C238.668 93.3029 238.811 93.4128 238.965 93.5066V93.5066L242.124 102.593L241.074 102.263Z" fill="black"/>
<path d="M240.772 101.674L241.48 103.724L237.766 107.455C237.846 103.614 237.942 99.9918 237.942 99.9918L236.651 92.1871C236.651 92.1871 237.942 92.1871 238.236 92.5843C238.367 92.7077 238.51 92.8175 238.663 92.9122V92.9122L241.841 102.007L240.772 101.674Z" fill="white"/>
<path opacity="0.1" d="M240.772 81.3651C240.773 82.3255 240.621 83.2801 240.323 84.1932C240.273 84.2016 240.221 84.1998 240.172 84.1879C240.122 84.176 240.075 84.1542 240.034 84.1239C239.962 81.7249 238.781 79.4699 237.325 77.5534C236.915 76.9753 236.42 76.463 235.855 76.034C235.284 75.6062 234.573 75.4057 233.862 75.4716C233.06 75.5809 232.352 76.1247 231.542 76.194C230.474 76.2819 229.517 75.5436 228.456 75.5089C228.025 75.5125 227.599 75.6081 227.208 75.7892C226.817 75.9703 226.469 76.2328 226.187 76.5591C225.63 77.2154 225.216 77.9808 224.972 78.8062C224.552 80.0585 224.323 81.3669 224.293 82.6872C224.28 83.4335 224.207 84.3691 223.513 84.641C223.565 84.0925 223.503 83.5391 223.329 83.016C223.156 82.4928 222.875 82.0114 222.505 81.6023L222.489 81.5837C222.489 81.509 222.489 81.4397 222.489 81.3651C222.489 78.9459 223.453 76.6259 225.167 74.9153C226.882 73.2047 229.208 72.2437 231.633 72.2437C234.058 72.2437 236.384 73.2047 238.099 74.9153C239.814 76.6259 240.777 78.9459 240.777 81.3651H240.772Z" fill="black"/>
<path d="M235.428 66.8833C234.039 66.2318 232.46 66.1085 230.986 66.5368C230.246 66.7554 229.549 67.1099 228.798 67.2885C227.195 67.675 225.324 67.2565 223.948 68.1921C223.184 68.7252 222.724 69.5675 222.297 70.3885L221.228 72.417C220.645 73.5285 220.057 74.6587 219.814 75.8821C219.571 77.1056 219.718 78.4757 220.496 79.4619C221.06 80.1763 221.899 80.6268 222.513 81.3011C222.882 81.7123 223.162 82.1952 223.335 82.7196C223.508 83.2439 223.57 83.7983 223.518 84.3478C224.213 84.0813 224.282 83.1404 224.298 82.394C224.328 81.0737 224.557 79.7654 224.977 78.513C225.221 77.6877 225.635 76.9223 226.193 76.266C226.474 75.9393 226.822 75.6764 227.213 75.4948C227.604 75.3132 228.03 75.2172 228.461 75.2131C229.53 75.2504 230.489 75.9888 231.548 75.8981C232.349 75.8315 233.06 75.2877 233.867 75.1784C234.579 75.1113 235.29 75.3119 235.86 75.7409C236.425 76.1685 236.92 76.681 237.327 77.2602C238.786 79.1794 239.97 81.4238 240.04 83.8307C240.342 84.0493 240.777 83.7614 240.927 83.4202C241.076 83.079 241.082 82.6792 241.271 82.354C241.491 81.9782 241.91 81.7756 242.239 81.4931C243.072 80.776 243.281 79.5686 243.249 78.473C243.217 77.3775 243.003 76.266 243.211 75.1891C243.337 74.5307 243.62 73.9097 243.775 73.2566C243.93 72.6035 243.949 71.8705 243.583 71.3081C243.048 70.4844 241.923 70.3192 240.943 70.2419C239.829 70.1459 238.832 70.2685 238.121 69.3329C237.787 68.8453 237.411 68.387 236.999 67.9629C236.852 67.8216 235.428 66.942 235.428 66.8833Z" fill="#301D00"/>
<path opacity="0.1" d="M206.376 123.094L203.587 117.947L202.702 125.89C202.702 125.89 203.194 129.419 203.095 129.96C202.996 130.501 205.11 135.353 205.11 135.353C205.11 135.353 212.092 147.761 214.943 148.398L224.563 141.531L222.008 138.295C222.008 138.295 221.124 137.951 220.902 138.295C220.902 138.295 216.156 130.155 215.667 129.568C215.178 128.982 215.272 127.801 215.272 127.801C215.272 127.801 214.534 127.017 214.78 126.282C215.026 125.546 213.369 122.998 213.369 122.998L214.892 121.577L206.376 123.094Z" fill="black"/>
<path d="M203.733 117.358L202.996 117.947L202.111 125.89C202.111 125.89 202.603 129.419 202.504 129.96C202.405 130.501 204.522 135.353 204.522 135.353C204.522 135.353 211.501 147.761 214.352 148.398L223.988 141.531L221.431 138.295C221.431 138.295 220.546 137.951 220.325 138.295C220.325 138.295 215.582 130.155 215.09 129.568C214.598 128.982 214.697 127.801 214.697 127.801C214.697 127.801 213.96 127.018 214.205 126.282C214.451 125.546 212.778 122.998 212.778 122.998L214.302 121.577L203.733 117.358Z" fill="white"/>
<path opacity="0.1" d="M249.499 148.486C250.033 149.133 249.697 152.044 249.697 152.044L248.222 154.478C248.222 154.478 248.31 156.05 248.315 158.172L245.835 158.945C245.611 159.015 245.373 159.03 245.141 158.99C244.91 158.949 244.691 158.854 244.504 158.712C244.317 158.57 244.166 158.386 244.065 158.174C243.964 157.962 243.915 157.73 243.922 157.495L244.352 143.741L250.137 145.945C249.646 146.287 250.186 147.124 250.186 147.124C250.186 147.124 248.959 147.838 249.499 148.486Z" fill="black"/>
<path d="M249.793 148.192C250.327 148.837 249.99 151.748 249.99 151.748L248.521 154.184C248.521 154.184 248.609 155.754 248.617 157.876L246.092 158.663C245.873 158.731 245.64 158.746 245.414 158.707C245.187 158.668 244.974 158.575 244.791 158.436C244.607 158.298 244.46 158.118 244.361 157.911C244.262 157.704 244.214 157.476 244.221 157.247L244.652 143.445L250.434 145.655C249.94 145.996 250.479 146.833 250.479 146.833C250.479 146.833 249.253 147.545 249.793 148.192Z" fill="white"/>
<path d="M251.712 141.63C251.712 141.63 251.319 144.133 250.336 144.279C249.352 144.426 248.911 148.328 247.931 148.192C246.95 148.057 247.599 144.562 247.634 143.885C247.669 143.208 246.565 140.404 247.388 139.767C248.211 139.13 250.83 139.767 250.83 139.767L251.712 141.63Z" fill="#975B00"/>
<path opacity="0.1" d="M253.791 122.358L255.642 118.626C255.642 118.626 256.382 121.471 256.382 122.99C256.382 124.509 257.414 124.659 257.414 124.659C257.414 124.659 258.544 125.991 257.948 126.964C257.352 127.937 257.115 130.347 257.115 130.347C257.115 130.347 257.31 134.955 256.425 135.593C255.541 136.23 255.343 137.752 255.343 137.752C255.343 137.752 253.721 140.644 253.772 141.331C253.823 142.019 251.511 146.676 251.511 146.676C251.511 146.676 252.642 140.889 246.055 138.389C246.055 138.389 246.004 136.427 246.496 135.888C246.987 135.35 247.754 135.089 247.273 132.381C246.792 129.672 247.134 126.407 247.134 125.754C247.134 125.101 248.609 121.031 248.609 121.031L253.791 122.358Z" fill="black"/>
<path d="M254.614 118.093L256.233 118.626C256.233 118.626 256.973 121.471 256.973 122.99C256.973 124.509 258.005 124.659 258.005 124.659C258.005 124.659 259.135 125.991 258.539 126.964C257.943 127.937 257.703 130.347 257.703 130.347C257.703 130.347 257.9 134.955 257.016 135.592C256.131 136.23 255.947 137.752 255.947 137.752C255.947 137.752 254.325 140.644 254.376 141.331C254.427 142.019 252.113 146.676 252.113 146.676C252.113 146.676 253.243 140.889 246.656 138.389C246.656 138.389 246.608 136.427 247.1 135.888C247.591 135.35 248.358 135.089 247.877 132.381C247.396 129.672 247.738 126.407 247.738 125.754C247.738 125.101 249.213 121.031 249.213 121.031L254.614 118.093Z" fill="white"/>
<path opacity="0.1" d="M218.839 214.817C218.839 214.817 221.42 213.199 223.114 214.375C224.808 215.55 218.839 214.817 218.839 214.817Z" fill="black"/>
<path opacity="0.1" d="M238.901 209.814C238.901 209.814 241.186 209.521 243.105 211.581C245.023 213.642 238.901 209.814 238.901 209.814Z" fill="black"/>
<g opacity="0.1">
<path opacity="0.1" d="M242.239 80.9066C241.91 81.1918 241.488 81.3917 241.269 81.7676C241.082 82.0901 241.077 82.4899 240.927 82.8338C240.777 83.1776 240.342 83.4628 240.037 83.2443C239.968 80.8453 238.784 78.5929 237.328 76.6737C236.92 76.0954 236.426 75.5837 235.861 75.1571C235.289 74.7272 234.577 74.5257 233.865 74.592C233.063 74.7013 232.357 75.245 231.548 75.3143C230.479 75.4023 229.52 74.6639 228.459 74.6293C228.028 74.6326 227.603 74.728 227.212 74.9092C226.821 75.0903 226.473 75.353 226.193 75.6795C225.635 76.3358 225.221 77.1012 224.977 77.9265C224.557 79.179 224.328 80.4873 224.298 81.8075C224.282 82.5512 224.213 83.4788 223.523 83.756C223.539 83.9538 223.539 84.1526 223.523 84.3504C224.221 84.0839 224.29 83.143 224.306 82.3966C224.336 81.0763 224.565 79.7681 224.985 78.5156C225.229 77.6903 225.643 76.9249 226.201 76.2686C226.482 75.9421 226.829 75.6793 227.22 75.4977C227.611 75.3161 228.036 75.22 228.467 75.2157C229.536 75.253 230.498 75.9914 231.556 75.9007C232.357 75.8341 233.068 75.2903 233.873 75.1811C234.585 75.114 235.297 75.3146 235.869 75.7435C236.434 76.1711 236.928 76.6836 237.336 77.2628C238.792 79.182 239.976 81.4264 240.045 83.8333C240.35 84.0519 240.785 83.764 240.935 83.4228C241.085 83.0817 241.09 82.6818 241.277 82.3566C241.496 81.9808 241.918 81.7782 242.247 81.4957C243.081 80.7786 243.289 79.5712 243.257 78.4756C243.257 78.441 243.257 78.409 243.257 78.3743C243.204 79.3286 242.95 80.2962 242.239 80.9066Z" fill="black"/>
<path opacity="0.1" d="M222.511 80.72C221.899 80.0457 221.06 79.5925 220.496 78.8782C220.02 78.2476 219.748 77.4867 219.718 76.6978C219.634 77.6842 219.911 78.6677 220.496 79.4672C221.06 80.1816 221.899 80.6321 222.511 81.3064C223.102 81.9657 223.457 82.8019 223.521 83.6841C223.561 83.1477 223.492 82.6087 223.319 82.0993C223.145 81.59 222.87 81.1209 222.511 80.72Z" fill="black"/>
<path opacity="0.1" d="M243.775 72.6701C243.618 73.3232 243.337 73.9443 243.209 74.6026C243.132 75.0479 243.104 75.5001 243.126 75.9514C243.135 75.6965 243.162 75.4426 243.209 75.1917C243.337 74.5333 243.618 73.9123 243.775 73.2592C243.866 72.8988 243.896 72.5259 243.863 72.1557C243.846 72.329 243.817 72.5009 243.775 72.6701V72.6701Z" fill="black"/>
</g>
<path opacity="0.1" d="M33 224C46.2548 224 57 221.985 57 219.5C57 217.015 46.2548 215 33 215C19.7452 215 9 217.015 9 219.5C9 221.985 19.7452 224 33 224Z" fill="#385CAD"/>
<path d="M36.3063 139.519H34.6309V177.148H36.3063V139.519Z" fill="#535461"/>
<path d="M46.8372 177.036L46.7303 178.731L46.5833 181.13L46.5219 182.127L46.3722 184.526L46.3081 185.523L46.1611 187.922L44.4697 215.129C44.3975 216.3 43.8805 217.399 43.024 218.202C42.1674 219.006 41.036 219.453 39.8603 219.453H31.077C29.898 219.453 28.7636 219.003 27.9065 218.196C27.0493 217.389 26.5345 216.285 26.4676 215.11L24.7761 187.903L24.6291 185.504L24.5677 184.508L24.4154 182.109L24.3539 181.112L24.2069 178.713L24.1001 177.017C24.0816 176.692 24.1295 176.367 24.2411 176.061C24.3526 175.756 24.5254 175.475 24.7489 175.238C24.9723 175.001 25.2419 174.812 25.541 174.682C25.8401 174.552 26.1627 174.484 26.4889 174.483H44.451C44.7787 174.484 45.1026 174.553 45.4027 174.684C45.7029 174.816 45.973 175.007 46.1964 175.246C46.4199 175.485 46.592 175.767 46.7022 176.075C46.8124 176.383 46.8583 176.71 46.8372 177.036V177.036Z" fill="#3F3D56"/>
<path d="M46.7301 178.729L46.5805 181.122H24.3537L24.2041 178.729H46.7301Z" fill="#6ABF4B"/>
<path d="M46.5189 182.119L46.3719 184.513H24.5647L24.415 182.119H46.5189Z" fill="#3B548E"/>
<path d="M46.3081 185.512L46.1611 187.903H24.7761L24.6265 185.512H46.3081Z" fill="#6ABF4B"/>
<path d="M21.6575 153.625C31.4161 160.667 35.4804 171.681 35.4804 171.681C35.4804 171.681 23.7231 171.279 13.9618 164.236C4.2005 157.194 0.130859 146.188 0.130859 146.188C0.130859 146.188 11.8882 146.582 21.6575 153.625Z" fill="#79B154"/>
<path d="M0.130859 146.188C0.130859 146.188 12.3345 152.945 16.2491 158.54C20.1638 164.135 35.4697 171.686 35.4697 171.686" stroke="#535461" stroke-width="2" stroke-miterlimit="10"/>
<path d="M27.9453 139.439C33.2575 143.269 35.47 149.264 35.47 149.264C35.47 149.264 29.0569 149.045 23.7581 145.215C18.4593 141.385 16.2334 135.387 16.2334 135.387C16.2334 135.387 22.6358 135.606 27.9453 139.439Z" fill="#79B154"/>
<path d="M16.2334 135.387C16.2334 135.387 22.8763 139.066 25.0087 142.11C27.141 145.154 35.47 149.264 35.47 149.264" stroke="#535461" stroke-width="2" stroke-miterlimit="10"/>
<path d="M43.187 148.96C37.0865 155.648 35.7959 164.388 35.7959 164.388C35.7959 164.388 44.3975 162.282 50.4926 155.592C56.5877 148.901 57.8837 140.164 57.8837 140.164C57.8837 140.164 49.2875 142.272 43.187 148.96Z" fill="#79B154"/>
<path d="M57.889 140.167C57.889 140.167 49.9421 147.022 47.922 151.746C45.9019 156.469 35.7959 164.388 35.7959 164.388" stroke="#535461" stroke-width="2" stroke-miterlimit="10"/>
<g clip-path="url(#clip1_849_97)">
<path d="M240.588 109.962L240.742 111.165L241.271 111.098L241.228 110.757L241.009 110.785L240.942 110.263L241.403 110.204L241.359 109.864L240.588 109.962Z" fill="#6ABF4B"/>
<path d="M243.186 109.63L242.666 109.697L242.71 110.037L242.919 110.01L242.986 110.533L242.535 110.59L242.579 110.93L243.34 110.833L243.186 109.63Z" fill="#385CAD"/>
<path d="M242.425 109.728L241.67 109.824L241.713 110.164L242.158 110.107L242.224 110.63L242.268 110.971L242.332 111.475L241.888 111.532L241.858 111.292L241.547 111.331L241.621 111.91L242.686 111.773L242.578 110.93L242.535 110.59L242.425 109.728Z" fill="#6ABF4B"/>
<path d="M241.78 110.687L241.714 110.164L241.67 109.824L241.607 109.334L242.052 109.277L242.08 109.501L242.391 109.461L242.319 108.897L241.253 109.033L241.36 109.864L241.403 110.204L241.513 111.067L242.268 110.971L242.225 110.63L241.78 110.687Z" fill="#385CAD"/>
<path d="M243.925 109.708L243.804 109.723C243.783 109.692 243.75 109.679 243.709 109.684C243.639 109.693 243.6 109.754 243.61 109.839C243.622 109.93 243.676 109.977 243.755 109.967C243.809 109.96 243.842 109.924 243.852 109.866L243.714 109.884L243.703 109.796L243.94 109.766L243.954 109.877C243.942 109.965 243.878 110.059 243.76 110.074C243.626 110.091 243.518 110 243.499 109.853C243.48 109.706 243.561 109.591 243.695 109.574C243.803 109.56 243.888 109.61 243.925 109.708Z" fill="#385CAD"/>
<path d="M244.261 109.605L244.095 109.626L244.108 109.725L244.254 109.706L244.266 109.799L244.12 109.817L244.134 109.925L244.299 109.904L244.311 110L244.036 110.035L243.974 109.544L244.248 109.509L244.261 109.605Z" fill="#385CAD"/>
<path d="M244.753 109.694C244.772 109.839 244.693 109.951 244.55 109.969L244.382 109.991L244.319 109.5L244.487 109.478C244.63 109.46 244.735 109.548 244.753 109.694ZM244.529 109.866C244.612 109.856 244.654 109.798 244.642 109.708C244.631 109.618 244.575 109.571 244.493 109.581L244.441 109.588L244.478 109.873L244.529 109.866Z" fill="#385CAD"/>
<path d="M245.07 109.501L244.905 109.522L244.918 109.622L245.064 109.603L245.076 109.695L244.929 109.714L244.943 109.822L245.108 109.8L245.121 109.896L244.846 109.931L244.783 109.44L245.058 109.405L245.07 109.501Z" fill="#385CAD"/>
<path d="M245.404 109.865C245.277 109.881 245.16 109.79 245.141 109.643C245.123 109.495 245.213 109.378 245.34 109.362C245.468 109.346 245.582 109.436 245.601 109.584C245.62 109.731 245.531 109.849 245.404 109.865ZM245.39 109.756C245.462 109.747 245.501 109.684 245.49 109.598C245.479 109.51 245.425 109.461 245.354 109.47C245.281 109.48 245.242 109.541 245.253 109.628C245.264 109.714 245.317 109.765 245.39 109.756Z" fill="#385CAD"/>
<path d="M246.032 109.281L246.095 109.772L245.986 109.786L245.764 109.506L245.803 109.809L245.694 109.823L245.631 109.332L245.74 109.318L245.962 109.599L245.923 109.295L246.032 109.281Z" fill="#385CAD"/>
<path d="M243.579 110.325L243.67 110.313L243.84 110.624L243.926 110.281L244.016 110.269L244.073 110.709L243.992 110.719L243.955 110.433L243.884 110.733L243.823 110.74L243.679 110.468L243.715 110.754L243.635 110.765L243.579 110.325L243.579 110.325Z" fill="#6ABF4B"/>
<path d="M244.338 110.3L244.186 110.32L244.2 110.43L244.335 110.413L244.344 110.483L244.209 110.5L244.223 110.617L244.376 110.597L244.385 110.669L244.152 110.699L244.096 110.259L244.329 110.229L244.338 110.3Z" fill="#6ABF4B"/>
<path d="M244.782 110.395C244.799 110.528 244.726 110.625 244.598 110.641L244.458 110.659L244.402 110.22L244.542 110.202C244.67 110.185 244.765 110.262 244.782 110.395ZM244.585 110.567C244.67 110.556 244.711 110.497 244.699 110.406C244.688 110.315 244.633 110.266 244.548 110.277L244.491 110.284L244.528 110.575L244.585 110.567Z" fill="#6ABF4B"/>
<path d="M244.813 110.167L244.894 110.157L244.95 110.596L244.87 110.607L244.813 110.167Z" fill="#6ABF4B"/>
<path d="M245.157 110.118C245.246 110.106 245.325 110.149 245.364 110.236L245.271 110.248C245.247 110.208 245.21 110.192 245.166 110.197C245.096 110.206 245.053 110.269 245.065 110.358C245.076 110.447 245.134 110.497 245.203 110.488C245.246 110.483 245.279 110.457 245.292 110.412L245.385 110.4C245.369 110.495 245.303 110.555 245.214 110.567C245.099 110.581 244.999 110.5 244.982 110.368C244.965 110.237 245.041 110.132 245.157 110.118Z" fill="#6ABF4B"/>
<path d="M245.707 110.415L245.547 110.435L245.531 110.522L245.446 110.533L245.535 110.074L245.628 110.062L245.829 110.484L245.744 110.495L245.707 110.415ZM245.594 110.17L245.56 110.362L245.676 110.347L245.594 110.17Z" fill="#6ABF4B"/>
<path d="M245.906 110.027L245.954 110.397L246.086 110.38L246.095 110.45L245.882 110.477L245.826 110.038L245.906 110.027Z" fill="#6ABF4B"/>
<path d="M246.41 109.957C246.499 109.946 246.579 109.989 246.617 110.075L246.524 110.087C246.5 110.048 246.463 110.031 246.42 110.037C246.35 110.046 246.307 110.108 246.318 110.197C246.33 110.286 246.387 110.337 246.457 110.328C246.5 110.322 246.532 110.297 246.546 110.252L246.638 110.24C246.623 110.334 246.557 110.395 246.468 110.406C246.352 110.421 246.252 110.34 246.235 110.208C246.218 110.077 246.294 109.972 246.41 109.957Z" fill="#6ABF4B"/>
<path d="M246.91 109.971L246.758 109.991L246.772 110.101L246.907 110.084L246.916 110.154L246.781 110.171L246.796 110.288L246.948 110.268L246.957 110.34L246.724 110.37L246.668 109.93L246.901 109.9L246.91 109.971Z" fill="#6ABF4B"/>
<path d="M247.318 109.847L247.374 110.287L247.293 110.297L247.073 110.019L247.111 110.321L247.03 110.331L246.974 109.891L247.055 109.88L247.276 110.159L247.237 109.857L247.318 109.847Z" fill="#6ABF4B"/>
<path d="M247.375 109.84L247.669 109.802L247.678 109.873L247.572 109.887L247.619 110.255L247.538 110.266L247.491 109.897L247.384 109.911L247.375 109.84V109.84Z" fill="#6ABF4B"/>
<path d="M247.97 109.836L247.818 109.855L247.832 109.966L247.967 109.948L247.976 110.018L247.841 110.036L247.856 110.152L248.008 110.133L248.017 110.205L247.784 110.234L247.728 109.794L247.961 109.764L247.97 109.836Z" fill="#6ABF4B"/>
<path d="M248.185 109.736C248.281 109.724 248.337 109.779 248.347 109.852C248.354 109.906 248.334 109.963 248.271 109.991L248.39 110.157L248.297 110.169L248.187 110.009L248.149 110.013L248.171 110.185L248.09 110.195L248.034 109.755L248.185 109.736ZM248.191 109.81L248.124 109.818L248.14 109.947L248.208 109.939C248.252 109.933 248.269 109.905 248.264 109.865C248.26 109.826 248.236 109.804 248.191 109.81Z" fill="#6ABF4B"/>
</g>
<g clip-path="url(#clip2_849_97)">
<path d="M127.936 104.1V105.276H128.51V104.943H128.273V104.433H128.773V104.1H127.936Z" fill="white"/>
<path d="M130.755 104.1H130.191V104.433H130.418V104.943H129.929V105.276H130.755V104.1Z" fill="white"/>
<path d="M129.929 104.1H129.11V104.433H129.592V104.943V105.276V105.769H129.11V105.535H128.773V106.1H129.929V105.276V104.943V104.1Z" fill="white"/>
<path d="M129.11 104.943V104.433V104.1V103.621H129.592V103.84H129.929V103.289H128.773V104.1V104.433V105.276H129.592V104.943H129.11Z" fill="white"/>
<path d="M131.534 104.266H131.403C131.385 104.233 131.352 104.217 131.308 104.217C131.231 104.217 131.181 104.27 131.181 104.353C131.181 104.442 131.232 104.494 131.317 104.494C131.376 104.494 131.417 104.463 131.435 104.409H131.285V104.323H131.543V104.432C131.518 104.515 131.437 104.597 131.308 104.597C131.163 104.597 131.06 104.497 131.06 104.353C131.06 104.21 131.162 104.109 131.308 104.109C131.424 104.108 131.509 104.167 131.534 104.266Z" fill="white"/>
<path d="M131.907 104.208H131.728V104.305H131.886V104.395H131.728V104.5H131.907V104.594H131.609V104.114H131.907V104.208Z" fill="white"/>
<path d="M132.421 104.354C132.421 104.496 132.321 104.594 132.166 104.594H131.984V104.114H132.166C132.321 104.114 132.421 104.211 132.421 104.354ZM132.158 104.493C132.248 104.493 132.3 104.442 132.3 104.354C132.3 104.266 132.248 104.214 132.158 104.214H132.102V104.493H132.158Z" fill="white"/>
<path d="M132.785 104.208H132.606V104.305H132.765V104.395H132.606V104.5H132.785V104.594H132.487V104.114H132.785V104.208Z" fill="white"/>
<path d="M133.093 104.599C132.955 104.599 132.842 104.497 132.842 104.353C132.842 104.208 132.954 104.107 133.093 104.107C133.231 104.107 133.341 104.209 133.341 104.353C133.342 104.497 133.231 104.599 133.093 104.599ZM133.093 104.492C133.17 104.492 133.221 104.437 133.221 104.353C133.221 104.267 133.17 104.213 133.093 104.213C133.014 104.213 132.964 104.267 132.964 104.353C132.964 104.437 133.014 104.492 133.093 104.492Z" fill="white"/>
<path d="M133.843 104.114V104.594H133.725L133.527 104.298V104.594H133.408V104.114H133.527L133.725 104.412V104.114H133.843Z" fill="white"/>
<path d="M131.08 104.817H131.18L131.318 105.136L131.457 104.817H131.555V105.246H131.468V104.967L131.351 105.246H131.285L131.168 104.967V105.246H131.08V104.817H131.08Z" fill="white"/>
<path d="M131.895 104.886H131.729V104.994H131.876V105.063H131.729V105.177H131.895V105.247H131.642V104.816H131.895V104.886Z" fill="white"/>
<path d="M132.355 105.032C132.355 105.162 132.265 105.246 132.126 105.246H131.974V104.817H132.126C132.265 104.817 132.355 104.902 132.355 105.032ZM132.122 105.173C132.214 105.173 132.266 105.122 132.266 105.033C132.266 104.943 132.214 104.89 132.122 104.89H132.06V105.173H132.122Z" fill="white"/>
<path d="M132.42 104.817H132.508V105.246H132.42V104.817Z" fill="white"/>
<path d="M132.794 104.811C132.891 104.811 132.969 104.862 132.998 104.95H132.898C132.877 104.909 132.84 104.889 132.793 104.889C132.717 104.889 132.663 104.944 132.663 105.031C132.663 105.118 132.717 105.173 132.793 105.173C132.84 105.173 132.877 105.153 132.898 105.111H132.998C132.969 105.2 132.891 105.25 132.794 105.25C132.668 105.25 132.573 105.16 132.573 105.031C132.573 104.902 132.668 104.811 132.794 104.811Z" fill="white"/>
<path d="M133.341 105.165H133.167L133.138 105.246H133.046L133.203 104.816H133.305L133.462 105.246H133.369L133.341 105.165ZM133.254 104.916L133.191 105.095H133.317L133.254 104.916Z" fill="white"/>
<path d="M133.607 104.817V105.178H133.751V105.246H133.52V104.817H133.607Z" fill="white"/>
<path d="M134.155 104.811C134.252 104.811 134.33 104.862 134.359 104.95H134.259C134.238 104.909 134.201 104.889 134.154 104.889C134.078 104.889 134.024 104.944 134.024 105.031C134.024 105.118 134.078 105.173 134.154 105.173C134.201 105.173 134.239 105.153 134.259 105.111H134.359C134.33 105.2 134.252 105.25 134.155 105.25C134.029 105.25 133.934 105.16 133.934 105.031C133.934 104.902 134.029 104.811 134.155 104.811Z" fill="white"/>
<path d="M134.687 104.886H134.521V104.994H134.668V105.063H134.521V105.177H134.687V105.247H134.434V104.816H134.687V104.886Z" fill="white"/>
<path d="M135.138 104.816V105.247H135.051L134.853 104.952V105.247H134.766V104.816H134.853L135.051 105.112V104.816H135.138Z" fill="white"/>
<path d="M135.201 104.817H135.521V104.886H135.405V105.246H135.317V104.886H135.201V104.817V104.817Z" fill="white"/>
<path d="M135.837 104.886H135.672V104.994H135.818V105.063H135.672V105.177H135.837V105.247H135.584V104.816H135.837V104.886Z" fill="white"/>
<path d="M136.079 104.817C136.184 104.817 136.237 104.876 136.237 104.948C136.237 105.001 136.207 105.054 136.137 105.072L136.242 105.246H136.14L136.044 105.079H136.003V105.246H135.916V104.817H136.079ZM136.076 104.888H136.003V105.015H136.076C136.125 105.015 136.147 104.989 136.147 104.95C136.147 104.912 136.125 104.888 136.076 104.888Z" fill="white"/>
</g>
</g>
<defs>
<linearGradient id="paint0_linear_849_97" x1="124.395" y1="222.72" x2="124.395" y2="68.7465" gradientUnits="userSpaceOnUse">
<stop stop-color="#808080" stop-opacity="0.25"/>
<stop offset="0.54" stop-color="#808080" stop-opacity="0.12"/>
<stop offset="1" stop-color="#808080" stop-opacity="0.1"/>
</linearGradient>
<linearGradient id="paint1_linear_849_97" x1="50845" y1="144298" x2="50845" y2="43375.9" gradientUnits="userSpaceOnUse">
<stop stop-color="#808080" stop-opacity="0.25"/>
<stop offset="0.54" stop-color="#808080" stop-opacity="0.12"/>
<stop offset="1" stop-color="#808080" stop-opacity="0.1"/>
</linearGradient>
<clipPath id="clip0_849_97">
<rect width="312" height="230" fill="white"/>
</clipPath>
<clipPath id="clip1_849_97">
<rect width="9" height="4" fill="white" transform="translate(239.783 108.587) rotate(-7.28683)"/>
</clipPath>
<clipPath id="clip2_849_97">
<rect width="9.69009" height="3.87781" fill="white" transform="translate(127.263 102.679)"/>
</clipPath>
</defs>
</svg>
