<svg width="309" height="219" viewBox="0 0 309 219" fill="none" xmlns="http://www.w3.org/2000/svg">
<g clip-path="url(#clip0_1064_1168)">
<path opacity="0.1" d="M102.73 218.877C117.778 218.877 129.977 216.917 129.977 214.498C129.977 212.08 117.778 210.12 102.73 210.12C87.6818 210.12 75.4829 212.08 75.4829 214.498C75.4829 216.917 87.6818 218.877 102.73 218.877Z" fill="#3B548E"/>
<path opacity="0.1" d="M250.84 219C269.618 219 284.84 217.04 284.84 214.621C284.84 212.203 269.618 210.243 250.84 210.243C232.063 210.243 216.84 212.203 216.84 214.621C216.84 217.04 232.063 219 250.84 219Z" fill="#3B548E"/>
<path opacity="0.1" d="M3.8702 94.6237H32.2496V133.327H5.94784C5.87793 133.724 5.81082 134.124 5.73812 134.524H32.2496V165.737C32.2021 165.723 32.1602 165.706 32.1154 165.689C31.366 165.393 30.6222 165.08 29.8784 164.744L29.403 164.528C28.6574 164.176 27.9117 163.803 27.166 163.409C26.906 163.272 26.6459 163.129 26.3886 162.984C22.249 160.664 18.4883 157.724 15.2371 154.266C15.142 154.173 15.0525 154.076 14.9574 153.986C14.5045 153.494 14.0598 152.996 13.6292 152.486L13.1538 151.927C12.6449 151.303 12.1528 150.662 11.6746 150.013C11.6047 149.918 11.5376 149.823 11.4649 149.733C9.52021 147.035 7.90551 144.114 6.65529 141.032C6.61615 140.94 6.58259 140.839 6.54624 140.752C6.16222 139.764 5.822 138.766 5.5256 137.758C5.39697 137.336 5.27393 136.919 5.16767 136.48C5.12853 136.351 5.09497 136.225 5.06421 136.099C3.47592 129.896 3.28857 123.453 3.28857 117.054C3.28857 116.307 3.28857 115.557 3.28857 114.816C3.28857 112.228 3.31933 109.623 3.36407 107.021C3.36407 106.347 3.39204 105.675 3.40602 104.998C3.44517 103.28 3.50109 101.562 3.57379 99.8445C3.59057 99.3661 3.61294 98.8905 3.63811 98.4148C3.63811 98.1406 3.65209 97.8664 3.68005 97.5923C3.74716 96.5962 3.80309 95.6086 3.8702 94.6237Z" fill="#3B548E"/>
<path opacity="0.1" d="M32.2495 51.531H16.6826C19.2131 47.5681 21.9779 43.7599 24.9624 40.127C27.2749 37.2843 29.7161 34.5144 32.2495 31.8453V51.531Z" fill="#3B548E"/>
<path opacity="0.1" d="M32.2494 52.7285V93.4262H3.95947C3.95947 93.3087 3.97905 93.1884 3.98744 93.0709C4.0126 92.7492 4.03777 92.4274 4.06573 92.1085C4.09649 91.7335 4.13005 91.3558 4.1664 90.9893C4.20275 90.6228 4.2419 90.1751 4.28384 89.7694C4.32579 89.3638 4.36493 88.9525 4.41247 88.5468C4.46001 88.1411 4.50195 87.7354 4.55228 87.3325C4.60262 86.9296 4.64736 86.5211 4.70049 86.1182C4.74243 85.7825 4.78717 85.4495 4.83191 85.1138C4.89622 84.641 4.96334 84.1653 5.03604 83.6953C5.03604 83.6253 5.05561 83.5526 5.0668 83.4854C5.57717 80.0445 6.27259 76.6336 7.15003 73.2676C8.06849 69.7367 9.24134 66.2769 10.6594 62.9155C12.1665 59.3991 13.931 55.9989 15.9387 52.7425L32.2494 52.7285Z" fill="#3B548E"/>
<path opacity="0.1" d="M39.0249 94.6209V133.327H99.6398V94.6209H39.0249ZM39.0249 134.521V167.76C39.3716 167.833 39.7156 167.903 40.0567 167.961C40.5209 168.051 40.9823 168.132 41.4549 168.202C41.5443 168.216 41.6366 168.23 41.7345 168.238C41.9191 168.269 42.1092 168.294 42.2938 168.319C42.7607 168.384 43.2249 168.437 43.6919 168.479C43.9128 168.501 44.1365 168.521 44.3602 168.538L44.8999 168.58C45.1935 168.602 45.4843 168.619 45.7723 168.627C45.9513 168.627 46.1302 168.644 46.3148 168.65C46.4546 168.65 46.5944 168.65 46.7398 168.65C46.8852 168.65 47.0922 168.65 47.2683 168.65C47.5088 168.65 47.7493 168.65 47.987 168.65H48.3085C48.549 168.65 48.7895 168.65 49.0272 168.627H49.044C49.2089 168.627 49.3767 168.627 49.5445 168.605C49.5911 168.608 49.6378 168.608 49.6843 168.605C49.8241 168.605 49.9639 168.605 50.0982 168.585H50.196L51.1328 168.513C51.4404 168.485 51.7508 168.448 52.0639 168.415L52.7015 168.339C55.2953 167.975 57.8602 167.429 60.3773 166.705C66.0314 165.127 71.5624 162.92 77.2137 161.302C84.5203 159.218 92.5932 158.194 99.6538 160.743V134.521H39.0249ZM99.6398 51.531V0.00274453C93.0035 -0.0691952 86.3852 0.707437 79.9456 2.31378C64.5969 6.17204 50.8252 14.5404 39.0249 25.2283V51.5282H42.0673V52.7229H39.0249V93.4262H99.6398V52.7257H54.5582V51.531H99.6398ZM177.497 34.1255C173.699 33.9912 169.924 32.7881 166.51 30.9303C159.981 27.377 154.766 21.8904 148.938 17.26C136.83 7.61573 121.814 1.79618 106.41 0.352478V51.531H192.94L193.156 51.3044L177.497 34.1255ZM185.379 32.7266L193.737 41.9036V30.3204C190.938 30.6673 188.486 31.4927 185.391 32.7154L185.379 32.7266ZM193.737 176.014V134.521H175.928C175.88 134.345 175.833 134.166 175.777 133.987C175.83 134.166 175.875 134.345 175.925 134.521H106.421V164.528C107.081 165.018 107.732 165.533 108.378 166.056C109.074 166.616 109.762 167.206 110.453 167.785L111.149 168.361C111.482 168.641 111.818 168.921 112.156 169.184C112.827 169.729 113.505 170.266 114.189 170.796C114.527 171.075 114.874 171.327 115.218 171.59C120.678 175.767 126.438 179.537 132.451 182.868C133.799 183.614 135.159 184.343 136.531 185.053C137.446 185.521 138.365 185.985 139.288 186.436C140.675 187.113 142.073 187.766 143.483 188.394C156.476 194.23 170.215 198.235 184.308 200.293C187.438 200.756 190.58 201.12 193.735 201.385V176.011H194.014L193.737 176.014ZM106.421 52.7257V93.4262H193.749V52.7257H106.421ZM106.421 94.6209V133.327H193.749V94.6209H106.421ZM200.527 30.27V43.1906L211.195 31.4787C207.66 30.908 204.104 30.5004 200.527 30.2561V30.27ZM200.527 94.6349V133.327H285.464V94.6209L200.527 94.6349ZM285.153 179.086L285.453 134.521H200.527V201.829C205.998 202.059 211.477 201.994 216.941 201.634H217.036C219.646 201.469 222.244 201.231 224.829 200.917H224.888C238.682 199.311 252.17 195.71 264.931 190.227L285.153 179.086ZM301.842 100.994C301.523 100.242 301.19 99.4948 300.852 98.7562C300.22 97.3572 299.551 95.9975 298.863 94.6377H292.236V133.327H308.992C308.983 122.37 306.212 111.179 301.85 100.98L301.842 100.994ZM292.236 134.535V172.866C296.956 168.339 300.944 163.16 303.816 157.24C307.269 150.111 308.849 142.392 308.978 134.53L292.236 134.535ZM292.236 83.3567V93.429H298.243C296.426 89.9617 294.423 86.5947 292.245 83.3427L292.236 83.3567ZM234.633 37.8634C234.191 37.6956 233.749 37.5249 233.305 37.3598C228.616 35.6272 223.824 34.1863 218.957 33.0455L202.632 50.9714L202.319 51.3044L202.529 51.5338H260.63C252.538 45.9606 243.814 41.3671 234.641 37.8495L234.633 37.8634ZM262.333 52.7397H201.718L200.527 53.8309V93.4262H210.968H210.985H285.475V74.2469C278.737 66.0927 270.959 58.8574 262.341 52.7257L262.333 52.7397Z" fill="#3B548E"/>
<path opacity="0.1" d="M32.2494 73.2565V93.4263H3.95947C3.95947 93.3088 3.97905 93.1885 3.98744 93.0709C4.0126 92.7492 4.03777 92.4274 4.06573 92.1085C4.09649 91.7336 4.13005 91.3559 4.1664 90.9893C4.20275 90.6228 4.2419 90.1752 4.28384 89.7695C4.32579 89.3638 4.36493 88.9525 4.41247 88.5468C4.46001 88.1411 4.50195 87.7354 4.55228 87.3325C4.60262 86.9296 4.64736 86.5211 4.70049 86.1182C4.74243 85.7825 4.78717 85.4496 4.83191 85.1138C4.89622 84.641 4.96334 84.1653 5.03604 83.6953C5.03604 83.6254 5.05561 83.5526 5.0668 83.4855C5.57717 80.0445 6.27259 76.6337 7.15003 73.2677L32.2494 73.2565Z" fill="#3B548E"/>
<path opacity="0.1" d="M3.8702 94.6238H32.2496V133.327H5.94784C5.87793 133.724 5.81082 134.124 5.73812 134.524H32.2496V165.737C32.2021 165.723 32.1602 165.706 32.1154 165.69C31.366 165.393 30.6222 165.08 29.8784 164.744L29.403 164.528C28.6574 164.176 27.9117 163.803 27.166 163.409C26.9059 163.272 26.6459 163.129 26.3886 162.984C22.249 160.664 18.4883 157.724 15.2371 154.266C15.142 154.174 15.0525 154.076 14.9574 153.986C14.5045 153.494 14.0598 152.996 13.6292 152.486L13.1538 151.927C12.6449 151.303 12.1528 150.662 11.6746 150.013C11.6047 149.918 11.5376 149.823 11.4649 149.733C9.52021 147.035 7.90551 144.114 6.65529 141.032C6.61615 140.94 6.58259 140.839 6.54624 140.752C6.16222 139.764 5.822 138.766 5.5256 137.758C5.39697 137.336 5.27393 136.919 5.16767 136.48C5.12853 136.351 5.09497 136.225 5.06421 136.099C3.47592 129.896 3.28857 123.453 3.28857 117.054C3.28857 116.307 3.28857 115.557 3.28857 114.816C3.28857 112.228 3.31933 109.623 3.36407 107.021C3.36407 106.347 3.39204 105.675 3.40602 104.998C3.44517 103.28 3.50109 101.562 3.57379 99.8446C3.59057 99.3662 3.61294 98.8905 3.63811 98.4149C3.63811 98.1407 3.65209 97.8665 3.68005 97.5923C3.74716 96.5963 3.80309 95.6086 3.8702 94.6238Z" fill="#3B548E"/>
<path opacity="0.1" d="M60.3633 58.5537V93.4263H39.0249V58.5537H42.0673V46.7467H54.5554V58.5537H60.3633Z" fill="#3B548E"/>
<path opacity="0.1" d="M60.3634 94.621H39.0278V133.324H60.3634V94.621Z" fill="#3B548E"/>
<path opacity="0.1" d="M39.0249 134.524H60.3633V166.7C57.8462 167.423 55.2813 167.968 52.6875 168.331L52.05 168.409C51.7368 168.445 51.4264 168.476 51.1188 168.507C50.8112 168.538 50.4924 168.56 50.1821 168.58H50.0842C49.95 168.58 49.8046 168.596 49.6731 168.599H49.5305C49.3627 168.599 49.195 168.616 49.0272 168.622C48.7895 168.636 48.5518 168.638 48.3085 168.641C48.2051 168.641 48.1072 168.641 48.0038 168.641C47.7633 168.641 47.5256 168.641 47.2851 168.641H46.7566C46.614 168.641 46.477 168.641 46.3288 168.641L45.7891 168.622C45.5095 168.622 45.2075 168.591 44.9167 168.571L44.3798 168.532L43.7115 168.471C43.2417 168.429 42.7747 168.375 42.3133 168.311L41.7541 168.233L41.4744 168.194C41.0075 168.121 40.5461 168.042 40.0763 167.953C39.7324 167.894 39.3912 167.821 39.0445 167.752L39.0249 134.524Z" fill="#3B548E"/>
<path opacity="0.1" d="M193.748 54.4352H176.154V93.4235H193.748V54.4352Z" fill="#3B548E"/>
<path opacity="0.1" d="M193.751 94.621V133.327H106.421V116.632H152.937V126.48H176.155V94.621H193.751Z" fill="#3B548E"/>
<path opacity="0.1" d="M194.028 176.022H193.749V201.413C190.598 201.146 187.457 200.783 184.325 200.324C170.225 198.259 156.48 194.246 143.483 188.4C139.73 186.71 136.054 184.865 132.454 182.866C126.441 179.532 120.68 175.763 115.218 171.587C113.846 170.535 112.492 169.459 111.155 168.359C110.229 167.595 109.309 166.811 108.378 166.05C107.732 165.527 107.081 165.012 106.421 164.52V134.524H175.922C175.875 134.345 175.827 134.166 175.777 133.99C175.83 134.166 175.88 134.345 175.928 134.524H193.749V176.005C193.844 176.008 193.936 176.016 194.028 176.022Z" fill="#3B548E"/>
<path opacity="0.1" d="M239.636 51.5311H228.171V47.9666H233.31V37.3487C233.756 37.511 234.2 37.6779 234.641 37.8495V47.9666H239.636V51.5311Z" fill="#6C63FF"/>
<path opacity="0.1" d="M267.257 93.4262H210.974C210.974 93.4262 210.974 93.4262 210.993 93.4402L210.968 93.4262H200.527V54.438H203.485V83.256H217.005V66.189H228.174V52.7285H239.638V66.2002H250.807V83.2672H267.257V93.4262Z" fill="#3B548E"/>
<path opacity="0.1" d="M200.527 94.621V133.327H267.257V94.621H200.527ZM285.372 178.887L285.464 148.25H267.257V134.541H200.527V201.83C205.998 202.059 211.477 201.994 216.941 201.634H217.036C219.646 201.47 222.244 201.231 224.829 200.917H224.888C238.682 199.311 252.17 195.71 264.931 190.227" fill="#3B548E"/>
<path opacity="0.1" d="M293.422 134.524H308.989C308.852 142.383 307.275 150.103 303.824 157.232C300.952 163.155 296.962 168.334 292.248 172.858V148.236H293.422V134.524Z" fill="#3B548E"/>
<path opacity="0.1" d="M308.997 133.327H293.422V100.981H301.85C306.212 111.179 308.983 122.37 308.997 133.327Z" fill="#3B548E"/>
<path opacity="0.1" d="M193.751 65.2742H184.325V77.498H193.751V65.2742Z" fill="#6C63FF"/>
<path opacity="0.1" d="M193.751 90.6116H184.325V93.4263H193.751V90.6116Z" fill="#3B548E"/>
<path opacity="0.1" d="M193.751 94.621H184.325V102.833H193.751V94.621Z" fill="#3B548E"/>
<path opacity="0.1" d="M193.751 115.949H184.325V128.173H193.751V115.949Z" fill="#3B548E"/>
<path opacity="0.1" d="M193.751 141.286H184.325V153.51H193.751V141.286Z" fill="#3B548E"/>
<path opacity="0.1" d="M193.749 176.005C193.844 176.005 193.936 176.005 194.028 176.022H193.749V178.862H184.325V166.624H193.749V176.005Z" fill="#3B548E"/>
<path opacity="0.1" d="M193.749 191.956V201.399C190.598 201.132 187.457 200.769 184.325 200.31V191.956H193.749Z" fill="#3B548E"/>
<path opacity="0.1" d="M146.819 132.428H106.421V133.327H146.819V132.428Z" fill="#3B548E"/>
<path opacity="0.1" d="M146.819 134.521H106.421V137.963H146.819V134.521Z" fill="#3B548E"/>
<path opacity="0.1" d="M146.819 149.244H106.421V154.778H146.819V149.244Z" fill="#3B548E"/>
<path opacity="0.1" d="M146.816 166.059V171.593H115.218C113.846 170.545 112.491 169.468 111.152 168.364C110.227 167.6 109.309 166.817 108.375 166.059H146.816Z" fill="#3B548E"/>
<path opacity="0.1" d="M146.816 182.871V188.4H143.48C139.731 186.708 136.056 184.862 132.454 182.863L146.816 182.871Z" fill="#3B548E"/>
<path opacity="0.1" d="M224.896 98.3729H216.944V106.33H224.896V98.3729Z" fill="#3B548E"/>
<path opacity="0.1" d="M52.707 61.2984H44.7544V69.2555H52.707V61.2984Z" fill="#3B548E"/>
<path opacity="0.1" d="M52.707 79.7811H44.7544V87.7382H52.707V79.7811Z" fill="#3B548E"/>
<path opacity="0.1" d="M52.707 98.2638H44.7544V106.221H52.707V98.2638Z" fill="#3B548E"/>
<path opacity="0.1" d="M52.707 116.744H44.7544V124.701H52.707V116.744Z" fill="#3B548E"/>
<path opacity="0.1" d="M52.707 135.226H44.7544V143.184H52.707V135.226Z" fill="#6C63FF"/>
<path opacity="0.1" d="M52.707 153.709H44.7544V161.666H52.707V153.709Z" fill="#3B548E"/>
<path opacity="0.1" d="M255.255 98.3729H247.303V106.33H255.255V98.3729Z" fill="#6C63FF"/>
<path opacity="0.1" d="M224.896 118H216.944V125.957H224.896V118Z" fill="#3B548E"/>
<path opacity="0.1" d="M255.255 118H247.303V125.957H255.255V118Z" fill="#6C63FF"/>
<path opacity="0.1" d="M224.896 137.624H216.944V145.581H224.896V137.624Z" fill="#3B548E"/>
<path opacity="0.1" d="M255.255 137.624H247.303V145.581H255.255V137.624Z" fill="#6C63FF"/>
<path opacity="0.1" d="M224.896 157.251H216.944V165.208H224.896V157.251Z" fill="#3B548E"/>
<path opacity="0.1" d="M255.255 157.251H247.303V165.208H255.255V157.251Z" fill="#6C63FF"/>
<path opacity="0.1" d="M224.896 176.878H216.944V184.835H224.896V176.878Z" fill="#3B548E"/>
<path opacity="0.1" d="M255.255 176.878H247.303V184.835H255.255V176.878Z" fill="#3B548E"/>
<path opacity="0.1" d="M216.944 201.634V196.502H224.894V200.903L216.944 201.634Z" fill="#3B548E"/>
<path opacity="0.1" d="M5.0332 83.4799V88.032H32.2494V83.4799H5.0332ZM7.7456 87.7466H5.52535V83.7596H7.76237L7.7456 87.7466ZM10.4552 87.7466H8.21817V83.7596H10.4552V87.7466ZM13.1592 87.7466H10.9222V83.7596H13.1592V87.7466ZM15.8688 87.7466H13.6346V83.7596H15.8716L15.8688 87.7466ZM18.5756 87.7466H16.3386V83.7596H18.5756V87.7466ZM21.2852 87.7466H19.0482V83.7596H21.2852V87.7466ZM23.9948 87.7466H21.7578V83.7596H23.9948V87.7466ZM26.7016 87.7466H24.4645V83.7596H26.7016V87.7466ZM29.4084 87.7466H27.1713V83.7596H29.4084V87.7466ZM32.1152 87.7466H29.8781V83.7596H32.1152V87.7466Z" fill="#6C63FF"/>
<path opacity="0.1" d="M5.0332 96.725V101.277H32.2494V96.725H5.0332ZM7.7456 100.989H5.52535V97.0132H7.76237L7.7456 100.989ZM10.4552 100.989H8.21817V97.0132H10.4552V100.989ZM13.1592 100.989H10.9222V97.0132H13.1592V100.989ZM15.8688 100.989H13.6346V97.0132H15.8716L15.8688 100.989ZM18.5756 100.989H16.3386V97.0132H18.5756V100.989ZM21.2852 100.989H19.0482V97.0132H21.2852V100.989ZM23.9948 100.989H21.7578V97.0132H23.9948V100.989ZM26.7016 100.989H24.4645V97.0132H26.7016V100.989ZM29.4084 100.989H27.1713V97.0132H29.4084V100.989ZM32.1152 100.989H29.8781V97.0132H32.1152V100.989Z" fill="#6C63FF"/>
<path opacity="0.1" d="M5.0332 109.976V114.536H32.2494V109.976H5.0332ZM7.7456 114.24H5.52535V110.261H7.76237L7.7456 114.24ZM10.4552 114.24H8.21817V110.261H10.4552V114.24ZM13.1592 114.24H10.9222V110.261H13.1592V114.24ZM15.8688 114.24H13.6346V110.261H15.8716L15.8688 114.24ZM18.5756 114.24H16.3386V110.261H18.5756V114.24ZM21.2852 114.24H19.0482V110.261H21.2852V114.24ZM23.9948 114.24H21.7578V110.261H23.9948V114.24ZM26.7016 114.24H24.4645V110.261H26.7016V114.24ZM29.4084 114.24H27.1713V110.261H29.4084V114.24ZM32.1152 114.24H29.8781V110.261H32.1152V114.24Z" fill="#6C63FF"/>
<path opacity="0.1" d="M5.0332 123.226V127.773H32.2494V123.226H5.0332ZM7.7456 127.49H5.52535V123.509H7.76237L7.7456 127.49ZM10.4552 127.49H8.21817V123.509H10.4552V127.49ZM13.1592 127.49H10.9222V123.509H13.1592V127.49ZM15.8688 127.49H13.6346V123.509H15.8716L15.8688 127.49ZM18.5756 127.49H16.3386V123.509H18.5756V127.49ZM21.2852 127.49H19.0482V123.509H21.2852V127.49ZM23.9948 127.49H21.7578V123.509H23.9948V127.49ZM26.7016 127.49H24.4645V123.509H26.7016V127.49ZM29.4084 127.49H27.1713V123.509H29.4084V127.49ZM32.1152 127.49H29.8781V123.509H32.1152V127.49Z" fill="#6C63FF"/>
<path opacity="0.1" d="M5.15088 136.474C5.25993 136.902 5.38297 137.33 5.5116 137.753V136.76H7.74862V140.738H6.55181C6.58817 140.83 6.62452 140.931 6.66087 141.018H32.2496V136.474H5.15088ZM10.4638 140.738H8.22679V136.76H10.4638V140.738ZM13.1678 140.738H10.9308V136.76H13.1678V140.738ZM15.8774 140.738H13.6348V136.76H15.8718L15.8774 140.738ZM18.5842 140.738H16.3472V136.76H18.5842V140.738ZM21.2938 140.738H19.0568V136.76H21.2938V140.738ZM24.0034 140.738H21.7664V136.76H24.0034V140.738ZM26.7102 140.738H24.4732V136.76H26.7102V140.738ZM29.417 140.738H27.18V136.76H29.417V140.738ZM32.1238 140.738H29.8868V136.76H32.1238V140.738Z" fill="#6C63FF"/>
<path opacity="0.1" d="M11.4702 149.725C11.5401 149.814 11.6072 149.915 11.6799 150.005H13.1592V151.916C13.3186 152.106 13.4751 152.296 13.6373 152.475V149.993H15.8744V153.986H14.9684C15.0578 154.078 15.1445 154.176 15.248 154.266H32.2578V149.725H11.4702ZM18.5756 153.986H16.3385V150.01H18.5756V153.986ZM21.2852 153.986H19.0481V150.01H21.2852V153.986ZM23.9947 153.986H21.7577V150.01H23.9947V153.986ZM26.7015 153.986H24.4645V150.01H26.7015V153.986ZM29.4083 153.986H27.1713V150.01H29.4083V153.986ZM32.1151 153.986H29.8781V150.01H32.1151V153.986Z" fill="#6C63FF"/>
<path opacity="0.1" d="M26.3999 162.973C26.6544 163.118 26.9144 163.253 27.1773 163.398V163.258H29.4143V164.517L29.8897 164.738V163.258H32.1267V165.678C32.1696 165.7 32.2146 165.717 32.2609 165.729V162.973H26.3999Z" fill="#6C63FF"/>
<path opacity="0.1" d="M210.974 93.4263H210.991H210.974ZM193.749 176.002H194.028H193.749ZM175.777 133.987C175.83 134.166 175.875 134.345 175.925 134.521C175.881 134.345 175.833 134.166 175.777 133.987ZM210.974 93.4179H210.991H210.974ZM42.0786 51.5226V52.7173H54.5696V51.5226H42.0786ZM193.749 176.002H194.028H193.749ZM175.777 133.987C175.83 134.166 175.875 134.345 175.925 134.521C175.881 134.345 175.833 134.166 175.777 133.987ZM210.974 93.4179H210.991H210.974ZM193.749 175.994H194.028H193.749ZM175.777 133.987C175.83 134.166 175.875 134.345 175.925 134.521C175.881 134.345 175.833 134.166 175.777 133.987Z" fill="#6C63FF"/>
<path d="M129.076 106.227C129.076 106.227 127.975 106.073 127.975 104.467C127.975 102.861 127.186 99.8614 127.186 99.8614C127.186 99.8474 126.504 94.6378 125.561 93.8096C124.619 92.9814 123.408 88.1187 123.408 88.1187C123.408 88.1187 123.201 85.4804 122.779 84.9124C122.357 84.3444 121.786 82.9539 120.945 80.9702C120.103 78.9865 116.594 77.6128 116.594 77.6128C116.594 77.6128 110.249 73.9308 108.451 72.7305C108.288 72.6319 108.135 72.5165 107.995 72.3864C107.682 71.9751 106.317 71.9667 106.317 71.9667C106.175 71.0658 106.038 70.0306 105.993 69.0933C105.993 68.9925 105.993 68.8918 105.979 68.7911C107.984 67.6053 109.494 65.7357 110.232 63.5255C110.266 63.4192 110.294 63.3073 110.325 63.201C110.445 63.1614 110.555 63.0971 110.649 63.0123C110.743 62.9275 110.818 62.8241 110.87 62.7085C111.032 62.3476 111.035 61.9251 111.236 61.5894C111.471 61.1921 111.918 60.9795 112.271 60.6801C113.16 59.9247 113.389 58.6516 113.347 57.4933C113.319 56.556 113.168 55.6104 113.227 54.6787L113.244 54.4437C113.261 54.3038 113.28 54.1639 113.305 54.0296C113.442 53.3357 113.742 52.681 113.909 51.9927C114.077 51.3045 114.094 50.5294 113.702 49.9363C113.129 49.0662 111.935 48.8927 110.887 48.8032C109.698 48.7024 108.636 48.8339 107.875 47.8463C107.519 47.3301 107.119 46.8461 106.678 46.3998C106.522 46.2543 105 45.3254 105 45.2639C103.516 44.5758 101.833 44.4467 100.261 44.9001C99.4722 45.1296 98.7284 45.5045 97.9286 45.6919C96.2033 46.1004 94.218 45.6584 92.7527 46.646C91.9362 47.2056 91.4468 48.0953 90.9883 48.9626C90.6154 49.677 90.237 50.3905 89.853 51.103C89.235 52.2753 88.6058 53.4672 88.3458 54.7654C88.2911 55.0479 88.2574 55.3341 88.2451 55.6216V55.6355C88.2451 55.7391 88.2451 55.8426 88.2451 55.9461V56.0776C88.2451 56.1755 88.2451 56.2707 88.2619 56.3574C88.2787 56.4441 88.2759 56.4721 88.2842 56.5309C88.2926 56.5896 88.3066 56.7211 88.3234 56.8106C88.3402 56.9002 88.3737 57.0569 88.4073 57.18C88.4213 57.2331 88.4408 57.2835 88.4576 57.3338C88.4856 57.429 88.5191 57.5213 88.5555 57.6136C88.5751 57.6612 88.5946 57.7116 88.617 57.7591C88.6589 57.857 88.7093 57.9522 88.7596 58.0389C88.782 58.0781 88.7988 58.1145 88.8211 58.1508C88.8991 58.2809 88.9851 58.4061 89.0784 58.5257C89.6768 59.2728 90.5576 59.7484 91.2092 60.4479C91.2092 60.4758 91.2092 60.5038 91.2092 60.529C91.2092 60.6073 91.2092 60.6829 91.2092 60.7612C91.2437 62.3212 91.6587 63.8491 92.418 65.212C93.1773 66.5749 94.2578 67.7315 95.5658 68.5813C95.5658 68.6876 95.5797 68.7967 95.5853 68.903C95.6399 69.7335 95.6296 70.567 95.5546 71.3959C95.4407 71.2617 95.2982 71.1548 95.1375 71.0832C94.9768 71.0115 94.8021 70.9769 94.6262 70.9818C94.5061 70.976 94.3857 70.9863 94.2683 71.0126L94.2431 70.993V71.0182C93.6279 71.1693 92.8701 71.81 92.1459 73.6314C92.1459 73.6314 89.9424 76.1159 88.2647 76.0124C86.5869 75.9089 82.3394 78.5976 82.3394 78.5976C82.3394 78.5976 78.1953 81.2892 77.3061 84.0311C76.809 85.5859 76.2131 87.1073 75.522 88.586L70.3992 99.1479L69.4541 107.528C69.4541 107.528 69.977 111.254 69.8735 111.822C69.7701 112.39 72.0239 117.513 72.0239 117.513C72.0239 117.513 79.4704 130.604 82.5127 131.276L82.7308 131.122C82.861 131.19 82.9991 131.242 83.1419 131.276L83.7683 130.834C83.8059 131.326 83.7899 131.822 83.7207 132.311C83.3013 133.604 83.8773 142.039 84.6099 143.693C85.3426 145.346 85.0825 167.027 85.0825 167.027L84.979 168.941C84.979 168.941 84.979 169.002 85.0042 169.108L84.979 169.562L85.0545 169.601C85.1329 170.208 85.1074 170.824 84.979 171.422C84.7162 172.262 84.6099 174.634 84.6099 174.634C84.6099 174.634 82.5155 188.03 83.5082 190.722C84.5009 193.414 85.3454 196.363 85.3454 196.363C85.3454 196.363 86.394 199.72 85.3957 200.294C84.3974 200.867 81.5592 201.83 82.1436 203.228C82.6749 204.521 84.691 207.985 84.9902 208.491L84.9651 208.757L84.554 213.214C84.6206 213.803 84.7801 214.377 85.0266 214.915C85.4768 215.886 86.352 216.893 88.0158 216.784C88.2954 216.765 88.6198 216.731 88.933 216.689C91.9781 216.28 95.7279 214.921 95.7279 214.921C95.5333 214.797 95.3548 214.649 95.1966 214.481C95.047 214.336 94.9284 214.162 94.8481 213.97C94.7678 213.778 94.7275 213.571 94.7297 213.362C94.7744 212.551 93.256 208.684 92.8785 207.733C92.8198 207.596 92.7891 207.518 92.7891 207.518C92.7891 207.518 96.2509 203.897 95.6748 200.688C95.6748 200.688 91.8439 198.45 93.105 197.221C94.3662 195.993 96.62 192.465 96.62 192.465C96.62 192.465 96.7234 179.273 96.62 177.303C96.512 175.936 96.5769 174.561 96.8129 173.21C96.8548 173.006 96.9052 172.807 96.9583 172.611C98.7024 172.872 100.463 173.006 102.226 173.012C102.87 173.012 103.524 173.012 104.184 172.972C104.184 173.159 104.192 173.36 104.209 173.577C104.354 176.845 104.626 182.575 104.847 184.704C105.16 187.756 106.891 195.982 106.891 195.982C106.891 195.982 103.588 198.103 107.467 203.329C107.467 203.329 107.467 205.223 107.209 205.498C106.935 206.394 106.714 207.306 106.547 208.228C106.385 209.213 106.317 210.209 106.58 210.727C107.209 211.963 110.984 211.863 110.984 211.863L111.077 211.846C111.789 211.772 112.51 211.841 113.196 212.048C113.881 212.255 114.52 212.596 115.073 213.052C116.507 214.204 121.951 213.698 124.899 213.332C126.054 213.186 126.825 213.052 126.825 213.052C126.863 212.921 126.876 212.784 126.865 212.649C126.834 211.924 126.266 210.335 122.418 208.917C122.418 208.917 118.8 206.482 118.85 204.362H118.775H118.355C118.66 204.345 118.856 204.362 118.856 204.362C118.856 204.362 117.438 199.186 118.017 198.766C118.596 198.346 116.862 192.611 116.862 192.611C116.862 192.611 115.87 182.986 115.816 182.312C115.819 181.733 115.906 181.158 116.076 180.605L115.816 175.328C115.816 175.328 115.766 173.574 115.816 173.003C115.808 172.508 115.768 172.013 115.696 171.523C115.671 171.327 115.646 171.123 115.618 170.922C116.974 170.577 117.855 170.258 117.855 170.258L117.698 151.89C118.85 149.652 119.063 144.742 119.057 141.259C119.057 139.02 118.957 137.364 118.957 137.364L120.531 134.793C120.531 134.793 120.894 131.715 120.318 131.041C120.064 130.736 120.179 130.42 120.388 130.159C120.497 130.073 120.612 129.994 120.732 129.924C120.732 129.924 120.715 129.899 120.696 129.863C120.806 129.771 120.923 129.688 121.045 129.614C121.045 129.614 120.486 128.747 120.987 128.38C121.457 128.699 121.876 128.94 122.195 129.135C122.172 129.34 122.15 129.457 122.15 129.457L122.284 129.177C122.592 129.351 122.779 129.457 122.779 129.457C122.779 129.457 125.245 124.541 125.192 123.817C125.139 123.092 126.87 120.04 126.87 120.04C126.87 120.04 127.08 118.436 128.025 117.765C128.97 117.093 128.758 112.228 128.758 112.228C128.758 112.228 129.02 109.693 129.65 108.658C130.279 107.623 129.076 106.227 129.076 106.227ZM81.8864 104.069L81.9339 105.242C81.6543 104.791 81.4529 104.467 81.4529 104.467L81.8864 104.069Z" fill="url(#paint0_linear_1064_1168)"/>
<path d="M122.913 127.334L122.309 129.908C122.309 129.908 117.472 127.437 116.599 124.298C115.727 121.159 118.059 119.967 118.059 119.967L122.566 121.878L122.913 127.334Z" fill="white"/>
<path opacity="0.1" d="M122.913 127.334L122.309 129.908C122.309 129.908 117.472 127.437 116.599 124.298C115.727 121.159 118.059 119.967 118.059 119.967L122.566 121.878L122.913 127.334Z" fill="black"/>
<path d="M95.764 214.937C95.764 214.937 91.2899 216.583 88.214 216.79C86.581 216.899 85.7225 215.897 85.2807 214.932C85.0394 214.395 84.8837 213.824 84.8193 213.239L85.2192 208.805L85.4317 206.443L91.9666 204.745L92.8922 207.576L92.9789 207.792C93.3508 208.737 94.8412 212.584 94.7965 213.387C94.7946 213.593 94.8343 213.797 94.9131 213.987C94.9919 214.177 95.1082 214.349 95.2551 214.493C95.4051 214.662 95.5761 214.811 95.764 214.937Z" fill="white"/>
<path d="M126.324 212.682C126.336 212.817 126.322 212.953 126.285 213.083C126.285 213.083 116.716 214.68 114.759 213.083C114.207 212.616 113.564 212.27 112.87 212.066C112.177 211.863 111.449 211.807 110.732 211.902C110.732 211.902 107.03 212.003 106.412 210.783C106.155 210.271 106.222 209.277 106.381 208.298C106.544 207.381 106.761 206.473 107.03 205.581L107.178 205.464L108.059 204.756L118.372 204.451H118.45C118.4 206.561 121.951 208.981 121.951 208.981C125.723 210.38 126.28 211.961 126.324 212.682Z" fill="white"/>
<path opacity="0.1" d="M126.325 212.682C126.335 212.817 126.321 212.953 126.283 213.083C126.283 213.083 116.717 214.68 114.76 213.083C114.208 212.616 113.565 212.27 112.872 212.067C112.179 211.864 111.452 211.807 110.736 211.902C110.736 211.902 107.031 212.003 106.415 210.783C106.158 210.268 106.222 209.277 106.382 208.298C107.808 208.441 110.059 208.796 110.943 209.644C112.279 210.934 114.544 212.221 115.934 212.322C117.022 212.391 123.529 212.598 126.325 212.682Z" fill="black"/>
<path opacity="0.1" d="M95.7641 214.938C95.7641 214.938 91.2901 216.583 88.2142 216.79C86.5812 216.899 85.7227 215.897 85.2837 214.929C86.4218 215.312 88.0017 215.715 88.8322 215.346C89.8165 214.91 93.3062 214.627 95.2636 214.507C95.4126 214.67 95.5806 214.814 95.7641 214.938Z" fill="black"/>
<path d="M102.403 82.3607C98.7117 80.9254 93.9636 76.183 95.1492 73.9671C95.4125 73.408 95.569 72.8044 95.6106 72.1877C95.6869 71.3505 95.6981 70.5086 95.6442 69.6696C95.561 68.2956 95.3958 66.9278 95.1492 65.5735C95.1492 65.5735 106.673 65.8337 106.002 67.5321C105.806 68.0301 105.775 68.8946 105.828 69.8627C105.881 70.8307 106.021 71.9247 106.167 72.8508C106.368 74.121 106.569 75.0891 106.569 75.0891C106.569 75.0891 105.865 76.0767 105.451 76.1299C105.037 76.1831 107.699 84.406 102.403 82.3607Z" fill="#885200"/>
<path opacity="0.1" d="M92.9706 207.792L92.8839 207.887C89.4389 203.718 85.2725 208.914 85.2725 208.914L85.2109 208.805L85.4235 206.443L91.9584 204.745L92.8839 207.576L92.9706 207.792Z" fill="black"/>
<path opacity="0.1" d="M118.453 204.745C118.453 204.745 115.937 204.692 114.594 205.878C113.252 207.064 106.765 206.135 107.044 205.878C107.127 205.75 107.177 205.604 107.19 205.453L108.071 204.745L118.383 204.44C118.422 204.627 118.453 204.745 118.453 204.745Z" fill="black"/>
<path d="M97.2573 172.007C97.0699 172.471 96.9275 172.951 96.8323 173.442C96.5991 174.787 96.5343 176.155 96.6393 177.516C96.7428 179.475 96.6393 192.599 96.6393 192.599C96.6393 192.599 94.4275 196.1 93.1943 197.333C91.9611 198.567 95.7109 200.783 95.7109 200.783C96.2702 203.973 92.8811 207.576 92.8811 207.576C89.4361 203.408 85.2696 208.606 85.2696 208.606C85.2696 208.606 83.0047 204.689 82.4398 203.29C81.875 201.891 84.6517 200.923 85.6276 200.355C86.6035 199.787 85.58 196.438 85.58 196.438C85.58 196.438 84.7551 193.503 83.7764 190.826C82.7977 188.148 84.8558 174.819 84.8558 174.819C84.8558 174.819 84.9621 172.452 85.2165 171.627C85.3449 171.031 85.3704 170.418 85.292 169.814C85.2752 169.609 85.2557 169.439 85.2417 169.324C85.2277 169.209 85.2165 169.156 85.2165 169.156L85.2557 169.089L86.6538 166.481C86.6538 166.481 97.9284 170.365 97.2573 172.007Z" fill="#385CAD"/>
<path d="M118.453 204.437C118.453 204.437 115.936 204.384 114.594 205.556C113.252 206.729 106.765 205.814 107.044 205.556C107.324 205.299 107.302 203.394 107.302 203.394C103.496 198.195 106.742 196.086 106.742 196.086C106.742 196.086 105.042 187.902 104.735 184.866C104.519 182.745 104.254 177.046 104.111 173.792C104.05 172.393 104.013 171.431 104.013 171.431L107.123 170.804L107.523 170.723L115.022 169.218C115.022 169.218 115.229 170.617 115.369 171.761C115.439 172.249 115.478 172.742 115.486 173.235C115.436 173.795 115.486 175.546 115.486 175.546L115.741 180.798C115.575 181.349 115.489 181.921 115.486 182.496C115.537 183.165 116.513 192.739 116.513 192.739C116.513 192.739 118.21 198.453 117.631 198.864C117.052 199.275 118.453 204.437 118.453 204.437Z" fill="#385CAD"/>
<path opacity="0.1" d="M106.001 67.5321C105.806 68.0301 105.775 68.8946 105.828 69.8627C104.284 70.7927 102.51 71.2682 100.709 71.2345C98.907 71.2009 97.1516 70.6594 95.6439 69.6724C95.5609 68.2975 95.3956 66.9287 95.1489 65.5735C95.1489 65.5735 106.672 65.8282 106.001 67.5321Z" fill="black"/>
<path d="M110.456 61.3487C110.458 62.357 110.299 63.3591 109.986 64.3173C109.285 66.4643 107.849 68.2943 105.93 69.484C104.012 70.6737 101.734 71.1464 99.5009 70.8186C97.2676 70.4908 95.222 69.3836 93.7256 67.6927C92.2292 66.0018 91.3785 63.836 91.3237 61.5782C91.3237 61.4998 91.3237 61.4271 91.3237 61.3487C91.3019 60.0778 91.5334 58.8153 92.0044 57.6349C92.4755 56.4544 93.1768 55.3796 94.0673 54.4731C94.9579 53.5667 96.02 52.8468 97.1915 52.3553C98.3631 51.8639 99.6208 51.6108 100.891 51.6108C102.162 51.6108 103.419 51.8639 104.591 52.3553C105.762 52.8468 106.824 53.5667 107.715 54.4731C108.606 55.3796 109.307 56.4544 109.778 57.6349C110.249 58.8153 110.48 60.0778 110.459 61.3487H110.456Z" fill="#975B00"/>
<path opacity="0.1" d="M102.403 82.3607C98.7117 80.9254 93.9636 76.183 95.1492 73.9671C95.4125 73.4079 95.569 72.8044 95.6106 72.1877L100.663 76.3425L103.79 78.9082L106.167 72.8536C106.368 74.1238 106.569 75.0919 106.569 75.0919C106.569 75.0919 105.865 76.0795 105.451 76.1327C105.037 76.1858 107.699 84.406 102.403 82.3607Z" fill="black"/>
<path d="M115.47 100.723L111.25 171.649L105.747 172.01L91.4971 130.884L93.8348 82.0586L94.3269 71.7429L100.663 76.9497L103.792 79.5153L106.239 73.2845L110.789 77.2518L115.47 100.723Z" fill="#385CAD"/>
<path opacity="0.1" d="M97.2572 172.007C97.0698 172.471 96.9274 172.951 96.8322 173.442C92.8279 172.824 88.9389 171.608 85.2947 169.836L85.2192 169.797L85.2444 169.346L85.2584 169.111L86.6565 166.504C86.6565 166.504 97.9283 170.365 97.2572 172.007Z" fill="black"/>
<path opacity="0.1" d="M107.187 173.454C106.163 173.628 105.131 173.745 104.094 173.806C104.033 172.407 103.997 171.445 103.997 171.445L107.106 170.818L107.187 173.454Z" fill="black"/>
<path opacity="0.1" d="M115.352 171.775C113.364 172.292 110.294 172.874 107.545 172.511L107.506 170.737L115.005 169.232C115.005 169.232 115.212 170.617 115.352 171.775Z" fill="black"/>
<path opacity="0.1" d="M107.494 172.835C96.0296 174.794 85.5296 169.178 85.5296 169.178L85.6302 167.276C85.6302 167.276 85.8903 145.707 85.1689 144.054C84.4474 142.4 83.8854 134.015 84.2936 132.728C84.7019 131.441 82.8032 112.141 82.8032 112.141L82.4956 104.307L71.2378 99.7438L76.2711 89.2462C76.9509 87.7744 77.5356 86.2605 78.0216 84.7137C78.8968 81.9886 82.9598 79.311 82.9598 79.311C82.9598 79.311 87.1262 76.6363 88.7733 76.737C90.4203 76.8377 92.579 74.37 92.579 74.37C94.1729 70.3047 95.6158 72.1457 95.6158 72.1457C95.6158 72.3387 95.6158 72.1457 95.5375 72.7472C94.9782 77.2098 104.581 91.3111 104.718 91.5601L105.632 113.848L106.558 142.053L107.494 172.835Z" fill="black"/>
<path d="M107.187 172.835C95.7221 174.794 85.2192 169.178 85.2192 169.178L85.3227 167.276C85.3227 167.276 85.5828 145.707 84.8585 144.054C84.1343 142.4 83.575 134.015 83.9861 132.728C84.3971 131.441 82.4957 112.141 82.4957 112.141L82.1853 104.307L70.9219 99.727L75.9552 89.2294C76.6335 87.757 77.2182 86.2432 77.7056 84.6969C78.5781 81.9718 82.6439 79.2942 82.6439 79.2942C82.6439 79.2942 86.8103 76.6195 88.4545 76.7202C90.0988 76.8209 92.2603 74.3532 92.2603 74.3532C93.857 70.2879 95.6158 72.1289 95.6158 72.1289C95.6158 72.322 95.448 72.4087 95.5375 72.7304C96.7679 77.0587 104.273 91.2943 104.41 91.5433L105.336 113.831L106.261 142.036L107.187 172.835Z" fill="white"/>
<g clip-path="url(#clip1_1064_1168)">
<path d="M86.4136 91.7231L86.4877 93.1432L87.112 93.1105L87.0911 92.7089L86.8326 92.7224L86.8004 92.1056L87.3439 92.0772L87.323 91.6756L86.4136 91.7231Z" fill="#6ABF4B"/>
<path d="M89.4776 91.563L88.8647 91.595L88.8856 91.9966L89.1322 91.9837L89.1644 92.6005L88.6328 92.6283L88.6537 93.0299L89.5517 92.983L89.4776 91.563Z" fill="#385CAD"/>
<path d="M88.5794 91.6099L87.689 91.6564L87.71 92.0581L88.2341 92.0307L88.2663 92.6475L88.2873 93.0495L88.3184 93.645L87.7943 93.6724L87.7795 93.389L87.4132 93.4082L87.4489 94.0908L88.7055 94.0251L88.6535 93.0299L88.6326 92.6283L88.5794 91.6099Z" fill="#6ABF4B"/>
<path d="M87.7421 92.6749L87.7099 92.0581L87.689 91.6565L87.6587 91.0777L88.1828 91.0503L88.1966 91.3142L88.5629 91.295L88.5281 90.6296L87.2715 90.6953L87.3227 91.6756L87.3436 92.0772L87.3968 93.0961L88.2872 93.0495L88.2662 92.6475L87.7421 92.6749Z" fill="#385CAD"/>
<path d="M90.3346 91.7186L90.192 91.726C90.1706 91.6881 90.1331 91.6696 90.0849 91.6721C90.002 91.6764 89.9504 91.7438 89.9556 91.8444C89.9612 91.952 90.0203 92.0117 90.113 92.0068C90.1768 92.0035 90.2193 91.9641 90.2358 91.8977L90.0725 91.9062L90.0671 91.8023L90.3471 91.7877L90.354 91.9189C90.3321 92.0205 90.2493 92.1248 90.1098 92.1321C89.9516 92.1404 89.8336 92.0247 89.8245 91.8513C89.8155 91.6778 89.9199 91.5501 90.0781 91.5418C90.205 91.5347 90.3005 91.6013 90.3346 91.7186Z" fill="#385CAD"/>
<path d="M90.7357 91.6274L90.5407 91.6376L90.5468 91.7549L90.7194 91.7459L90.7251 91.8549L90.5525 91.8639L90.5591 91.991L90.7541 91.9808L90.76 92.0939L90.436 92.1109L90.4058 91.5312L90.7298 91.5143L90.7357 91.6274Z" fill="#385CAD"/>
<path d="M91.3036 91.7749C91.3126 91.9465 91.2105 92.0704 91.0417 92.0792L90.8437 92.0896L90.8135 91.5099L91.0114 91.4995C91.1802 91.4907 91.2946 91.6024 91.3036 91.7749ZM91.0268 91.9572C91.1241 91.9522 91.178 91.888 91.1725 91.7818C91.1669 91.6751 91.1065 91.6155 91.0093 91.6206L90.9484 91.6237L90.9659 91.9604L91.0268 91.9572Z" fill="#385CAD"/>
<path d="M91.6907 91.5775L91.4958 91.5877L91.5019 91.705L91.6745 91.696L91.6801 91.805L91.5076 91.814L91.5142 91.9411L91.7092 91.9309L91.7151 92.044L91.3911 92.061L91.3608 91.4813L91.6848 91.4643L91.6907 91.5775Z" fill="#385CAD"/>
<path d="M92.0491 92.0321C91.8993 92.04 91.7707 91.9235 91.7616 91.7491C91.7525 91.5747 91.8679 91.4464 92.0181 91.4385C92.1686 91.4307 92.2947 91.5468 92.3038 91.7207C92.3133 91.8951 92.1992 92.0243 92.0491 92.0321ZM92.0423 91.9032C92.1265 91.8988 92.178 91.8292 92.1727 91.7276C92.1673 91.6242 92.1089 91.5621 92.0247 91.5665C91.9389 91.571 91.8882 91.6392 91.8935 91.7422C91.8988 91.8438 91.9565 91.9077 92.0423 91.9032Z" fill="#385CAD"/>
<path d="M92.8343 91.4043L92.8645 91.9839L92.736 91.9907L92.502 91.6444L92.5207 92.0019L92.3921 92.0086L92.3618 91.429L92.4904 91.4222L92.7245 91.7704L92.7057 91.411L92.8343 91.4043Z" fill="#385CAD"/>
<path d="M89.8764 92.4098L89.9843 92.4042L90.155 92.7822L90.2854 92.3884L90.3924 92.3829L90.4195 92.9018L90.3244 92.9068L90.3067 92.5692L90.1975 92.9134L90.1256 92.9172L89.9806 92.5862L89.9982 92.9238L89.9031 92.9288L89.876 92.4099L89.8764 92.4098Z" fill="#6ABF4B"/>
<path d="M90.7652 92.4475L90.5854 92.4569L90.5922 92.5872L90.7517 92.5789L90.756 92.6615L90.5965 92.6698L90.6037 92.8075L90.7835 92.7981L90.7879 92.883L90.513 92.8974L90.4858 92.3775L90.7608 92.3631L90.7652 92.4475Z" fill="#6ABF4B"/>
<path d="M91.2757 92.5976C91.2839 92.7544 91.1906 92.8615 91.0396 92.8694L90.8743 92.8781L90.8472 92.3591L91.0126 92.3505C91.1636 92.3426 91.2675 92.4399 91.2757 92.5976ZM91.0312 92.7815C91.1311 92.7763 91.184 92.7107 91.1784 92.6032C91.1728 92.4956 91.1132 92.4336 91.0133 92.4388L90.9461 92.4423L90.964 92.785L91.0312 92.7815Z" fill="#6ABF4B"/>
<path d="M91.3325 92.3337L91.4277 92.3288L91.4548 92.8477L91.3596 92.8527L91.3325 92.3337Z" fill="#6ABF4B"/>
<path d="M91.7378 92.306C91.8431 92.3005 91.9318 92.3578 91.9691 92.4623L91.8599 92.468C91.8349 92.4195 91.793 92.3971 91.7419 92.3998C91.6589 92.4041 91.6036 92.4735 91.6091 92.5788C91.6146 92.6836 91.6773 92.7477 91.7598 92.7434C91.8106 92.7408 91.8503 92.714 91.8701 92.6623L91.9792 92.6566C91.9531 92.7654 91.8708 92.8306 91.7655 92.8361C91.6293 92.8432 91.5195 92.7392 91.5114 92.5839C91.5037 92.4285 91.6016 92.3132 91.7378 92.306Z" fill="#6ABF4B"/>
<path d="M92.3544 92.7016L92.1658 92.7115L92.1397 92.8119L92.0398 92.8171L92.1832 92.2883L92.2935 92.2826L92.4911 92.7935L92.3909 92.7988L92.3544 92.7016ZM92.2444 92.406L92.1872 92.6266L92.3243 92.6195L92.2444 92.406Z" fill="#6ABF4B"/>
<path d="M92.6221 92.2663L92.6449 92.7027L92.801 92.6945L92.8053 92.7771L92.5544 92.7902L92.5273 92.2712L92.6221 92.2663Z" fill="#6ABF4B"/>
<path d="M93.2168 92.2287C93.3221 92.2232 93.4108 92.2804 93.4481 92.385L93.3389 92.3907C93.3139 92.3422 93.272 92.3198 93.2213 92.3224C93.1384 92.3267 93.083 92.3961 93.0885 92.5014C93.094 92.6062 93.1563 92.6704 93.2392 92.6661C93.29 92.6634 93.3297 92.6367 93.3491 92.585L93.4582 92.5793C93.4321 92.6881 93.3498 92.7533 93.2445 92.7588C93.1083 92.7659 92.9985 92.6619 92.9904 92.5065C92.9823 92.3512 93.0802 92.2359 93.2168 92.2287Z" fill="#6ABF4B"/>
<path d="M93.7998 92.2889L93.6201 92.2983L93.6269 92.4286L93.7863 92.4203L93.7907 92.5028L93.6312 92.5112L93.6384 92.6489L93.8182 92.6395L93.8226 92.7244L93.5477 92.7387L93.5205 92.2189L93.7954 92.2045L93.7998 92.2889Z" fill="#6ABF4B"/>
<path d="M94.2866 92.1788L94.3137 92.6987L94.2185 92.7037L93.9851 92.3587L94.0037 92.7149L93.9085 92.7199L93.8813 92.2L93.9765 92.195L94.21 92.5409L94.1914 92.1838L94.2866 92.1788Z" fill="#6ABF4B"/>
<path d="M94.3545 92.1757L94.7018 92.1576L94.7061 92.2415L94.5801 92.2481L94.6028 92.6831L94.5076 92.6881L94.4849 92.2531L94.3589 92.2597L94.3545 92.1757Z" fill="#6ABF4B"/>
<path d="M95.0503 92.2235L94.8706 92.2329L94.8774 92.3632L95.0368 92.3549L95.0411 92.4375L94.8817 92.4458L94.8889 92.5835L95.0686 92.5741L95.0731 92.659L94.7981 92.6734L94.771 92.1535L95.0459 92.1391L95.0503 92.2235Z" fill="#6ABF4B"/>
<path d="M95.3094 92.1258C95.4232 92.1199 95.4841 92.1888 95.4886 92.276C95.4919 92.339 95.4635 92.4047 95.3885 92.4309L95.5129 92.6355L95.4029 92.6413L95.2879 92.4446L95.2431 92.4469L95.2536 92.6491L95.1584 92.6541L95.1313 92.1351L95.3094 92.1258ZM95.3105 92.2123L95.231 92.2164L95.239 92.369L95.3185 92.3648C95.3714 92.3621 95.3935 92.3302 95.391 92.2834C95.389 92.2374 95.3634 92.2095 95.3105 92.2123Z" fill="#6ABF4B"/>
</g>
<path opacity="0.1" d="M104.097 92.1784C102.864 91.6636 96.3319 84.2017 96.3319 84.2017V82.5034C96.0942 81.9438 94.6821 82.2852 93.5356 82.6769L94.0278 72.3611L94.587 72.8256C95.8118 77.1511 103.955 91.9294 104.097 92.1784Z" fill="black"/>
<path d="M104.408 91.5601C103.172 91.0453 96.6395 83.5834 96.6395 83.5834V81.8851C96.4019 81.3255 94.9897 81.6668 93.8433 82.0585L94.3382 71.7428L94.8975 72.2072C96.125 76.5327 104.271 91.3139 104.408 91.5601Z" fill="white"/>
<path opacity="0.1" d="M85.5296 128.774C85.6833 128.774 93.5017 127.952 93.5017 127.952C93.5017 127.952 98.2358 137.266 97.9254 139.532C97.6151 141.799 97.053 143.805 95.1487 143.449C93.2445 143.094 84.9004 143.729 84.9004 143.729L85.5296 128.774Z" fill="black"/>
<path d="M85.2195 128.156C85.3733 128.156 93.1917 127.334 93.1917 127.334C93.1917 127.334 97.923 136.65 97.6154 138.914C97.3078 141.177 96.7402 143.186 94.8387 142.831C92.9372 142.476 84.5903 143.111 84.5903 143.111L85.2195 128.156Z" fill="white"/>
<path d="M91.111 123.783C91.111 123.783 98.2862 127.641 98.44 128.819C98.5938 129.997 94.7881 128.304 93.966 128.1C93.4249 127.97 92.874 127.884 92.319 127.843L86.8354 127.991L91.111 123.783Z" fill="#975B00"/>
<path opacity="0.1" d="M102.095 92.6596C102.512 92.6596 102.85 92.3214 102.85 91.9042C102.85 91.487 102.512 91.1488 102.095 91.1488C101.678 91.1488 101.34 91.487 101.34 91.9042C101.34 92.3214 101.678 92.6596 102.095 92.6596Z" fill="black"/>
<path d="M102.095 92.3519C102.512 92.3519 102.85 92.0137 102.85 91.5965C102.85 91.1793 102.512 90.8411 102.095 90.8411C101.678 90.8411 101.34 91.1793 101.34 91.5965C101.34 92.0137 101.678 92.3519 102.095 92.3519Z" fill="#3F3D56"/>
<path opacity="0.1" d="M103.484 125.361C103.901 125.361 104.239 125.023 104.239 124.606C104.239 124.188 103.901 123.85 103.484 123.85C103.068 123.85 102.729 124.188 102.729 124.606C102.729 125.023 103.068 125.361 103.484 125.361Z" fill="black"/>
<path d="M103.484 125.051C103.901 125.051 104.239 124.712 104.239 124.295C104.239 123.878 103.901 123.54 103.484 123.54C103.068 123.54 102.729 123.878 102.729 124.295C102.729 124.712 103.068 125.051 103.484 125.051Z" fill="#3F3D56"/>
<path opacity="0.1" d="M102.847 109.01C103.264 109.01 103.602 108.672 103.602 108.255C103.602 107.838 103.264 107.5 102.847 107.5C102.43 107.5 102.092 107.838 102.092 108.255C102.092 108.672 102.43 109.01 102.847 109.01Z" fill="black"/>
<path d="M102.847 108.703C103.264 108.703 103.602 108.364 103.602 107.947C103.602 107.53 103.264 107.192 102.847 107.192C102.43 107.192 102.092 107.53 102.092 107.947C102.092 108.364 102.43 108.703 102.847 108.703Z" fill="#3F3D56"/>
<path d="M120.251 127.686C120.251 127.686 120.766 128.458 120.251 128.819C119.737 129.18 120.302 130.053 120.302 130.053C120.302 130.053 119.018 130.806 119.583 131.483C120.148 132.16 119.79 135.218 119.79 135.218L118.246 137.775C118.246 137.775 118.339 139.423 118.344 141.65C118.344 145.125 118.14 150.01 117.01 152.237L117.167 170.51C117.167 170.51 111.762 172.486 107.237 171.884L106.566 142.562C106.566 142.562 107.545 125.935 107.906 122.745C108.117 121.089 108.203 119.42 108.163 117.751C108.163 117.751 108.009 112.76 107.492 110.443C107.492 110.443 106.933 100.407 106.877 97.6287C106.851 96.2997 106.921 92.4219 107 88.7343C107.086 84.7025 107.184 80.9002 107.184 80.9002L106.164 72.82C106.164 72.82 107.184 72.7165 107.492 73.1278C107.63 73.2566 107.779 73.3718 107.939 73.4719C109.701 74.6638 115.925 78.329 115.925 78.329C115.925 78.329 119.37 79.7 120.195 81.6641C121.02 83.6282 121.593 85.0215 121.993 85.5811C122.393 86.1407 122.611 88.7706 122.611 88.7706C122.611 88.7706 123.797 93.6109 124.722 94.4307C125.648 95.2505 126.325 100.466 126.325 100.466L118.146 106.901C118.146 106.901 117.427 117.605 117.273 118.02C117.119 118.434 120.251 127.686 120.251 127.686Z" fill="white"/>
<path d="M120.562 127.686C120.562 127.686 121.073 128.458 120.562 128.819C120.05 129.18 120.609 130.053 120.609 130.053C120.609 130.053 119.334 130.814 119.893 131.491C120.453 132.168 120.1 135.226 120.1 135.226L118.557 137.784C118.557 137.784 118.649 139.432 118.657 141.659C118.657 145.134 118.453 150.019 117.324 152.246L117.477 170.519C117.477 170.519 112.064 172.494 107.545 171.892L106.877 142.571C106.877 142.571 107.855 125.943 108.216 122.753C108.427 121.098 108.512 119.428 108.471 117.759C108.471 117.759 108.317 112.768 107.802 110.451C107.802 110.451 107.243 100.415 107.184 97.6371C107.159 96.3081 107.232 92.4302 107.307 88.7427C107.394 84.7109 107.492 80.9086 107.492 80.9086L106.144 72.7193C106.144 72.7193 107.492 72.7193 107.802 73.1362C107.939 73.2665 108.089 73.3818 108.25 73.4803C110.011 74.6722 116.239 78.3374 116.239 78.3374C116.239 78.3374 119.681 79.7084 120.506 81.6725C121.331 83.6366 121.904 85.0299 122.307 85.5895C122.709 86.149 122.922 88.779 122.922 88.779C122.922 88.779 124.107 93.6193 125.033 94.4391C125.958 95.2589 126.627 100.463 126.627 100.463L118.448 106.898C118.448 106.898 117.729 117.603 117.572 118.017C117.416 118.431 120.562 127.686 120.562 127.686Z" fill="white"/>
<path opacity="0.1" d="M110.766 83.284L111.504 85.4384L107.617 89.3554C107.704 85.3265 107.802 81.5214 107.802 81.5214L106.454 73.332C106.454 73.332 107.802 73.332 108.112 73.7489C108.248 73.8789 108.398 73.9933 108.56 74.0902L111.865 83.631L110.766 83.284Z" fill="black"/>
<path d="M110.456 82.6657L111.197 84.82L107.31 88.737C107.397 84.7053 107.495 80.903 107.495 80.903L106.144 72.7137C106.144 72.7137 107.495 72.7137 107.802 73.1306C107.939 73.2601 108.089 73.3754 108.25 73.4747L111.558 83.0126L110.456 82.6657Z" fill="white"/>
<path opacity="0.1" d="M110.456 61.3487C110.458 62.357 110.299 63.3591 109.986 64.3173C109.933 64.3255 109.879 64.3231 109.827 64.3101C109.776 64.2971 109.727 64.2739 109.684 64.2417C109.611 61.7236 108.373 59.3595 106.849 57.3478C106.421 56.7404 105.902 56.2025 105.311 55.753C104.713 55.3037 103.969 55.0933 103.225 55.1627C102.386 55.2774 101.645 55.8481 100.797 55.9209C99.6789 56.0132 98.6779 55.2382 97.5678 55.199C97.1165 55.2033 96.6713 55.3039 96.2619 55.494C95.8525 55.684 95.4884 55.9593 95.1937 56.3014C94.6105 56.9917 94.1772 57.7959 93.9214 58.6628C93.4817 59.9773 93.2423 61.3506 93.2112 62.7365C93.1972 63.5199 93.1217 64.5019 92.3946 64.7873C92.4494 64.2112 92.3839 63.6299 92.2025 63.0804C92.021 62.5309 91.7275 62.0251 91.3404 61.5949L91.3237 61.5782C91.3237 61.4998 91.3237 61.4271 91.3237 61.3487C91.3019 60.0778 91.5334 58.8153 92.0044 57.6349C92.4755 56.4544 93.1768 55.3796 94.0673 54.4731C94.9579 53.5667 96.02 52.8468 97.1915 52.3553C98.3631 51.8639 99.6208 51.6108 100.891 51.6108C102.162 51.6108 103.419 51.8639 104.591 52.3553C105.762 52.8468 106.824 53.5667 107.715 54.4731C108.606 55.3796 109.307 56.4544 109.778 57.6349C110.249 58.8153 110.48 60.0778 110.459 61.3487H110.456Z" fill="black"/>
<path d="M104.852 46.148C103.399 45.4641 101.747 45.3347 100.205 45.7842C99.4303 46.0137 98.7005 46.3858 97.9147 46.5732C96.2369 46.9789 94.2796 46.5397 92.8395 47.5217C92.0397 48.0813 91.5588 48.9654 91.1114 49.8244L89.9929 51.9563C89.3833 53.123 88.7681 54.3093 88.5136 55.5936C88.2592 56.8778 88.413 58.3159 89.2267 59.3483C89.8195 60.1009 90.6947 60.5738 91.3379 61.2816C91.7232 61.7122 92.0154 62.2177 92.1964 62.7666C92.3773 63.3154 92.443 63.8957 92.3893 64.4712C93.1191 64.1914 93.189 63.2065 93.2058 62.4231C93.2369 61.0373 93.4764 59.664 93.916 58.3495C94.1713 57.4823 94.6046 56.678 95.1883 55.9881C95.4832 55.6463 95.8474 55.3712 96.2567 55.1811C96.6661 54.9911 97.1112 54.8903 97.5624 54.8857C98.6809 54.9249 99.6848 55.6971 100.792 55.6047C101.631 55.5348 102.375 54.9612 103.219 54.8493C103.964 54.7788 104.708 54.9894 105.305 55.4397C105.896 55.8885 106.414 56.4265 106.84 57.0345C108.367 59.0461 109.606 61.4047 109.679 63.9284C109.995 64.1606 110.45 63.8584 110.607 63.5003C110.764 63.1422 110.769 62.7225 110.968 62.3812C111.197 61.9867 111.636 61.7768 111.98 61.4803C112.852 60.7276 113.071 59.4602 113.037 58.3103C113.003 57.1604 112.78 55.9937 112.998 54.8633C113.129 54.1694 113.426 53.5203 113.588 52.8349C113.75 52.1494 113.77 51.38 113.387 50.7896C112.827 49.9223 111.65 49.7516 110.624 49.6705C109.458 49.5698 108.415 49.6985 107.671 48.7164C107.322 48.2039 106.929 47.7228 106.496 47.2783C106.348 47.1328 104.852 46.2095 104.852 46.148Z" fill="#301D00"/>
<path opacity="0.1" d="M74.4595 105.149L71.5374 99.7438L70.6118 108.084C70.6118 108.084 71.1263 111.789 71.0229 112.357C70.9194 112.925 73.1313 118.017 73.1313 118.017C73.1313 118.017 80.4379 131.038 83.4216 131.709L93.5021 124.502L90.8289 121.106C90.8289 121.106 89.9033 120.745 89.6712 121.106C89.6712 121.106 84.7078 112.561 84.1933 111.943C83.6788 111.324 83.7795 110.09 83.7795 110.09C83.7795 110.09 83.0077 109.268 83.265 108.496C83.5222 107.723 81.7746 105.046 81.7746 105.046L83.3684 103.555L74.4595 105.149Z" fill="black"/>
<path d="M71.691 99.1283L70.9192 99.7438L69.9937 108.084C69.9937 108.084 70.5082 111.789 70.4047 112.357C70.3012 112.925 72.5159 118.017 72.5159 118.017C72.5159 118.017 79.8198 131.038 82.8034 131.709L92.8868 124.502L90.2107 121.106C90.2107 121.106 89.2852 120.745 89.0531 121.106C89.0531 121.106 84.0897 112.561 83.5752 111.943C83.0607 111.324 83.1641 110.09 83.1641 110.09C83.1641 110.09 82.3924 109.268 82.6496 108.496C82.9069 107.723 81.1564 105.046 81.1564 105.046L82.7503 103.555L71.691 99.1283Z" fill="white"/>
<path opacity="0.1" d="M119.583 131.802C120.142 132.482 119.79 135.534 119.79 135.534L118.246 138.091C118.246 138.091 118.338 139.742 118.344 141.966L115.749 142.778C115.515 142.851 115.266 142.867 115.024 142.825C114.782 142.782 114.554 142.683 114.358 142.534C114.162 142.385 114.005 142.192 113.899 141.97C113.793 141.748 113.742 141.504 113.75 141.259L114.197 126.819L120.251 129.135C119.737 129.494 120.301 130.372 120.301 130.372C120.301 130.372 119.018 131.122 119.583 131.802Z" fill="black"/>
<path d="M119.893 131.491C120.452 132.171 120.1 135.226 120.1 135.226L118.557 137.784C118.557 137.784 118.649 139.432 118.657 141.659L116.015 142.484C115.785 142.555 115.542 142.571 115.305 142.529C115.068 142.487 114.844 142.39 114.653 142.244C114.461 142.098 114.308 141.909 114.204 141.692C114.1 141.475 114.05 141.236 114.057 140.996L114.508 126.511L120.564 128.828C120.047 129.186 120.612 130.061 120.612 130.061C120.612 130.061 119.334 130.814 119.893 131.491Z" fill="white"/>
<path d="M121.898 124.608C121.898 124.608 121.487 127.236 120.458 127.39C119.429 127.543 118.968 131.64 117.942 131.494C116.915 131.349 117.595 127.686 117.631 126.975C117.668 126.265 116.513 123.321 117.377 122.653C118.241 121.984 120.976 122.653 120.976 122.653L121.898 124.608Z" fill="#975B00"/>
<path opacity="0.1" d="M124.088 104.377L126.029 100.46C126.029 100.46 126.8 103.445 126.8 105.04C126.8 106.635 127.88 106.792 127.88 106.792C127.88 106.792 129.062 108.191 128.439 109.209C127.815 110.227 127.564 112.762 127.564 112.762C127.564 112.762 127.768 117.6 126.842 118.268C125.917 118.937 125.724 120.535 125.724 120.535C125.724 120.535 124.024 123.57 124.077 124.292C124.13 125.014 121.711 129.902 121.711 129.902C121.711 129.902 122.894 123.828 116.001 121.203C116.001 121.203 115.948 119.141 116.462 118.576C116.977 118.011 117.78 117.754 117.276 114.897C116.773 112.04 117.131 108.627 117.131 107.942C117.131 107.256 118.674 102.981 118.674 102.981L124.088 104.377Z" fill="black"/>
<path d="M124.927 99.9005L126.621 100.46C126.621 100.46 127.396 103.445 127.396 105.04C127.396 106.635 128.475 106.792 128.475 106.792C128.475 106.792 129.658 108.191 129.034 109.209C128.411 110.227 128.162 112.762 128.162 112.762C128.162 112.762 128.366 117.6 127.44 118.268C126.515 118.937 126.308 120.535 126.308 120.535C126.308 120.535 124.611 123.57 124.664 124.292C124.717 125.014 122.295 129.902 122.295 129.902C122.295 129.902 123.481 123.828 116.585 121.203C116.585 121.203 116.535 119.141 117.05 118.576C117.564 118.011 118.367 117.754 117.863 114.897C117.36 112.04 117.718 108.627 117.718 107.942C117.718 107.256 119.261 102.981 119.261 102.981L124.927 99.9005Z" fill="white"/>
<path opacity="0.1" d="M87.4985 201.427C87.4985 201.427 90.1997 199.728 91.9726 200.962C93.7454 202.196 87.4985 201.427 87.4985 201.427Z" fill="black"/>
<path opacity="0.1" d="M108.487 196.175C108.487 196.175 110.878 195.867 112.886 198.03C114.894 200.193 108.487 196.175 108.487 196.175Z" fill="black"/>
<g opacity="0.1">
<path opacity="0.1" d="M111.986 60.8675C111.642 61.1641 111.2 61.3767 110.97 61.7712C110.775 62.1098 110.769 62.5267 110.613 62.8904C110.456 63.2541 110 63.5507 109.684 63.3213C109.611 60.8032 108.37 58.439 106.846 56.4245C106.42 55.8166 105.902 55.2786 105.311 54.8297C104.712 54.3795 103.967 54.169 103.222 54.2394C102.383 54.3541 101.645 54.9249 100.798 54.9948C99.6791 55.0899 98.6752 54.3149 97.5651 54.2758C97.114 54.2802 96.669 54.3812 96.2601 54.5718C95.8511 54.7624 95.4876 55.0383 95.1939 55.3809C94.6101 56.0698 94.1768 56.8732 93.9216 57.7395C93.4822 59.0541 93.2427 60.4274 93.2113 61.8132C93.1945 62.5938 93.1218 63.5675 92.4004 63.8584C92.4172 64.0651 92.4172 64.2729 92.4004 64.4796C93.1274 64.1998 93.2001 63.2149 93.2169 62.4315C93.2481 61.0457 93.4875 59.6724 93.9272 58.3578C94.1824 57.4907 94.6157 56.6864 95.1995 55.9964C95.4938 55.6547 95.8575 55.3797 96.2664 55.1896C96.6752 54.9995 97.1199 54.8988 97.5707 54.8941C98.6892 54.9333 99.6959 55.7055 100.803 55.6131C101.642 55.5432 102.386 54.9696 103.228 54.8577C103.973 54.7873 104.718 54.9978 105.316 55.4481C105.908 55.8969 106.425 56.4349 106.852 57.0428C108.376 59.0545 109.617 61.4131 109.69 63.9368C110.006 64.169 110.462 63.8668 110.618 63.5087C110.775 63.1506 110.78 62.7309 110.976 62.3896C111.205 61.9951 111.647 61.7852 111.991 61.4887C112.864 60.736 113.082 59.4686 113.048 58.3187C113.048 58.2823 113.048 58.2459 113.048 58.2124C112.995 59.2084 112.729 60.224 111.986 60.8675Z" fill="black"/>
<path opacity="0.1" d="M91.3432 60.6689C90.7001 59.961 89.8221 59.4882 89.232 58.7384C88.7352 58.0746 88.4515 57.2755 88.4183 56.4469C88.3303 57.4824 88.6193 58.5148 89.232 59.3539C89.8221 60.1065 90.7001 60.5793 91.3432 61.2872C91.9607 61.9796 92.3314 62.8573 92.3974 63.7829C92.4402 63.2196 92.3689 62.6534 92.1878 62.1183C92.0066 61.5832 91.7194 61.0902 91.3432 60.6689Z" fill="black"/>
<path opacity="0.1" d="M113.593 52.2221C113.428 52.9076 113.135 53.5595 113 54.2506C112.921 54.7124 112.892 55.1814 112.914 55.6495C112.923 55.3829 112.952 55.1173 113 54.8549C113.135 54.161 113.428 53.5119 113.593 52.8265C113.689 52.4484 113.721 52.0567 113.686 51.6682C113.668 51.8548 113.637 52.0399 113.593 52.2221Z" fill="black"/>
</g>
<path opacity="0.1" d="M37.1151 212.803C52.1632 212.803 64.3621 210.842 64.3621 208.424C64.3621 206.006 52.1632 204.045 37.1151 204.045C22.067 204.045 9.86816 206.006 9.86816 208.424C9.86816 210.842 22.067 212.803 37.1151 212.803Z" fill="#3B548E"/>
<path d="M37.993 124.544H36.2397V164.042H37.993V124.544Z" fill="#535461"/>
<path d="M49.0105 163.921L48.9015 165.701L48.7449 168.219L48.6806 169.265L48.5268 171.783L48.4597 172.83L48.3031 175.348L46.5358 203.906C46.459 205.134 45.9171 206.287 45.0205 207.131C44.1239 207.974 42.9399 208.443 41.7094 208.444H32.5209C31.2907 208.443 30.107 207.974 29.2109 207.13C28.3147 206.287 27.7734 205.134 27.6973 203.906L25.9384 175.328L25.7818 172.81L25.7175 171.764L25.5609 169.246L25.4966 168.199L25.34 165.681L25.2282 163.902C25.2087 163.559 25.2594 163.216 25.3772 162.894C25.4949 162.572 25.6772 162.277 25.9129 162.028C26.1485 161.779 26.4326 161.581 26.7476 161.445C27.0626 161.31 27.402 161.24 27.7448 161.241H46.5386C46.8802 161.244 47.2175 161.317 47.5298 161.455C47.842 161.594 48.1226 161.795 48.3543 162.046C48.5859 162.297 48.7636 162.593 48.8765 162.916C48.9894 163.238 49.035 163.58 49.0105 163.921Z" fill="#3F3D56"/>
<path d="M48.9012 165.701L48.7447 168.21H25.4852L25.3286 165.701H48.9012Z" fill="#6ABF4B"/>
<path d="M48.6806 169.257L48.5268 171.769H25.7064L25.5498 169.257H48.6806Z" fill="#3B548E"/>
<path d="M48.4595 172.818L48.3057 175.328H25.9271L25.7705 172.818H48.4595Z" fill="#6ABF4B"/>
<path d="M22.6526 139.348C32.8618 146.74 37.1234 158.3 37.1234 158.3C37.1234 158.3 24.8197 157.878 14.6077 150.486C4.39572 143.094 0.142578 131.536 0.142578 131.536C0.142578 131.536 12.4406 131.956 22.6526 139.348Z" fill="#79B154"/>
<path d="M0.134277 131.536C0.134277 131.536 12.9077 138.629 17.0042 144.501C21.1008 150.374 37.1235 158.3 37.1235 158.3" stroke="#535461" stroke-width="2" stroke-miterlimit="10"/>
<path d="M29.2435 124.457C34.7997 128.478 37.1234 134.77 37.1234 134.77C37.1234 134.77 30.4264 134.541 24.8674 130.52C19.3083 126.5 16.9902 120.205 16.9902 120.205C16.9902 120.205 23.6845 120.434 29.2435 124.457Z" fill="#79B154"/>
<path d="M16.9902 120.205C16.9902 120.205 23.9418 124.066 26.1704 127.261C28.3991 130.456 37.1234 134.77 37.1234 134.77" stroke="#535461" stroke-width="2" stroke-miterlimit="10"/>
<path d="M45.1906 134.451C38.8067 141.471 37.4561 150.645 37.4561 150.645C37.4561 150.645 46.4573 148.435 52.8356 141.412C59.2139 134.39 60.5701 125.218 60.5701 125.218C60.5701 125.218 51.5745 127.431 45.1906 134.451Z" fill="#79B154"/>
<path d="M60.5757 125.221C60.5757 125.221 52.2596 132.417 50.1456 137.375C48.0316 142.333 37.4561 150.645 37.4561 150.645" stroke="#535461" stroke-width="2" stroke-miterlimit="10"/>
<path d="M279.536 131.981C279.536 131.981 274.919 108.999 276.686 106.14C276.686 106.14 276.75 103.482 276.644 100.094C276.644 99.9649 276.644 99.8362 276.644 99.7047C276.955 99.9121 277.279 100.099 277.615 100.264C279.243 101.101 281.112 101.343 282.899 100.947L281.501 99.3885C281.166 99.0164 280.816 98.6135 280.744 98.1211C280.671 97.6287 280.872 97.1894 281.046 96.7502C282.374 93.3927 282.444 89.1707 279.885 86.6079C277.724 84.4535 277.198 81.6725 274.852 79.7056C273.138 78.2647 272.195 76.1523 271.306 74.1098C270.554 72.3836 269.796 70.6433 269.365 68.8135C269.03 67.3838 268.896 65.9037 268.434 64.5076C267.973 63.1114 267.109 61.7545 265.758 61.1306C265.277 60.9095 264.743 60.7836 264.304 60.4898C263.728 60.1009 263.381 59.4686 262.965 58.9147C260.848 56.1168 253.759 57.7647 250.404 58.9007C249.492 59.1867 248.647 59.655 247.921 60.2772L247.952 60.2268C247.977 60.1849 248.008 60.1429 248.035 60.1009C247.668 60.3981 247.351 60.7523 247.096 61.1501C246.607 61.9251 246.402 62.8289 245.994 63.6682C245.502 64.6615 242.765 67.4341 243.942 68.5505C244.024 68.6255 244.119 68.686 244.221 68.7296C244.663 68.9136 245.15 68.9623 245.62 68.8694L245.569 68.9898C245.167 69.9747 244.961 71.0287 244.962 72.0926C244.962 76.6895 248.751 80.4162 253.43 80.4162C254.309 80.4171 255.183 80.2821 256.022 80.0161C256.041 80.1225 256.058 80.2288 256.078 80.3351C256.078 80.3771 256.092 80.419 256.097 80.461L255.949 80.668C255.942 80.6553 255.933 80.6431 255.924 80.6317L251.534 86.7702C250.863 87.243 246.998 90.0409 246.78 92.1393C246.551 94.4363 246.321 97.1251 246.321 97.1251L246.291 97.7014C246.099 97.8618 245.874 97.9787 245.633 98.0439C245.392 98.1091 245.139 98.1211 244.892 98.0791C243.522 97.8553 243.522 103.115 243.522 103.115C243.522 103.115 242.611 103.955 241.984 103.227C241.358 102.5 239.703 104.965 239.703 104.965L229.328 105.412L229.091 105.426L228.531 103.694C228.471 103.512 228.341 103.36 228.17 103.273C227.999 103.185 227.8 103.169 227.617 103.227C227.574 103.241 227.532 103.259 227.491 103.28L227.452 103.303L227.379 103.353L227.343 103.387C227.323 103.405 227.304 103.425 227.287 103.445L227.254 103.485L227.237 103.501C227.172 103.591 227.129 103.694 227.112 103.803C227.094 103.912 227.103 104.023 227.136 104.128L227.617 105.614C225.615 106.017 223.568 107.153 225.237 110.281L216.776 108.717L219.513 111.016L233.646 113.935C233.458 114.27 233.582 114.757 234.166 115.443C236.683 118.4 241.268 119.203 243.114 119.41C243.601 120.501 244.21 121.533 244.929 122.488L244.769 125.434C244.769 125.434 240.097 147.89 239.241 149.028C239.673 148.539 240.068 148.018 240.424 147.47C239.068 152.084 237.172 158.398 236.674 159.344C235.874 160.855 235.133 166.968 236.045 167.36C236.325 167.48 237.124 167.421 238.265 167.335V167.841L238.215 187.032C238.215 187.032 238.444 198.802 237.815 199.924C237.186 201.046 237.018 203.399 237.018 203.399C237.018 203.399 234.501 208.041 232.508 209.907C232.494 209.921 232.479 209.935 232.463 209.946L232.401 209.51C232.401 209.51 230.005 212.537 224.703 212.366C224.703 212.366 221.513 214.442 226.244 214.554C230.975 214.666 237.018 214.386 237.018 214.386C237.018 214.386 241.238 207.951 244.772 208.791V213.667H245.854V208.712C246.356 208.382 246.786 207.953 247.117 207.451C247.448 206.949 247.674 206.386 247.781 205.794C247.874 205.184 247.806 204.561 247.584 203.985C247.363 203.41 246.995 202.902 246.517 202.512C246.303 202.318 246.13 202.082 246.012 201.818C245.893 201.554 245.83 201.268 245.826 200.979L245.787 201.013C245.787 200.915 245.762 200.814 245.751 200.71C245.441 198.192 245.052 192.997 246.425 189.152C248.307 183.881 248.877 176.54 247.507 172.169C247.065 170.772 246.702 169.352 246.419 167.914C246.386 167.732 246.355 167.558 246.327 167.396C247.264 167.523 248.191 167.71 249.104 167.956C252.277 168.832 259.221 168.994 265.149 168.946C265.163 169.108 265.179 169.279 265.199 169.45C265.305 170.636 265.526 171.809 265.859 172.953C266.603 175.191 266.944 185.059 266.944 185.059C266.944 185.059 267.903 193.173 267.38 196.474C267.101 198.31 266.821 200.154 266.662 202.006V202.042C266.662 202.042 265.09 206.519 263.941 208.95C263.913 209.012 263.882 209.073 263.854 209.132C263.548 209.16 263.246 209.227 262.956 209.331C262.956 209.331 261.416 212.408 259.881 212.917C258.345 213.427 258.854 215.103 262.33 214.487C265.806 213.872 271.054 213.368 271.054 213.368L271.281 210.229L272.349 208.891L272.07 212.022L273.208 211.798L273.057 207.99L274.804 205.802C274.804 205.802 276.915 203.922 273.778 200.224V200.305C273.744 200.252 273.714 200.196 273.677 200.142V200.126C273.157 199.32 272.743 197.817 273.501 195.151C274.871 190.333 275.668 185.96 275.668 185.96C275.668 185.96 278.727 174.245 275.05 168.703H275.213C274.836 167.923 274.569 167.094 274.421 166.241C274.403 166.14 274.386 166.036 274.371 165.93C277.092 165.773 279.762 165.281 281.94 164.218C281.932 164.207 280.621 136.407 279.536 131.981ZM244.993 112.592V112.648L244.434 112.676L244.993 112.592ZM243.075 112.857C242.983 112.878 242.897 112.919 242.823 112.978C242.583 113.318 242.432 113.714 242.384 114.128L241.512 113.932C241.512 113.932 240.899 113.8 240.019 113.652L239.602 113.232C240.748 113.137 241.94 112.997 243.075 112.857Z" fill="url(#paint1_linear_1064_1168)"/>
<path d="M271.941 208.03L271.608 211.994L272.724 211.77L272.556 207.47L271.941 208.03Z" fill="#1D2366"/>
<path d="M246.487 189.206C245.142 193.039 245.522 198.212 245.824 200.724C245.936 201.653 246.039 202.218 246.039 202.218C246.039 202.218 244.029 206.801 243.861 206.975C243.693 207.148 237.944 210.66 237.944 210.66L233.926 213.007C233.926 213.007 229.849 211.219 231.803 210.604C232.203 210.443 232.562 210.198 232.858 209.885C234.815 208.024 237.273 203.399 237.273 203.399C237.273 203.399 237.441 201.052 238.056 199.935C238.671 198.819 238.447 187.088 238.447 187.088L238.495 167.964V165.471L246.143 165.527C246.191 166.374 246.301 167.215 246.473 168.045C246.747 169.478 247.103 170.894 247.538 172.287C248.886 176.649 248.326 183.954 246.487 189.206Z" fill="#FBD4BE"/>
<path opacity="0.1" d="M246.039 202.218C246.039 202.218 244.029 206.801 243.861 206.975C243.693 207.148 237.944 210.66 237.944 210.66L233.926 213.007C233.926 213.007 229.849 211.219 231.803 210.604C232.203 210.443 232.562 210.198 232.858 209.885L233.031 211.107L234.37 211.051L245.835 200.73C245.936 201.653 246.039 202.218 246.039 202.218Z" fill="black"/>
<path d="M245.899 200.99L234.37 211.381L233.031 211.437L232.751 209.479C232.751 209.479 230.408 212.495 225.201 212.327C225.201 212.327 222.075 214.395 226.708 214.507C231.342 214.619 237.259 214.339 237.259 214.339C237.259 214.339 241.392 207.904 244.851 208.743V213.603H245.913V208.698C246.407 208.365 246.829 207.936 247.153 207.436C247.477 206.936 247.696 206.376 247.798 205.788C247.89 205.184 247.825 204.565 247.609 203.993C247.393 203.421 247.033 202.914 246.565 202.521C246.356 202.324 246.189 202.087 246.074 201.824C245.96 201.561 245.9 201.277 245.899 200.99Z" fill="#1D2366"/>
<path d="M273.004 195.182C272.26 197.84 272.665 199.337 273.174 200.14V200.156C273.827 201.148 274.281 202.257 274.511 203.421L274.555 203.673L269.31 211.325L266.463 212.445C266.463 212.445 261.886 210.881 262.722 210.433C262.931 210.324 263.259 209.742 263.633 208.939C264.752 206.519 266.295 202.053 266.295 202.053V202.017C266.457 200.173 266.715 198.335 267 196.505C267.512 193.212 266.572 185.129 266.572 185.129C266.572 185.129 266.237 175.3 265.51 173.065C265.181 171.928 264.963 170.762 264.858 169.584C264.707 168.185 264.673 167.032 264.673 167.032C264.673 167.032 267.688 162.836 273.213 167.368C273.655 167.73 274.044 168.152 274.368 168.622C278.185 174.055 275.112 186.024 275.112 186.024C275.112 186.024 274.343 190.378 273.004 195.182Z" fill="#FBD4BE"/>
<path opacity="0.1" d="M274.564 203.673L269.318 211.325L266.471 212.445C266.471 212.445 261.894 210.881 262.73 210.433C262.94 210.324 263.267 209.742 263.642 208.939C265.579 208.922 266.583 210.769 266.583 210.769L269.038 210.377C269.038 210.377 272.276 204.009 273.003 203.62C273.731 203.231 273.115 200.713 273.115 200.713V200.072C273.135 200.095 273.152 200.12 273.174 200.142V200.159C273.827 201.151 274.281 202.26 274.511 203.424L274.564 203.673Z" fill="black"/>
<path d="M266.751 210.934C266.751 210.934 265.353 208.365 262.674 209.314C262.674 209.314 261.167 212.391 259.659 212.889C258.152 213.388 258.656 215.066 262.061 214.453C265.467 213.841 270.601 213.334 270.601 213.334L270.825 210.204L274.287 205.791C274.287 205.791 276.35 203.92 273.28 200.235V200.875C273.28 200.875 273.895 203.394 273.168 203.782C272.441 204.171 269.214 210.542 269.214 210.542L266.751 210.934Z" fill="#1D2366"/>
<path opacity="0.1" d="M246.151 165.522C246.199 166.368 246.309 167.21 246.481 168.04C243.332 167.578 240.41 167.808 238.495 167.959V165.466L246.151 165.522Z" fill="black"/>
<path opacity="0.1" d="M274.678 169.318C274.678 169.318 270.204 169.537 264.869 169.581C264.718 168.182 264.685 167.03 264.685 167.03C264.685 167.03 267.699 162.833 273.224 167.365C273.666 167.727 274.055 168.149 274.379 168.619C274.466 168.857 274.566 169.091 274.678 169.318Z" fill="black"/>
<path d="M274.678 168.815C274.678 168.815 255.082 169.763 249.109 168.087C243.136 166.411 237.217 167.863 236.325 167.475C235.433 167.086 236.157 160.995 236.94 159.487C237.723 157.979 242.018 142.727 242.018 142.727L246.151 121.167L250.505 119.967L250.812 119.88L258.398 117.787L263.957 116.251C263.957 116.251 275.011 159.431 274.063 162.615C273.719 163.834 273.663 165.117 273.901 166.361C274.046 167.211 274.307 168.037 274.678 168.815Z" fill="#111EAD"/>
<path d="M231.744 106.422C231.744 106.422 227.83 110.619 230.794 112.958C233.758 115.297 235.707 113.182 235.707 113.182L231.744 106.422Z" fill="#C7DAF5"/>
<path opacity="0.1" d="M231.744 106.422C231.744 106.422 227.83 110.619 230.794 112.958C233.758 115.297 235.707 113.182 235.707 113.182L231.744 106.422Z" fill="black"/>
<path d="M263.373 78.8298C263.373 78.8298 262.914 79.2663 262.224 79.9098C261.239 80.8303 259.782 82.1761 258.491 83.3036C256.701 84.862 255.225 86.0063 255.753 85.0299C256.282 84.0534 256.181 82.3523 255.918 80.7603C255.898 80.654 255.882 80.5477 255.862 80.4442C255.644 79.275 255.356 78.1201 254.998 76.986C254.998 76.986 257.889 73.2481 259.489 71.7736C260.084 71.214 260.501 70.9846 260.526 71.3735C260.554 71.8967 260.946 73.0522 261.432 74.2777C261.446 74.3169 261.46 74.3532 261.477 74.3924C261.801 75.2318 262.168 76.0935 262.489 76.8377C262.981 77.9793 263.373 78.8298 263.373 78.8298Z" fill="#FBD4BE"/>
<path opacity="0.1" d="M261.477 74.3924C261.205 75.8547 260.546 77.2171 259.568 78.3373C258.59 79.4575 257.33 80.2943 255.918 80.7604C255.696 79.4832 255.388 78.2222 254.998 76.986C254.998 76.986 260.442 69.9494 260.526 71.3735C260.546 71.9135 260.971 73.111 261.477 74.3924Z" fill="black"/>
<path opacity="0.1" d="M255.376 82.6405L256.08 81.6473C256.08 81.6473 256.547 84.4955 258.264 83.2393C259.981 81.983 260.065 92.6932 260.065 92.6932L258.222 120.261L244.906 119.463L245.284 106.143L246.791 99.4277L250.518 89.6659L252.736 86.44L255.376 82.6405Z" fill="black"/>
<path d="M260.065 92.8639L258.388 117.79L258.211 120.431L250.787 119.986L250.508 119.97L244.915 119.634L245.293 106.31L246.8 99.5956L250.527 89.8338L252.745 86.6079L255.384 82.7944L256.089 81.804C256.089 81.804 256.556 84.6522 258.273 83.3959L258.309 83.3708C259.987 82.3076 260.065 92.8639 260.065 92.8639Z" fill="#1D2366"/>
<path d="M246.987 97.2621C246.987 97.2621 246.318 98.6611 244.976 98.4345C243.634 98.2078 243.637 103.471 243.637 103.471C243.637 103.471 242.745 104.31 242.13 103.583C241.514 102.855 239.893 105.314 239.893 105.314L229.731 105.762C229.731 105.762 234.253 107.83 233.366 114.086C233.366 114.086 248.718 113.134 249.221 111.682C249.724 110.23 246.987 97.2621 246.987 97.2621Z" fill="white"/>
<path opacity="0.03" d="M246.987 97.2621C246.987 97.2621 246.318 98.6611 244.976 98.4345C243.634 98.2078 243.637 103.471 243.637 103.471C243.637 103.471 242.745 104.31 242.13 103.583C241.514 102.855 239.893 105.314 239.893 105.314L229.731 105.762C229.731 105.762 234.253 107.83 233.366 114.086C233.366 114.086 248.718 113.134 249.221 111.682C249.724 110.23 246.987 97.2621 246.987 97.2621Z" fill="black"/>
<path d="M217.456 109.05L220.134 111.338L242.186 115.974L239.451 113.182L217.456 109.05Z" fill="white"/>
<path d="M255.418 83.5218C255.051 84.0814 254.003 86.9464 253.127 89.4477C252.398 91.5321 251.788 93.3647 251.788 93.3647C251.788 93.3647 250.365 102.637 249.638 104.313C248.911 105.989 249.305 112.524 249.305 112.524L246.595 128.665C246.595 128.665 245.368 136.989 243.472 141.961C241.601 146.854 239.518 149.149 239.454 149.221C240.292 148.085 244.864 125.719 244.864 125.719L246.374 97.5111C246.374 97.5111 246.595 94.8308 246.819 92.5393C247.043 90.2479 251.573 87.1199 251.573 87.1199L255.94 80.9058C256.379 81.4934 256.086 82.5174 255.418 83.5218Z" fill="white"/>
<path d="M244.029 119.774C244.029 119.774 237.597 119.494 234.482 115.75C231.367 112.007 241.683 114.256 241.683 114.256L244.364 114.872L244.029 119.774Z" fill="#FBD4BE"/>
<path opacity="0.1" d="M274.063 162.617C273.719 163.837 273.664 165.119 273.901 166.364C266.885 166.862 259.38 164.965 259.38 164.965C257.982 166.252 254.299 168.149 254.299 168.149L252.292 143.248C251.008 139.89 250.505 122.3 250.505 122.3C250.505 122.3 250.62 121.38 250.785 120C250.785 119.967 250.785 119.93 250.798 119.897C251.299 116.044 252.292 108.812 252.778 107.835C253.449 106.492 250.715 102.919 250.715 102.919L251.959 92.3015L252.11 91.0201C254.733 89.8478 256.743 86.1042 256.743 86.1042L258.287 83.3987C259.965 82.3215 260.051 92.8779 260.051 92.8779L258.374 117.804L263.933 116.268C263.933 116.268 275.011 159.433 274.063 162.617Z" fill="black"/>
<path d="M281.264 164.338C273.616 168.138 259.716 164.618 259.716 164.618C258.318 165.905 254.635 167.802 254.635 167.802L252.624 142.901C251.344 139.543 250.84 121.953 250.84 121.953C250.84 121.953 252.457 108.829 253.128 107.488C253.323 107.097 253.228 106.515 252.996 105.888C251.855 102.905 251.436 99.6942 251.771 96.5179L252.308 91.9546L252.457 90.676C255.082 89.5009 257.093 85.7573 257.093 85.7573L258.491 83.3064L261.064 78.7906L262.283 76.6531L262.49 76.8405L264.07 78.273C264.07 78.273 264.741 78.8326 265.747 79.672C267.937 81.5186 271.72 84.7697 273.672 86.759C275.389 88.5104 275.931 95.3232 276.088 100.452C276.191 103.829 276.13 106.476 276.13 106.476C274.399 109.327 278.926 132.216 278.926 132.216C279.98 136.639 281.264 164.338 281.264 164.338Z" fill="white"/>
<path opacity="0.03" d="M266.583 85.7014C266.583 85.7014 261.334 95.6982 261.944 99.4977C262.554 103.297 264.287 107.597 263.451 108.602C263.164 108.982 262.793 109.291 262.366 109.504C261.94 109.718 261.47 109.829 260.993 109.83C260.154 109.886 257.917 111.45 257.917 111.618C257.917 111.786 255.851 111.786 254.003 112.569C252.154 113.353 249.425 113.798 249.425 113.798C249.425 113.798 244.112 113.63 243.617 114.133C243.122 114.637 242.613 117.65 243.673 120.054C244.733 122.457 245.91 124.25 246.799 124.578C247.689 124.905 253.331 123.014 257.909 122.566C262.486 122.118 267.455 118.49 267.455 118.49C267.455 118.49 272.928 116.531 273.887 113.238C274.846 109.945 272.715 91.8455 272.715 91.8455C272.715 91.8455 271.105 83.4099 266.583 85.7014Z" fill="black"/>
<path opacity="0.03" d="M265.912 84.862C265.912 84.862 260.664 94.8616 261.279 98.6583C261.894 102.455 263.622 106.758 262.783 107.765C262.497 108.146 262.126 108.456 261.7 108.669C261.274 108.882 260.804 108.993 260.328 108.994C259.489 109.05 257.252 110.614 257.252 110.781C257.252 110.949 255.186 110.949 253.337 111.73C251.489 112.51 248.76 112.958 248.76 112.958C248.76 112.958 243.447 112.79 242.955 113.294C242.463 113.798 241.948 116.814 243.011 119.214C244.073 121.615 245.248 123.411 246.137 123.738C247.026 124.066 252.669 122.174 257.247 121.729C261.824 121.285 266.793 117.65 266.793 117.65C266.793 117.65 272.263 115.692 273.211 112.401C274.159 109.111 272.039 91.0061 272.039 91.0061C272.039 91.0061 270.434 82.5733 265.912 84.862Z" fill="black"/>
<path d="M266.418 85.1978C266.418 85.1978 261.17 95.1973 261.785 98.994C262.4 102.791 264.128 107.094 263.292 108.098C263.006 108.48 262.635 108.79 262.208 109.004C261.782 109.217 261.311 109.329 260.834 109.329C259.995 109.385 257.758 110.949 257.758 111.114C257.758 111.279 255.695 111.282 253.843 112.066C251.992 112.849 249.266 113.294 249.266 113.294C249.266 113.294 243.953 113.126 243.458 113.63C242.963 114.133 242.454 117.149 243.514 119.55C244.574 121.951 245.751 123.747 246.64 124.074C247.529 124.401 253.172 122.51 257.75 122.062C262.327 121.615 267.296 117.986 267.296 117.986C267.296 117.986 272.769 116.027 273.728 112.734C274.687 109.441 272.57 91.3419 272.57 91.3419C272.57 91.3419 270.937 82.9203 266.418 85.1978Z" fill="white"/>
<path opacity="0.1" d="M266.304 112.018C266.304 112.018 262.109 111.179 263.569 112.578C265.028 113.977 265.02 115.202 266.807 115.146C268.594 115.09 266.304 112.018 266.304 112.018Z" fill="black"/>
<path opacity="0.1" d="M273.392 142.117C273.392 142.117 271.496 143.402 275.123 146.362C278.75 149.322 273.392 142.117 273.392 142.117Z" fill="black"/>
<path opacity="0.1" d="M269.774 152.674C269.774 152.842 269.103 158.829 271.614 160.326C274.125 161.823 269.774 152.674 269.774 152.674Z" fill="black"/>
<path d="M229.905 105.748C227.88 105.818 223.507 106.436 225.774 110.669C227.779 114.416 231.149 111.912 233.045 110.012C232.582 108.241 231.458 106.715 229.905 105.748Z" fill="#FBD4BE"/>
<path d="M233.07 109.979L233.154 109.892L233.07 109.979Z" fill="#FFB0B1"/>
<path opacity="0.1" d="M265.747 79.8427C263.599 81.3115 261.799 82.551 261.446 82.8084C260.484 83.5219 258.65 87.7103 257.467 89.8478C256.525 91.5685 253.463 92.0106 252.308 92.1197L252.456 90.8411C255.082 89.666 257.093 85.9224 257.093 85.9224L262.282 76.8182L264.069 78.4437C264.069 78.4437 264.74 79.0033 265.747 79.8427Z" fill="black"/>
<path d="M265.747 79.6748C263.599 81.1436 261.799 82.3831 261.446 82.6433C260.484 83.354 258.65 87.5424 257.467 89.6799C256.525 91.4006 253.463 91.8427 252.308 91.9518L252.456 90.6732C255.082 89.4981 257.093 85.7545 257.093 85.7545L262.282 76.6503L264.069 78.2702C264.069 78.2702 264.74 78.8242 265.747 79.6748Z" fill="#DCE7FF"/>
<path d="M261.614 72.5458C261.616 74.2253 261.106 75.8656 260.155 77.249C259.031 78.8847 257.358 80.0631 255.44 80.5703C253.522 81.0775 251.485 80.8799 249.7 80.0134C247.915 79.1468 246.5 77.6688 245.711 75.8474C244.922 74.0261 244.812 71.9821 245.4 70.0863C245.988 68.1905 247.236 66.5685 248.918 65.5147C250.599 64.4609 252.602 64.045 254.564 64.3425C256.525 64.6401 258.315 65.6313 259.609 67.1364C260.903 68.6415 261.614 70.5607 261.614 72.5458Z" fill="#FBD4BE"/>
<path opacity="0.1" d="M276.088 100.454C274.952 99.7556 274.027 98.7615 273.412 97.5783C272.945 96.655 272.634 95.589 271.837 94.9343C271.119 94.3467 270.16 94.2041 269.265 93.9411C266.323 93.0709 263.857 90.385 263.765 87.3185C263.72 85.8748 264.17 84.4339 263.966 83.0042C263.85 82.195 263.528 81.4292 263.032 80.7799C262.785 80.4694 262.515 80.1784 262.224 79.9098C261.832 79.5404 261.421 79.1823 261.063 78.7906C260.838 78.5481 260.641 78.2806 260.476 77.9932C260.343 77.7581 260.235 77.5096 260.155 77.2518C259.595 75.5395 260.104 73.5083 259.489 71.7764L259.455 71.6812C259.223 71.0657 258.751 70.4502 258.094 70.4026C257.437 70.3551 256.875 70.9006 256.248 71.1441C254.937 71.6533 253.522 70.7859 252.428 69.9018C251.335 69.0177 250.102 68.0076 248.712 68.2035C247.792 68.335 247.065 68.9617 246.218 69.2863C246.027 69.3604 245.829 69.4175 245.628 69.4569C246.345 67.6677 247.662 66.1842 249.354 65.2613C251.045 64.3384 253.005 64.0337 254.897 64.3995C256.788 64.7653 258.493 65.7788 259.719 67.2659C260.945 68.753 261.615 70.6209 261.614 72.5486C261.615 73.1307 261.554 73.7112 261.432 74.2805C261.446 74.3196 261.46 74.356 261.477 74.3952C261.802 75.2345 262.168 76.0963 262.489 76.8405L264.069 78.273C264.069 78.273 264.74 78.8326 265.747 79.672C267.937 81.5185 271.72 84.7697 273.672 86.7589C275.389 88.516 275.926 95.326 276.088 100.454Z" fill="black"/>
<path d="M246.12 64.1746C246.52 63.3605 246.719 62.4484 247.197 61.6761C247.899 60.557 249.124 59.8407 250.382 59.4071C253.667 58.2739 260.611 56.6288 262.685 59.4071C263.094 59.9666 263.432 60.5878 263.997 60.9739C264.428 61.2677 264.948 61.3936 265.42 61.6146C266.743 62.2357 267.587 63.5899 268.038 64.972C268.488 66.3542 268.622 67.837 268.952 69.2612C269.374 71.0882 270.115 72.82 270.853 74.5407C271.723 76.572 272.646 78.6788 274.324 80.1141C276.614 82.0726 277.12 84.8453 279.245 86.994C281.762 89.5457 281.681 93.7565 280.383 97.0999C280.213 97.5392 280.02 97.998 280.087 98.4653C280.154 98.9325 280.501 99.3578 280.828 99.7299L282.203 101.283C278.949 102.069 275.266 100.368 273.75 97.3825C273.283 96.4592 272.973 95.396 272.173 94.7385C271.457 94.151 270.495 94.0111 269.603 93.7481C266.662 92.8751 264.195 90.1864 264.103 87.1199C264.058 85.679 264.509 84.2381 264.305 82.8112C264.191 81.9966 263.868 81.2254 263.368 80.5729C262.599 79.5685 261.438 78.8942 260.812 77.7751C259.752 75.9033 260.557 73.4719 259.794 71.4631C259.559 70.8475 259.089 70.232 258.432 70.1845C257.775 70.1369 257.213 70.6825 256.584 70.9259C255.275 71.4351 253.86 70.5706 252.767 69.6836C251.674 68.7967 250.441 67.7895 249.048 67.9881C248.128 68.1168 247.404 68.7435 246.557 69.0709C245.93 69.3115 244.661 69.5269 244.113 68.9982C242.955 67.9322 245.637 65.1707 246.12 64.1746Z" fill="#3F3D56"/>
<path opacity="0.1" d="M274.527 96.4592C274.058 95.5359 273.75 94.4727 272.95 93.818C272.234 93.2304 271.273 93.0877 270.378 92.8247C267.439 91.9546 264.973 89.2659 264.877 86.1994C264.833 84.7585 265.283 83.3148 265.082 81.8879C264.964 81.0785 264.642 80.3127 264.145 79.6636C263.373 78.6592 262.213 77.9849 261.589 76.8657C260.529 74.9967 261.335 72.5654 260.568 70.5537C260.336 69.941 259.864 69.3255 259.209 69.2751C258.555 69.2248 257.987 69.7759 257.361 70.0194C256.052 70.5286 254.635 69.6612 253.544 68.7771C252.454 67.893 251.215 66.8829 249.825 67.0788C248.905 67.2103 248.178 67.837 247.334 68.1616C246.707 68.4022 245.435 68.6204 244.887 68.0916C243.735 66.9725 246.416 64.2166 246.897 63.2261C247.297 62.4092 247.496 61.4999 247.977 60.7276C248.002 60.6857 248.03 60.6437 248.058 60.6017C247.698 60.9 247.388 61.2531 247.138 61.6481C246.66 62.4204 246.461 63.3269 246.061 64.1466C245.578 65.1371 242.896 67.9014 244.051 69.0121C244.61 69.5437 245.868 69.3255 246.495 69.0849C247.334 68.7575 248.066 68.1308 248.986 68.0021C250.384 67.8034 251.615 68.8135 252.705 69.6976C253.796 70.5817 255.222 71.4491 256.525 70.9398C257.151 70.6964 257.699 70.1481 258.371 70.1984C259.042 70.2488 259.489 70.8615 259.732 71.477C260.496 73.4859 259.69 75.9173 260.75 77.789C261.377 78.8886 262.537 79.5769 263.306 80.5869C263.806 81.2394 264.129 82.0106 264.243 82.8252C264.447 84.2521 263.997 85.693 264.041 87.1339C264.134 90.2115 266.6 92.8891 269.542 93.762C270.428 94.025 271.396 94.1649 272.111 94.7525C272.914 95.41 273.23 96.4732 273.689 97.3965C275.204 100.382 278.887 102.083 282.142 101.297L281.493 100.564C278.672 100.606 275.817 98.9996 274.527 96.4592Z" fill="black"/>
<path opacity="0.1" d="M255.25 83.6897C254.883 84.2493 253.835 87.1143 252.96 89.6156C252.14 89.2966 251.396 87.2626 251.396 87.2626L255.764 81.0457C256.212 81.6612 255.918 82.6825 255.25 83.6897Z" fill="black"/>
<path d="M255.418 83.5219C255.051 84.0814 254.003 86.9464 253.128 89.4477C252.308 89.1316 251.564 87.0947 251.564 87.0947L255.932 80.8807C256.38 81.4934 256.086 82.5174 255.418 83.5219Z" fill="#DCE7FF"/>
<path d="M230.022 112.105L227.6 104.464C227.572 104.374 227.561 104.28 227.569 104.187C227.577 104.093 227.603 104.002 227.646 103.918C227.689 103.835 227.748 103.761 227.82 103.7C227.892 103.64 227.975 103.594 228.065 103.566C228.245 103.509 228.44 103.527 228.608 103.614C228.775 103.701 228.902 103.85 228.959 104.03L231.381 111.663L231.141 113.26L230.022 112.105Z" fill="#BE8B87"/>
<path opacity="0.1" d="M227.83 103.792C228.01 103.735 228.206 103.752 228.375 103.839C228.543 103.926 228.67 104.076 228.727 104.257L231.149 111.889L230.967 113.087L231.143 113.272L231.384 111.674L228.948 104.041C228.891 103.862 228.764 103.712 228.597 103.625C228.429 103.538 228.234 103.521 228.054 103.577C227.902 103.626 227.771 103.725 227.682 103.857C227.729 103.831 227.779 103.81 227.83 103.792Z" fill="white"/>
<path d="M230.022 112.105L231.381 111.674L231.182 112.983L231.14 113.272L230.743 112.857L230.022 112.105Z" fill="#EFC8C4"/>
<path d="M230.743 112.857C230.767 112.828 230.796 112.803 230.83 112.785C230.85 112.772 230.872 112.766 230.896 112.766C230.919 112.766 230.942 112.772 230.961 112.785C230.98 112.808 230.996 112.833 231.009 112.86C231.027 112.891 231.052 112.917 231.082 112.937C231.112 112.957 231.147 112.97 231.182 112.975L231.14 113.255L230.743 112.857Z" fill="#727A9C"/>
<path d="M227.586 107.178C227.586 107.178 232.444 107.15 231.3 109.217C230.156 111.285 228.369 111.534 228.369 111.534L227.586 107.178Z" fill="#FBD4BE"/>
</g>
<defs>
<linearGradient id="paint0_linear_1064_1168" x1="99.6399" y1="216.798" x2="99.6399" y2="44.6343" gradientUnits="userSpaceOnUse">
<stop stop-color="#808080" stop-opacity="0.25"/>
<stop offset="0.54" stop-color="#808080" stop-opacity="0.12"/>
<stop offset="1" stop-color="#808080" stop-opacity="0.1"/>
</linearGradient>
<linearGradient id="paint1_linear_1064_1168" x1="249.828" y1="214.621" x2="249.828" y2="57.3814" gradientUnits="userSpaceOnUse">
<stop stop-color="#808080" stop-opacity="0.25"/>
<stop offset="0.54" stop-color="#808080" stop-opacity="0.12"/>
<stop offset="1" stop-color="#808080" stop-opacity="0.1"/>
</linearGradient>
<clipPath id="clip0_1064_1168">
<rect width="309" height="219" fill="white"/>
</clipPath>
<clipPath id="clip1_1064_1168">
<rect width="10.5464" height="4.69027" fill="white" transform="matrix(0.998636 -0.0522064 0.0521399 0.99864 85.5923 90.0441)"/>
</clipPath>
</defs>
</svg>
