<svg width="302" height="261" viewBox="0 0 302 261" fill="none" xmlns="http://www.w3.org/2000/svg">
<g opacity="0.1" clip-path="url(#clip0_1654_282)">
<path d="M221.73 54.393C219.784 46.3498 217.839 38.3074 215.894 30.2643C214.781 25.6641 213.668 21.0639 212.557 16.4637C211.645 12.6951 211.26 13.1625 207.931 11.1649C202.493 7.90211 196.348 4.61794 190.842 8.74327C184.885 13.2076 179.646 17.6918 177.769 25.2025C176.003 32.2612 180.303 38.1737 174.285 44.3713C169.915 48.8718 161.289 52.989 154.868 52.6338C141.23 51.8791 122.246 48.3778 124.186 30.8396C125.004 23.4404 121.979 17.1535 116.372 12.4735C110.668 7.71231 107.604 4.58618 100.166 7.56682C97.238 8.74032 94.7183 10.7912 91.8947 11.9233C89.2002 13.003 89.4717 16.1653 88.8549 18.9C86.5499 29.1181 84.2449 39.3362 81.9407 49.5542C81.4693 51.645 80.5802 52.636 82.2491 53.9661C86.3448 57.2296 90.4404 60.4923 94.5361 63.7558C99.0567 67.3576 100.935 70.0819 106.458 70.0598C126.379 69.9807 146.301 69.901 166.223 69.8212C179.494 69.7681 192.767 69.7156 206.039 69.6624C207.303 69.6573 210.794 70.333 211.605 69.1839C214.726 64.775 220.149 59.4636 221.735 54.393" fill="#385CAD"/>
<path d="M221.73 54.393C219.784 46.3498 217.839 38.3074 215.894 30.2643C214.781 25.6641 213.668 21.0639 212.557 16.4637C211.645 12.6951 211.26 13.1625 207.931 11.1649C202.493 7.90211 196.348 4.61794 190.842 8.74327C184.885 13.2076 179.646 17.6918 177.769 25.2025C176.003 32.2612 180.303 38.1737 174.285 44.3713C169.915 48.8718 161.289 52.989 154.868 52.6338C141.23 51.8791 122.246 48.3778 124.186 30.8396C125.004 23.4404 121.979 17.1535 116.372 12.4735C110.668 7.71231 107.604 4.58618 100.166 7.56682C97.238 8.74032 94.7183 10.7912 91.8947 11.9233C89.2002 13.003 89.4717 16.1653 88.8549 18.9C86.5499 29.1181 84.2449 39.3362 81.9407 49.5542C81.4693 51.645 80.5802 52.636 82.2491 53.9661C86.3448 57.2296 90.4404 60.4923 94.5361 63.7558C99.0567 67.3576 100.935 70.0819 106.458 70.0598C126.379 69.9807 146.301 69.901 166.223 69.8212C179.267 69.7695 192.311 69.7171 205.355 69.6654C206.157 69.6624 210.863 70.2348 211.365 69.5229C214.82 64.6243 218.275 59.7258 221.73 54.8272" stroke="white" stroke-miterlimit="10" stroke-linecap="square"/>
<path d="M146.871 81.3989C143.109 77.9618 136.037 78.1273 131.31 78.7166C125.645 79.4226 119.517 78.7845 113.808 78.7845C107.955 78.7845 101.787 78.9522 95.9753 78.3052C93.466 78.0261 79.6466 76.7758 85.5012 71.8152C80.2597 75.089 66.5849 74.1038 67.2194 65.7143C62.9408 67.136 58.1612 67.4993 53.7239 66.5865C50.7225 65.9691 41.8738 63.2817 45.4566 58.7457C41.4695 58.4961 18.1875 56.2776 26.7418 47.4184C18.8213 46.3985 7.61156 42.2274 1.9141 36.5106C-3.2691 31.31 5.93965 30.8624 9.82133 30.8624C15.7999 30.8624 21.597 31.2576 27.6087 30.8624C50.2953 29.3714 70.0992 22.6701 90.2867 12.5658C84.0159 20.4989 103.903 20.0226 107.263 18.6644C107.263 23.8436 109.887 31.4407 116.836 28.2496C118.218 39.3118 121.521 47.188 131.274 53.2911C138.912 58.0707 151.315 58.8765 159.251 57.5508C168.628 55.9844 178.456 50.481 182.123 41.3198C182.995 39.1419 183.729 36.6893 184.039 34.3593C184.256 32.7338 184.473 31.1076 184.69 29.4822C184.806 28.6048 187.096 29.3707 187.785 29.1203C192.176 27.5281 196.161 25.3657 194.314 19.5366C199.791 20.5026 214.507 22.8267 211.725 13.0015C221.477 17.8816 231.139 22.275 241.418 25.9506C251.524 29.5649 263.107 30.2643 273.71 31.2738C277.544 31.6386 304.483 29.6262 301.386 36.0911C300.017 38.9477 291.769 42.9652 288.764 43.7148C284.168 44.8617 279.997 46.9074 275.271 47.8541C283.839 56.9622 260.588 58.9281 256.556 59.1792C260.031 63.5823 251.407 66.5134 248.327 66.9543C243.422 67.6566 239.164 67.3538 234.355 66.1501C238.142 74.4258 220.462 74.7249 216.512 72.2487C221.088 78.1612 208.523 78.4655 205.197 78.7838C198.271 79.4455 190.825 80.0142 183.868 79.656C177.509 79.3288 171.206 79.2203 164.824 79.2203C161.855 79.2203 159.304 79.7062 156.447 80.5282C153.127 81.4882 150.773 81.6212 146.87 81.3996" fill="#385CAD"/>
<path d="M146.871 81.3989C143.109 77.9618 136.037 78.1273 131.31 78.7166C125.645 79.4226 119.517 78.7845 113.808 78.7845C107.955 78.7845 101.787 78.9522 95.9753 78.3052C93.466 78.0261 79.6466 76.7758 85.5012 71.8152C80.2597 75.089 66.5849 74.1038 67.2194 65.7143C62.9408 67.136 58.1612 67.4993 53.7239 66.5865C50.7225 65.9691 41.8738 63.2817 45.4566 58.7457C41.4695 58.4961 18.1875 56.2776 26.7418 47.4184C18.8213 46.3985 7.61156 42.2274 1.9141 36.5106C-3.2691 31.31 5.93965 30.8624 9.82133 30.8624C15.7999 30.8624 21.597 31.2576 27.6087 30.8624C50.2953 29.3714 70.0992 22.6701 90.2867 12.5658C84.0159 20.4989 103.903 20.0226 107.263 18.6644C107.263 23.8436 109.887 31.4407 116.836 28.2496C118.218 39.3118 121.521 47.188 131.274 53.2911C138.912 58.0707 151.315 58.8765 159.251 57.5508C168.628 55.9844 178.456 50.481 182.123 41.3198C182.995 39.1419 183.729 36.6893 184.039 34.3593C184.256 32.7338 184.473 31.1076 184.69 29.4822C184.806 28.6048 187.096 29.3707 187.785 29.1203C192.176 27.5281 196.161 25.3657 194.314 19.5366C199.791 20.5026 214.507 22.8267 211.725 13.0015C221.477 17.8816 231.139 22.275 241.418 25.9506C251.524 29.5649 263.107 30.2643 273.71 31.2738C277.544 31.6386 304.483 29.6262 301.386 36.0911C300.017 38.9477 291.769 42.9652 288.764 43.7148C284.168 44.8617 279.997 46.9074 275.271 47.8541C283.839 56.9622 260.588 58.9281 256.556 59.1792C260.031 63.5823 251.407 66.5134 248.327 66.9543C243.422 67.6566 239.164 67.3538 234.355 66.1501C238.142 74.4258 220.462 74.7249 216.512 72.2487C221.088 78.1612 208.523 78.4655 205.197 78.7838C198.271 79.4455 190.825 80.0142 183.868 79.656C177.509 79.3288 171.206 79.2203 164.824 79.2203C161.855 79.2203 159.304 79.7062 156.447 80.5282C153.127 81.4882 150.773 81.6212 146.87 81.3996" stroke="white" stroke-miterlimit="10" stroke-linecap="square"/>
<path d="M144.694 198.158C147.001 197.225 149.593 193.028 152.095 191.187C155.476 188.698 159.75 185.836 163.426 183.99C168.111 181.639 172.663 179.605 176.046 175.375C178.283 172.579 183.144 164.612 177.358 164.612H167.08C167.518 164.612 163.869 170.621 163.408 171.147C159.956 175.081 155.35 177.468 150.788 179.86C140.492 185.26 134.245 192.388 134.245 204.258C136.621 203.017 144.626 199.974 144.693 198.15" fill="#385CAD"/>
<path d="M166.452 164.179C168.159 172.998 153.202 177.791 147.737 181.169C138.825 186.678 134.241 193.983 134.241 204.261" stroke="white" stroke-miterlimit="10" stroke-linecap="square"/>
<path d="M144.694 198.158C146.985 197.231 148.913 193.309 151.442 191.622C154.749 189.416 159.564 187.632 162.324 184.868C165.622 181.567 170.817 180.727 174.308 177.228C177.9 173.63 179.949 169.692 179.949 164.61" stroke="white" stroke-miterlimit="10" stroke-linecap="square"/>
<path d="M145.565 226.915C146.09 222.481 150.365 218.628 153.399 215.59C150.928 214.418 148.458 213.246 145.988 212.075C144.411 211.327 142.227 214.726 141.213 216.024C138.806 219.103 136.111 223.272 136.422 227.351C139.462 227.203 142.509 227.056 145.556 226.915" fill="#385CAD"/>
<path d="M145.565 226.915C146.09 222.481 150.365 218.628 153.399 215.59C150.928 214.418 148.458 213.246 145.988 212.075C144.411 211.327 142.227 214.726 141.213 216.024C138.806 219.103 136.111 223.272 136.422 227.351" stroke="white" stroke-miterlimit="10" stroke-linecap="square"/>
<path d="M153.401 233.016C157.589 232.633 162.506 228.616 163.849 224.736C165.141 221.004 164.161 221.529 160.362 220.443C156.786 219.42 153.211 218.397 149.634 217.375C149.389 217.304 144.752 226.977 145.129 228.223C145.683 230.076 153.511 232.956 153.4 233.016" fill="#385CAD"/>
<path d="M153.4 233.016C158.233 232.574 165.034 226.74 164.716 221.688" stroke="white" stroke-miterlimit="10" stroke-linecap="square"/>
<path d="M258.732 32.6097C267.929 34.9087 276.931 34.7884 286.262 34.7884C287.98 34.7884 298.1 33.1902 298.338 35.2219C298.63 37.7232 290.002 41.0768 288.328 41.757C280.165 45.0707 273.147 44.8078 264.375 44.8078C260.086 44.8078 255.328 43.3433 251.12 42.4999C247.683 41.8109 241.938 41.2385 239.146 39.1448" stroke="white" stroke-miterlimit="10" stroke-linecap="square"/>
<path d="M227.39 46.1135C232.633 50.0172 240.034 51.8945 246.107 54.1736C250.49 55.8182 260.012 57.4526 264.605 55.9165C266.704 55.2141 272.135 54.8818 273.091 52.2143C273.782 50.2883 272.371 48.2913 270.045 48.2913C262.97 48.2913 256.548 46.7368 249.586 45.6785" stroke="white" stroke-miterlimit="10" stroke-linecap="square"/>
<path d="M225.648 50.9064C228.777 52.9322 251.573 59.0035 251.331 61.798C250.814 67.7615 233.547 61.925 230.439 60.9281" stroke="white" stroke-miterlimit="10" stroke-linecap="square"/>
<path d="M211.726 55.2629C216.516 57.6698 229.57 60.6208 229.57 67.4617C229.57 75.1459 207.181 65.7978 204.326 63.9759" stroke="white" stroke-miterlimit="10" stroke-linecap="square"/>
<path d="M198.231 65.2845C200.784 67.2047 217.103 72.4134 210.417 75.7404C202.844 79.5083 192.369 71.152 186.479 67.4632" stroke="white" stroke-miterlimit="10" stroke-linecap="square"/>
<path d="M220.431 19.5396C225.24 21.9471 230.31 23.4995 235.228 25.6382C238.146 26.9077 244.591 29.5087 239.579 32.1733C230.371 37.0681 212.933 28.1196 204.326 24.766" stroke="white" stroke-miterlimit="10" stroke-linecap="square"/>
<path d="M211.282 30.4319C214.965 32.5499 219.615 33.5071 223.469 35.2226C226.276 36.4722 232.319 38.5127 227.17 40.2334C218.457 43.1446 206.675 34.9553 199.53 30.8661" stroke="white" stroke-miterlimit="10" stroke-linecap="square"/>
<path d="M193.877 32.1741C197.371 34.0477 218.641 42.0591 217.817 46.55C216.322 54.6972 195.684 40.2113 193.006 38.7092" stroke="white" stroke-miterlimit="10" stroke-linecap="square"/>
<path d="M194.312 43.9356C196.756 46.6157 199.969 48.7293 202.582 51.3429C204.314 53.0754 206.375 54.7578 203.885 55.6994C198.871 57.5959 189.488 48.617 186.475 45.68" stroke="white" stroke-miterlimit="10" stroke-linecap="square"/>
<path d="M182.559 47.8578C183.918 50.4205 195.007 57.4046 192.568 60.4916C190.246 63.4316 183.024 57.8603 180.815 56.5708" stroke="white" stroke-miterlimit="10" stroke-linecap="square"/>
<path d="M174.289 55.2629C175.35 56.3567 180.686 62.36 179.296 63.7581C177.313 65.7506 172.127 63.0528 170.808 61.7973" stroke="white" stroke-miterlimit="10" stroke-linecap="square"/>
<path d="M163.406 60.4916C165.871 63.6258 168.953 68.836 162.101 69.2045" stroke="white" stroke-miterlimit="10" stroke-linecap="square"/>
<path d="M169.935 72.6896C167.22 71.4939 160.512 74.0027 164.711 76.1761" stroke="white" stroke-miterlimit="10" stroke-linecap="square"/>
<path d="M176.03 66.1545C173.406 66.8516 170.191 66.6611 171.894 70.076C173.059 72.4119 176.385 72.9783 178.64 73.1253C180.065 73.2184 184.134 73.8623 185.171 73.3432C187.165 72.3447 187.616 73.8298 186.474 71.3824C185.03 68.2851 179.199 66.2534 176.031 66.5895" stroke="white" stroke-miterlimit="10" stroke-linecap="square"/>
<path d="M203.882 12.1331C200.35 12.4019 197.714 11.6168 194.31 13.0052C190.944 14.3781 188.586 17.423 186.038 19.9746C188.248 16.768 189.834 12.6567 192.987 10.2942C197.598 6.83866 201.723 13.1485 203.877 12.1331" fill="white"/>
<path d="M42.8417 32.1741C34.266 35.0203 24.6514 34.3519 15.7489 34.3519C14.1042 34.3519 4.23367 32.4968 3.6685 34.3519C2.8473 37.049 11.5979 40.4284 13.2063 41.1189C21.0671 44.4939 28.0594 44.7059 36.5886 44.0486C43.8621 43.4881 56.8839 43.1831 62.8654 38.7092" stroke="white" stroke-miterlimit="10" stroke-linecap="square"/>
<path d="M74.1809 45.68C64.0278 51.4773 50.0829 57.2769 38.0557 55.6987C34.6256 55.2489 23.2439 50.3164 31.5267 47.8579C34.4234 46.9982 38.08 47.9605 41.1029 47.2035C44.7131 46.3003 48.6936 45.8668 52.4181 45.2435" stroke="white" stroke-miterlimit="10" stroke-linecap="square"/>
<path d="M75.9218 50.47C71.4986 52.5408 67.338 54.3486 62.6698 55.9091C60.6282 56.5915 51.1214 58.6778 50.6787 60.9281C49.527 66.78 68.703 61.5683 71.5701 60.4916" stroke="white" stroke-miterlimit="10" stroke-linecap="square"/>
<path d="M89.8516 54.8272C86.1462 56.6801 70.0285 61.1238 72.4412 67.4632C75.2324 74.7966 93.6683 65.5504 97.685 63.5402" stroke="white" stroke-miterlimit="10" stroke-linecap="square"/>
<path d="M103.347 64.8488C100.58 66.6596 84.9775 72.0235 91.5943 75.3039C98.3837 78.6708 110.623 71.4083 115.1 66.591" stroke="white" stroke-miterlimit="10" stroke-linecap="square"/>
<path d="M81.1453 19.1038C76.6741 22.2499 70.4358 23.3673 65.4909 25.8487C62.9152 27.1411 56.8835 29.8905 63.0805 31.9554C68.0586 33.6149 74.6621 31.5101 79.5125 30.2945C85.6261 28.7628 91.9286 26.921 97.6836 24.3295" stroke="white" stroke-miterlimit="10" stroke-linecap="square"/>
<path d="M90.2871 29.9954C85.2183 33.9125 75.7078 32.9783 72.0039 38.7091C80.2203 44.4186 95.2003 34.589 102.472 30.4319" stroke="white" stroke-miterlimit="10" stroke-linecap="square"/>
<path d="M107.693 31.7376C104.203 34.2855 83.1381 41.1381 84.1873 46.1135C85.8725 54.1035 105.665 40.1072 108.564 38.272" stroke="white" stroke-miterlimit="10" stroke-linecap="square"/>
<path d="M107.265 43.5013C105.607 45.1667 94.4958 53.1847 97.6883 55.2629C99.361 56.3515 105.8 52.9861 107.279 51.8753C110.231 49.6598 112.904 47.4398 115.533 44.8078" stroke="white" stroke-miterlimit="10" stroke-linecap="square"/>
<path d="M119.011 47.4221C117.531 49.9862 106.851 57.2532 109.439 60.0559C111.933 62.7573 118.954 57.779 120.754 55.6994" stroke="white" stroke-miterlimit="10" stroke-linecap="square"/>
<path d="M127.282 54.8272C126.425 56.545 121.155 61.4465 122.495 63.5402C123.721 65.4537 129.7 62.2662 131.2 61.3616" stroke="white" stroke-miterlimit="10" stroke-linecap="square"/>
<path d="M138.165 60.0558C134.731 64.6893 133.872 66.585 139.908 68.7688" stroke="white" stroke-miterlimit="10" stroke-linecap="square"/>
<path d="M131.635 72.2531C134.197 71.0966 141.318 72.5899 136.859 75.7396" stroke="white" stroke-miterlimit="10" stroke-linecap="square"/>
<path d="M125.54 65.7188C135.017 66.0718 128.114 72.6896 122.277 72.6896C119.655 72.6896 113.136 74.2183 115.096 70.511C116.674 67.5259 122.93 65.913 125.978 66.1545" stroke="white" stroke-miterlimit="10" stroke-linecap="square"/>
<path d="M97.688 11.6966C101.139 11.975 104.319 10.5807 107.698 12.1323C110.75 13.5332 113.605 16.8876 115.532 19.5396C114.282 16.5227 111.342 11.3864 108.569 9.51795C104.696 6.90878 101.206 9.68338 97.6865 11.6966" fill="white"/>
<path d="M122.494 128.457C122.325 113.429 154.558 115.899 163.362 115.435C176.873 114.724 195.075 113.585 204.784 102.895C210.64 96.4468 207.412 88.5351 202.611 82.5339C198.221 77.0461 190.202 75.0078 183.556 73.6762C179.196 72.8033 166.493 75.1459 164.71 80.0983C162.609 85.9341 177.945 85.4673 181.153 85.2391C185.655 84.9186 191.894 84.5346 194.745 88.8106C197.928 93.5858 194.345 98.0553 190.709 101.173C187.16 104.217 180.341 103.698 175.912 104.39C170.209 105.282 164.584 105.946 158.846 106.521C148.995 107.508 139.486 106.76 129.667 108.722C120 110.655 109.081 118.346 109.869 129.327C114.082 129.031 118.288 128.743 122.494 128.455" fill="#385CAD"/>
<path d="M122.494 128.457C122.325 113.429 154.558 115.899 163.362 115.435C176.873 114.724 195.075 113.585 204.784 102.895C210.64 96.4468 207.412 88.5351 202.611 82.5339C198.221 77.0461 190.202 75.0078 183.556 73.6762C179.196 72.8033 166.493 75.1459 164.71 80.0983C162.609 85.9341 177.945 85.4673 181.153 85.2391C185.655 84.9186 191.894 84.5346 194.745 88.8106C197.928 93.5858 194.345 98.0553 190.709 101.173C187.16 104.217 180.341 103.698 175.912 104.39C170.209 105.282 164.584 105.946 158.846 106.521C148.995 107.508 139.486 106.76 129.667 108.722C120 110.655 109.081 118.346 109.869 129.327" stroke="white" stroke-miterlimit="10" stroke-linecap="square"/>
<path d="M143.388 131.071C142.663 97.2356 141.938 63.3991 141.212 29.5627C147.306 29.7082 153.399 29.8537 159.494 29.9991C158.892 49.871 158.29 69.7429 157.688 89.6156L156.637 124.339C156.573 126.429 156.51 128.52 156.446 130.61C156.439 130.787 144.649 131.023 143.387 131.068" fill="#385CAD"/>
<path d="M143.388 131.071C142.663 97.2356 141.938 63.3991 141.212 29.5627C147.306 29.7082 153.399 29.8537 159.494 29.9991C158.478 63.5453 157.462 97.0908 156.446 130.636" stroke="white" stroke-miterlimit="10" stroke-linecap="square"/>
<path d="M155.577 164.615C155.135 180.757 154.694 196.899 154.253 213.042C153.952 224.002 153.653 234.962 153.353 245.921C153.296 248.018 154.32 259.686 152.096 260.243C144.761 262.079 146.371 257.09 146.249 251.747C146.02 241.777 145.791 231.807 145.563 221.837C145.138 203.243 144.711 184.65 144.285 166.055C144.226 163.685 153.383 164.697 155.574 164.615" fill="#385CAD"/>
<path d="M155.577 164.615C155.135 180.757 154.694 196.899 154.253 213.042C153.953 224.002 153.653 234.962 153.353 245.921C153.296 248.018 154.32 259.686 152.096 260.243C144.761 262.079 146.371 257.09 146.249 251.747C146.02 241.777 145.791 231.807 145.563 221.837C145.138 203.243 144.711 184.65 144.286 166.055C144.278 165.721 144.27 165.386 144.263 165.052" stroke="white" stroke-miterlimit="10" stroke-linecap="square"/>
<path d="M141.212 36.0948C145.918 39.6862 154.093 39.4949 159.055 36.5305" stroke="white" stroke-miterlimit="10" stroke-linecap="square"/>
<path d="M150.353 33.044C171.394 34.3881 172.014 0.369263 151.03 0.369263C141.009 0.369263 135.236 6.92578 133.881 16.4489C132.907 23.2292 143.303 37.1649 150.349 33.044" fill="#385CAD"/>
<path d="M150.353 33.044C171.395 34.3881 172.014 0.369263 151.031 0.369263C141.009 0.369263 135.236 6.92578 133.881 16.4489C132.469 26.3782 142.228 32.1179 150.353 33.4805" stroke="white" stroke-miterlimit="10" stroke-linecap="square"/>
<path d="M161.229 210.358C163.72 207.362 165.581 202.758 165.581 198.788C165.581 190.299 161.053 186.169 154.831 181.185C149.188 176.667 142.672 175.124 137.607 169.332C131.778 162.67 139.159 157.144 145.897 155.739C160.254 152.745 178.581 150.93 187.781 138.039C192.473 131.463 193.543 123.899 188.215 117.127C183.072 110.589 175.023 108.825 167.329 107.423C153.64 104.93 139.498 106.116 125.653 103.951C118.901 102.895 110.151 103.141 106.822 95.7792C103.106 87.564 111.88 84.4519 118.362 84.4519C121.992 84.4519 136.734 86.6778 137.728 80.9654C138.753 75.0706 122.969 73.1246 119.573 73.1246C105.098 73.1246 90.3767 85.1801 95.3783 100.183C97.625 106.922 108.237 109.747 114.223 111.245C121.817 113.145 129.482 113.845 137.29 114.512C146.044 115.261 177.173 112.837 178.858 126.275C180.785 141.642 150.913 144.255 141.37 146.281C127.13 149.303 114.104 164.291 127.744 176.575C133.59 181.842 141.247 185.054 147.738 189.447C150.139 191.072 152.579 192.374 153.829 195.109C155.358 198.457 154.429 202.943 154.267 206.874C156.62 207.236 160.014 210.345 161.225 210.367" fill="#385CAD"/>
<path d="M161.229 210.358C163.72 207.362 165.581 202.758 165.581 198.788C165.581 190.299 161.053 186.169 154.831 181.185C149.188 176.667 142.672 175.124 137.607 169.332C131.778 162.67 139.159 157.144 145.897 155.739C160.254 152.745 178.581 150.93 187.781 138.039C192.473 131.463 193.543 123.899 188.215 117.127C183.072 110.589 175.023 108.825 167.329 107.423C153.64 104.93 139.498 106.116 125.653 103.951C118.901 102.895 110.151 103.141 106.822 95.7792C103.106 87.564 111.88 84.4519 118.362 84.4519C121.992 84.4519 136.734 86.6778 137.728 80.9654C138.753 75.0706 122.969 73.1246 119.573 73.1246C105.098 73.1246 90.3767 85.1801 95.3783 100.183C97.625 106.922 108.237 109.747 114.223 111.245C121.817 113.145 129.482 113.845 137.29 114.512C146.044 115.261 177.173 112.837 178.858 126.275C180.785 141.642 150.913 144.255 141.37 146.281C127.13 149.303 114.104 164.291 127.744 176.575C133.59 181.842 141.247 185.054 147.738 189.447C150.139 191.072 152.579 192.374 153.829 195.109C155.358 198.457 154.429 202.943 154.267 206.874C156.837 207.257 159.236 209.013 161.23 210.794" stroke="white" stroke-miterlimit="10" stroke-linecap="square"/>
<path d="M153.4 255.666C158.912 258.374 159.85 247.92 155.795 245.211C151.078 242.059 146.617 239.735 142.519 235.625C140.571 239.252 137.233 247.8 143.171 249.786C147.177 251.137 149.834 253.537 153.397 255.672" fill="#385CAD"/>
<path d="M153.4 255.666C158.912 258.374 159.85 247.92 155.795 245.211C151.078 242.059 146.617 239.735 142.519 235.625C140.571 239.252 137.233 247.8 143.171 249.786C147.177 251.137 149.834 253.537 153.397 255.672" stroke="white" stroke-miterlimit="10" stroke-linecap="square"/>
<path d="M123.799 77.049C125.195 77.6472 124.519 74.5765 122.494 76.6125C123.291 77.5061 123.431 77.1664 123.8 77.0483" fill="white"/>
<path d="M179.512 77.9205C184.219 77.4995 175.646 76.3401 179.512 77.9205Z" fill="white"/>
<path d="M161.672 17.3617C163.316 22.0431 157.66 27.4306 153.834 29.1232C157.656 28.7717 166.311 20.3608 161.67 17.3617" fill="white"/>
<path d="M144.259 165.05C144.033 156.249 143.807 147.448 143.582 138.646C143.565 137.996 143.158 131.075 143.578 131.061C147.867 130.918 152.156 130.776 156.445 130.633C156.229 139.024 156.015 147.415 155.799 155.804C155.765 157.133 156.546 163.633 155.573 164.614C154.282 165.922 146.292 164.969 144.263 165.05" fill="#385CAD"/>
<path d="M156.448 130.2L155.577 164.615" stroke="white" stroke-miterlimit="10" stroke-linecap="square"/>
<path d="M144.259 165.05L143.389 131.071" stroke="white" stroke-miterlimit="10" stroke-linecap="square"/>
<path d="M179.947 164.179C176.886 148.802 159.644 145.875 146.436 143.703C139.313 142.532 133.755 140.869 128.023 136.281C127.154 135.585 122.15 128.479 122.313 128.468C118.166 128.754 114.02 129.039 109.873 129.325C114.177 144.392 128.401 150.772 142.953 153.504C149.054 154.651 157.444 155.023 162.555 158.854C163.848 159.823 167.027 164.614 167.613 164.614C170.741 164.621 177.839 165.736 179.942 164.185" fill="#385CAD"/>
<path d="M109.876 129.328C113.46 141.873 123.557 148.301 135.779 151.798C144.374 154.256 164.234 153.869 166.893 164.617" stroke="white" stroke-miterlimit="10" stroke-linecap="square"/>
<path d="M179.948 164.179C174.286 135.733 130.903 154.001 122.497 128.455" stroke="white" stroke-miterlimit="10" stroke-linecap="square"/>
<path d="M153.829 222.122C155.446 218.11 147.483 217.203 144.673 215.796C140.833 213.875 137.249 211.162 135.019 207.44C132.158 202.663 141.774 200.34 145.124 198.596C143.704 201.896 145.794 203.484 148.61 204.697C152.688 206.453 156.733 207.195 160.358 209.923C162.728 211.707 164.958 214.97 165.149 218.2C165.495 224.005 158.324 222.033 153.83 222.129" fill="#385CAD"/>
<path d="M164.711 221.687C167.319 215.788 161.667 210.663 157.316 208.181C153.607 206.064 142.406 204.913 145.125 198.596" stroke="white" stroke-miterlimit="10" stroke-linecap="square"/>
<path d="M153.828 222.122C155.128 218.9 150.154 217.891 147.738 216.894C142.511 214.737 134.41 211.04 134.242 204.261" stroke="white" stroke-miterlimit="10" stroke-linecap="square"/>
<path d="M136.423 227.351C138.084 236.41 148.94 241.892 156.447 245.65C157.416 243.557 158.624 242.361 158.624 239.768C158.624 235.538 154.426 234.915 152.092 232.581C150.473 230.96 147.361 230.501 146.218 228.223C144.875 225.565 139.172 227.219 136.42 227.352" fill="#385CAD"/>
<path d="M136.423 227.351C138.084 236.41 148.94 241.892 156.447 245.65C158.47 241.279 160.09 238.051 155.142 234.322C152.115 232.04 146.904 230.991 145.566 226.915" stroke="white" stroke-miterlimit="10" stroke-linecap="square"/>
</g>
<defs>
<clipPath id="clip0_1654_282">
<rect width="302" height="261" fill="white"/>
</clipPath>
</defs>
</svg>
