<svg width="50" height="50" viewBox="0 0 50 50" fill="none" xmlns="http://www.w3.org/2000/svg">
<circle cx="25" cy="25" r="25" fill="#B1BBD2"/>
<path d="M43.3121 19.2407H38.2629L41.8331 15.5089C43.6333 13.6272 43.6333 10.5766 41.8331 8.69504L40.5595 7.36389C38.7594 5.48219 35.841 5.48219 34.0407 7.36389L30.4706 11.0956V5.81816C30.4706 3.1571 28.4069 1 25.8611 1H24.0602C21.5143 1 19.4508 3.15723 19.4508 5.81816V11.0959L15.8804 7.36402C14.0802 5.48232 11.1618 5.48232 9.36169 7.36402L8.08831 8.69517C6.28809 10.5767 6.28797 13.6272 8.08819 15.5088L11.6585 19.2408H6.60951C4.06369 19.2408 2 21.3979 2 24.059V25.9412C2 28.6022 4.06357 30.7592 6.60951 30.7592H11.6585L8.08819 34.4912C6.28797 36.3729 6.28809 39.4233 8.08819 41.3048L9.36169 42.6359C11.1618 44.5177 14.0802 44.5178 15.8804 42.6361L19.4506 38.9042V44.1818C19.4506 46.843 21.5142 49 24.06 49H25.861C28.4068 49 30.4705 46.843 30.4705 44.1818V38.9044L34.0405 42.6359C35.8406 44.5177 38.7592 44.5177 40.5593 42.6359L41.8327 41.3048C43.6329 39.4233 43.6329 36.3728 41.8327 34.4909L38.2627 30.7592H43.3119C45.8577 30.7592 47.9212 28.6022 47.9212 25.9412V24.059C47.9215 21.3977 45.8579 19.2407 43.3121 19.2407ZM33.6126 21.2828C33.6126 21.2828 32.6311 22.3467 31.0316 21.602C31.0316 21.602 30.2101 22.3837 28.887 21.6694C28.887 21.6694 27.9056 22.4513 26.8659 21.7769C26.8659 21.7769 26.2507 22.208 25.735 22.1388V26.0567C25.7625 26.0527 25.7919 26.0485 25.8178 26.0447C26.0522 25.9916 26.9324 25.7846 27.9927 25.4776C29.1486 25.1573 30.4209 24.6395 30.6101 24.3756C30.5954 24.3604 30.5663 24.3443 30.5372 24.329C30.4283 24.2682 30.2538 24.2161 30.0428 24.1695C29.6213 24.0784 29.0469 24.0325 28.4653 24.01C27.3091 23.9654 27.2648 24.0143 27.0839 24.0176C26.7744 24.0229 26.2236 23.8945 26.2333 23.3955C26.2429 22.8964 26.6301 22.7316 26.9295 22.7304C27.229 22.7292 27.1495 22.7332 27.7892 22.7419C28.8505 22.8254 32.1004 22.551 32.5076 24.3369C32.5076 24.3891 32.5149 24.4203 32.522 24.467C32.3841 26.0229 29.2941 26.7012 27.0622 27.1629C27.8183 27.712 28.2255 28.4187 28.3852 29.3307C28.4653 30.3033 27.7237 31.2305 26.0061 32.2621C27.3091 33.2272 28.1673 34.1392 28.0944 35.2353C27.9782 36.132 27.2221 37.3251 25.7389 38.0774C25.7317 38.0774 25.7246 38.0774 25.7246 38.0774C25.7246 38.0774 26.7642 36.4209 26.8296 35.5145C26.889 35.0547 26.5517 34.216 25.7351 33.5502V36.787C25.7351 37.2217 25.3984 37.574 24.983 37.574C24.5678 37.574 24.2309 37.2215 24.2309 36.787C24.2309 36.7752 24.2321 36.7638 24.2325 36.7524V33.4105C24.156 33.4649 24.0797 33.5279 24.004 33.6026C23.1 34.3881 22.8835 35.0495 22.9472 35.5147C23.0127 36.421 24.0523 38.0775 24.0523 38.0775H24.0451C24.0451 38.0775 24.0451 38.0775 24.0379 38.0775C22.5548 37.3252 21.7987 36.1323 21.6823 35.2354C21.6096 34.1392 22.4675 33.2273 23.7762 32.2622C22.053 31.2306 21.3115 30.3034 21.3915 29.3308C21.5514 28.4112 21.9586 27.7045 22.7146 27.163C20.4827 26.7013 17.3928 26.0232 17.2547 24.4671C17.2621 24.4205 17.2693 24.3892 17.2693 24.337C17.6764 22.5511 20.9263 22.8255 21.9876 22.742C22.6274 22.7334 22.4263 22.7125 22.8987 22.7799C23.1968 22.8427 23.5771 22.8835 23.555 23.4419C23.533 24 22.8303 24.0092 22.6929 24.0178C22.5555 24.0263 22.4676 23.9656 21.3117 24.0028C20.7301 24.0329 20.1556 24.0786 19.7266 24.1699C19.5231 24.2165 19.3413 24.2686 19.2397 24.3294C19.2033 24.3447 19.1816 24.3608 19.1669 24.376C19.3561 24.6399 20.6283 25.1576 21.7843 25.478C22.9914 25.8275 23.5559 25.9486 24.1326 26.0858C24.1654 26.0937 24.1995 26.0979 24.2329 26.104V22.1186C23.5679 22.1896 23.0567 21.7771 23.0567 21.7771C22.0097 22.4515 21.0356 21.6697 21.0356 21.6697C19.7123 22.384 18.8835 21.6023 18.8835 21.6023C17.2915 22.3471 16.3099 21.283 16.3099 21.283C14.4707 21.6326 13.7944 20.0357 13.7944 20.0357C17.197 20.355 19.9888 16.8667 20.7013 16.2599C21.3992 15.6586 21.8936 15.7962 22.5988 17.1176C23.0541 17.9664 23.7733 18.085 24.2331 18.0674V18.0072C23.6783 17.7154 23.2968 17.1165 23.2968 16.4229C23.2968 15.4431 24.0567 14.6488 24.994 14.6488C25.9313 14.6488 26.6912 15.4431 26.6912 16.4229C26.6912 17.1243 26.3009 17.7288 25.7355 18.0168V18.0689C26.1962 18.0766 26.8841 17.9387 27.3246 17.1176C28.0297 15.7962 28.5169 15.6586 29.2221 16.2599C29.9346 16.8667 32.7265 20.3549 36.1289 20.0357C36.1289 20.0357 35.4518 21.6323 33.6126 21.2828Z" fill="#B1BBD2"/>
<path d="M22.881 29.4559C22.881 29.8069 23.0635 30.2213 23.4561 30.5388C23.7633 30.7874 23.9471 30.8638 24.2324 31.0508V27.8941C22.7871 28.4867 22.881 29.1134 22.881 29.4559Z" fill="#B1BBD2"/>
<path d="M25.7346 30.9719C25.929 30.8555 26.131 30.7075 26.3202 30.5389C26.698 30.2024 26.8971 29.8502 26.8971 29.5155C26.8971 29.1971 26.9792 28.5604 25.7346 27.9806V30.9719Z" fill="#B1BBD2"/>
<path d="M29.2221 16.2599C28.5169 15.6586 28.0297 15.7962 27.3246 17.1176C26.8841 17.9387 26.1962 18.0766 25.7355 18.0689V18.0168C26.3009 17.7288 26.6912 17.1243 26.6912 16.4229C26.6912 15.4431 25.9313 14.6488 24.994 14.6488C24.0567 14.6488 23.2968 15.4431 23.2968 16.4229C23.2968 17.1165 23.6783 17.7154 24.2331 18.0072V18.0674C23.7733 18.085 23.0541 17.9664 22.5988 17.1176C21.8936 15.7962 21.3992 15.6586 20.7013 16.2599C19.9888 16.8667 17.197 20.355 13.7944 20.0357C13.7944 20.0357 14.4707 21.6326 16.3099 21.283C16.3099 21.283 17.2915 22.3471 18.8835 21.6023C18.8835 21.6023 19.7123 22.384 21.0356 21.6697C21.0356 21.6697 22.0097 22.4515 23.0567 21.7771C23.0567 21.7771 23.5679 22.1896 24.2329 22.1186V26.104C24.1995 26.0979 24.1654 26.0937 24.1326 26.0858C23.5559 25.9486 22.9914 25.8275 21.7843 25.478C20.6283 25.1576 19.3561 24.6399 19.1669 24.376C19.1816 24.3608 19.2033 24.3447 19.2397 24.3294C19.3413 24.2686 19.5231 24.2165 19.7266 24.1699C20.1556 24.0786 20.7301 24.0329 21.3117 24.0028C22.4676 23.9656 22.5555 24.0263 22.6929 24.0178C22.8303 24.0092 23.533 24 23.555 23.4419C23.5771 22.8835 23.1968 22.8427 22.8987 22.7799C22.4263 22.7125 22.6274 22.7334 21.9876 22.742C20.9263 22.8255 17.6764 22.5511 17.2693 24.337C17.2693 24.3892 17.2621 24.4205 17.2547 24.4671C17.3928 26.0232 20.4827 26.7013 22.7146 27.163C21.9586 27.7045 21.5514 28.4112 21.3915 29.3308C21.3115 30.3034 22.053 31.2306 23.7762 32.2622C22.4675 33.2273 21.6096 34.1392 21.6823 35.2354C21.7987 36.1323 22.5548 37.3252 24.0379 38.0775C24.0451 38.0775 24.0451 38.0775 24.0451 38.0775H24.0523C24.0523 38.0775 23.0127 36.421 22.9472 35.5147C22.8835 35.0495 23.1 34.3881 24.004 33.6026C24.0797 33.5279 24.156 33.4649 24.2325 33.4105V36.7524C24.2321 36.7638 24.2309 36.7752 24.2309 36.787C24.2309 37.2215 24.5678 37.574 24.983 37.574C25.3984 37.574 25.7351 37.2217 25.7351 36.787V33.5502C26.5517 34.216 26.889 35.0547 26.8296 35.5145C26.7642 36.4209 25.7246 38.0774 25.7246 38.0774C25.7246 38.0774 25.7317 38.0774 25.7389 38.0774C27.2221 37.3251 27.9782 36.132 28.0944 35.2353C28.1673 34.1392 27.3091 33.2272 26.0061 32.2621C27.7237 31.2305 28.4653 30.3033 28.3852 29.3307C28.2255 28.4187 27.8183 27.712 27.0622 27.1629C29.2941 26.7012 32.3841 26.0229 32.522 24.467C32.5149 24.4203 32.5076 24.3891 32.5076 24.3369C32.1004 22.551 28.8505 22.8254 27.7892 22.7419C27.1495 22.7332 27.229 22.7292 26.9295 22.7304C26.6301 22.7316 26.2429 22.8964 26.2333 23.3955C26.2236 23.8945 26.7744 24.0229 27.0839 24.0176C27.2648 24.0143 27.3091 23.9654 28.4653 24.01C29.0469 24.0325 29.6213 24.0784 30.0428 24.1695C30.2538 24.2161 30.4283 24.2682 30.5372 24.329C30.5663 24.3443 30.5954 24.3604 30.6101 24.3756C30.4209 24.6395 29.1486 25.1573 27.9927 25.4776C26.9324 25.7846 26.0522 25.9916 25.8178 26.0447C25.7919 26.0485 25.7625 26.0527 25.735 26.0567V22.1388C26.2507 22.208 26.8659 21.7769 26.8659 21.7769C27.9056 22.4513 28.887 21.6694 28.887 21.6694C30.2101 22.3837 31.0316 21.602 31.0316 21.602C32.6311 22.3467 33.6126 21.2828 33.6126 21.2828C35.4518 21.6323 36.1273 20.0357 36.1273 20.0357C32.7255 20.3549 29.9346 16.8667 29.2221 16.2599ZM24.2324 31.0508C23.9471 30.8638 23.7633 30.7874 23.4561 30.5388C23.0635 30.2213 22.881 29.8069 22.881 29.4559C22.881 29.1134 22.7871 28.4867 24.2324 27.8941V31.0508ZM26.8971 29.5155C26.8971 29.8502 26.698 30.2024 26.3202 30.5389C26.131 30.7075 25.929 30.8555 25.7346 30.9719V27.9806C26.9792 28.5604 26.8971 29.1971 26.8971 29.5155Z" fill="white"/>
</svg>
