<svg width="236" height="204" viewBox="0 0 236 204" fill="none" xmlns="http://www.w3.org/2000/svg">
<g opacity="0.1" clip-path="url(#clip0_1654_282)">
<path d="M173.272 42.514C171.752 36.2274 170.232 29.9414 168.712 23.6548C167.842 20.0593 166.973 16.4637 166.104 12.8682C165.392 9.92257 165.091 10.288 162.489 8.72655C158.24 6.17636 153.438 3.60942 149.135 6.83382C144.48 10.3232 140.386 13.8281 138.919 19.6985C137.539 25.2157 140.899 29.837 136.196 34.6811C132.781 38.1987 126.041 41.4167 121.023 41.1391C110.365 40.5492 95.5299 37.8125 97.0463 24.1045C97.6857 18.3212 95.3212 13.4073 90.9398 9.7494C86.4822 6.02801 84.0877 3.5846 78.2753 5.9143C75.9874 6.83151 74.0184 8.43448 71.8119 9.31937C69.7062 10.1633 69.9184 12.635 69.4364 14.7724C67.6351 22.759 65.8339 30.7455 64.0333 38.732C63.6648 40.3662 62.9701 41.1408 64.2743 42.1804C67.4748 44.7312 70.6754 47.2814 73.876 49.8321C77.4087 52.6473 78.8766 54.7767 83.1923 54.7594C98.7599 54.6976 114.328 54.6353 129.896 54.5729C140.267 54.5314 150.639 54.4904 161.01 54.4488C161.998 54.4448 164.726 54.9729 165.36 54.0748C167.799 50.6287 172.037 46.4773 173.277 42.514" fill="#385CAD"/>
<path d="M173.272 42.514C171.752 36.2274 170.232 29.9414 168.712 23.6548C167.842 20.0593 166.973 16.4637 166.104 12.8682C165.392 9.92257 165.091 10.288 162.489 8.72655C158.24 6.17636 153.438 3.60942 149.135 6.83382C144.48 10.3232 140.386 13.8281 138.919 19.6985C137.539 25.2157 140.899 29.837 136.196 34.6811C132.781 38.1987 126.041 41.4167 121.023 41.1391C110.365 40.5492 95.5299 37.8125 97.0463 24.1045C97.6857 18.3212 95.3212 13.4073 90.9398 9.7494C86.4823 6.02801 84.0877 3.5846 78.2753 5.9143C75.9874 6.83151 74.0184 8.43448 71.8119 9.31937C69.7062 10.1633 69.9184 12.635 69.4364 14.7724C67.6351 22.759 65.8339 30.7455 64.0333 38.732C63.6648 40.3662 62.9701 41.1408 64.2743 42.1804C67.4748 44.7312 70.6754 47.2814 73.876 49.8321C77.4087 52.6473 78.8766 54.7767 83.1923 54.7594C98.7599 54.6976 114.328 54.6353 129.896 54.5729C140.089 54.5325 150.283 54.4915 160.476 54.4511C161.103 54.4488 164.781 54.8962 165.173 54.3397C167.873 50.511 170.572 46.6822 173.272 42.8534" stroke="white" stroke-miterlimit="10" stroke-linecap="square"/>
<path d="M114.773 63.6221C111.833 60.9357 106.307 61.065 102.613 61.5256C98.1862 62.0774 93.3972 61.5787 88.9357 61.5787C84.3623 61.5787 79.5421 61.7097 75.0004 61.2041C73.0395 60.9859 62.2402 60.0086 66.8153 56.1314C62.7193 58.6903 52.0331 57.9202 52.5289 51.3629C49.1854 52.4741 45.4503 52.7581 41.9828 52.0446C39.6373 51.5621 32.7224 49.4615 35.5222 45.9162C32.4064 45.7211 14.2126 43.9871 20.8974 37.0627C14.7079 36.2655 5.94794 33.0053 1.49562 28.537C-2.55483 24.4722 4.64142 24.1224 7.67478 24.1224C12.3468 24.1224 16.8769 24.4312 21.5749 24.1224C39.3034 22.9569 54.7793 17.7192 70.555 9.82153C65.6547 16.0221 81.1957 15.6498 83.8214 14.5883C83.8214 18.6364 85.8717 24.5743 91.3019 22.0801C92.3824 30.7264 94.9632 36.8826 102.585 41.6528C108.554 45.3886 118.246 46.0184 124.448 44.9822C131.775 43.7579 139.455 39.4564 142.321 32.2959C143.003 30.5937 143.576 28.6767 143.819 26.8555C143.988 25.5851 144.157 24.314 144.327 23.0435C144.418 22.3578 146.207 22.9564 146.746 22.7607C150.177 21.5162 153.291 19.8261 151.848 15.27C156.128 16.025 167.628 17.8415 165.454 10.1621C173.074 13.9764 180.625 17.4104 188.657 20.2832C196.555 23.1082 205.606 23.6548 213.892 24.4439C216.888 24.729 237.94 23.1561 235.52 28.2091C234.45 30.4419 228.005 33.582 225.656 34.1679C222.065 35.0643 218.805 36.6632 215.112 37.4032C221.808 44.5222 203.638 46.0588 200.488 46.255C203.203 49.6965 196.464 51.9875 194.057 52.3321C190.223 52.881 186.896 52.6444 183.138 51.7035C186.098 58.1719 172.281 58.4057 169.194 56.4702C172.771 61.0915 162.952 61.3293 160.352 61.5781C154.94 62.0953 149.122 62.5398 143.684 62.2598C138.716 62.0041 133.79 61.9193 128.803 61.9193C126.483 61.9193 124.489 62.2991 122.257 62.9415C119.662 63.6919 117.823 63.7958 114.773 63.6227" fill="#385CAD"/>
<path d="M114.773 63.6221C111.833 60.9357 106.307 61.065 102.613 61.5256C98.1862 62.0774 93.3972 61.5787 88.9357 61.5787C84.3623 61.5787 79.5421 61.7097 75.0004 61.2041C73.0395 60.9859 62.2402 60.0086 66.8153 56.1314C62.7193 58.6903 52.0331 57.9202 52.5289 51.3629C49.1854 52.4741 45.4503 52.7581 41.9828 52.0446C39.6373 51.5621 32.7224 49.4615 35.5222 45.9162C32.4064 45.7211 14.2126 43.9871 20.8974 37.0627C14.7079 36.2655 5.94794 33.0053 1.49562 28.537C-2.55483 24.4722 4.64142 24.1224 7.67478 24.1224C12.3468 24.1224 16.8769 24.4312 21.5749 24.1224C39.3034 22.9569 54.7793 17.7192 70.555 9.82153C65.6547 16.0221 81.1957 15.6498 83.8214 14.5883C83.8214 18.6364 85.8717 24.5743 91.3019 22.0801C92.3824 30.7264 94.9632 36.8826 102.585 41.6528C108.554 45.3886 118.246 46.0184 124.448 44.9822C131.775 43.7579 139.455 39.4564 142.321 32.2959C143.003 30.5937 143.576 28.6767 143.819 26.8555C143.988 25.5851 144.157 24.314 144.327 23.0435C144.418 22.3578 146.207 22.9564 146.746 22.7607C150.177 21.5162 153.291 19.8261 151.848 15.27C156.128 16.025 167.628 17.8415 165.454 10.1621C173.074 13.9764 180.625 17.4104 188.657 20.2832C196.555 23.1082 205.606 23.6548 213.892 24.4439C216.888 24.729 237.94 23.1561 235.52 28.2091C234.45 30.4419 228.005 33.582 225.656 34.1679C222.065 35.0643 218.805 36.6632 215.112 37.4032C221.808 44.5222 203.638 46.0588 200.488 46.255C203.203 49.6965 196.464 51.9875 194.057 52.3321C190.223 52.881 186.896 52.6444 183.138 51.7035C186.098 58.1719 172.281 58.4057 169.194 56.4702C172.771 61.0915 162.952 61.3293 160.352 61.5781C154.94 62.0953 149.122 62.5398 143.684 62.2598C138.716 62.0041 133.79 61.9193 128.803 61.9193C126.483 61.9193 124.489 62.2991 122.257 62.9415C119.662 63.6919 117.823 63.7958 114.773 63.6227" stroke="white" stroke-miterlimit="10" stroke-linecap="square"/>
<path d="M113.073 154.882C114.875 154.153 116.901 150.872 118.856 149.433C121.498 147.488 124.838 145.251 127.711 143.808C131.372 141.97 134.929 140.381 137.573 137.074C139.321 134.889 143.12 128.662 138.598 128.662H130.566C130.908 128.662 128.057 133.359 127.696 133.77C124.999 136.845 121.4 138.71 117.835 140.58C109.789 144.801 104.907 150.372 104.907 159.65C106.764 158.68 113.02 156.302 113.072 154.876" fill="#385CAD"/>
<path d="M130.076 128.324C131.409 135.217 119.721 138.963 115.45 141.603C108.487 145.909 104.904 151.619 104.904 159.652" stroke="white" stroke-miterlimit="10" stroke-linecap="square"/>
<path d="M113.072 154.882C114.863 154.158 116.369 151.092 118.346 149.773C120.93 148.049 124.692 146.655 126.849 144.495C129.426 141.915 133.486 141.258 136.214 138.523C139.021 135.71 140.622 132.633 140.622 128.661" stroke="white" stroke-miterlimit="10" stroke-linecap="square"/>
<path d="M113.753 177.359C114.164 173.893 117.504 170.881 119.874 168.507C117.944 167.591 116.014 166.675 114.083 165.76C112.851 165.175 111.145 167.832 110.352 168.846C108.471 171.253 106.365 174.511 106.608 177.7C108.984 177.584 111.365 177.469 113.746 177.359" fill="#385CAD"/>
<path d="M113.753 177.359C114.164 173.893 117.504 170.881 119.874 168.507C117.944 167.591 116.014 166.675 114.083 165.76C112.851 165.175 111.145 167.832 110.352 168.846C108.471 171.253 106.365 174.511 106.608 177.7" stroke="white" stroke-miterlimit="10" stroke-linecap="square"/>
<path d="M119.876 182.127C123.148 181.828 126.991 178.688 128.04 175.656C129.05 172.738 128.284 173.149 125.316 172.3C122.521 171.501 119.727 170.701 116.932 169.902C116.74 169.847 113.117 177.407 113.412 178.381C113.844 179.83 119.961 182.081 119.875 182.127" fill="#385CAD"/>
<path d="M119.876 182.127C123.653 181.782 128.967 177.222 128.718 173.274" stroke="white" stroke-miterlimit="10" stroke-linecap="square"/>
<path d="M202.188 25.488C209.375 27.2849 216.409 27.1909 223.701 27.1909C225.044 27.1909 232.953 25.9417 233.138 27.5297C233.367 29.4848 226.624 32.106 225.316 32.6376C218.937 35.2276 213.452 35.0221 206.597 35.0221C203.246 35.0221 199.528 33.8775 196.24 33.2183C193.553 32.6797 189.064 32.2324 186.882 30.5959" stroke="white" stroke-miterlimit="10" stroke-linecap="square"/>
<path d="M177.695 36.0427C181.793 39.094 187.576 40.5613 192.322 42.3426C195.747 43.6281 203.189 44.9055 206.778 43.7049C208.418 43.1559 212.662 42.8962 213.409 40.8112C213.949 39.3058 212.846 37.745 211.029 37.745C205.5 37.745 200.481 36.5299 195.041 35.7028" stroke="white" stroke-miterlimit="10" stroke-linecap="square"/>
<path d="M176.334 39.7889C178.779 41.3723 196.593 46.1177 196.403 48.3019C196 52.963 182.506 48.4012 180.078 47.6219" stroke="white" stroke-miterlimit="10" stroke-linecap="square"/>
<path d="M165.454 43.194C169.197 45.0752 179.399 47.3818 179.399 52.7286C179.399 58.7347 161.903 51.4281 159.672 50.0041" stroke="white" stroke-miterlimit="10" stroke-linecap="square"/>
<path d="M154.908 51.027C156.904 52.5278 169.656 56.599 164.432 59.1994C158.514 62.1444 150.327 55.6131 145.725 52.7298" stroke="white" stroke-miterlimit="10" stroke-linecap="square"/>
<path d="M172.257 15.2723C176.015 17.1541 179.977 18.3674 183.82 20.0391C186.101 21.0313 191.137 23.0643 187.221 25.147C180.025 28.9729 166.398 21.9786 159.672 19.3574" stroke="white" stroke-miterlimit="10" stroke-linecap="square"/>
<path d="M165.108 23.7859C167.986 25.4414 171.62 26.1895 174.632 27.5304C176.826 28.507 181.548 30.1019 177.524 31.4469C170.715 33.7223 161.508 27.3214 155.925 24.1253" stroke="white" stroke-miterlimit="10" stroke-linecap="square"/>
<path d="M151.507 25.1476C154.237 26.612 170.859 32.8738 170.215 36.3839C169.047 42.7519 152.919 31.4296 150.826 30.2555" stroke="white" stroke-miterlimit="10" stroke-linecap="square"/>
<path d="M151.847 34.3405C153.756 36.4352 156.267 38.0872 158.309 40.1301C159.663 41.4842 161.273 42.7992 159.327 43.5351C155.409 45.0174 148.076 37.9995 145.722 35.7039" stroke="white" stroke-miterlimit="10" stroke-linecap="square"/>
<path d="M142.662 37.4061C143.724 39.4091 152.39 44.868 150.484 47.2808C148.67 49.5787 143.026 45.2241 141.3 44.2163" stroke="white" stroke-miterlimit="10" stroke-linecap="square"/>
<path d="M136.199 43.194C137.028 44.0488 141.198 48.7411 140.111 49.8338C138.562 51.3912 134.509 49.2826 133.479 48.3013" stroke="white" stroke-miterlimit="10" stroke-linecap="square"/>
<path d="M127.694 47.2808C129.62 49.7305 132.028 53.8029 126.674 54.0909" stroke="white" stroke-miterlimit="10" stroke-linecap="square"/>
<path d="M132.797 56.8149C130.676 55.8804 125.434 57.8412 128.715 59.54" stroke="white" stroke-miterlimit="10" stroke-linecap="square"/>
<path d="M137.559 51.7069C135.509 52.2518 132.996 52.1029 134.327 54.772C135.238 56.5978 137.836 57.0405 139.599 57.1554C140.712 57.2281 143.892 57.7314 144.703 57.3256C146.261 56.5452 146.613 57.706 145.721 55.7931C144.593 53.3722 140.036 51.7843 137.56 52.0469" stroke="white" stroke-miterlimit="10" stroke-linecap="square"/>
<path d="M159.325 9.48334C156.565 9.69346 154.505 9.07986 151.845 10.1651C149.215 11.2381 147.372 13.618 145.381 15.6124C147.108 13.106 148.347 9.8926 150.811 8.04605C154.415 5.34519 157.638 10.277 159.321 9.48334" fill="white"/>
<path d="M33.4787 25.1476C26.7772 27.3722 19.2638 26.8498 12.3069 26.8498C11.0217 26.8498 3.30826 25.3998 2.8666 26.8498C2.22488 28.9579 9.06307 31.5993 10.32 32.139C16.4628 34.7769 21.9271 34.9426 28.5923 34.4288C34.2762 33.9907 44.4521 33.7523 49.1264 30.2555" stroke="white" stroke-miterlimit="10" stroke-linecap="square"/>
<path d="M57.9685 35.7039C50.0342 40.2352 39.1369 44.7682 29.7382 43.5346C27.0577 43.1831 18.1634 39.3278 24.636 37.4062C26.8997 36.7343 29.7572 37.4864 32.1194 36.8948C34.9406 36.1888 38.0512 35.85 40.9618 35.3628" stroke="white" stroke-miterlimit="10" stroke-linecap="square"/>
<path d="M59.3298 39.4478C55.8732 41.0663 52.6219 42.4794 48.9739 43.699C47.3785 44.2324 39.9493 45.8631 39.6034 47.6219C38.7033 52.1958 53.6885 48.1223 55.9291 47.2807" stroke="white" stroke-miterlimit="10" stroke-linecap="square"/>
<path d="M70.2158 42.8534C67.3202 44.3017 54.7249 47.7748 56.6103 52.7298C58.7915 58.4616 73.1984 51.2348 76.3373 49.6635" stroke="white" stroke-miterlimit="10" stroke-linecap="square"/>
<path d="M80.7613 50.6864C78.5991 52.1018 66.4063 56.2942 71.577 58.8582C76.8826 61.4898 86.4475 55.8133 89.9455 52.0481" stroke="white" stroke-miterlimit="10" stroke-linecap="square"/>
<path d="M63.4115 14.9318C59.9175 17.3908 55.0425 18.2641 51.1783 20.2036C49.1655 21.2137 44.452 23.3628 49.2947 24.9767C53.1848 26.2737 58.3452 24.6286 62.1356 23.6785C66.9131 22.4813 71.8382 21.0417 76.3355 19.0162" stroke="white" stroke-miterlimit="10" stroke-linecap="square"/>
<path d="M70.5551 23.4447C66.5941 26.5063 59.162 25.7761 56.2676 30.2554C62.6883 34.718 74.3946 27.0351 80.0767 23.7858" stroke="white" stroke-miterlimit="10" stroke-linecap="square"/>
<path d="M84.157 24.8064C81.4297 26.7978 64.9685 32.1539 65.7884 36.0427C67.1053 42.2878 82.5719 31.3481 84.8379 29.9137" stroke="white" stroke-miterlimit="10" stroke-linecap="square"/>
<path d="M83.8228 34.0011C82.5279 35.3027 73.8446 41.5697 76.3395 43.194C77.6466 44.0449 82.6783 41.4144 83.8344 40.5463C86.1407 38.8146 88.2296 37.0795 90.284 35.0222" stroke="white" stroke-miterlimit="10" stroke-linecap="square"/>
<path d="M93.002 37.0656C91.8454 39.0697 83.4995 44.7496 85.5215 46.9402C87.4709 49.0517 92.957 45.1606 94.3639 43.5351" stroke="white" stroke-miterlimit="10" stroke-linecap="square"/>
<path d="M99.4646 42.8534C98.7952 44.196 94.6767 48.0271 95.7244 49.6635C96.6821 51.1591 101.354 48.6678 102.527 47.9607" stroke="white" stroke-miterlimit="10" stroke-linecap="square"/>
<path d="M107.969 46.9402C105.286 50.5617 104.615 52.0435 109.331 53.7503" stroke="white" stroke-miterlimit="10" stroke-linecap="square"/>
<path d="M102.867 56.4737C104.87 55.5698 110.434 56.7369 106.949 59.1988" stroke="white" stroke-miterlimit="10" stroke-linecap="square"/>
<path d="M98.1043 51.3665C105.51 51.6424 100.116 56.8149 95.5547 56.8149C93.5055 56.8149 88.4115 58.0098 89.9428 55.1121C91.1761 52.7789 96.0649 51.5183 98.4462 51.707" stroke="white" stroke-miterlimit="10" stroke-linecap="square"/>
<path d="M76.339 9.14214C79.0357 9.35976 81.5207 8.26995 84.1614 9.48271C86.5467 10.5777 88.7775 13.1995 90.2835 15.2723C89.3062 12.9143 87.0092 8.89971 84.8424 7.43932C81.8154 5.39997 79.0882 7.56862 76.3379 9.14214" fill="white"/>
<path d="M95.7229 100.403C95.5915 88.6571 120.78 90.5879 127.659 90.2254C138.218 89.6696 152.442 88.7789 160.029 80.4241C164.606 75.3837 162.083 69.1999 158.331 64.5093C154.9 60.2199 148.634 58.6268 143.44 57.586C140.033 56.9038 130.106 58.7347 128.713 62.6056C127.071 67.1669 139.056 66.8021 141.562 66.6237C145.081 66.3732 149.956 66.073 152.184 69.4152C154.671 73.1475 151.872 76.6409 149.03 79.078C146.257 81.4573 140.928 81.051 137.467 81.5924C133.01 82.2897 128.615 82.808 124.131 83.2577C116.433 84.0295 109.001 83.4447 101.328 84.9784C93.7747 86.489 85.2414 92.5003 85.8577 101.083C89.15 100.852 92.4364 100.627 95.7229 100.402" fill="#385CAD"/>
<path d="M95.7229 100.403C95.5915 88.6571 120.78 90.5879 127.659 90.2254C138.218 89.6696 152.442 88.7789 160.029 80.4241C164.606 75.3837 162.083 69.1999 158.331 64.5093C154.9 60.2199 148.634 58.6268 143.44 57.586C140.033 56.9038 130.106 58.7347 128.713 62.6056C127.071 67.1669 139.056 66.8021 141.562 66.6237C145.081 66.3732 149.956 66.073 152.184 69.4152C154.671 73.1475 151.872 76.6409 149.03 79.078C146.257 81.4573 140.928 81.051 137.467 81.5924C133.01 82.2897 128.615 82.808 124.131 83.2577C116.433 84.0295 109.001 83.4447 101.328 84.9784C93.7747 86.489 85.2414 92.5003 85.8577 101.083" stroke="white" stroke-miterlimit="10" stroke-linecap="square"/>
<path d="M112.051 102.446C111.485 76.0002 110.918 49.5533 110.351 23.1064C115.113 23.2202 119.874 23.3339 124.637 23.4476C124.167 38.9796 123.696 54.5117 123.226 70.0443L122.404 97.1845C122.355 98.818 122.305 100.452 122.256 102.086C122.25 102.224 113.036 102.409 112.05 102.444" fill="#385CAD"/>
<path d="M112.051 102.446C111.485 76.0002 110.918 49.5533 110.351 23.1064C115.113 23.2202 119.874 23.3339 124.637 23.4476C123.843 49.6676 123.049 75.8871 122.255 102.107" stroke="white" stroke-miterlimit="10" stroke-linecap="square"/>
<path d="M121.577 128.664C121.232 141.281 120.887 153.898 120.542 166.515C120.307 175.082 120.073 183.648 119.839 192.214C119.794 193.854 120.595 202.973 118.857 203.408C113.124 204.843 114.383 200.944 114.287 196.768C114.109 188.975 113.93 181.183 113.752 173.39C113.419 158.857 113.086 144.324 112.753 129.79C112.707 127.938 119.862 128.728 121.575 128.665" fill="#385CAD"/>
<path d="M121.577 128.664C121.232 141.281 120.887 153.898 120.542 166.515C120.308 175.082 120.073 183.648 119.839 192.214C119.794 193.853 120.595 202.973 118.857 203.408C113.125 204.843 114.383 200.944 114.287 196.768C114.109 188.975 113.93 181.183 113.752 173.39C113.419 158.857 113.086 144.324 112.753 129.79C112.747 129.529 112.741 129.267 112.735 129.006" stroke="white" stroke-miterlimit="10" stroke-linecap="square"/>
<path d="M110.351 28.212C114.029 31.0191 120.416 30.8696 124.295 28.5526" stroke="white" stroke-miterlimit="10" stroke-linecap="square"/>
<path d="M117.494 25.8275C133.937 26.878 134.421 0.288574 118.023 0.288574C110.192 0.288574 105.681 5.41321 104.622 12.8566C103.861 18.1561 111.985 29.0484 117.491 25.8275" fill="#385CAD"/>
<path d="M117.495 25.8275C133.938 26.878 134.422 0.288574 118.024 0.288574C110.193 0.288574 105.682 5.41321 104.623 12.8566C103.519 20.6174 111.146 25.1036 117.494 26.1686" stroke="white" stroke-miterlimit="10" stroke-linecap="square"/>
<path d="M125.993 164.418C127.94 162.076 129.394 158.477 129.394 155.375C129.394 148.74 125.856 145.511 120.993 141.616C116.583 138.085 111.492 136.878 107.533 132.351C102.978 127.144 108.746 122.825 114.012 121.727C125.231 119.387 139.553 117.968 146.742 107.893C150.409 102.753 151.245 96.8404 147.082 91.5472C143.063 86.437 136.773 85.0586 130.76 83.963C120.063 82.0143 109.011 82.9413 98.1923 81.2489C92.9154 80.4234 86.0778 80.6157 83.4763 74.8618C80.5721 68.4408 87.4293 66.0083 92.4945 66.0083C95.3307 66.0083 106.851 67.7481 107.628 63.2832C108.429 58.6758 96.0947 57.1548 93.4407 57.1548C82.1294 57.1548 70.625 66.5775 74.5336 78.3039C76.2893 83.5711 84.5822 85.779 89.2599 86.9502C95.1941 88.4354 101.184 88.982 107.286 89.5038C114.127 90.0891 138.452 88.1941 139.77 98.6973C141.275 110.709 117.931 112.751 110.474 114.334C99.346 116.696 89.1665 128.411 99.8257 138.013C104.394 142.129 110.378 144.64 115.45 148.073C117.327 149.343 119.234 150.362 120.21 152.499C121.405 155.116 120.679 158.622 120.552 161.694C122.392 161.977 125.044 164.407 125.99 164.425" fill="#385CAD"/>
<path d="M125.993 164.418C127.94 162.076 129.394 158.477 129.394 155.375C129.394 148.74 125.856 145.511 120.993 141.616C116.583 138.085 111.492 136.878 107.533 132.351C102.978 127.144 108.746 122.825 114.012 121.727C125.231 119.387 139.553 117.968 146.742 107.893C150.409 102.753 151.245 96.8404 147.082 91.5472C143.063 86.437 136.773 85.0586 130.76 83.963C120.063 82.0143 109.011 82.9413 98.1923 81.2489C92.9154 80.4234 86.0778 80.6157 83.4763 74.8618C80.5721 68.4408 87.4293 66.0083 92.4945 66.0083C95.3307 66.0083 106.851 67.7481 107.628 63.2832C108.429 58.6758 96.0947 57.1548 93.4407 57.1548C82.1294 57.1548 70.625 66.5775 74.5336 78.3039C76.2893 83.5711 84.5822 85.779 89.2599 86.9502C95.1941 88.4354 101.184 88.982 107.286 89.5038C114.127 90.0891 138.452 88.1941 139.77 98.6973C141.275 110.709 117.931 112.751 110.474 114.334C99.346 116.696 89.1665 128.411 99.8257 138.013C104.394 142.129 110.378 144.64 115.45 148.073C117.327 149.343 119.234 150.362 120.21 152.499C121.405 155.116 120.679 158.622 120.552 161.694C122.561 161.994 124.436 163.367 125.994 164.759" stroke="white" stroke-miterlimit="10" stroke-linecap="square"/>
<path d="M119.876 199.831C124.183 201.947 124.916 193.777 121.747 191.659C118.061 189.195 114.575 187.379 111.373 184.167C109.85 187.002 107.242 193.683 111.882 195.235C115.013 196.291 117.089 198.167 119.874 199.835" fill="#385CAD"/>
<path d="M119.876 199.831C124.183 201.947 124.916 193.777 121.747 191.659C118.061 189.195 114.575 187.379 111.373 184.167C109.85 187.002 107.242 193.683 111.882 195.235C115.013 196.291 117.089 198.167 119.874 199.835" stroke="white" stroke-miterlimit="10" stroke-linecap="square"/>
<path d="M96.7436 60.2223C97.8345 60.6898 97.3058 58.2897 95.7236 59.8811C96.3463 60.5796 96.4559 60.3141 96.7442 60.2217" fill="white"/>
<path d="M140.281 60.9034C143.96 60.5743 137.26 59.6681 140.281 60.9034Z" fill="white"/>
<path d="M126.339 13.5701C127.624 17.2291 123.203 21.44 120.214 22.763C123.201 22.4882 129.964 15.9142 126.337 13.5701" fill="white"/>
<path d="M112.732 129.005C112.555 122.125 112.379 115.247 112.203 108.367C112.19 107.859 111.872 102.449 112.2 102.438C115.551 102.327 118.903 102.216 122.255 102.104C122.086 108.662 121.918 115.221 121.75 121.778C121.724 122.816 122.334 127.897 121.574 128.664C120.565 129.686 114.32 128.941 112.735 129.005" fill="#385CAD"/>
<path d="M122.258 101.765L121.577 128.664" stroke="white" stroke-miterlimit="10" stroke-linecap="square"/>
<path d="M112.732 129.005L112.052 102.447" stroke="white" stroke-miterlimit="10" stroke-linecap="square"/>
<path d="M140.621 128.324C138.229 116.305 124.755 114.017 114.434 112.319C108.867 111.404 104.524 110.105 100.045 106.518C99.3659 105.974 95.4556 100.42 95.5824 100.412C92.342 100.635 89.1017 100.858 85.8613 101.081C89.2245 112.858 100.34 117.845 111.712 119.98C116.48 120.876 123.036 121.168 127.03 124.162C128.04 124.919 130.525 128.664 130.982 128.664C133.427 128.669 138.974 129.541 140.617 128.329" fill="#385CAD"/>
<path d="M85.8633 101.084C88.6637 110.889 96.5541 115.913 106.105 118.646C112.822 120.568 128.342 120.266 130.419 128.667" stroke="white" stroke-miterlimit="10" stroke-linecap="square"/>
<path d="M140.621 128.324C136.196 106.091 102.295 120.369 95.7256 100.402" stroke="white" stroke-miterlimit="10" stroke-linecap="square"/>
<path d="M120.21 173.613C121.474 170.477 115.251 169.768 113.055 168.668C110.054 167.167 107.253 165.046 105.511 162.137C103.275 158.404 110.79 156.588 113.407 155.224C112.298 157.804 113.931 159.045 116.131 159.993C119.318 161.365 122.479 161.945 125.312 164.078C127.164 165.472 128.906 168.023 129.056 170.547C129.327 175.084 123.722 173.543 120.211 173.618" fill="#385CAD"/>
<path d="M128.715 173.272C130.753 168.662 126.336 164.656 122.936 162.716C120.037 161.062 111.284 160.162 113.409 155.224" stroke="white" stroke-miterlimit="10" stroke-linecap="square"/>
<path d="M120.21 173.613C121.225 171.094 117.339 170.305 115.45 169.526C111.366 167.841 105.036 164.95 104.904 159.652" stroke="white" stroke-miterlimit="10" stroke-linecap="square"/>
<path d="M106.609 177.7C107.907 184.781 116.39 189.065 122.257 192.002C123.014 190.366 123.958 189.432 123.958 187.405C123.958 184.099 120.677 183.612 118.853 181.787C117.588 180.52 115.156 180.162 114.263 178.381C113.214 176.303 108.757 177.596 106.606 177.7" fill="#385CAD"/>
<path d="M106.609 177.7C107.907 184.781 116.391 189.065 122.258 192.002C123.838 188.586 125.104 186.063 121.238 183.148C118.872 181.365 114.8 180.544 113.754 177.359" stroke="white" stroke-miterlimit="10" stroke-linecap="square"/>
</g>
<defs>
<clipPath id="clip0_1654_282">
<rect width="236" height="204" fill="white"/>
</clipPath>
</defs>
</svg>
