<svg width="200" height="173" viewBox="0 0 200 173" fill="none" xmlns="http://www.w3.org/2000/svg">
<g opacity="0.1" clip-path="url(#clip0_1654_282)">
<path d="M146.841 36.0536C145.553 30.7223 144.265 25.3915 142.976 20.0603C142.24 17.0111 141.503 13.9619 140.766 10.9127C140.163 8.41475 139.908 8.72462 137.703 7.40048C134.102 5.23782 130.032 3.06096 126.386 5.79537C122.441 8.75448 118.971 11.7268 117.728 16.7051C116.559 21.3839 119.406 25.3029 115.421 29.4109C112.527 32.394 106.814 35.123 102.562 34.8876C93.5302 34.3873 80.9579 32.0665 82.243 20.4416C82.7848 15.5372 80.781 11.3699 77.0679 8.2679C73.2904 5.11201 71.2611 3.03991 66.3353 5.01558C64.3965 5.79342 62.7278 7.15279 60.8579 7.90321C59.0734 8.61888 59.2532 10.715 58.8447 12.5276C57.3183 19.3005 55.7918 26.0734 54.2658 32.8463C53.9536 34.2321 53.3648 34.889 54.4701 35.7707C57.1824 37.9338 59.8948 40.0965 62.6071 42.2596C65.6009 44.647 66.845 46.4528 70.5023 46.4381C83.6951 46.3857 96.8885 46.3329 110.082 46.28C118.871 46.2448 127.661 46.21 136.45 46.1748C137.287 46.1713 139.599 46.6192 140.136 45.8575C142.203 42.9352 145.794 39.4146 146.845 36.0536" fill="#385CAD"/>
<path d="M146.841 36.0536C145.553 30.7223 144.265 25.3915 142.976 20.0603C142.24 17.0111 141.503 13.9619 140.766 10.9127C140.163 8.41475 139.908 8.72462 137.703 7.40048C134.102 5.23782 130.032 3.06096 126.386 5.79537C122.441 8.75448 118.971 11.7268 117.728 16.7051C116.559 21.3839 119.406 25.3029 115.421 29.4109C112.527 32.394 106.814 35.123 102.562 34.8876C93.5302 34.3873 80.9579 32.0665 82.243 20.4416C82.7848 15.5372 80.781 11.3699 77.0679 8.2679C73.2904 5.11201 71.2611 3.03991 66.3353 5.01558C64.3965 5.79342 62.7278 7.15279 60.8579 7.90321C59.0734 8.61888 59.2532 10.715 58.8447 12.5276C57.3183 19.3005 55.7918 26.0734 54.2658 32.8463C53.9536 34.2321 53.3648 34.889 54.4701 35.7707C57.1824 37.9338 59.8948 40.0965 62.6071 42.2596C65.6009 44.647 66.845 46.4528 70.5023 46.4381C83.6951 46.3857 96.8885 46.3329 110.082 46.28C118.72 46.2457 127.359 46.211 135.997 46.1767C136.529 46.1748 139.645 46.5541 139.977 46.0822C142.265 42.8353 144.553 39.5884 146.841 36.3414" stroke="white" stroke-miterlimit="10" stroke-linecap="square"/>
<path d="M97.2656 53.9541C94.7741 51.6759 90.0906 51.7856 86.96 52.1762C83.2088 52.6442 79.1503 52.2212 75.3694 52.2212C71.4936 52.2212 67.4087 52.3323 63.5598 51.9035C61.898 51.7185 52.7461 50.8897 56.6233 47.6017C53.1521 49.7717 44.096 49.1187 44.5162 43.5578C41.6827 44.5001 38.5174 44.741 35.5788 44.1359C33.5911 43.7267 27.731 41.9454 30.1037 38.9388C27.4632 38.7733 12.0447 37.3028 17.7098 31.4307C12.4644 30.7546 5.04077 27.9899 1.26762 24.2006C-2.16496 20.7534 3.93355 20.4568 6.5042 20.4568C10.4635 20.4568 14.3026 20.7187 18.2839 20.4568C33.3081 19.4684 46.4233 15.0266 59.7925 8.3291C55.6397 13.5874 68.8101 13.2717 71.0353 12.3715C71.0353 15.8044 72.7728 20.8401 77.3747 18.7249C78.2903 26.0573 80.4774 31.2779 86.9365 35.3233C91.9948 38.4914 100.209 39.0254 105.464 38.1468C111.674 37.1085 118.183 33.4607 120.612 27.3883C121.189 25.9447 121.675 24.319 121.88 22.7746C122.024 21.6972 122.167 20.6193 122.311 19.5419C122.388 18.9603 123.904 19.468 124.361 19.302C127.269 18.2466 129.908 16.8133 128.685 12.9496C132.312 13.5899 142.058 15.1304 140.215 8.61791C146.673 11.8526 153.072 14.7647 159.879 17.201C166.572 19.5967 174.243 20.0603 181.265 20.7294C183.804 20.9712 201.644 19.6373 199.593 23.9225C198.687 25.8159 193.224 28.4789 191.234 28.9758C188.191 29.736 185.428 31.0919 182.299 31.7195C187.973 37.7566 172.575 39.0597 169.905 39.2261C172.206 42.1446 166.495 44.0875 164.455 44.3797C161.206 44.8452 158.387 44.6445 155.202 43.8466C157.71 49.3321 146.001 49.5304 143.385 47.889C146.416 51.8081 138.095 52.0098 135.892 52.2207C131.305 52.6593 126.374 53.0363 121.767 52.7988C117.556 52.582 113.381 52.51 109.155 52.51C107.189 52.51 105.499 52.8321 103.607 53.377C101.409 54.0133 99.8499 54.1014 97.2651 53.9546" fill="#385CAD"/>
<path d="M97.2656 53.9541C94.7741 51.6759 90.0906 51.7856 86.96 52.1762C83.2088 52.6442 79.1503 52.2212 75.3694 52.2212C71.4936 52.2212 67.4087 52.3323 63.5598 51.9035C61.898 51.7185 52.7461 50.8897 56.6233 47.6017C53.1521 49.7717 44.096 49.1187 44.5162 43.5578C41.6827 44.5001 38.5174 44.741 35.5788 44.1359C33.5911 43.7267 27.731 41.9454 30.1037 38.9388C27.4632 38.7733 12.0447 37.3028 17.7098 31.4307C12.4644 30.7546 5.04077 27.9899 1.26762 24.2006C-2.16496 20.7534 3.93355 20.4568 6.5042 20.4568C10.4635 20.4568 14.3026 20.7187 18.2839 20.4568C33.3081 19.4684 46.4233 15.0266 59.7925 8.3291C55.6397 13.5874 68.8101 13.2717 71.0353 12.3715C71.0353 15.8044 72.7728 20.8401 77.3747 18.7249C78.2903 26.0573 80.4774 31.2779 86.9365 35.3233C91.9948 38.4914 100.209 39.0254 105.464 38.1468C111.674 37.1085 118.183 33.4607 120.612 27.3883C121.189 25.9447 121.675 24.319 121.88 22.7746C122.024 21.6972 122.167 20.6193 122.311 19.5419C122.388 18.9603 123.904 19.468 124.361 19.302C127.269 18.2466 129.908 16.8133 128.685 12.9496C132.312 13.5899 142.058 15.1304 140.215 8.61791C146.673 11.8526 153.072 14.7647 159.879 17.201C166.572 19.5967 174.243 20.0603 181.265 20.7294C183.804 20.9712 201.644 19.6373 199.593 23.9225C198.687 25.8159 193.224 28.4789 191.234 28.9758C188.191 29.736 185.428 31.0919 182.299 31.7195C187.973 37.7566 172.575 39.0597 169.905 39.2261C172.206 42.1446 166.495 44.0875 164.455 44.3797C161.206 44.8452 158.387 44.6445 155.202 43.8466C157.71 49.3321 146.001 49.5304 143.385 47.889C146.416 51.8081 138.095 52.0098 135.892 52.2207C131.305 52.6593 126.374 53.0363 121.767 52.7988C117.556 52.582 113.381 52.51 109.155 52.51C107.189 52.51 105.499 52.8321 103.607 53.377C101.409 54.0133 99.8499 54.1014 97.2651 53.9546" stroke="white" stroke-miterlimit="10" stroke-linecap="square"/>
<path d="M95.8242 131.346C97.3516 130.728 99.0686 127.946 100.725 126.725C102.964 125.076 105.795 123.178 108.229 121.955C111.332 120.397 114.346 119.048 116.587 116.245C118.068 114.391 121.288 109.11 117.456 109.11H110.649C110.939 109.11 108.523 113.094 108.217 113.442C105.931 116.05 102.881 117.632 99.8597 119.218C93.0415 122.797 88.9043 127.521 88.9043 135.389C90.4777 134.567 95.7792 132.55 95.8232 131.341" fill="#385CAD"/>
<path d="M110.233 108.823C111.363 114.669 101.458 117.846 97.8388 120.085C91.9372 123.737 88.9014 128.579 88.9014 135.391" stroke="white" stroke-miterlimit="10" stroke-linecap="square"/>
<path d="M95.8242 131.346C97.3414 130.732 98.6182 128.132 100.293 127.014C102.483 125.552 105.671 124.369 107.499 122.537C109.684 120.349 113.124 119.792 115.436 117.473C117.815 115.088 119.172 112.478 119.172 109.109" stroke="white" stroke-miterlimit="10" stroke-linecap="square"/>
<path d="M96.4004 150.408C96.7483 147.469 99.5794 144.914 101.588 142.9C99.9522 142.124 98.3163 141.347 96.6804 140.571C95.6362 140.075 94.1899 142.328 93.518 143.188C91.9241 145.229 90.1397 147.992 90.3454 150.696C92.3585 150.599 94.3765 150.501 96.3945 150.408" fill="#385CAD"/>
<path d="M96.4004 150.408C96.7483 147.469 99.5794 144.914 101.588 142.9C99.9522 142.124 98.3163 141.347 96.6804 140.571C95.6362 140.075 94.1899 142.328 93.518 143.188C91.9241 145.229 90.1397 147.992 90.3454 150.696" stroke="white" stroke-miterlimit="10" stroke-linecap="square"/>
<path d="M101.59 154.451C104.363 154.197 107.62 151.535 108.509 148.963C109.365 146.489 108.716 146.837 106.2 146.117C103.832 145.439 101.464 144.761 99.0951 144.084C98.9329 144.037 95.8624 150.448 96.1121 151.274C96.4786 152.503 101.663 154.412 101.59 154.451" fill="#385CAD"/>
<path d="M101.59 154.451C104.79 154.158 109.294 150.292 109.083 146.943" stroke="white" stroke-miterlimit="10" stroke-linecap="square"/>
<path d="M171.346 21.6149C177.437 23.1387 183.398 23.0589 189.578 23.0589C190.716 23.0589 197.418 21.9996 197.575 23.3463C197.769 25.0043 192.055 27.2271 190.946 27.678C185.541 29.8744 180.892 29.7001 175.083 29.7001C172.243 29.7001 169.092 28.7294 166.305 28.1704C164.029 27.7137 160.224 27.3343 158.375 25.9466" stroke="white" stroke-miterlimit="10" stroke-linecap="square"/>
<path d="M150.589 30.5657C154.062 33.1532 158.962 34.3976 162.984 35.9082C165.887 36.9983 172.193 38.0816 175.235 37.0635C176.625 36.5979 180.221 36.3776 180.855 34.6095C181.312 33.3329 180.378 32.0092 178.838 32.0092C174.152 32.0092 169.899 30.9788 165.289 30.2773" stroke="white" stroke-miterlimit="10" stroke-linecap="square"/>
<path d="M149.436 33.7426C151.507 35.0853 166.604 39.1096 166.444 40.9619C166.102 44.9147 154.666 41.0461 152.608 40.3852" stroke="white" stroke-miterlimit="10" stroke-linecap="square"/>
<path d="M140.216 36.6302C143.388 38.2256 152.033 40.1817 152.033 44.716C152.033 49.8094 137.206 43.6131 135.315 42.4055" stroke="white" stroke-miterlimit="10" stroke-linecap="square"/>
<path d="M131.279 43.2729C132.97 44.5457 143.777 47.9982 139.349 50.2035C134.334 52.701 127.397 47.1621 123.496 44.717" stroke="white" stroke-miterlimit="10" stroke-linecap="square"/>
<path d="M145.981 12.9515C149.166 14.5473 152.523 15.5763 155.78 16.9939C157.713 17.8354 161.981 19.5595 158.662 21.3256C152.564 24.5701 141.015 18.6387 135.315 16.4158" stroke="white" stroke-miterlimit="10" stroke-linecap="square"/>
<path d="M139.922 20.1714C142.361 21.5753 145.441 22.2097 147.993 23.3469C149.852 24.1751 153.854 25.5276 150.444 26.6682C144.674 28.5979 136.871 23.1696 132.14 20.4592" stroke="white" stroke-miterlimit="10" stroke-linecap="square"/>
<path d="M128.395 21.326C130.709 22.5679 144.795 27.8782 144.249 30.8549C143.259 36.2552 129.592 26.6534 127.818 25.6577" stroke="white" stroke-miterlimit="10" stroke-linecap="square"/>
<path d="M128.684 29.1221C130.302 30.8985 132.43 32.2995 134.16 34.0319C135.308 35.1803 136.672 36.2954 135.023 36.9195C131.703 38.1766 125.489 32.2251 123.493 30.2783" stroke="white" stroke-miterlimit="10" stroke-linecap="square"/>
<path d="M120.9 31.7219C121.8 33.4205 129.144 38.0499 127.528 40.096C125.991 42.0448 121.208 38.3519 119.745 37.4972" stroke="white" stroke-miterlimit="10" stroke-linecap="square"/>
<path d="M115.423 36.6302C116.125 37.3552 119.659 41.3345 118.738 42.2611C117.425 43.5818 113.991 41.7936 113.117 40.9615" stroke="white" stroke-miterlimit="10" stroke-linecap="square"/>
<path d="M108.216 40.0959C109.848 42.1734 111.889 45.6269 107.352 45.8712" stroke="white" stroke-miterlimit="10" stroke-linecap="square"/>
<path d="M112.539 48.1812C110.742 47.3887 106.299 49.0516 109.08 50.4922" stroke="white" stroke-miterlimit="10" stroke-linecap="square"/>
<path d="M116.576 43.8495C114.838 44.3116 112.709 44.1853 113.837 46.4488C114.608 47.9971 116.811 48.3726 118.304 48.47C119.248 48.5317 121.943 48.9585 122.63 48.6144C123.95 47.9526 124.249 48.937 123.493 47.3147C122.536 45.2617 118.675 43.9151 116.577 44.1378" stroke="white" stroke-miterlimit="10" stroke-linecap="square"/>
<path d="M135.021 8.04221C132.682 8.2204 130.937 7.70005 128.682 8.62033C126.453 9.53033 124.891 11.5486 123.204 13.2399C124.668 11.1144 125.718 8.38928 127.806 6.82333C130.86 4.5329 133.591 8.71529 135.018 8.04221" fill="white"/>
<path d="M28.372 21.326C22.6927 23.2126 16.3254 22.7696 10.4297 22.7696C9.34057 22.7696 2.80376 21.54 2.42947 22.7696C1.88564 24.5573 7.68071 26.7973 8.74591 27.255C13.9517 29.4921 18.5824 29.6326 24.2309 29.1969C29.0477 28.8254 37.6715 28.6232 41.6327 25.6577" stroke="white" stroke-miterlimit="10" stroke-linecap="square"/>
<path d="M49.1259 30.2783C42.402 34.121 33.167 37.9651 25.2019 36.919C22.9303 36.6209 15.3928 33.3515 20.8781 31.7219C22.7965 31.1521 25.2181 31.7899 27.22 31.2882C29.6108 30.6895 32.2469 30.4022 34.7135 29.989" stroke="white" stroke-miterlimit="10" stroke-linecap="square"/>
<path d="M50.2796 33.4532C47.3503 34.8258 44.5949 36.0242 41.5034 37.0585C40.1514 37.5108 33.8555 38.8937 33.5623 40.3852C32.7995 44.2641 45.4989 40.8096 47.3977 40.0959" stroke="white" stroke-miterlimit="10" stroke-linecap="square"/>
<path d="M59.5048 36.3414C57.0509 37.5696 46.3769 40.515 47.9747 44.717C49.8232 49.5778 62.0324 43.4492 64.6925 42.1167" stroke="white" stroke-miterlimit="10" stroke-linecap="square"/>
<path d="M68.4415 42.9841C66.6092 44.1844 56.2762 47.7397 60.6582 49.9142C65.1545 52.1458 73.2603 47.332 76.2248 44.1389" stroke="white" stroke-miterlimit="10" stroke-linecap="square"/>
<path d="M53.7392 12.6627C50.7782 14.748 46.6468 15.4887 43.3721 17.1334C41.6663 17.9901 37.6718 19.8125 41.7758 21.1812C45.0725 22.2811 49.4457 20.886 52.6579 20.0803C56.7066 19.0651 60.8804 17.8442 64.6917 16.1265" stroke="white" stroke-miterlimit="10" stroke-linecap="square"/>
<path d="M59.7927 19.8821C56.4358 22.4785 50.1375 21.8592 47.6846 25.6578C53.1259 29.4423 63.0464 22.9268 67.8618 20.1714" stroke="white" stroke-miterlimit="10" stroke-linecap="square"/>
<path d="M71.3192 21.0367C69.008 22.7256 55.0578 27.2677 55.7526 30.5656C56.8686 35.8616 69.976 26.5844 71.8963 25.368" stroke="white" stroke-miterlimit="10" stroke-linecap="square"/>
<path d="M71.0358 28.8342C69.9384 29.9381 62.5797 35.2527 64.694 36.6302C65.8017 37.3517 70.0659 35.121 71.0456 34.3848C73.0001 32.9163 74.7704 31.4448 76.5114 29.7002" stroke="white" stroke-miterlimit="10" stroke-linecap="square"/>
<path d="M78.8149 31.4331C77.8347 33.1327 70.7619 37.9495 72.4755 39.8072C74.1275 41.5978 78.7768 38.298 79.969 36.9196" stroke="white" stroke-miterlimit="10" stroke-linecap="square"/>
<path d="M84.292 36.3414C83.7247 37.48 80.2345 40.7289 81.1223 42.1167C81.9339 43.385 85.8933 41.2723 86.8871 40.6726" stroke="white" stroke-miterlimit="10" stroke-linecap="square"/>
<path d="M91.4994 39.8071C89.2254 42.8783 88.6566 44.1349 92.6536 45.5824" stroke="white" stroke-miterlimit="10" stroke-linecap="square"/>
<path d="M87.1758 47.8919C88.8728 47.1253 93.5885 48.1151 90.6352 50.2029" stroke="white" stroke-miterlimit="10" stroke-linecap="square"/>
<path d="M83.1394 43.5607C89.4158 43.7947 84.8442 48.1812 80.9787 48.1812C79.2422 48.1812 74.9252 49.1945 76.223 46.7371C77.2681 44.7585 81.4112 43.6894 83.4292 43.8495" stroke="white" stroke-miterlimit="10" stroke-linecap="square"/>
<path d="M64.6934 7.7529C66.9787 7.93745 69.0846 7.01325 71.3225 8.04172C73.344 8.97032 75.2344 11.1937 76.5107 12.9515C75.6825 10.9519 73.7358 7.54731 71.8996 6.30884C69.3343 4.5794 67.0231 6.41849 64.6924 7.7529" fill="white"/>
<path d="M81.1215 85.1458C81.01 75.1847 102.356 76.8221 108.186 76.5147C117.134 76.0433 129.188 75.288 135.618 68.2028C139.497 63.9284 137.359 58.6843 134.179 54.7065C131.272 51.0689 125.961 49.7179 121.56 48.8353C118.673 48.2567 110.26 49.8094 109.08 53.0921C107.688 56.9602 117.844 56.6508 119.968 56.4996C122.95 56.2871 127.082 56.0326 128.97 58.8668C131.078 62.032 128.705 64.9946 126.297 67.0613C123.947 69.079 119.431 68.7344 116.498 69.1936C112.721 69.7849 108.996 70.2245 105.196 70.6058C98.6723 71.2603 92.3745 70.7644 85.8719 72.0651C79.4704 73.3461 72.2388 78.4439 72.7611 85.7225C75.5511 85.5267 78.3363 85.3358 81.1215 85.1448" fill="#385CAD"/>
<path d="M81.1215 85.1458C81.01 75.1847 102.356 76.8221 108.186 76.5147C117.134 76.0433 129.188 75.288 135.618 68.2028C139.497 63.9284 137.359 58.6843 134.179 54.7065C131.272 51.0689 125.961 49.7179 121.56 48.8353C118.673 48.2567 110.26 49.8094 109.08 53.0921C107.688 56.9602 117.844 56.6508 119.968 56.4996C122.95 56.2871 127.082 56.0326 128.97 58.8668C131.078 62.032 128.705 64.9946 126.297 67.0613C123.947 69.079 119.431 68.7344 116.498 69.1936C112.721 69.7849 108.996 70.2245 105.196 70.6058C98.6723 71.2603 92.3745 70.7644 85.8719 72.0651C79.4704 73.3461 72.2388 78.4439 72.7611 85.7225" stroke="white" stroke-miterlimit="10" stroke-linecap="square"/>
<path d="M94.959 86.8787C94.4787 64.4512 93.9984 42.0232 93.5176 19.5952C97.5531 19.6916 101.589 19.7881 105.625 19.8845C105.226 33.0563 104.827 46.2281 104.429 59.4004L103.733 82.4163C103.691 83.8016 103.649 85.1874 103.607 86.5727C103.602 86.6902 95.7936 86.8469 94.958 86.8762" fill="#385CAD"/>
<path d="M94.959 86.8787C94.4787 64.4512 93.9984 42.0232 93.5176 19.5952C97.5531 19.6916 101.589 19.7881 105.625 19.8845C104.952 42.1201 104.279 64.3552 103.606 86.5904" stroke="white" stroke-miterlimit="10" stroke-linecap="square"/>
<path d="M103.031 109.112C102.738 119.812 102.446 130.512 102.154 141.212C101.955 148.476 101.756 155.741 101.558 163.005C101.52 164.395 102.198 172.129 100.725 172.498C95.8676 173.715 96.9338 170.408 96.8531 166.867C96.7017 160.258 96.5502 153.65 96.3992 147.042C96.1173 134.717 95.8349 122.392 95.5529 110.067C95.5138 108.496 101.578 109.167 103.029 109.113" fill="#385CAD"/>
<path d="M103.031 109.112C102.738 119.812 102.446 130.512 102.154 141.212C101.955 148.476 101.757 155.741 101.558 163.005C101.52 164.395 102.199 172.129 100.726 172.498C95.8679 173.715 96.9341 170.409 96.8535 166.867C96.702 160.259 96.5505 153.65 96.3995 147.042C96.1176 134.717 95.8352 122.392 95.5532 110.067C95.5483 109.846 95.543 109.624 95.5381 109.402" stroke="white" stroke-miterlimit="10" stroke-linecap="square"/>
<path d="M93.5176 23.9249C96.6345 26.3054 102.048 26.1786 105.334 24.2137" stroke="white" stroke-miterlimit="10" stroke-linecap="square"/>
<path d="M99.5719 21.9027C113.506 22.7936 113.917 0.244751 100.02 0.244751C93.3834 0.244751 89.5604 4.59064 88.6633 10.9029C88.0183 15.3971 94.903 24.6342 99.5694 21.9027" fill="#385CAD"/>
<path d="M99.5717 21.9027C113.506 22.7936 113.917 0.244751 100.02 0.244751C93.3833 0.244751 89.5603 4.59064 88.6632 10.9029C87.728 17.4844 94.191 21.2889 99.5712 22.192" stroke="white" stroke-miterlimit="10" stroke-linecap="square"/>
<path d="M106.774 139.433C108.424 137.447 109.656 134.395 109.656 131.764C109.656 126.137 106.658 123.399 102.537 120.096C98.8002 117.101 94.4851 116.078 91.1307 112.239C87.2706 107.823 92.1588 104.161 96.6209 103.229C106.129 101.245 118.266 100.042 124.359 91.4972C127.466 87.1386 128.175 82.1246 124.646 77.6357C121.24 73.3021 115.91 72.1331 110.814 71.204C101.749 69.5514 92.383 70.3376 83.2145 68.9023C78.7426 68.2023 72.948 68.3653 70.7434 63.4859C68.2822 58.0405 74.0934 55.9777 78.3859 55.9777C80.7895 55.9777 90.5527 57.4531 91.2108 53.6668C91.8895 49.7595 81.4369 48.4696 79.1878 48.4696C69.602 48.4696 59.8524 56.4604 63.1648 66.4048C64.6527 70.8716 71.6806 72.744 75.6448 73.7373C80.6737 74.9968 85.75 75.4603 90.9211 75.9029C96.7181 76.3992 117.333 74.7921 118.45 83.6993C119.725 93.8856 99.9425 95.6175 93.6232 96.9602C84.1923 98.9633 75.5656 108.898 84.5988 117.04C88.4706 120.531 93.5416 122.661 97.84 125.572C99.43 126.649 101.046 127.513 101.874 129.325C102.887 131.544 102.271 134.518 102.164 137.123C103.723 137.363 105.97 139.424 106.772 139.439" fill="#385CAD"/>
<path d="M106.774 139.433C108.424 137.447 109.656 134.395 109.656 131.764C109.656 126.137 106.658 123.399 102.537 120.096C98.8002 117.101 94.4851 116.078 91.1307 112.239C87.2706 107.823 92.1588 104.161 96.6209 103.229C106.129 101.245 118.266 100.042 124.359 91.4972C127.466 87.1386 128.175 82.1246 124.646 77.6357C121.24 73.3021 115.91 72.1331 110.814 71.204C101.749 69.5514 92.383 70.3376 83.2145 68.9023C78.7426 68.2023 72.948 68.3653 70.7434 63.4859C68.2822 58.0406 74.0934 55.9777 78.3859 55.9777C80.7895 55.9777 90.5527 57.4531 91.2108 53.6668C91.8895 49.7595 81.4369 48.4696 79.1878 48.4696C69.602 48.4696 59.8524 56.4604 63.1648 66.4048C64.6527 70.8716 71.6806 72.744 75.6448 73.7373C80.6737 74.9968 85.75 75.4603 90.9211 75.9029C96.7181 76.3992 117.333 74.7922 118.45 83.6993C119.725 93.8856 99.9425 95.6175 93.6232 96.9602C84.1923 98.9633 75.5656 108.898 84.5988 117.04C88.4706 120.531 93.5416 122.661 97.84 125.572C99.43 126.649 101.046 127.513 101.874 129.325C102.887 131.544 102.271 134.518 102.164 137.123C103.866 137.377 105.455 138.541 106.775 139.722" stroke="white" stroke-miterlimit="10" stroke-linecap="square"/>
<path d="M101.59 169.464C105.24 171.259 105.861 164.33 103.176 162.535C100.052 160.445 97.0972 158.905 94.3834 156.181C93.0934 158.585 90.8829 164.25 94.8153 165.567C97.4685 166.463 99.2276 168.053 101.588 169.468" fill="#385CAD"/>
<path d="M101.59 169.464C105.24 171.259 105.861 164.33 103.176 162.535C100.052 160.445 97.0972 158.905 94.3834 156.181C93.0934 158.585 90.8829 164.25 94.8153 165.567C97.4685 166.463 99.2276 168.053 101.588 169.468" stroke="white" stroke-miterlimit="10" stroke-linecap="square"/>
<path d="M81.9864 51.0709C82.9109 51.4674 82.4629 49.432 81.1221 50.7815C81.6498 51.3739 81.7426 51.1487 81.9869 51.0704" fill="white"/>
<path d="M118.883 51.6485C122 51.3695 116.322 50.6009 118.883 51.6485Z" fill="white"/>
<path d="M107.068 11.5079C108.157 14.611 104.41 18.1819 101.877 19.3039C104.408 19.0709 110.14 13.4958 107.066 11.5079" fill="white"/>
<path d="M95.5353 109.401C95.3858 103.567 95.2363 97.7336 95.0872 91.8996C95.076 91.4683 94.8063 86.8811 95.0843 86.8718C97.9247 86.7773 100.765 86.6829 103.605 86.5884C103.463 92.1497 103.321 97.7116 103.178 103.272C103.155 104.153 103.672 108.462 103.028 109.112C102.173 109.979 96.8815 109.347 95.5377 109.401" fill="#385CAD"/>
<path d="M103.608 86.301L103.031 109.112" stroke="white" stroke-miterlimit="10" stroke-linecap="square"/>
<path d="M95.5356 109.401L94.959 86.8787" stroke="white" stroke-miterlimit="10" stroke-linecap="square"/>
<path d="M119.17 108.823C117.143 98.6313 105.725 96.6909 96.9774 95.2512C92.2602 94.4749 88.5794 93.373 84.7838 90.3316C84.2082 89.8705 80.8944 85.1604 81.0019 85.1531C78.2558 85.3425 75.5097 85.5315 72.7637 85.7209C75.6138 95.7079 85.034 99.9368 94.6706 101.748C98.7115 102.508 104.268 102.755 107.652 105.294C108.508 105.936 110.614 109.112 111.002 109.112C113.074 109.117 117.774 109.856 119.167 108.828" fill="#385CAD"/>
<path d="M72.7656 85.7234C75.1389 94.0382 81.8257 98.299 89.9197 100.617C95.6122 102.246 108.764 101.99 110.525 109.114" stroke="white" stroke-miterlimit="10" stroke-linecap="square"/>
<path d="M119.171 108.823C115.421 89.9689 86.6909 102.077 81.124 85.1448" stroke="white" stroke-miterlimit="10" stroke-linecap="square"/>
<path d="M101.873 147.231C102.944 144.571 97.6702 143.969 95.8095 143.037C93.2662 141.764 90.8925 139.965 89.4159 137.499C87.521 134.332 93.8897 132.792 96.1081 131.636C95.1675 133.824 96.5517 134.876 98.4163 135.68C101.117 136.844 103.796 137.336 106.197 139.144C107.766 140.327 109.243 142.49 109.369 144.631C109.599 148.478 104.85 147.171 101.874 147.235" fill="#385CAD"/>
<path d="M109.081 146.942C110.808 143.032 107.065 139.635 104.183 137.99C101.727 136.587 94.3092 135.824 96.1098 131.636" stroke="white" stroke-miterlimit="10" stroke-linecap="square"/>
<path d="M101.873 147.231C102.734 145.094 99.44 144.426 97.8398 143.765C94.3783 142.335 89.0137 139.884 88.9023 135.391" stroke="white" stroke-miterlimit="10" stroke-linecap="square"/>
<path d="M90.3467 150.696C91.4466 156.701 98.6362 160.335 103.608 162.826C104.249 161.438 105.049 160.646 105.049 158.927C105.049 156.123 102.269 155.71 100.724 154.163C99.6515 153.088 97.5905 152.784 96.8336 151.275C95.9444 149.512 92.1673 150.609 90.3447 150.697" fill="#385CAD"/>
<path d="M90.3467 150.696C91.4466 156.701 98.6362 160.335 103.608 162.826C104.947 159.929 106.02 157.789 102.744 155.317C100.739 153.804 97.2876 153.109 96.4017 150.408" stroke="white" stroke-miterlimit="10" stroke-linecap="square"/>
</g>
<defs>
<clipPath id="clip0_1654_282">
<rect width="200" height="173" fill="white"/>
</clipPath>
</defs>
</svg>
