<svg width="347" height="244" viewBox="0 0 347 244" fill="none" xmlns="http://www.w3.org/2000/svg">
<path d="M168.429 68.7423L170.694 133.444C170.794 133.444 170.894 133.544 170.994 133.544L173.893 134.645C174.493 134.446 174.993 134.246 175.493 134.046L175.73 67.5463L178.03 66.8476L176.593 133.647C177.094 133.447 177.594 133.247 178.094 133.048L178.929 68.5481C179.03 66.5482 179.431 64.6484 180.232 62.9488C180.733 61.7491 181.034 60.3493 181.034 58.8493C181.035 58.5493 181.035 58.2492 180.935 57.9492C180.633 62.349 177.431 65.7473 173.531 65.8451C169.631 65.943 166.332 62.5412 165.835 58.2409C165.835 58.5409 165.834 58.8409 165.834 59.1409C165.833 60.6409 166.233 61.9411 166.732 63.1414C167.831 64.842 168.33 66.7423 168.429 68.7423Z" fill="#385CAD" fill-opacity="0.1"/>
<path d="M173.731 64.9453C177.531 64.8473 180.533 61.549 180.435 57.4489C180.338 53.3489 177.239 50.1472 173.539 50.2452C169.739 50.3431 166.737 53.6414 166.835 57.7415C166.833 61.7415 169.931 65.0432 173.731 64.9453ZM173.239 51.245C176.839 51.147 179.737 53.9485 179.835 57.4486C179.933 60.9487 177.032 63.8471 173.532 63.8451C173.432 63.8451 173.232 63.845 173.132 63.8449C176.532 63.5468 179.134 60.7482 179.035 57.4482C178.937 54.0481 176.239 51.3466 172.839 51.2448C172.939 51.2448 173.139 51.2449 173.239 51.245Z" fill="#385CAD" fill-opacity="0.1"/>
<path d="M145.923 79.63C146.521 84.3303 148.218 88.9313 150.916 92.6327L152.115 94.3334L159.021 83.5372L155.73 67.6354L155.93 68.1355C158.027 73.5366 161.024 78.4383 164.722 82.4403L167.02 84.8416L166.922 82.4415L166.922 81.3415L166.529 68.7413C166.43 67.2413 166.031 65.641 165.232 64.1406C164.433 62.5402 164.034 60.8399 164.035 59.0399C164.035 58.8399 164.035 58.6399 164.035 58.4399C162.437 54.5391 160.839 50.4382 159.142 46.3373C155.746 38.0354 149.249 31.9318 141.451 29.6276L54.7645 4.38003C45.9659 1.87521 36.9665 0.670276 27.9664 0.965343L9.96604 1.55548C7.36599 1.65405 4.76583 1.95263 2.16556 2.4512L1.06545 2.6506L34.6556 20.569L81.251 28.9946L43.8533 24.8741C38.1536 24.2709 32.4532 24.9678 27.0521 26.9648C26.7521 27.0647 26.452 27.1645 26.0519 27.3643L11.3486 33.4562L34.8403 48.5691L95.8416 46.2026L58.0387 51.3818C55.9386 51.6807 53.8383 52.1795 51.8379 52.9784C43.8362 55.974 37.3327 62.3705 33.628 70.9685L32.827 72.768L51.7236 78.9784L102.533 61.1062L82.7282 70.5954C73.1257 75.1901 65.9206 84.3862 62.9145 95.6845L62.3133 97.8842L78.7134 97.6932L108.925 77.1097L105.723 79.808C99.7204 84.9047 96.5158 93.2029 97.3112 101.603L97.5101 103.603L110.713 98.6107L127.625 75.82L120.117 90.3159C116.614 96.9139 115.11 104.513 115.605 112.213L115.804 114.714L126.308 108.219L131.516 93.2221C130.313 99.2215 130.909 105.422 133.406 110.923L134.205 112.724L143.11 104.528L145.923 79.63ZM157.022 81.5361L151.618 90.0331L157.022 81.5361ZM35.0565 19.0692L6.06501 3.45334L34.6573 17.469L129.948 34.8212L108.049 32.3092L35.0565 19.0692ZM35.2412 46.8693L14.8484 33.7582L34.8421 45.2691L129.644 41.6211L113.343 43.8121L35.2412 46.8693ZM51.7246 77.1784L34.9276 71.6692C35.1278 71.2693 51.2255 75.5781 51.2255 75.5781L129.441 48.121L116.037 54.6136L51.7246 77.1784ZM78.3144 95.893L64.3142 96.0853C64.4145 95.5853 77.8152 94.2927 77.8152 94.2927L132.836 56.7228L121.23 66.5165L78.3144 95.893ZM109.814 97.0102L98.7114 101.204C98.6118 100.604 109.415 95.41 109.415 95.41L137.235 57.9252L133.431 65.2232L109.814 97.0102ZM125.108 106.919L117.006 111.914C117.006 111.314 124.609 105.318 124.609 105.318L140.534 59.8271L137.828 70.3256L125.108 106.919ZM134.707 110.024C134.107 108.624 133.608 107.223 133.209 105.723C133.508 106.623 133.908 107.623 134.307 108.524L141.411 102.028L146.636 56.4304L146.633 61.5304L141.81 103.528L134.707 110.024Z" fill="#385CAD" fill-opacity="0.1"/>
<path d="M170.593 134.844C159.595 130.538 147.599 123.331 150.404 114.532C151.005 112.633 152.705 111.534 154.505 111.735C157.005 112.036 160.905 112.238 163.405 111.34C167.306 109.942 167.207 109.342 167.207 109.342C167.207 109.342 171.407 107.844 165.01 102.44C158.713 97.037 154.515 94.6347 148.812 99.6316C143.109 104.628 133.802 117.723 146.694 132.63C149.592 135.932 153.491 138.534 157.789 140.737C160.09 139.238 164.091 137.14 170.593 134.844ZM162.509 104.239C162.509 104.239 159.509 104.837 158.111 100.937C158.011 100.937 162.011 101.639 162.509 104.239Z" fill="#385CAD" fill-opacity="0.1"/>
<path d="M176.133 243.447L176.443 225.247C175.843 224.846 175.343 224.546 175.144 224.446L176.133 243.447Z" fill="#385CAD" fill-opacity="0.1"/>
<path d="M177.745 221.547C177.745 221.547 176.645 222.547 175.744 223.246C175.744 223.246 178.543 225.448 181.743 225.45C181.743 225.55 178.444 223.448 177.745 221.547Z" fill="#385CAD" fill-opacity="0.1"/>
<path d="M176.453 206.847C176.453 206.847 181.549 213.55 168.143 225.542C168.143 225.542 188.646 219.453 182.955 202.95L176.453 206.847Z" fill="#385CAD" fill-opacity="0.1"/>
<path d="M175.453 207.746L174.854 206.946C174.653 207.146 174.453 207.246 174.353 207.446L174.749 215.446C175.65 213.646 176.051 212.247 176.151 211.047C176.252 208.847 175.453 207.746 175.453 207.746Z" fill="#385CAD" fill-opacity="0.1"/>
<path d="M177.962 191.448C181.26 196.449 170.761 193.944 166.256 202.941C161.851 211.939 171.547 220.244 171.547 220.244L173.848 217.345C170.65 214.544 168.454 207.042 179.356 202.948C190.158 198.854 187.064 188.153 187.064 188.153C184.263 190.751 177.962 191.448 177.962 191.448Z" fill="#385CAD" fill-opacity="0.1"/>
<path d="M174.861 194.246C175.661 193.946 176.561 193.547 177.061 193.247L177.062 192.447C177.062 192.347 176.962 192.347 176.962 192.247L176.263 191.247C175.362 191.446 174.462 191.646 173.562 191.745L173.661 194.645C174.161 194.546 174.461 194.446 174.861 194.246Z" fill="#385CAD" fill-opacity="0.1"/>
<path d="M177.573 171.747C190.269 178.854 175.767 182.146 170.367 183.143C168.366 183.442 166.466 184.341 164.865 185.64C157.462 191.936 166.257 200.541 166.257 200.541C168.659 196.842 172.56 195.445 172.56 195.445C172.56 195.445 167.662 191.342 173.363 190.345C177.363 189.647 181.564 188.45 183.764 187.851C185.264 187.452 186.665 186.752 187.965 185.953C198.369 178.959 187.875 167.053 187.875 167.053C187.175 167.553 177.573 171.747 177.573 171.747Z" fill="#385CAD" fill-opacity="0.1"/>
<path d="M175.273 172.146C174.473 172.446 173.573 172.745 172.672 173.045L173.068 181.145C173.868 180.945 174.568 180.746 175.268 180.546L175.273 172.146Z" fill="#385CAD" fill-opacity="0.1"/>
<path d="M176.973 172.947L175.573 172.146L175.368 180.546C176.069 180.347 176.769 180.147 177.369 179.847L177.472 173.147C177.272 173.147 177.173 173.047 176.973 172.947Z" fill="#385CAD" fill-opacity="0.1"/>
<path d="M191.088 142.855C187.487 145.453 178.586 147.948 178.586 147.948C186.685 148.752 191.282 154.355 181.78 157.75C175.579 159.946 169.778 162.543 166.577 164.041C164.076 165.24 161.875 166.939 159.974 169.238C152.068 179.233 161.865 186.339 161.865 186.339C164.367 182.34 170.968 180.644 170.968 180.644C163.369 178.24 165.871 175.241 168.071 173.642C168.972 173.043 169.872 172.543 170.872 172.244C188.476 166.253 192.578 161.956 192.578 161.956C204.484 151.362 191.088 142.855 191.088 142.855Z" fill="#385CAD" fill-opacity="0.1"/>
<path d="M175.386 147.746C174.686 147.946 173.986 148.145 173.386 148.345C172.686 148.545 172.086 148.744 171.486 148.944L171.981 158.144L174.98 158.846C175.08 158.746 175.28 158.746 175.38 158.646L175.386 147.746Z" fill="#385CAD" fill-opacity="0.1"/>
<path d="M176.286 147.447L175.98 158.547C176.58 158.347 177.18 158.047 177.78 157.847L177.986 146.948C177.386 147.147 176.786 147.247 176.286 147.447Z" fill="#385CAD" fill-opacity="0.1"/>
<path d="M199.112 99.6592C193.415 94.656 189.213 97.1537 182.91 102.45C176.607 107.747 180.707 109.349 180.707 109.349C180.707 109.349 180.606 109.949 184.505 111.351C187.005 112.253 190.905 111.955 193.405 111.756C195.205 111.557 196.905 112.658 197.504 114.558C200.598 124.46 185.194 132.252 173.392 136.245C160.289 140.738 156.387 144.336 156.387 144.336C143.981 155.329 160.376 165.138 160.376 165.138C164.577 162.44 171.579 159.644 171.579 159.644C166.88 158.541 162.181 155.239 162.181 155.239C153.885 148.134 188.286 147.453 201.094 132.56C214.102 117.667 204.809 104.562 199.112 99.6592ZM185.409 104.252C185.911 101.652 189.811 100.954 189.811 100.954C188.509 104.853 185.409 104.252 185.409 104.252Z" fill="#385CAD" fill-opacity="0.1"/>
<path d="M335.749 33.634L321.052 27.526C320.752 27.4258 320.452 27.2257 320.053 27.1254C314.654 25.0225 308.954 24.3194 303.254 25.0162L265.951 29.1958L312.556 20.8213L346.266 2.93981L345.166 2.7392C342.566 2.23778 339.966 1.93635 337.366 1.83493L319.367 1.22506C310.367 0.920128 301.266 2.01514 292.565 4.61037L205.851 29.7628C198.05 32.0586 191.647 38.0551 188.142 46.4531C186.44 50.5522 184.837 54.6513 183.235 58.4504C183.235 58.5504 183.235 58.6504 183.235 58.7504C183.234 60.5504 182.933 62.3503 182.232 63.9499C181.531 65.5495 181.131 67.0493 181.13 68.6493L180.923 80.8492L180.922 81.9492L180.921 84.2492L182.422 82.55C186.224 78.5521 189.227 73.6537 191.23 68.2548L191.43 67.7549L188.122 83.6531L195.016 94.4569L196.217 92.7576C198.819 89.059 200.621 84.46 201.224 79.7603L204.01 104.562L212.906 112.767L213.707 110.967C216.21 105.469 216.913 99.2689 215.616 93.2682L220.808 108.271L231.304 114.777L231.506 112.277C232.01 104.577 230.514 96.9764 227.018 90.3744L219.526 75.8703L236.413 98.6796L249.611 103.687L249.812 101.687C250.616 93.2874 247.421 84.9856 241.424 79.8823L238.225 77.1806L268.414 97.7971L284.814 98.0061L284.215 95.8058C281.221 84.5042 274.026 75.3002 264.429 70.695L244.634 61.1841L295.424 79.1119L314.327 72.9223L313.528 71.1219C309.733 62.5198 303.337 56.1163 295.338 53.1119C293.339 52.3108 291.239 51.8096 289.139 51.5085L251.242 46.2877L312.241 48.7212L335.749 33.634ZM312.658 17.6214L341.265 3.63706L312.257 19.2212L239.25 32.3811L217.348 34.8691L312.658 17.6214ZM195.117 91.557L189.722 83.054L190.223 81.4543L195.618 89.9572C197.119 87.8581 198.221 85.4587 199.122 82.9592C198.22 86.1587 196.919 89.058 195.117 91.557ZM212.407 110.066L205.311 103.563L200.534 61.5599L200.636 56.46L205.811 102.063L212.908 108.567C213.308 107.667 213.709 106.767 214.009 105.767C213.609 107.267 213.108 108.667 212.407 110.066ZM222.51 105.472C222.51 105.472 230.206 111.476 230.106 112.076L222.009 107.072L209.229 70.4647L206.535 59.9632L222.51 105.472ZM248.412 101.386L237.314 97.1801L213.732 65.3672L209.936 58.0651L237.715 95.5803C237.815 95.5804 248.512 100.786 248.412 101.386ZM269.316 94.3976C269.316 94.3976 282.715 95.605 282.815 96.205L268.815 95.9974L225.831 66.5738L214.236 56.7674L269.316 94.3976ZM295.926 75.7122C295.926 75.7122 312.028 71.421 312.228 71.8212L295.425 77.3119L231.137 54.6767L217.741 48.1694L295.926 75.7122ZM233.843 43.8782L217.545 41.6692L312.343 45.4212L332.349 33.9322L311.942 47.021L233.843 43.8782Z" fill="#385CAD" fill-opacity="0.1"/>
<path d="M190.122 81.5542L189.621 83.154L195.017 91.6569C196.818 89.1579 198.12 86.2586 198.921 83.1591C198.12 85.6586 196.919 88.058 195.417 90.1571L190.122 81.5542Z" fill="#385CAD" fill-opacity="0.1"/>
<path d="M146.536 56.3303L141.311 101.927L134.207 108.424C133.808 107.523 133.408 106.623 133.109 105.623C133.508 107.123 134.007 108.523 134.606 109.924L141.71 103.428L146.533 61.4303L146.536 56.3303Z" fill="#385CAD" fill-opacity="0.1"/>
<path d="M205.811 101.963L200.636 56.36L200.533 61.46L205.31 103.463L212.407 109.966C213.008 108.567 213.508 107.167 213.909 105.667C213.609 106.567 213.208 107.567 212.808 108.467L205.811 101.963Z" fill="#385CAD" fill-opacity="0.1"/>
<path d="M179.035 57.5482C179.134 60.9482 176.432 63.7467 173.132 63.9449C173.232 63.945 173.432 63.9451 173.532 63.9451C177.132 63.8471 179.934 61.0486 179.835 57.5486C179.737 54.0485 176.839 51.247 173.239 51.345C173.139 51.3449 172.939 51.3448 172.839 51.3448C176.239 51.4466 178.937 54.1481 179.035 57.5482Z" fill="#385CAD" fill-opacity="0.1"/>
</svg>
