<svg width="50" height="50" viewBox="0 0 50 50" fill="none" xmlns="http://www.w3.org/2000/svg">
<circle cx="25" cy="25" r="25" fill="#B1BBD2"/>
<g opacity="0.9">
<g clip-path="url(#clip0_1116_1391)">
<path d="M21.8407 31.6492C21.1967 32.1544 20.7097 32.8325 20.4367 33.6042H13.4792V33.125C13.4792 29.0761 18.5584 27.3127 21.0692 30.3267C21.4042 30.7173 21.6655 31.1654 21.8407 31.6492Z" fill="white"/>
<path d="M21.8406 31.6492C21.4822 31.9297 21.1716 32.2662 20.9206 32.6458H15.8749C15.6652 32.6336 15.4612 32.573 15.2788 32.4688C15.0964 32.3645 14.9406 32.2194 14.8237 32.0449C14.7067 31.8704 14.6317 31.6712 14.6046 31.4629C14.5775 31.2546 14.599 31.0428 14.6674 30.8442C14.752 30.5814 14.8627 30.3277 14.9981 30.0871C15.0653 29.9161 15.1673 29.761 15.2977 29.6315C15.428 29.502 15.5838 29.401 15.7551 29.3348C18.2708 27.9452 21.3231 29.5744 21.8406 31.6492Z" fill="white"/>
<path d="M19.7083 25.9375C19.7083 27.4948 19.7515 27.6864 19.5358 28.1608C19.3547 28.5585 19.0431 28.8823 18.6527 29.0786C18.2623 29.2749 17.8166 29.3319 17.3894 29.2402C16.9622 29.1485 16.5791 28.9135 16.3037 28.5743C16.0282 28.2351 15.877 27.8119 15.875 27.375V25.9375C16.5794 26.2298 17.7294 26.4789 18.2708 25.9375C18.3638 25.8407 18.4754 25.7636 18.599 25.711C18.7225 25.6584 18.8553 25.6313 18.9896 25.6313C19.1238 25.6313 19.2567 25.6584 19.3802 25.711C19.5037 25.7636 19.6153 25.8407 19.7083 25.9375Z" fill="white"/>
<path d="M19.7083 25.9375C19.7083 27.4948 19.7514 27.6864 19.5358 28.1608C18.3858 28.6879 16.8333 28.0123 16.8333 26.2154C17.0781 26.283 17.3352 26.293 17.5846 26.2448C17.8339 26.1966 18.0687 26.0914 18.2708 25.9375C18.3638 25.8407 18.4754 25.7636 18.5989 25.711C18.7224 25.6584 18.8553 25.6313 18.9895 25.6313C19.1238 25.6313 19.2566 25.6584 19.3801 25.711C19.5036 25.7636 19.6152 25.8407 19.7083 25.9375Z" fill="white"/>
<path d="M19.7083 25.9375C19.6153 25.8407 19.5037 25.7636 19.3802 25.711C19.2567 25.6584 19.1238 25.6313 18.9896 25.6313C18.8553 25.6313 18.7225 25.6584 18.599 25.711C18.4754 25.7636 18.3638 25.8407 18.2708 25.9375C17.5521 26.6562 15.875 25.9375 15.875 25.9375C15.875 25.4291 16.0769 24.9416 16.4364 24.5822C16.7958 24.2227 17.2833 24.0208 17.7917 24.0208C18.3 24.0208 18.7875 24.2227 19.147 24.5822C19.5064 24.9416 19.7083 25.4291 19.7083 25.9375Z" fill="white"/>
<path d="M28.8124 35.0417V35.5208H20.1874C20.1427 34.8717 20.2274 34.2202 20.4366 33.6042C20.7769 32.6468 21.4444 31.8404 22.3212 31.3271C23.198 30.8138 24.228 30.6266 25.2294 30.7984C26.2308 30.9703 27.1393 31.4902 27.7948 32.2665C28.4503 33.0428 28.8107 34.0256 28.8124 35.0417Z" fill="white"/>
<path d="M28.8124 35.0417V35.5208H20.1874C20.1427 34.8717 20.2274 34.2202 20.4366 33.6042C20.7769 32.6468 21.4444 31.8404 22.3212 31.3271C23.198 30.8138 24.228 30.6266 25.2294 30.7984C26.2308 30.9703 27.1393 31.4902 27.7948 32.2665C28.4503 33.0428 28.8107 34.0256 28.8124 35.0417Z" fill="white"/>
<path d="M20.9207 32.6458C20.7206 32.9434 20.5595 33.2655 20.4415 33.6041H19.4832C19.6012 33.2655 19.7622 32.9434 19.9623 32.6458H20.9207Z" fill="white" fill-opacity="0.35"/>
<path d="M21.8407 31.6492C20.3793 32.7992 21.6251 32.6458 19.9624 32.6458C20.3772 32.0175 20.9509 31.51 21.6251 31.1748C21.7088 31.3273 21.7808 31.4859 21.8407 31.6492Z" fill="white"/>
<path d="M28.7838 34.5625C20.2977 34.5625 23.1775 34.5625 22.5546 34.5625C22.3449 34.5503 22.1409 34.4897 21.9585 34.3854C21.7761 34.2812 21.6203 34.1361 21.5034 33.9616C21.3864 33.7871 21.3114 33.5879 21.2843 33.3796C21.2572 33.1713 21.2787 32.9595 21.3471 32.7609C21.4899 32.3236 21.7001 31.9114 21.97 31.539C22.5814 31.0969 23.298 30.8229 24.0484 30.7444C24.7988 30.6659 25.5566 30.7857 26.2462 31.0917C26.9359 31.3977 27.5331 31.8793 27.9784 32.4883C28.4237 33.0974 28.7014 33.8126 28.7838 34.5625Z" fill="white"/>
<path d="M26.4166 27.8542C26.4166 29.4115 26.4597 29.6031 26.2441 30.0775C26.0629 30.4751 25.7513 30.7989 25.361 30.9952C24.9706 31.1916 24.5249 31.2486 24.0976 31.1569C23.6704 31.0652 23.2873 30.8302 23.0119 30.491C22.7365 30.1518 22.5853 29.7286 22.5833 29.2917V27.8542C23.2876 28.1465 24.4376 28.3956 24.9791 27.8542C25.0721 27.7574 25.1837 27.6803 25.3072 27.6277C25.4307 27.5751 25.5636 27.548 25.6978 27.548C25.8321 27.548 25.965 27.5751 26.0885 27.6277C26.212 27.6803 26.3236 27.7574 26.4166 27.8542Z" fill="white"/>
<path d="M26.4167 27.8542C26.4167 29.4115 26.4599 29.6031 26.2442 30.0775C25.0942 30.6046 23.5417 29.929 23.5417 28.1321C23.7866 28.1996 24.0437 28.2097 24.293 28.1615C24.5424 28.1133 24.7772 28.0081 24.9792 27.8542C25.0723 27.7574 25.1839 27.6803 25.3074 27.6277C25.4309 27.5751 25.5637 27.548 25.698 27.548C25.8322 27.548 25.9651 27.5751 26.0886 27.6277C26.2121 27.6803 26.3237 27.7574 26.4167 27.8542Z" fill="white" fill-opacity="0.35"/>
<path d="M26.4166 27.8542C26.3236 27.7574 26.212 27.6803 26.0885 27.6277C25.965 27.5751 25.8321 27.548 25.6978 27.548C25.5636 27.548 25.4307 27.5751 25.3072 27.6277C25.1837 27.6803 25.0721 27.7574 24.9791 27.8542C24.2603 28.5729 22.5833 27.8542 22.5833 27.8542C22.5833 27.3458 22.7852 26.8583 23.1446 26.4989C23.5041 26.1394 23.9916 25.9375 24.4999 25.9375C25.0083 25.9375 25.4958 26.1394 25.8552 26.4989C26.2147 26.8583 26.4166 27.3458 26.4166 27.8542Z" fill="white"/>
<path d="M35.5209 33.125V33.6042H28.5634C28.2904 32.8325 27.8035 32.1544 27.1594 31.6492C28.8125 27.1546 35.5209 28.2998 35.5209 33.125Z" fill="white"/>
<path d="M35.492 32.6458C27.006 32.6458 29.8858 32.6458 29.2629 32.6458C29.0532 32.6336 28.8491 32.573 28.6667 32.4688C28.4843 32.3645 28.3286 32.2195 28.2116 32.0449C28.0946 31.8704 28.0197 31.6712 27.9926 31.4629C27.9655 31.2546 27.987 31.0428 28.0554 30.8442C28.1981 30.4069 28.4083 29.9947 28.6783 29.6223C29.2897 29.1802 30.0063 28.9062 30.7567 28.8277C31.507 28.7492 32.2649 28.869 32.9545 29.175C33.6441 29.481 34.2414 29.9626 34.6867 30.5716C35.1319 31.1807 35.4096 31.8959 35.492 32.6458Z" fill="white"/>
<path d="M33.1251 25.9375C33.1251 27.4948 33.1682 27.6864 32.9526 28.1608C32.7714 28.5585 32.4598 28.8823 32.0695 29.0786C31.6791 29.2749 31.2334 29.3319 30.8061 29.2402C30.3789 29.1485 29.9958 28.9135 29.7204 28.5743C29.445 28.2351 29.2938 27.8119 29.2917 27.375V25.9375C29.9961 26.2298 31.1461 26.4789 31.6876 25.9375C31.7806 25.8407 31.8922 25.7636 32.0157 25.711C32.1392 25.6584 32.2721 25.6313 32.4063 25.6313C32.5406 25.6313 32.6735 25.6584 32.797 25.711C32.9205 25.7636 33.0321 25.8407 33.1251 25.9375Z" fill="white"/>
<path d="M33.125 25.9375C33.125 27.4948 33.1681 27.6864 32.9525 28.1608C31.8025 28.6879 30.25 28.0123 30.25 26.2154C30.4948 26.283 30.7519 26.293 31.0013 26.2448C31.2507 26.1966 31.4855 26.0914 31.6875 25.9375C31.7805 25.8407 31.8921 25.7636 32.0156 25.711C32.1391 25.6584 32.272 25.6313 32.4063 25.6313C32.5405 25.6313 32.6734 25.6584 32.7969 25.711C32.9204 25.7636 33.032 25.8407 33.125 25.9375Z" fill="white"/>
<path d="M33.1251 25.9375C33.0321 25.8407 32.9205 25.7636 32.797 25.711C32.6735 25.6584 32.5406 25.6313 32.4063 25.6313C32.2721 25.6313 32.1392 25.6584 32.0157 25.711C31.8922 25.7636 31.7806 25.8407 31.6876 25.9375C30.9688 26.6562 29.2917 25.9375 29.2917 25.9375C29.2917 25.4291 29.4937 24.9416 29.8531 24.5822C30.2126 24.2227 30.7001 24.0208 31.2084 24.0208C31.7167 24.0208 32.2043 24.2227 32.5637 24.5822C32.9231 24.9416 33.1251 25.4291 33.1251 25.9375Z" fill="white"/>
<path d="M26.4167 27.8542C26.2729 27.719 26.0987 27.6204 25.9088 27.5667C25.1997 27.3702 25.0751 27.9788 24.4713 28.1273C24.1528 28.0691 23.8412 27.9776 23.5417 27.8542C23.5421 27.4295 23.6834 27.017 23.9436 26.6813C24.2038 26.3457 24.5681 26.106 24.9792 25.9998C25.3904 26.106 25.7547 26.3457 26.0149 26.6813C26.2751 27.017 26.4164 27.4295 26.4167 27.8542Z" fill="white"/>
<path d="M33.1249 25.6644C32.9811 25.5292 32.8069 25.4306 32.617 25.3769C31.9079 25.1804 31.7833 25.789 31.1795 25.9375C30.8512 25.8813 30.5299 25.7897 30.2212 25.6644C30.2215 25.2397 30.3629 24.8272 30.623 24.4915C30.8832 24.1559 31.2475 23.9162 31.6587 23.81C32.0752 23.9107 32.446 24.1481 32.7118 24.4842C32.9775 24.8203 33.123 25.2359 33.1249 25.6644Z" fill="white"/>
<path d="M19.7083 25.6644C19.5644 25.5292 19.3902 25.4306 19.2003 25.3769C18.4912 25.1804 18.3666 25.789 17.7628 25.9375C17.4443 25.8793 17.1327 25.7878 16.8333 25.6644C16.8336 25.2397 16.9749 24.8272 17.2351 24.4915C17.4953 24.1559 17.8596 23.9162 18.2708 23.81C18.6819 23.9162 19.0462 24.1559 19.3064 24.4915C19.5666 24.8272 19.7079 25.2397 19.7083 25.6644Z" fill="white"/>
<path d="M29.2916 18.2709C29.2916 19.3076 28.9553 20.3164 28.3333 21.1459C25.5733 24.8211 19.7083 22.8421 19.7083 18.2709C19.7083 17.527 19.8814 16.7933 20.2141 16.128C20.5468 15.4626 21.0298 14.8839 21.6249 14.4375C22.3368 13.9036 23.1833 13.5785 24.0696 13.4986C24.9559 13.4186 25.8469 13.5871 26.6428 13.9851C27.4387 14.383 28.1081 14.9948 28.576 15.7517C29.0438 16.5087 29.2916 17.381 29.2916 18.2709Z" fill="white"/>
<path d="M26.8959 17.3125H25.4584V15.875H23.5417V17.3125H22.1042V19.2292H23.5417V20.6667H25.4584V19.2292H26.8959V17.3125Z" fill="#B1BBD2"/>
<path d="M34.596 29.7373C34.1033 29.2455 33.5099 28.8662 32.8567 28.6256C33.7671 27.7583 33.6042 26.8096 33.6042 25.4583C33.6042 24.8229 33.3517 24.2135 32.9024 23.7642C32.4531 23.3149 31.8437 23.0625 31.2083 23.0625C30.5729 23.0625 29.9635 23.3149 29.5142 23.7642C29.0649 24.2135 28.8125 24.8229 28.8125 25.4583C28.8125 26.8527 28.6496 27.7631 29.5648 28.6304C28.436 29.0439 27.5039 29.8666 26.9533 30.9352C26.696 30.781 26.4249 30.6511 26.1435 30.5471C27.0587 29.6798 26.8958 28.7502 26.8958 27.375C26.8958 26.7396 26.6434 26.1302 26.1941 25.6809C25.7448 25.2316 25.1354 24.9792 24.5 24.9792C23.8646 24.9792 23.2552 25.2316 22.8059 25.6809C22.3566 26.1302 22.1042 26.7396 22.1042 27.375C22.0802 27.4229 22.1042 27.0635 22.1042 28.8125C22.1053 29.1375 22.1726 29.4589 22.302 29.7571C22.4313 30.0553 22.62 30.3241 22.8565 30.5471C22.5751 30.6511 22.304 30.781 22.0467 30.9352C21.5009 29.8636 20.5695 29.0384 19.44 28.6256C20.3504 27.7583 20.1875 26.8096 20.1875 25.4583C20.1875 24.8229 19.9351 24.2135 19.4858 23.7642C19.0365 23.3149 18.4271 23.0625 17.7917 23.0625C17.1563 23.0625 16.5469 23.3149 16.0976 23.7642C15.6483 24.2135 15.3958 24.8229 15.3958 25.4583C15.3958 26.7665 15.2233 27.7535 16.1481 28.6304C15.2263 28.967 14.43 29.5786 13.867 30.3824C13.3039 31.1863 13.0013 32.1436 13 33.125V33.6042C13 33.7312 13.0505 33.8531 13.1403 33.943C13.2302 34.0328 13.3521 34.0833 13.4792 34.0833H19.8042C19.7182 34.5574 19.6861 35.0396 19.7083 35.5208C19.7083 35.6479 19.7588 35.7698 19.8487 35.8597C19.9385 35.9495 20.0604 36 20.1875 36H28.8125C28.9396 36 29.0615 35.9495 29.1513 35.8597C29.2412 35.7698 29.2917 35.6479 29.2917 35.5208C29.3141 35.0396 29.2819 34.5573 29.1958 34.0833H35.5208C35.6479 34.0833 35.7698 34.0328 35.8597 33.943C35.9495 33.8531 36 33.7312 36 33.6042C36 32.1667 35.7892 30.9256 34.596 29.7373ZM32.4062 24.6677C32.2079 24.6637 32.011 24.7018 31.8285 24.7794C31.646 24.8571 31.482 24.9725 31.3473 25.1181C31.055 25.4152 30.3219 25.2906 29.8092 25.1181C29.8754 24.8462 30.0196 24.5995 30.2241 24.4084C30.4286 24.2172 30.6844 24.0899 30.9602 24.0421C31.2359 23.9943 31.5197 24.028 31.7765 24.1391C32.0334 24.2503 32.2523 24.434 32.4062 24.6677ZM29.7708 26.8958V26.1196C32.0085 26.6994 31.9606 25.2906 32.6458 25.6931V26.8958C32.6458 27.2771 32.4944 27.6427 32.2248 27.9123C31.9552 28.1819 31.5896 28.3333 31.2083 28.3333C30.8271 28.3333 30.4615 28.1819 30.1919 27.9123C29.9223 27.6427 29.7708 27.2771 29.7708 26.8958ZM25.6979 26.5844C25.4996 26.5804 25.3027 26.6185 25.1202 26.6961C24.9376 26.7737 24.7736 26.8892 24.639 27.0348C24.3467 27.3319 23.6135 27.2073 23.1008 27.0348C23.1671 26.7629 23.3113 26.5162 23.5158 26.325C23.7202 26.1339 23.976 26.0066 24.2518 25.9588C24.5276 25.911 24.8113 25.9447 25.0682 26.0558C25.3251 26.1669 25.5439 26.3506 25.6979 26.5844ZM23.0625 28.8125V28.0362C25.3002 28.616 25.2523 27.2073 25.9375 27.6098V28.8125C25.9375 29.1937 25.786 29.5594 25.5165 29.829C25.2469 30.0985 24.8812 30.25 24.5 30.25C24.1188 30.25 23.7531 30.0985 23.4835 29.829C23.214 29.5594 23.0625 29.1937 23.0625 28.8125ZM18.9896 24.6677C18.7913 24.6637 18.5944 24.7018 18.4118 24.7794C18.2293 24.8571 18.0653 24.9725 17.9306 25.1181C17.6383 25.4152 16.9052 25.2906 16.3925 25.1181C16.4588 24.8462 16.603 24.5995 16.8074 24.4084C17.0119 24.2172 17.2677 24.0899 17.5435 24.0421C17.8193 23.9943 18.103 24.028 18.3599 24.1391C18.6168 24.2503 18.8356 24.434 18.9896 24.6677ZM16.3542 26.8958V26.1196C18.5919 26.6994 18.544 25.2906 19.2292 25.6931V26.8958C19.2292 27.2771 19.0777 27.6427 18.8081 27.9123C18.5385 28.1819 18.1729 28.3333 17.7917 28.3333C17.4104 28.3333 17.0448 28.1819 16.7752 27.9123C16.5056 27.6427 16.3542 27.2771 16.3542 26.8958ZM13.9583 33.125C13.9583 29.0808 19.5406 27.7679 21.2656 31.515C20.7735 31.966 20.3803 32.5142 20.1108 33.125H13.9583ZM20.6667 35.0417C20.6667 34.025 21.0705 33.05 21.7894 32.3311C22.5083 31.6122 23.4833 31.2083 24.5 31.2083C25.5167 31.2083 26.4917 31.6122 27.2106 32.3311C27.9295 33.05 28.3333 34.025 28.3333 35.0417H20.6667ZM28.8892 33.125C28.6225 32.5167 28.2306 31.9714 27.7392 31.5246C29.4594 27.7871 35.0417 29.0473 35.0417 33.125H28.8892Z" fill="white"/>
<path d="M24.5001 23.5417C25.5426 23.5417 26.5616 23.2325 27.4284 22.6534C28.2952 22.0742 28.9708 21.251 29.3697 20.2879C29.7686 19.3248 29.873 18.265 29.6696 17.2425C29.4663 16.2201 28.9643 15.2809 28.2271 14.5438C27.49 13.8067 26.5508 13.3047 25.5284 13.1013C24.5059 12.8979 23.4461 13.0023 22.483 13.4012C21.5199 13.8002 20.6967 14.4757 20.1175 15.3425C19.5384 16.2093 19.2292 17.2284 19.2292 18.2708C19.2292 19.6687 19.7846 21.0094 20.773 21.9979C21.7615 22.9864 23.1022 23.5417 24.5001 23.5417ZM24.5001 13.9583C25.353 13.9583 26.1868 14.2113 26.896 14.6851C27.6052 15.159 28.1579 15.8325 28.4843 16.6205C28.8107 17.4085 28.8961 18.2756 28.7297 19.1122C28.5633 19.9487 28.1526 20.7171 27.5495 21.3202C26.9464 21.9233 26.178 22.3341 25.3414 22.5005C24.5049 22.6669 23.6378 22.5815 22.8498 22.2551C22.0618 21.9287 21.3882 21.3759 20.9144 20.6667C20.4405 19.9575 20.1876 19.1238 20.1876 18.2708C20.1876 17.1271 20.6419 16.0302 21.4507 15.2214C22.2594 14.4127 23.3563 13.9583 24.5001 13.9583Z" fill="white"/>
</g>
</g>
<defs>
<clipPath id="clip0_1116_1391">
<rect x="13" y="13" width="23" height="23" rx="5" fill="white"/>
</clipPath>
</defs>
</svg>
