<svg width="56" height="52" viewBox="0 0 56 52" fill="none" xmlns="http://www.w3.org/2000/svg">
<mask id="path-1-inside-1_535_1020" fill="white">
<path d="M54.8716 19.4424C54.29 18.9566 53.5497 18.7343 52.8131 18.8242C52.0765 18.9142 51.4037 19.3091 50.9425 19.9223L48.4732 23.2102V7.87538C48.4705 5.78756 47.684 3.78605 46.286 2.30974C44.888 0.833424 42.9928 0.00279987 41.0157 0H7.45741C5.48026 0.002345 3.58473 0.832824 2.18668 2.30924C0.788623 3.78565 0.00222054 5.78742 0 7.87538V43.3146C0.00222054 45.4026 0.788623 47.4043 2.18668 48.8808C3.58473 50.3572 5.48026 51.1877 7.45741 51.19H41.0157C42.9928 51.1872 44.888 50.3566 46.286 48.8803C47.684 47.4039 48.4705 45.4024 48.4732 43.3146V32.7222L55.3272 23.5892C55.7865 22.9751 55.9965 22.1937 55.9111 21.4163C55.8257 20.639 55.4519 19.9291 54.8716 19.4424ZM43.3462 46.2679C42.9775 46.2679 42.617 46.1524 42.3104 45.9361C42.0038 45.7197 41.7649 45.4122 41.6237 45.0525C41.4826 44.6927 41.4457 44.2969 41.5177 43.9149C41.5896 43.533 41.7672 43.1822 42.0279 42.9069C42.2886 42.6315 42.6208 42.444 42.9825 42.368C43.3441 42.2921 43.719 42.331 44.0596 42.4801C44.4003 42.6291 44.6915 42.8814 44.8963 43.2052C45.1012 43.529 45.2105 43.9096 45.2105 44.299C45.2099 44.821 45.0132 45.3214 44.6637 45.6904C44.3142 46.0595 43.8404 46.2672 43.3462 46.2679ZM11.6522 5.90654C11.6526 5.77612 11.7018 5.65115 11.7891 5.55892C11.8765 5.4667 11.9948 5.41472 12.1183 5.41433H36.3549C36.4784 5.41472 36.5967 5.4667 36.684 5.55892C36.7714 5.65115 36.8206 5.77612 36.821 5.90654V13.2897C36.8206 13.4201 36.7714 13.5451 36.684 13.6373C36.5967 13.7296 36.4784 13.7815 36.3549 13.7819H12.1183C11.9948 13.7815 11.8765 13.7296 11.7891 13.6373C11.7018 13.5451 11.6526 13.4201 11.6522 13.2897V5.90654ZM45.2105 6.89096C45.2105 7.28036 45.1012 7.66102 44.8963 7.98479C44.6915 8.30857 44.4003 8.56092 44.0596 8.70994C43.719 8.85896 43.3441 8.89795 42.9825 8.82198C42.6208 8.74601 42.2886 8.55849 42.0279 8.28315C41.7672 8.0078 41.5896 7.65698 41.5177 7.27506C41.4457 6.89315 41.4826 6.49728 41.6237 6.13752C41.7649 5.77776 42.0038 5.47027 42.3104 5.25393C42.617 5.03759 42.9775 4.92212 43.3462 4.92212C43.8404 4.92283 44.3142 5.13049 44.6637 5.49957C45.0132 5.86864 45.2099 6.36901 45.2105 6.89096ZM3.26262 44.299C3.26262 43.9096 3.37196 43.529 3.57682 43.2052C3.78167 42.8814 4.07285 42.6291 4.41351 42.4801C4.75418 42.331 5.12904 42.2921 5.49069 42.368C5.85233 42.444 6.18453 42.6315 6.44526 42.9069C6.706 43.1822 6.88356 43.533 6.9555 43.9149C7.02743 44.2969 6.99051 44.6927 6.84941 45.0525C6.7083 45.4122 6.46934 45.7197 6.16275 45.9361C5.85616 46.1524 5.4957 46.2679 5.12697 46.2679C4.63272 46.2672 4.15891 46.0595 3.80942 45.6904C3.45993 45.3214 3.26329 44.821 3.26262 44.299ZM5.12697 8.85981C4.75823 8.85981 4.39778 8.74434 4.09119 8.528C3.7846 8.31166 3.54564 8.00417 3.40453 7.64441C3.26342 7.28465 3.2265 6.88878 3.29844 6.50686C3.37038 6.12494 3.54794 5.77413 3.80867 5.49878C4.06941 5.22343 4.4016 5.03591 4.76325 4.95995C5.1249 4.88398 5.49976 4.92297 5.84042 5.07198C6.18109 5.221 6.47226 5.47335 6.67712 5.79713C6.88198 6.1209 6.99132 6.50156 6.99132 6.89096C6.99064 7.41291 6.794 7.91328 6.44452 8.28236C6.09503 8.65143 5.62122 8.85909 5.12697 8.85981ZM21.44 50.2056V42.8224C21.44 42.0391 21.7347 41.288 22.2591 40.7341C22.7836 40.1803 23.4949 39.8691 24.2366 39.8691C24.9783 39.8691 25.6896 40.1803 26.214 40.7341C26.7385 41.288 27.0331 42.0391 27.0331 42.8224V50.2056H21.44ZM54.5966 22.9789L47.6214 32.2768L42.851 38.6312C42.679 38.862 42.46 39.0488 42.2103 39.1779C41.9606 39.307 41.6865 39.3751 41.4084 39.3769H41.3898C41.1137 39.3775 40.841 39.3131 40.5914 39.1884C40.3419 39.0636 40.1218 38.8817 39.9472 38.6558L34.9135 32.1586C34.69 31.8705 34.5484 31.5214 34.5053 31.1518C34.4621 30.7822 34.5191 30.4072 34.6697 30.0704C34.8202 29.7336 35.0582 29.4488 35.3558 29.2491C35.6535 29.0494 35.9987 28.9429 36.3514 28.942C36.4152 28.9417 36.479 28.945 36.5425 28.9519C36.7862 28.9768 37.0228 29.0528 37.2385 29.1753C37.4542 29.2978 37.6446 29.4645 37.7986 29.6656L41.0006 33.7952C41.0453 33.8514 41.1008 33.8967 41.1636 33.9282C41.2263 33.9596 41.2947 33.9764 41.3641 33.9774C41.4337 33.9764 41.5022 33.9592 41.5647 33.9268C41.6272 33.8945 41.6821 33.8478 41.7254 33.7903L48.3671 24.9379L48.3951 24.901L51.674 20.5326C51.9812 20.1234 52.4297 19.8597 52.921 19.7997C53.4122 19.7397 53.9059 19.8883 54.2934 20.2127C54.681 20.5371 54.9306 21.0107 54.9874 21.5295C55.0442 22.0483 54.9038 22.5696 54.5966 22.9789Z"/>
</mask>
<path d="M54.8716 19.4424C54.29 18.9566 53.5497 18.7343 52.8131 18.8242C52.0765 18.9142 51.4037 19.3091 50.9425 19.9223L48.4732 23.2102V7.87538C48.4705 5.78756 47.684 3.78605 46.286 2.30974C44.888 0.833424 42.9928 0.00279987 41.0157 0H7.45741C5.48026 0.002345 3.58473 0.832824 2.18668 2.30924C0.788623 3.78565 0.00222054 5.78742 0 7.87538V43.3146C0.00222054 45.4026 0.788623 47.4043 2.18668 48.8808C3.58473 50.3572 5.48026 51.1877 7.45741 51.19H41.0157C42.9928 51.1872 44.888 50.3566 46.286 48.8803C47.684 47.4039 48.4705 45.4024 48.4732 43.3146V32.7222L55.3272 23.5892C55.7865 22.9751 55.9965 22.1937 55.9111 21.4163C55.8257 20.639 55.4519 19.9291 54.8716 19.4424ZM43.3462 46.2679C42.9775 46.2679 42.617 46.1524 42.3104 45.9361C42.0038 45.7197 41.7649 45.4122 41.6237 45.0525C41.4826 44.6927 41.4457 44.2969 41.5177 43.9149C41.5896 43.533 41.7672 43.1822 42.0279 42.9069C42.2886 42.6315 42.6208 42.444 42.9825 42.368C43.3441 42.2921 43.719 42.331 44.0596 42.4801C44.4003 42.6291 44.6915 42.8814 44.8963 43.2052C45.1012 43.529 45.2105 43.9096 45.2105 44.299C45.2099 44.821 45.0132 45.3214 44.6637 45.6904C44.3142 46.0595 43.8404 46.2672 43.3462 46.2679ZM11.6522 5.90654C11.6526 5.77612 11.7018 5.65115 11.7891 5.55892C11.8765 5.4667 11.9948 5.41472 12.1183 5.41433H36.3549C36.4784 5.41472 36.5967 5.4667 36.684 5.55892C36.7714 5.65115 36.8206 5.77612 36.821 5.90654V13.2897C36.8206 13.4201 36.7714 13.5451 36.684 13.6373C36.5967 13.7296 36.4784 13.7815 36.3549 13.7819H12.1183C11.9948 13.7815 11.8765 13.7296 11.7891 13.6373C11.7018 13.5451 11.6526 13.4201 11.6522 13.2897V5.90654ZM45.2105 6.89096C45.2105 7.28036 45.1012 7.66102 44.8963 7.98479C44.6915 8.30857 44.4003 8.56092 44.0596 8.70994C43.719 8.85896 43.3441 8.89795 42.9825 8.82198C42.6208 8.74601 42.2886 8.55849 42.0279 8.28315C41.7672 8.0078 41.5896 7.65698 41.5177 7.27506C41.4457 6.89315 41.4826 6.49728 41.6237 6.13752C41.7649 5.77776 42.0038 5.47027 42.3104 5.25393C42.617 5.03759 42.9775 4.92212 43.3462 4.92212C43.8404 4.92283 44.3142 5.13049 44.6637 5.49957C45.0132 5.86864 45.2099 6.36901 45.2105 6.89096ZM3.26262 44.299C3.26262 43.9096 3.37196 43.529 3.57682 43.2052C3.78167 42.8814 4.07285 42.6291 4.41351 42.4801C4.75418 42.331 5.12904 42.2921 5.49069 42.368C5.85233 42.444 6.18453 42.6315 6.44526 42.9069C6.706 43.1822 6.88356 43.533 6.9555 43.9149C7.02743 44.2969 6.99051 44.6927 6.84941 45.0525C6.7083 45.4122 6.46934 45.7197 6.16275 45.9361C5.85616 46.1524 5.4957 46.2679 5.12697 46.2679C4.63272 46.2672 4.15891 46.0595 3.80942 45.6904C3.45993 45.3214 3.26329 44.821 3.26262 44.299ZM5.12697 8.85981C4.75823 8.85981 4.39778 8.74434 4.09119 8.528C3.7846 8.31166 3.54564 8.00417 3.40453 7.64441C3.26342 7.28465 3.2265 6.88878 3.29844 6.50686C3.37038 6.12494 3.54794 5.77413 3.80867 5.49878C4.06941 5.22343 4.4016 5.03591 4.76325 4.95995C5.1249 4.88398 5.49976 4.92297 5.84042 5.07198C6.18109 5.221 6.47226 5.47335 6.67712 5.79713C6.88198 6.1209 6.99132 6.50156 6.99132 6.89096C6.99064 7.41291 6.794 7.91328 6.44452 8.28236C6.09503 8.65143 5.62122 8.85909 5.12697 8.85981ZM21.44 50.2056V42.8224C21.44 42.0391 21.7347 41.288 22.2591 40.7341C22.7836 40.1803 23.4949 39.8691 24.2366 39.8691C24.9783 39.8691 25.6896 40.1803 26.214 40.7341C26.7385 41.288 27.0331 42.0391 27.0331 42.8224V50.2056H21.44ZM54.5966 22.9789L47.6214 32.2768L42.851 38.6312C42.679 38.862 42.46 39.0488 42.2103 39.1779C41.9606 39.307 41.6865 39.3751 41.4084 39.3769H41.3898C41.1137 39.3775 40.841 39.3131 40.5914 39.1884C40.3419 39.0636 40.1218 38.8817 39.9472 38.6558L34.9135 32.1586C34.69 31.8705 34.5484 31.5214 34.5053 31.1518C34.4621 30.7822 34.5191 30.4072 34.6697 30.0704C34.8202 29.7336 35.0582 29.4488 35.3558 29.2491C35.6535 29.0494 35.9987 28.9429 36.3514 28.942C36.4152 28.9417 36.479 28.945 36.5425 28.9519C36.7862 28.9768 37.0228 29.0528 37.2385 29.1753C37.4542 29.2978 37.6446 29.4645 37.7986 29.6656L41.0006 33.7952C41.0453 33.8514 41.1008 33.8967 41.1636 33.9282C41.2263 33.9596 41.2947 33.9764 41.3641 33.9774C41.4337 33.9764 41.5022 33.9592 41.5647 33.9268C41.6272 33.8945 41.6821 33.8478 41.7254 33.7903L48.3671 24.9379L48.3951 24.901L51.674 20.5326C51.9812 20.1234 52.4297 19.8597 52.921 19.7997C53.4122 19.7397 53.9059 19.8883 54.2934 20.2127C54.681 20.5371 54.9306 21.0107 54.9874 21.5295C55.0442 22.0483 54.9038 22.5696 54.5966 22.9789Z" fill="#3B548E" stroke="#37474F" stroke-width="2" mask="url(#path-1-inside-1_535_1020)"/>
<path d="M32.1631 12.3041H33.5614C33.8086 12.3041 34.0457 12.2004 34.2205 12.0158C34.3954 11.8311 34.4936 11.5808 34.4936 11.3197V7.87419C34.4936 7.61311 34.3954 7.36272 34.2205 7.1781C34.0457 6.99349 33.8086 6.88977 33.5614 6.88977H32.1631C31.9159 6.88977 31.6788 6.99349 31.504 7.1781C31.3292 7.36272 31.231 7.61311 31.231 7.87419V11.3197C31.231 11.5808 31.3292 11.8311 31.504 12.0158C31.6788 12.2004 31.9159 12.3041 32.1631 12.3041ZM32.1631 7.87419H33.5614V11.3197H32.1631V7.87419Z" fill="#A1C887"/>
<path d="M30.2981 12.3042C30.5555 12.3042 30.7642 12.0839 30.7642 11.812C30.7642 11.5402 30.5555 11.3198 30.2981 11.3198C30.0407 11.3198 29.832 11.5402 29.832 11.812C29.832 12.0839 30.0407 12.3042 30.2981 12.3042Z" fill="#37474F"/>
<path d="M27.0386 12.3041H28.4369C28.6841 12.3041 28.9212 12.2004 29.096 12.0158C29.2709 11.8311 29.3691 11.5808 29.3691 11.3197V7.87419C29.3691 7.61311 29.2709 7.36272 29.096 7.1781C28.9212 6.99349 28.6841 6.88977 28.4369 6.88977H27.0386C26.7914 6.88977 26.5543 6.99349 26.3795 7.1781C26.2047 7.36272 26.1064 7.61311 26.1064 7.87419V11.3197C26.1064 11.5808 26.2047 11.8311 26.3795 12.0158C26.5543 12.2004 26.7914 12.3041 27.0386 12.3041ZM27.0386 7.87419H28.4369V11.3197H27.0386V7.87419Z" fill="#A1C887"/>
</svg>
