<svg width="60" height="60" viewBox="0 0 60 60" fill="none" xmlns="http://www.w3.org/2000/svg">
<path d="M28.9687 58.8281C20.9062 58.8281 14.2969 52.2656 14.2969 44.1563V22.7812H15.7031V44.1563C15.7031 51.4688 21.6562 57.4219 28.9687 57.4219C36.2812 57.4219 42.2344 51.4688 42.2344 44.1563V37.5938H43.6406V44.2031C43.6406 52.2656 37.0781 58.8281 28.9687 58.8281Z" fill="#3B548E"/>
<path d="M42.8906 35.1563C34.5 35.1563 27.6562 28.3594 27.6562 19.9219V8.71875C27.6562 5.48437 30.2812 2.85938 33.5156 2.85938V5.20313C31.5938 5.20313 30 6.79688 30 8.71875V19.9219C30 27.0469 35.7656 32.8125 42.8906 32.8125C50.0156 32.8125 55.7812 27.0469 55.7812 19.9219V8.71875C55.7812 6.79688 54.1875 5.20313 52.2656 5.20313V2.85938C55.5 2.85938 58.125 5.48437 58.125 8.71875V19.9219C58.125 28.3594 51.2812 35.1563 42.8906 35.1563Z" fill="#F0F1EE"/>
<path d="M42.8906 28.7344C35.4375 28.7344 29.3906 22.6875 29.3906 15.2344H30.5625C30.5625 22.0313 36.0937 27.5625 42.8906 27.5625C49.6875 27.5625 55.1719 22.0313 55.1719 15.2812H56.3437C56.3437 22.6875 50.3437 28.7344 42.8906 28.7344Z" fill="#37474F"/>
<path d="M42.8906 35.7656C34.1719 35.7656 27.0469 28.6875 27.0469 19.9219V8.71875C27.0469 5.15625 29.9531 2.25 33.5156 2.25H34.0781V5.76562H33.5156C31.9219 5.76562 30.6094 7.07812 30.6094 8.67187V19.875C30.5625 26.7187 36.0938 32.25 42.8906 32.25C49.6875 32.25 55.1719 26.7187 55.1719 19.9687V8.71875C55.1719 7.125 53.8594 5.8125 52.2656 5.8125H51.7031V2.29687H52.2656C55.8282 2.29687 58.7344 5.20312 58.7344 8.76562V19.9687C58.6875 28.6406 51.6094 35.7656 42.8906 35.7656ZM32.9063 3.51562C30.2813 3.79687 28.2188 6.04687 28.2188 8.76562V19.9687C28.2188 28.0312 34.7813 34.5937 42.8438 34.5937C50.9063 34.5937 57.4688 28.0312 57.4688 19.9687V8.71875C57.4688 6 55.4063 3.75 52.7813 3.46875V4.6875C54.75 4.96875 56.2969 6.70312 56.2969 8.76562V19.9687C56.2969 27.4219 50.25 33.4687 42.7969 33.4687C35.3438 33.4687 29.4375 27.375 29.4375 19.9219V8.71875C29.4375 6.65625 30.9844 4.92187 32.9531 4.64062V3.51562H32.9063Z" fill="#3B548E"/>
<path d="M34.8281 5.99998L33.2812 5.20311V2.85936L34.8281 2.10936C36.2344 1.40623 37.9688 2.43748 37.9688 4.03123C37.9688 5.67186 36.2344 6.70311 34.8281 5.99998Z" fill="#A1C887"/>
<path opacity="0.2" d="M34.8281 5.99998L33.2812 5.20311V2.85936L34.8281 2.10936C36.2344 1.40623 37.9688 2.43748 37.9688 4.03123C37.9688 5.67186 36.2344 6.70311 34.8281 5.99998Z" fill="#3B548E"/>
<path d="M35.7656 6.79687C35.3437 6.79687 34.9219 6.70312 34.5469 6.51562L32.6719 5.57812V2.53125L34.5469 1.59375C34.9219 1.40625 35.3437 1.3125 35.7656 1.3125C37.2656 1.3125 38.5312 2.53125 38.5312 4.07812C38.5312 5.625 37.3125 6.79687 35.7656 6.79687ZM33.8437 4.875L35.0625 5.48437C35.2969 5.57812 35.5312 5.67188 35.7656 5.67188C36.5156 5.67188 37.3594 5.0625 37.3594 4.07812C37.3594 3.09375 36.5625 2.4375 35.7656 2.4375C35.5312 2.4375 35.2969 2.48437 35.0625 2.625L33.8437 3.23438V4.875Z" fill="#37474F"/>
<path d="M50.6719 5.99999L52.2188 5.24999V2.90623L50.6719 2.15623C49.2188 1.45311 47.5312 2.48436 47.5312 4.07811C47.5313 5.67186 49.2188 6.70311 50.6719 5.99999Z" fill="#A1C887"/>
<path opacity="0.2" d="M50.6719 5.99999L52.2188 5.24999V2.90623L50.6719 2.15623C49.2188 1.45311 47.5312 2.48436 47.5312 4.07811C47.5313 5.67186 49.2188 6.70311 50.6719 5.99999Z" fill="#3B548E"/>
<path d="M49.6875 6.79688C48.1875 6.79688 46.9219 5.57813 46.9219 4.03125C46.9219 2.48438 48.1406 1.26562 49.6875 1.26562C50.1094 1.26562 50.5312 1.35937 50.9062 1.54687L52.7812 2.48438V5.53125L50.9062 6.46875C50.5312 6.70313 50.1094 6.79688 49.6875 6.79688ZM49.6875 2.4375C48.9375 2.4375 48.0938 3.04688 48.0938 4.03125C48.0938 5.01563 48.9375 5.625 49.6875 5.625C49.9219 5.625 50.1563 5.57813 50.3906 5.4375L51.6094 4.82813V3.23437L50.3906 2.625C50.2031 2.53125 49.9688 2.4375 49.6875 2.4375Z" fill="#37474F"/>
<path d="M51.9844 30.6562C51.4687 29.9531 50.4375 29.8594 49.6875 30.3281C47.6719 31.6406 45.3281 32.3437 42.8906 32.3437C40.5 32.3437 38.2031 31.6875 36.1875 30.375C35.4375 29.9062 34.4531 30 33.8906 30.7031C33.3282 31.4531 33.5156 32.5312 34.3125 33.0469C35.9063 34.0781 37.6406 34.7812 39.4688 35.2031C40.5469 35.4375 41.2969 36.375 41.2969 37.5V43.4062C41.2969 44.2031 41.8125 44.9062 42.6094 45.0469C43.6875 45.2812 44.5781 44.4375 44.5781 43.4531V37.5C44.5781 36.4219 45.3281 35.4844 46.4063 35.2031C48.2344 34.7812 49.9688 34.0312 51.5625 33C52.3594 32.4844 52.5469 31.4062 51.9844 30.6562Z" fill="#A1C887"/>
<path d="M42.9373 45.7031C42.7967 45.7031 42.6092 45.7031 42.4685 45.6562C41.4373 45.4687 40.6873 44.5312 40.6873 43.4531V37.5469C40.6873 36.7031 40.1248 36 39.3279 35.8125C37.406 35.3906 35.6248 34.6406 33.9842 33.5625C33.4686 33.2344 33.0936 32.6719 32.9998 32.1094C32.9061 31.5 33.0467 30.8906 33.4217 30.375C33.8436 29.8125 34.4998 29.4844 35.2029 29.4844C35.6717 29.4844 36.0936 29.625 36.5154 29.8594C38.4373 31.0781 40.6404 31.7344 42.8904 31.7344C45.1873 31.7344 47.4373 31.0781 49.3592 29.8125C49.7342 29.5781 50.2029 29.4375 50.6717 29.4375C51.3748 29.4375 52.031 29.7656 52.4529 30.2812C52.8279 30.7969 52.9685 31.4063 52.8748 32.0156C52.781 32.625 52.406 33.1406 51.8904 33.5156C50.2498 34.5937 48.4685 35.3906 46.5467 35.8125C45.7498 36 45.1873 36.7031 45.1873 37.5V43.4531C45.1873 44.0625 44.9529 44.625 44.531 45.0469C44.1092 45.4687 43.5467 45.7031 42.9373 45.7031ZM35.2029 30.7031C34.8748 30.7031 34.5467 30.8438 34.3592 31.0781C34.1717 31.3125 34.1248 31.5937 34.1717 31.875C34.2186 32.1562 34.4061 32.3906 34.6404 32.5781C36.1404 33.5625 37.8279 34.2656 39.6092 34.6406C40.9685 34.9219 41.906 36.0937 41.906 37.5V43.4062C41.906 43.9219 42.2342 44.3906 42.7498 44.4844C43.1248 44.5781 43.4529 44.4375 43.7342 44.2031C43.9217 44.0156 44.0623 43.7344 44.0623 43.4531V37.5C44.0623 36.1406 44.9998 34.9687 46.3592 34.6406C48.1404 34.2187 49.8279 33.5156 51.3279 32.5312C51.5623 32.3906 51.7498 32.1094 51.7967 31.8281C51.8435 31.5469 51.7967 31.2656 51.6092 31.0312C51.281 30.6094 50.5779 30.5156 50.1092 30.8438C47.9998 32.25 45.5154 32.9531 42.9842 32.9531C40.4998 32.9531 38.0623 32.25 35.9529 30.8906C35.6717 30.75 35.4373 30.7031 35.2029 30.7031Z" fill="#3B548E"/>
<path d="M15.0469 28.6406C18.2829 28.6406 20.9062 26.0173 20.9062 22.7813C20.9062 19.5452 18.2829 16.9219 15.0469 16.9219C11.8108 16.9219 9.1875 19.5452 9.1875 22.7813C9.1875 26.0173 11.8108 28.6406 15.0469 28.6406Z" fill="#F0F1EE"/>
<path d="M15.0469 26.2969C16.9885 26.2969 18.5625 24.7229 18.5625 22.7812C18.5625 20.8396 16.9885 19.2656 15.0469 19.2656C13.1052 19.2656 11.5312 20.8396 11.5312 22.7812C11.5312 24.7229 13.1052 26.2969 15.0469 26.2969Z" fill="#A1C887"/>
<g opacity="0.5">
<path opacity="0.5" d="M15.0469 16.9219C11.8125 16.9219 9.1875 19.5469 9.1875 22.7813C9.1875 24.4219 9.84375 25.875 10.9219 26.9531L19.2187 18.7031C18.1406 17.625 16.6875 16.9219 15.0469 16.9219Z" fill="white"/>
</g>
<path d="M15.0469 29.25C11.4844 29.25 8.625 26.3437 8.625 22.7812C8.625 19.2187 11.5313 16.3125 15.0469 16.3125C18.6094 16.3125 21.5156 19.2187 21.5156 22.7812C21.5156 26.3437 18.5625 29.25 15.0469 29.25ZM15.0469 17.5313C12.1406 17.5313 9.79688 19.875 9.79688 22.7812C9.79688 25.6875 12.1406 28.0312 15.0469 28.0312C17.9531 28.0312 20.2969 25.6875 20.2969 22.7812C20.2969 19.875 17.9531 17.5313 15.0469 17.5313Z" fill="#3B548E"/>
<path d="M15.0469 26.9062C12.7969 26.9062 10.9688 25.0781 10.9688 22.7812C10.9688 20.4844 12.7969 18.6562 15.0469 18.6562C17.2969 18.6562 19.1719 20.4844 19.1719 22.7812C19.1719 25.0781 17.2969 26.9062 15.0469 26.9062ZM15.0469 19.875C13.4531 19.875 12.1406 21.1875 12.1406 22.7812C12.1406 24.375 13.4531 25.6875 15.0469 25.6875C16.6406 25.6875 17.9531 24.375 17.9531 22.7812C17.9531 21.1875 16.6406 19.875 15.0469 19.875Z" fill="#37474F"/>
</svg>
