<svg width="60" height="60" viewBox="0 0 60 60" fill="none" xmlns="http://www.w3.org/2000/svg">
<path d="M20.9531 41.9425L16.3594 37.3488C15.4219 36.4113 15.4219 34.9581 16.3594 34.0206L38.4375 11.9425L46.3594 19.8644L24.2812 41.9425C23.3437 42.8331 21.8906 42.8331 20.9531 41.9425Z" fill="white"/>
<path d="M20.9531 41.9425L16.3594 37.3488C15.4219 36.4113 15.4219 34.9581 16.3594 34.0206L26.5781 23.8019L34.5 31.7238L24.2812 41.9425C23.3437 42.8331 21.8906 42.8331 20.9531 41.9425Z" fill="#90D3EA" fill-opacity="0.15"/>
<path d="M55.4531 9.22376L49.0781 2.84876C48.6562 2.42688 48 2.42688 47.5781 2.84876L47.1094 3.31751C46.6875 3.73938 46.6875 4.39563 47.1094 4.81751L48.3281 6.03626L28.5469 25.8175L32.4844 29.755L52.2656 9.97376L53.4844 11.1925C53.9062 11.6144 54.5625 11.6144 54.9844 11.1925L55.4531 10.7238C55.875 10.3019 55.875 9.64563 55.4531 9.22376Z" fill="#F0F1EE"/>
<path d="M55.4531 9.22376L49.0781 2.84876C48.6562 2.42688 48 2.42688 47.5781 2.84876L47.1094 3.31751C46.6875 3.73938 46.6875 4.39563 47.1094 4.81751L48.3281 6.03626L28.5469 25.8175L32.4844 29.755L52.2656 9.97376L53.4844 11.1925C53.9062 11.6144 54.5625 11.6144 54.9844 11.1925L55.4531 10.7238C55.875 10.3019 55.875 9.64563 55.4531 9.22376Z" fill="white"/>
<path d="M34.5 32.3331C34.3594 32.3331 34.2187 32.2862 34.0781 32.1456L26.1562 24.2238C25.9219 23.9894 25.9219 23.6144 26.1562 23.38C26.3906 23.1456 26.7656 23.1456 27 23.38L34.9219 31.3019C35.1562 31.5362 35.1562 31.9112 34.9219 32.1456C34.7812 32.2394 34.6406 32.3331 34.5 32.3331Z" fill="#3B548E"/>
<path d="M24.6094 30.3175C24.4687 30.3175 24.3281 30.2706 24.1875 30.13L22.2187 28.1613C21.9844 27.9269 21.9844 27.5519 22.2187 27.3175C22.4531 27.0831 22.8281 27.0831 23.0625 27.3175L25.0312 29.2863C25.2656 29.5206 25.2656 29.8956 25.0312 30.13C24.8906 30.2706 24.75 30.3175 24.6094 30.3175Z" fill="#3B548E"/>
<path d="M20.625 34.3019C20.4844 34.3019 20.3437 34.255 20.2031 34.1144L18.2344 32.1456C18 31.9113 18 31.5363 18.2344 31.3019C18.4688 31.0675 18.8437 31.0675 19.0781 31.3019L21.0469 33.2706C21.2812 33.505 21.2812 33.88 21.0469 34.1144C20.9531 34.255 20.8125 34.3019 20.625 34.3019Z" fill="#3B548E"/>
<path d="M32.4844 30.3175C32.3438 30.3175 32.2031 30.2706 32.0625 30.13L28.125 26.1925C27.8906 25.9581 27.8906 25.5831 28.125 25.3488L47.9062 5.5675C48.1406 5.33313 48.5156 5.33313 48.75 5.5675L52.6875 9.50501C52.9219 9.73938 52.9219 10.1144 52.6875 10.3488L32.9062 30.1769C32.8125 30.2706 32.6719 30.3175 32.4844 30.3175ZM29.3906 25.8175L32.5312 28.9581L51.4687 10.0206L48.3281 6.88001L29.3906 25.8175Z" fill="#3B548E"/>
<path d="M49.4531 19.0206L39.2813 8.84875C38.8125 8.38 38.0625 8.38 37.6406 8.84875L37.3125 9.17688C36.8437 9.64563 36.8437 10.3956 37.3125 10.8175L47.5313 21.0363C48 21.505 48.75 21.505 49.1719 21.0363L49.5 20.7081C49.9219 20.2394 49.9219 19.4894 49.4531 19.0206Z" fill="white"/>
<path d="M48.3281 21.9269C47.8594 21.9269 47.4375 21.7394 47.0625 21.4113L36.8906 11.2394C36.1875 10.5363 36.1875 9.45813 36.8906 8.755L37.2188 8.42688C37.875 7.77063 39.0469 7.77063 39.7031 8.42688L49.9219 18.6456C50.625 19.3488 50.625 20.4269 49.9219 21.13L49.5937 21.4581C49.2187 21.7863 48.7969 21.9269 48.3281 21.9269ZM38.4375 9.08313C38.2969 9.08313 38.1563 9.13001 38.0156 9.27063L37.6875 9.55188C37.4531 9.78626 37.4531 10.1613 37.6875 10.3956L47.9062 20.6144C48.1406 20.8488 48.5156 20.8488 48.75 20.6144L49.0781 20.2863C49.3125 20.0519 49.3125 19.6769 49.0781 19.4425L38.8594 9.27063C38.7188 9.13001 38.5781 9.08313 38.4375 9.08313Z" fill="#3B548E"/>
<path opacity="0.2" d="M47.1363 7.2559L51.0806 11.2002L52.3069 9.97382L48.3627 6.02953L47.1363 7.2559Z" fill="#3B548E"/>
<path d="M55.4062 9.17688L49.125 2.89563C48.6563 2.42688 47.9063 2.42688 47.4844 2.89563L47.1563 3.22375C46.6875 3.69251 46.6875 4.44251 47.1563 4.86438L53.4375 11.1456C53.9063 11.6144 54.6563 11.6144 55.0781 11.1456L55.4062 10.8175C55.875 10.3488 55.875 9.59876 55.4062 9.17688Z" fill="#A1C887"/>
<path d="M54.2344 12.0831C53.7656 12.0831 53.3438 11.8956 52.9688 11.5675L46.7344 5.28626C46.4062 4.95813 46.2188 4.53626 46.2188 4.02063C46.2188 3.50501 46.4062 3.13001 46.7344 2.75501L47.0625 2.42688C47.7188 1.77063 48.8906 1.77063 49.5469 2.42688L55.7813 8.66126C56.1094 8.98938 56.2969 9.41126 56.2969 9.92689C56.2969 10.4425 56.1094 10.8175 55.7813 11.1925L55.4531 11.5206C55.1719 11.8956 54.7031 12.0831 54.2344 12.0831ZM48.3281 3.13001C48.1875 3.13001 48.0469 3.17688 47.9063 3.31751L47.5781 3.64563C47.4844 3.73938 47.3906 3.92688 47.3906 4.06751C47.3906 4.20813 47.4375 4.34876 47.5781 4.48938L53.8125 10.7238C54.0469 10.9581 54.4219 10.9581 54.6563 10.7238L54.9844 10.3956C55.0781 10.3019 55.1719 10.1144 55.1719 9.97376C55.1719 9.83314 55.125 9.69251 54.9844 9.55189L48.75 3.31751C48.6094 3.22376 48.4688 3.13001 48.3281 3.13001Z" fill="#3B548E"/>
<path d="M14.8594 43.7706L14.5313 43.4425C14.0625 42.9738 14.0625 42.2238 14.5313 41.8019L17.6719 38.6613L19.6406 40.63L16.5469 43.7706C16.0781 44.1925 15.3281 44.1925 14.8594 43.7706Z" fill="#898288"/>
<path opacity="0.2" d="M16.4507 39.8792L18.4395 41.8679L19.6658 40.6415L17.6771 38.6528L16.4507 39.8792Z" fill="#3B548E"/>
<path d="M15.7031 44.6613C15.2344 44.6613 14.8125 44.4738 14.4375 44.1456L14.1094 43.8175C13.4063 43.1144 13.4063 42.0363 14.1094 41.3331L17.25 38.1925C17.4844 37.9581 17.8594 37.9581 18.0937 38.1925L20.0625 40.1613C20.1562 40.255 20.25 40.4425 20.25 40.5831C20.25 40.7238 20.2031 40.8644 20.0625 41.005L16.9219 44.1456C16.5937 44.4738 16.1719 44.6613 15.7031 44.6613ZM17.6719 39.4581L14.9531 42.1769C14.7187 42.4113 14.7187 42.7863 14.9531 43.0206L15.2812 43.3488C15.5156 43.5831 15.8906 43.5831 16.125 43.3488L18.8437 40.63L17.6719 39.4581Z" fill="#3B548E"/>
<path d="M4.21875 54.6456C4.07812 54.6456 3.9375 54.5988 3.79687 54.4581C3.5625 54.2238 3.5625 53.8488 3.79687 53.6144L14.2969 43.1144C14.5312 42.88 14.9062 42.88 15.1406 43.1144C15.375 43.3488 15.375 43.7238 15.1406 43.9581L4.64062 54.505C4.5 54.5988 4.35937 54.6456 4.21875 54.6456Z" fill="#37474F"/>
<g opacity="0.5">
<path opacity="0.5" d="M16.6875 37.6769C15.6094 36.5987 15.6094 34.8175 16.6875 33.7394L38.4375 11.9425L46.3593 19.8644C36.8906 20.755 27.0469 27.3175 16.6875 37.6769Z" fill="#A1C887"/>
</g>
<path d="M22.6406 43.2081C21.8437 43.2081 21.1406 42.9269 20.5781 42.3644L15.9375 37.7706C15.375 37.2081 15.0938 36.4581 15.0938 35.7081C15.0938 34.9581 15.375 34.2081 15.9375 33.6456L38.0156 11.5675C38.25 11.3331 38.625 11.3331 38.8593 11.5675L46.7812 19.4894C47.0156 19.7238 47.0156 20.0988 46.7812 20.3331L24.7031 42.3644C24.1406 42.88 23.3906 43.2081 22.6406 43.2081ZM38.4375 12.7863L16.7812 34.4425C16.0781 35.1456 16.0781 36.2238 16.7812 36.9269L21.375 41.5206C22.0312 42.1769 23.2031 42.1769 23.8594 41.5206L45.5156 19.8644L38.4375 12.7863Z" fill="#3B548E"/>
</svg>
