<svg width="50" height="50" viewBox="0 0 50 50" fill="none" xmlns="http://www.w3.org/2000/svg">
<circle cx="25" cy="25" r="25" fill="#B1BBD2"/>
<path d="M20.9712 13.6306H20.2292C19.4532 13.6306 18.8188 14.2593 18.8188 15.041V16.4966H20.9712V13.6306ZM20.4841 15.1429C20.4784 15.1656 20.4728 15.1939 20.4614 15.2166C20.4501 15.2392 20.4388 15.2619 20.4274 15.2845C20.4104 15.3072 20.3991 15.3242 20.3765 15.3468C20.3028 15.4205 20.2009 15.4658 20.0933 15.4658C20.0649 15.4658 20.0423 15.4658 20.014 15.4601C19.9913 15.4544 19.963 15.4488 19.9403 15.4375C19.9177 15.4261 19.895 15.4148 19.8724 15.3978C19.8497 15.3808 19.8327 15.3695 19.8101 15.3468C19.7931 15.3298 19.7761 15.3072 19.7591 15.2845C19.7421 15.2619 19.7308 15.2392 19.7251 15.2166C19.7138 15.1939 19.7081 15.1656 19.7024 15.1429C19.6968 15.1203 19.6968 15.0919 19.6968 15.0636C19.6968 15.0353 19.6968 15.0126 19.7024 14.9843C19.7081 14.9617 19.7138 14.9333 19.7251 14.9107C19.7364 14.888 19.7478 14.8654 19.7591 14.8427C19.7761 14.8201 19.7874 14.7974 19.8101 14.7804C19.9007 14.6898 20.0366 14.6445 20.1669 14.6728C20.1896 14.6785 20.2179 14.6841 20.2405 14.6955C20.2632 14.7068 20.2858 14.7181 20.3085 14.7294C20.3312 14.7464 20.3481 14.7578 20.3708 14.7804C20.3878 14.7974 20.4048 14.8201 20.4218 14.8427C20.4388 14.8654 20.4501 14.888 20.4558 14.9107C20.4671 14.9333 20.4728 14.9617 20.4784 14.9843C20.4841 15.0126 20.4841 15.0353 20.4841 15.0636C20.4954 15.0863 20.4897 15.1146 20.4841 15.1429Z" fill="white"/>
<path d="M30.181 15.041C30.181 14.265 29.5522 13.6306 28.7706 13.6306H21.7642V16.491H30.1866V15.041H30.181ZM25.2985 15.4601H23.7013C23.4804 15.4601 23.3048 15.2845 23.3048 15.0636C23.3048 14.8427 23.4804 14.6671 23.7013 14.6671H25.2985C25.5194 14.6671 25.695 14.8427 25.695 15.0636C25.695 15.2845 25.5194 15.4601 25.2985 15.4601Z" fill="white"/>
<path d="M33.6815 20.705C33.4776 20.7787 33.3643 21.0052 33.4379 21.2091C33.8061 22.2626 33.993 23.3671 33.993 24.4943C33.993 25.6214 33.8061 26.7316 33.4379 27.7794C33.3643 27.9834 33.4719 28.2099 33.6815 28.2835C33.7268 28.3005 33.7721 28.3062 33.8118 28.3062C33.976 28.3062 34.129 28.2042 34.1856 28.04C34.5877 26.9015 34.786 25.7064 34.786 24.4886C34.786 23.2709 34.5821 22.0757 34.1856 20.9373C34.112 20.7447 33.8854 20.6314 33.6815 20.705Z" fill="white"/>
<path d="M35.358 20.1159C35.1541 20.1896 35.0408 20.4161 35.1145 20.62C35.5506 21.8605 35.7715 23.1689 35.7715 24.4999C35.7715 25.831 35.5506 27.1337 35.1145 28.3798C35.0408 28.5837 35.1484 28.8103 35.358 28.8839C35.4033 28.9009 35.443 28.9066 35.4883 28.9066C35.6525 28.9066 35.8055 28.8046 35.8621 28.6404C36.3266 27.315 36.5645 25.9216 36.5645 24.4999C36.5645 23.0782 36.3266 21.6849 35.8621 20.3595C35.7941 20.1556 35.5676 20.0423 35.358 20.1159Z" fill="white"/>
<path d="M31.9991 21.294C31.7952 21.3677 31.6819 21.5942 31.7556 21.7981C32.0614 22.6647 32.2144 23.571 32.2144 24.4999C32.2144 25.4288 32.0614 26.3351 31.7556 27.2017C31.6819 27.4056 31.7896 27.6321 31.9991 27.7058C32.0444 27.7228 32.0841 27.7284 32.1294 27.7284C32.2937 27.7284 32.4466 27.6265 32.5032 27.4622C32.8374 26.5106 33.0073 25.5194 33.0073 24.4999C33.0073 23.4804 32.8374 22.4892 32.5032 21.5376C32.4296 21.3337 32.2087 21.2204 31.9991 21.294Z" fill="white"/>
<path d="M37.5442 19.7705C37.4706 19.5666 37.244 19.4533 37.0401 19.5269C36.8362 19.6006 36.723 19.8271 36.7966 20.0311C37.3007 21.4641 37.5556 22.965 37.5556 24.5C37.5556 26.035 37.3007 27.5359 36.7966 28.9689C36.723 29.1728 36.8306 29.3994 37.0401 29.473C37.0855 29.49 37.1251 29.4957 37.1704 29.4957C37.3347 29.4957 37.4876 29.3937 37.5442 29.2295C38.0767 27.7115 38.3429 26.1199 38.3429 24.5C38.3429 22.8801 38.0767 21.2885 37.5442 19.7705Z" fill="white"/>
<path d="M15.3186 20.705C15.1147 20.6314 14.8881 20.739 14.8145 20.9486C14.418 22.0871 14.2141 23.2822 14.2141 24.5C14.2141 25.7177 14.418 26.9128 14.8145 28.0513C14.8711 28.2156 15.0241 28.3175 15.1883 28.3175C15.2336 28.3175 15.279 28.3119 15.3186 28.2949C15.5225 28.2212 15.6358 27.9947 15.5622 27.7908C15.194 26.7373 15.0071 25.6328 15.0071 24.5056C15.0071 23.3785 15.194 22.2683 15.5622 21.2205C15.6358 21.0052 15.5282 20.7787 15.3186 20.705Z" fill="white"/>
<path d="M13.642 20.1159C13.4381 20.0423 13.2115 20.1499 13.1379 20.3595C12.6734 21.6849 12.4355 23.0782 12.4355 24.4999C12.4355 25.9216 12.6734 27.3149 13.1379 28.6403C13.1945 28.8046 13.3475 28.9065 13.5117 28.9065C13.557 28.9065 13.6023 28.9009 13.642 28.8839C13.8459 28.8103 13.9592 28.5837 13.8855 28.3798C13.4494 27.1394 13.2285 25.831 13.2285 24.4999C13.2285 23.1689 13.4494 21.8661 13.8855 20.62C13.9535 20.4161 13.8459 20.1896 13.642 20.1159Z" fill="white"/>
<path d="M17.0006 21.2941C16.7967 21.2205 16.5702 21.3281 16.4965 21.5377C16.1624 22.4893 15.9924 23.4805 15.9924 24.5C15.9924 25.5195 16.1624 26.5107 16.4965 27.4623C16.5532 27.6266 16.7061 27.7285 16.8704 27.7285C16.9157 27.7285 16.961 27.7229 17.0006 27.7059C17.2045 27.6322 17.3178 27.4057 17.2442 27.2018C16.9383 26.3352 16.7854 25.4289 16.7854 24.5C16.7854 23.5711 16.9383 22.6648 17.2442 21.7982C17.3178 21.5943 17.2045 21.3678 17.0006 21.2941Z" fill="white"/>
<path d="M11.9597 19.5269C11.7558 19.4533 11.5292 19.5609 11.4556 19.7705C10.9232 21.2885 10.657 22.8801 10.657 24.5C10.657 26.1199 10.9289 27.7115 11.4556 29.2295C11.5123 29.3937 11.6652 29.4957 11.8294 29.4957C11.8748 29.4957 11.9144 29.49 11.9597 29.473C12.1636 29.3994 12.2769 29.1728 12.2033 28.9689C11.6992 27.5359 11.4443 26.0349 11.4443 24.5C11.4443 22.965 11.6992 21.464 12.2033 20.031C12.2769 19.8271 12.1636 19.6006 11.9597 19.5269Z" fill="white"/>
<path d="M30.181 17.2896H18.8188V29.994H21.6056C21.8265 29.994 22.0021 30.1696 22.0021 30.3905C22.0021 30.6114 21.8265 30.787 21.6056 30.787H18.8188V31.7103H30.1866V17.2896H30.181ZM23.2368 30.4698C23.2312 30.4925 23.2255 30.5208 23.2142 30.5435C23.2028 30.5661 23.1915 30.5888 23.1802 30.6114C23.1632 30.6341 23.1519 30.6511 23.1292 30.6737C23.0556 30.7474 22.9536 30.7927 22.846 30.7927C22.8177 30.7927 22.795 30.787 22.7667 30.787C22.744 30.7813 22.7157 30.7757 22.6931 30.7644C22.6704 30.753 22.6478 30.7417 22.6251 30.7304C22.6024 30.7134 22.5855 30.6964 22.5628 30.6794C22.5458 30.6624 22.5288 30.6397 22.5118 30.6171C22.4948 30.5944 22.4835 30.5718 22.4778 30.5491C22.4665 30.5265 22.4608 30.4981 22.4552 30.4755C22.4495 30.4472 22.4495 30.4245 22.4495 30.3962C22.4495 30.3735 22.4495 30.3452 22.4552 30.3169C22.4608 30.2942 22.4665 30.2659 22.4778 30.2433C22.4892 30.2206 22.5005 30.1979 22.5118 30.1753C22.5288 30.1526 22.5401 30.1356 22.5628 30.113C22.5798 30.096 22.6024 30.079 22.6251 30.062C22.6478 30.045 22.6704 30.0337 22.6931 30.028C22.7157 30.0167 22.744 30.011 22.7667 30.0054C22.8177 29.994 22.8687 29.994 22.9196 30.0054C22.948 30.011 22.9706 30.0167 22.9933 30.028C23.0159 30.0394 23.0386 30.0507 23.0612 30.062C23.0839 30.079 23.1009 30.096 23.1235 30.113C23.1405 30.13 23.1575 30.1526 23.1745 30.1753C23.1915 30.1979 23.2028 30.2206 23.2085 30.2433C23.2198 30.2659 23.2255 30.2942 23.2312 30.3169C23.2368 30.3395 23.2368 30.3679 23.2368 30.3962C23.2368 30.4245 23.2425 30.4415 23.2368 30.4698ZM28.2212 26.0972H26.1028V28.2155H22.9026V26.0972H20.7843V22.897H22.9026V20.7786H26.1028V22.897H28.2212V26.0972Z" fill="white"/>
<path d="M18.8188 33.959C18.8188 34.7349 19.4476 35.3693 20.2292 35.3693H28.7763C29.5522 35.3693 30.1866 34.7406 30.1866 33.959V32.5033H18.8188V33.959ZM24.2167 33.6588C24.3073 33.5681 24.4433 33.5228 24.5735 33.5511C24.5962 33.5568 24.6245 33.5625 24.6472 33.5738C24.6698 33.5851 24.6925 33.5965 24.7151 33.6135C24.7378 33.6304 24.7548 33.6418 24.7774 33.6644C24.8511 33.7381 24.8964 33.84 24.8964 33.942C24.8964 34.0439 24.8511 34.1459 24.7774 34.2252C24.7038 34.2988 24.6019 34.3385 24.4999 34.3385C24.4716 34.3385 24.4489 34.3385 24.4206 34.3328C24.398 34.3271 24.3696 34.3215 24.347 34.3101C24.3243 34.2988 24.3017 34.2875 24.279 34.2761C24.2563 34.2592 24.2394 34.2478 24.2167 34.2252C24.1431 34.1515 24.1034 34.0496 24.1034 33.942C24.1034 33.8344 24.1487 33.7324 24.2167 33.6588Z" fill="white"/>
</svg>
